<svg width="130" height="130" viewBox="0 0 130 130" fill="none" xmlns="http://www.w3.org/2000/svg">
<path fill-rule="evenodd" clip-rule="evenodd" d="M60 130C93.1371 130 120 103.137 120 70C120 36.8629 93.1371 10 60 10C26.8629 10 0 36.8629 0 70C0 103.137 26.8629 130 60 130Z" fill="url(#paint0_linear)"/>
<path fill-rule="evenodd" clip-rule="evenodd" d="M99.1598 81.6784C97.4056 81.6784 95.7771 82.469 94.8419 83.713V70.0074H81.1948C82.3824 70.9426 83.1324 72.5875 83.1324 74.2956C83.1324 77.4529 80.5729 80.0007 77.4156 80.0007C74.2583 80.0007 71.6988 77.4389 71.6988 74.2816C71.6988 72.5735 72.4488 70.9426 73.6362 70.0074H60.0076V83.5218C59.0724 82.3886 57.4272 81.6784 55.7648 81.6784C52.6075 81.6784 50.0283 84.2379 50.0283 87.3952C50.0283 90.5525 52.6173 93.112 55.7746 93.112C57.4373 93.112 59.0726 92.4017 60.0078 91.2686V104.842H94.8422V91.0773C95.7773 92.3211 97.4059 93.112 99.16 93.112C102.317 93.112 104.877 90.5525 104.877 87.3952C104.877 84.2379 102.317 81.6784 99.1598 81.6784Z" fill="white"/>
<path opacity="0.4" fill-rule="evenodd" clip-rule="evenodd" d="M99.1596 81.6784C97.4055 81.6784 95.777 82.469 94.8418 83.713V70.0074H87.3606V104.842H94.8418V91.0773C95.777 92.3211 97.4055 93.112 99.1596 93.112C102.317 93.112 104.876 90.5525 104.876 87.3952C104.876 84.2379 102.317 81.6784 99.1596 81.6784Z" fill="url(#paint1_linear)"/>
<path fill-rule="evenodd" clip-rule="evenodd" d="M94.8417 35.173H81.1946C82.3822 34.2379 83.1322 32.6004 83.1322 30.8926C83.1322 27.7353 80.5727 25.1793 77.4154 25.1793C74.2581 25.1793 71.6986 27.7335 71.6986 30.8908C71.6986 32.5988 72.4486 34.2379 73.636 35.173H60.0073V48.1511C60.9425 46.9073 62.5855 46.1164 64.3396 46.1164C67.4969 46.1164 70.0368 48.6759 70.0368 51.8332C70.0368 54.9905 67.5068 57.55 64.3495 57.55C62.5954 57.55 60.9425 56.7594 60.0073 55.5154V70.0074H73.636C72.4486 70.9426 71.6986 72.5796 71.6986 74.2876C71.6986 77.4449 74.2581 80.0007 77.4154 80.0007C80.5727 80.0007 83.1322 77.4468 83.1322 74.2895C83.1322 72.5814 82.3822 70.9426 81.1946 70.0074H94.8417V35.173Z" fill="url(#paint2_linear)"/>
<rect x="87.3606" y="35.1731" width="7.48121" height="34.8344" fill="#FD5F5A"/>
<path fill-rule="evenodd" clip-rule="evenodd" d="M64.3398 46.1165C62.5857 46.1165 60.9426 46.9071 60.0074 48.1511V35.1731H25.1731V47.9599C24.2379 46.8267 22.6072 46.1165 20.9448 46.1165C17.7875 46.1165 15.2156 48.676 15.2156 51.8333C15.2156 54.9906 17.7938 57.5501 20.9509 57.5501C22.6136 57.5501 24.2379 56.8398 25.1731 55.7067V70.0075H38.819C37.6386 69.0723 36.8933 67.4199 36.8933 65.7179C36.8933 62.5606 39.4528 59.9948 42.6101 59.9948C45.7674 59.9948 48.3269 62.5641 48.3269 65.7214C48.3269 67.4236 47.5816 69.0726 46.4012 70.0077H60.0074V55.5157C60.9426 56.7594 62.5857 57.5503 64.3398 57.5503C67.4971 57.5503 70.0566 54.9908 70.0566 51.8335C70.0566 48.676 67.4971 46.1165 64.3398 46.1165Z" fill="white"/>
<path fill-rule="evenodd" clip-rule="evenodd" d="M55.7647 81.6783C57.4274 81.6783 59.0723 82.3886 60.0075 83.5217V70.0074H46.3896C47.5772 69.0722 48.3272 67.4203 48.3272 65.7123C48.3272 62.5549 45.7677 59.9917 42.6104 59.9917C39.4531 59.9917 36.8936 62.5568 36.8936 65.7141C36.8936 67.4222 37.6436 69.0722 38.831 70.0074H25.1731V104.842H38.831C37.6436 105.777 36.8936 107.399 36.8936 109.107C36.8936 112.265 39.4531 114.813 42.6104 114.813C45.7677 114.813 48.3272 112.27 48.3272 109.113C48.3272 107.405 47.5772 105.777 46.3896 104.842H60.0075V91.2688C59.0723 92.4019 57.4272 93.1122 55.7647 93.1122C52.6074 93.1122 50.0479 90.5527 50.0479 87.3954C50.0479 84.2378 52.6074 81.6783 55.7647 81.6783Z" fill="url(#paint3_linear)"/>
<path fill-rule="evenodd" clip-rule="evenodd" d="M110 40C121.046 40 130 31.0457 130 20C130 8.9543 121.046 0 110 0C98.9543 0 90 8.9543 90 20C90 31.0457 98.9543 40 110 40Z" fill="url(#paint4_linear)"/>
<path fill-rule="evenodd" clip-rule="evenodd" d="M107 39.7765C107.979 39.9237 108.98 40 110 40C121.046 40 130 31.0457 130 20C130 8.9543 121.046 0 110 0C108.98 0 107.979 0.0762996 107 0.223501C116.623 1.67095 124 9.97392 124 20C124 30.0261 116.623 38.329 107 39.7765Z" fill="url(#paint5_linear)"/>
<path fill-rule="evenodd" clip-rule="evenodd" d="M109.153 28L100 19.9234L103.152 17.1423L109.153 22.4377L119.848 13L123 15.7811L109.153 28Z" fill="white"/>
<defs>
<linearGradient id="paint0_linear" x1="60" y1="190" x2="180" y2="70" gradientUnits="userSpaceOnUse">
<stop stop-color="#FFDDC3"/>
<stop offset="1" stop-color="#FFE5D3"/>
</linearGradient>
<linearGradient id="paint1_linear" x1="96.1185" y1="122.259" x2="124.08" y2="108.199" gradientUnits="userSpaceOnUse">
<stop stop-color="#CFDDF2"/>
<stop offset="1" stop-color="#DFEAF9"/>
</linearGradient>
<linearGradient id="paint2_linear" x1="56.7259" y1="41.4668" x2="93.7313" y2="81.039" gradientUnits="userSpaceOnUse">
<stop stop-color="#FF7E72"/>
<stop offset="1" stop-color="#FF5E5E"/>
</linearGradient>
<linearGradient id="paint3_linear" x1="25.1731" y1="59.9917" x2="25.1731" y2="114.813" gradientUnits="userSpaceOnUse">
<stop stop-color="#00A07D"/>
<stop offset="1" stop-color="#2CBB9C"/>
</linearGradient>
<linearGradient id="paint4_linear" x1="110" y1="60" x2="150" y2="20" gradientUnits="userSpaceOnUse">
<stop stop-color="#BFED91"/>
<stop offset="1" stop-color="#CCFDAE"/>
</linearGradient>
<linearGradient id="paint5_linear" x1="118.5" y1="-20" x2="83.9298" y2="-0.122123" gradientUnits="userSpaceOnUse">
<stop stop-color="#9DE988"/>
<stop offset="1" stop-color="#9AE9A0"/>
</linearGradient>
</defs>
</svg>
