<svg width="170" height="170" viewBox="0 0 170 170" fill="none" xmlns="http://www.w3.org/2000/svg">
<path fill-rule="evenodd" clip-rule="evenodd" d="M78 170C121.078 170 156 135.078 156 92C156 48.9218 121.078 14 78 14C34.9218 14 0 48.9218 0 92C0 135.078 34.9218 170 78 170Z" fill="#FFE2CD"/>
<path fill-rule="evenodd" clip-rule="evenodd" d="M86.2901 126.262C84.6454 124.617 82.3771 123.832 80.3339 124.121L93.1846 111.271L80.3887 98.4749C80.6254 100.465 79.7863 102.711 78.1848 104.312C75.2244 107.273 70.4357 107.262 67.4753 104.301C64.515 101.341 64.5172 96.5391 67.4775 93.5787C69.079 91.9772 71.3114 91.1512 73.3016 91.3878L60.523 78.6092L47.8517 91.2806C48.0373 89.3413 47.1607 87.1328 45.602 85.574C42.6416 82.6136 37.8235 82.5952 34.8631 85.5556C31.9027 88.516 31.9304 93.3433 34.8907 96.3036C36.4497 97.8626 38.649 98.73 40.5883 98.5444L27.8617 111.271L60.5232 143.932L73.4291 131.027C73.1398 133.07 73.9252 135.338 75.5699 136.983C78.5303 139.943 83.33 139.943 86.2903 136.983C89.2505 134.022 89.2505 129.223 86.2901 126.262Z" fill="white" stroke="#323A4A" stroke-width="0.6" stroke-linecap="round" stroke-linejoin="round"/>
<path opacity="0.1" fill-rule="evenodd" clip-rule="evenodd" d="M86.2898 126.262C84.6451 124.617 82.3768 123.832 80.3336 124.121L93.1843 111.271L90.1477 108.234L57.4862 140.896L60.5227 143.932L73.4286 131.026C73.1393 133.069 73.9247 135.338 75.5694 136.983C78.5298 139.943 83.3295 139.943 86.2898 136.983C89.2502 134.022 89.2502 129.222 86.2898 126.262Z" fill="#323A4A"/>
<path d="M125.846 78.6092L113.05 65.8133C115.04 66.05 117.279 65.2179 118.88 63.6166C121.841 60.6563 121.837 55.8599 118.877 52.8995C115.917 49.9391 111.122 49.9341 108.162 52.8944C106.56 54.496 105.726 56.736 105.963 58.7262L93.1843 45.9476L81.0158 58.1161C83.0588 57.8268 85.341 58.6258 86.9857 60.2705C89.946 63.2308 89.9276 68.0121 86.9672 70.9725C84.0069 73.9329 79.2348 73.9605 76.2744 71.0001C74.6297 69.3554 73.8213 67.0643 74.1109 65.0211L60.5228 78.6092L73.3013 91.3877C71.3112 91.1512 69.0731 91.9828 67.4716 93.5844C64.5112 96.5447 64.5147 101.341 67.4751 104.301C70.4355 107.262 75.2299 107.267 78.1903 104.307C79.7918 102.705 80.6252 100.465 80.3885 98.4748L93.1843 111.271L125.846 78.6092Z" fill="#F45E5D" stroke="#404A59" stroke-width="0.6"/>
<path opacity="0.1" fill-rule="evenodd" clip-rule="evenodd" d="M122.81 75.5726L125.846 78.6092L93.1846 111.271L90.148 108.234L122.81 75.5726Z" fill="#323A4A"/>
<path fill-rule="evenodd" clip-rule="evenodd" d="M143 53C157.359 53 169 41.3594 169 27C169 12.6406 157.359 1 143 1C128.641 1 117 12.6406 117 27C117 41.3594 128.641 53 143 53Z" fill="white" stroke="#323A4A" stroke-width="0.6" stroke-linecap="round" stroke-linejoin="round"/>
<path opacity="0.14" fill-rule="evenodd" clip-rule="evenodd" d="M139.1 52.7095C140.372 52.9008 141.675 53 143 53C157.36 53 169 41.3594 169 27C169 12.6406 157.36 1 143 1C141.675 1 140.372 1.09919 139.1 1.29055C151.609 3.17224 161.2 13.9661 161.2 27C161.2 40.0339 151.609 50.8278 139.1 52.7095Z" fill="#323A4A"/>
<path fill-rule="evenodd" clip-rule="evenodd" d="M141.899 37.4L130 26.9004L134.097 23.285L141.899 30.169L155.803 17.9L159.9 21.5154L141.899 37.4Z" fill="white" stroke="#323A4A" stroke-width="0.6" stroke-linecap="round" stroke-linejoin="round"/>
</svg>
