<svg id="Layer_1" data-name="Layer 1" xmlns="http://www.w3.org/2000/svg" xmlns:xlink="http://www.w3.org/1999/xlink" viewBox="0 0 284 225.42"><defs><style>.cls-1{fill:#fff;}.cls-2{fill:#fbfbfd;}.cls-3{mask:url(#mask);}.cls-4{fill:#e8e8ee;}.cls-5{fill:#2c2d52;}.cls-6{fill:#1bb191;}.cls-7{mask:url(#mask-2);}.cls-8{fill:#02c8be;}.cls-9{mask:url(#mask-3);}.cls-10{fill:#ff6b65;}.cls-11{mask:url(#mask-4);}.cls-12{mask:url(#mask-5);}.cls-13{fill:#0ae8ad;}.cls-14{mask:url(#mask-21);}.cls-15{fill:#04daa2;}.cls-16{mask:url(#mask-22);}.cls-17{mask:url(#mask-23);}.cls-18{mask:url(#mask-24);}.cls-19{mask:url(#mask-25);}.cls-20{mask:url(#mask-26);}.cls-21{mask:url(#mask-27);}.cls-22{mask:url(#mask-28);}.cls-23{mask:url(#mask-29);}.cls-24{mask:url(#mask-31);}.cls-25{fill:#ff6d66;}.cls-26{mask:url(#mask-33);}.cls-27{fill:#f2635f;}.cls-28{mask:url(#mask-34);}.cls-29{fill:#c5f59f;}.cls-30{fill:#563acc;}.cls-31{mask:url(#mask-36);}.cls-32{fill:#695de2;}.cls-33{mask:url(#mask-37);}.cls-34{mask:url(#mask-38);}.cls-35{fill:#1a7fb7;}.cls-36{mask:url(#mask-42);}.cls-37{mask:url(#mask-43);}.cls-38{mask:url(#mask-44);}.cls-39{fill:#ffe182;}.cls-40{mask:url(#mask-48);}.cls-41{fill:#ff0f0f;}.cls-42{mask:url(#mask-49);}.cls-43{mask:url(#mask-50);}.cls-44{mask:url(#mask-51);}.cls-45{mask:url(#mask-52);}.cls-46{mask:url(#mask-53);}.cls-47{mask:url(#mask-60);}.cls-48{mask:url(#mask-61);}.cls-49{mask:url(#mask-62);}.cls-50{fill:#2086d1;}.cls-51{mask:url(#mask-63);}.cls-52{mask:url(#mask-76);}.cls-53{mask:url(#mask-77);}.cls-54{mask:url(#mask-78);}.cls-55{mask:url(#mask-79);}.cls-56{mask:url(#mask-80);}.cls-57{mask:url(#mask-81);}.cls-58{mask:url(#mask-84);}.cls-59{mask:url(#mask-85);}.cls-60{mask:url(#mask-86);}</style><mask id="mask" x="-1.9" y="-58.58" width="289.85" height="297.86" maskUnits="userSpaceOnUse"><g id="A"><path class="cls-1" d="M142,225.42A142,142,0,1,0,0,83.42,142,142,0,0,0,142,225.42Z"/></g></mask><mask id="mask-2" x="127.28" y="123.46" width="29.43" height="29.82" maskUnits="userSpaceOnUse"><g id="B"><path class="cls-1" d="M128.87,133.34l17.89,18.95,10-9.71L139,123.46l-10.1,9.88Z"/></g></mask><mask id="mask-3" x="28.37" y="137.39" width="113.14" height="96" maskUnits="userSpaceOnUse"><g id="C"><path id="Ap" class="cls-1" d="M129.66,141c-2.18,2.31-4.45,6.4-14.39,8.86s-34.2,3.87-51.95,20.65S45.19,214.81,45.11,217.2L29.33,230.89l87.42.74s-16.39-10.57-25-12.69-9.63-8.47-9.63-8.47-6.43,5.43-11.42.43-5.15-21,2.8-28.4,17.84-13.12,31-17.47S135,154.57,139.44,148s.53-5.77-.31-4.9c0,0,.84-1.59,0-2.3a1.61,1.61,0,0,0-2,.08s.94-1,0-1.8c-.67-.55-1.9.59-1.9.59s1.18-1.5-.07-2.13a1.18,1.18,0,0,0-.56-.13c-1.26,0-3.06,1.6-4.94,3.6Z"/></g></mask><mask id="mask-4" x="28.33" y="137.39" width="113.17" height="96.04" maskUnits="userSpaceOnUse"><g id="D"><path id="Ap-2" data-name="Ap" class="cls-1" d="M129.66,141c-2.18,2.31-4.45,6.4-14.39,8.86s-34.2,3.87-51.95,20.65S45.19,214.81,45.11,217.2L29.33,230.89l87.42.74s-16.39-10.57-25-12.69-9.63-8.47-9.63-8.47-6.43,5.43-11.42.43-5.15-21,2.8-28.4,17.84-13.12,31-17.47S135,154.57,139.44,148s.53-5.77-.31-4.9c0,0,.84-1.59,0-2.3a1.61,1.61,0,0,0-2,.08s.94-1,0-1.8c-.67-.55-1.9.59-1.9.59s1.18-1.5-.07-2.13a1.18,1.18,0,0,0-.56-.13c-1.26,0-3.06,1.6-4.94,3.6Z"/></g></mask><mask id="mask-5" x="29.33" y="137.39" width="112.17" height="94.24" maskUnits="userSpaceOnUse"><g id="E"><path id="Ap-3" data-name="Ap" class="cls-1" d="M129.66,141c-2.18,2.31-4.45,6.4-14.39,8.86s-34.2,3.87-51.95,20.65S45.19,214.81,45.11,217.2L29.33,230.89l87.42.74s-16.39-10.57-25-12.69-9.63-8.47-9.63-8.47-6.43,5.43-11.42.43-5.15-21,2.8-28.4,17.84-13.12,31-17.47S135,154.57,139.44,148s.53-5.77-.31-4.9c0,0,.84-1.59,0-2.3a1.61,1.61,0,0,0-2,.08s.94-1,0-1.8c-.67-.55-1.9.59-1.9.59s1.18-1.5-.07-2.13a1.18,1.18,0,0,0-.56-.13c-1.26,0-3.06,1.6-4.94,3.6Z"/></g></mask><mask id="mask-21" x="1.46" y="152.52" width="50.76" height="80.27" maskUnits="userSpaceOnUse"><g id="V"><path id="Ar" class="cls-1" d="M5.06,232.08l8.13.71c25.67-37.55,34.56-62.18,34.56-62.18l-.73-.69c-9.37-.78-40.89-17.4-40.89-17.4"/></g></mask><mask id="mask-22" x="-0.06" y="152.52" width="51.14" height="80.27" maskUnits="userSpaceOnUse"><g id="W"><path id="Ar-2" data-name="Ar" class="cls-1" d="M5.06,232.08l8.13.71c25.67-37.55,34.56-62.18,34.56-62.18l-.73-.69c-9.37-.78-40.89-17.4-40.89-17.4"/></g></mask><mask id="mask-23" x="-4.57" y="152.52" width="52.32" height="80.27" maskUnits="userSpaceOnUse"><g id="X"><path id="Ar-3" data-name="Ar" class="cls-1" d="M5.06,232.08l8.13.71c25.67-37.55,34.56-62.18,34.56-62.18l-.73-.69c-9.37-.78-40.89-17.4-40.89-17.4"/></g></mask><mask id="mask-24" x="-7.1" y="152.52" width="54.85" height="80.27" maskUnits="userSpaceOnUse"><g id="Y"><path id="Ar-4" data-name="Ar" class="cls-1" d="M5.06,232.08l8.13.71c25.67-37.55,34.56-62.18,34.56-62.18l-.73-.69c-9.37-.78-40.89-17.4-40.89-17.4"/></g></mask><mask id="mask-25" x="-11.36" y="152.52" width="59.11" height="80.27" maskUnits="userSpaceOnUse"><g id="Z"><path id="Ar-5" data-name="Ar" class="cls-1" d="M5.06,232.08l8.13.71c25.67-37.55,34.56-62.18,34.56-62.18l-.73-.69c-9.37-.78-40.89-17.4-40.89-17.4"/></g></mask><mask id="mask-26" x="-15.19" y="152.52" width="62.94" height="80.27" maskUnits="userSpaceOnUse"><g id="a-2" data-name="a"><path id="Ar-6" data-name="Ar" class="cls-1" d="M5.06,232.08l8.13.71c25.67-37.55,34.56-62.18,34.56-62.18l-.73-.69c-9.37-.78-40.89-17.4-40.89-17.4"/></g></mask><mask id="mask-27" x="-18.78" y="152.52" width="66.53" height="80.27" maskUnits="userSpaceOnUse"><g id="b-2" data-name="b"><path id="Ar-7" data-name="Ar" class="cls-1" d="M5.06,232.08l8.13.71c25.67-37.55,34.56-62.18,34.56-62.18l-.73-.69c-9.37-.78-40.89-17.4-40.89-17.4"/></g></mask><mask id="mask-28" x="-21.75" y="152.52" width="69.5" height="82.9" maskUnits="userSpaceOnUse"><g id="c-2" data-name="c"><path id="Ar-8" data-name="Ar" class="cls-1" d="M5.06,232.08l8.13.71c25.67-37.55,34.56-62.18,34.56-62.18l-.73-.69c-9.37-.78-40.89-17.4-40.89-17.4"/></g></mask><mask id="mask-29" x="-1.66" y="83.68" width="67.51" height="88.13" maskUnits="userSpaceOnUse"><g id="d-2" data-name="d"><path id="As" class="cls-1" d="M48.07,86.12s2.31,10.36-5.71,13.52-16.24,7.5-25.36,19.6c-8.6,11.4-27.72,41.42-13.65,38.44s13.87,8.1,26.35,11.52c9.34,2.56,19.54,4.82,19.7-1.32.55-21.32,4.87-24.61,13-34.39s-.64-25.74-2.24-32.5c-.42-1.76,1.26-15.31,1.26-15.31L57,84.88l-7.85-1.2a5.19,5.19,0,0,1-1.1,2.44Z"/></g></mask><mask id="mask-31" x="-1.66" y="82.03" width="67.51" height="89.78" maskUnits="userSpaceOnUse"><g id="f-2" data-name="f"><path id="As-3" data-name="As" class="cls-1" d="M48.07,86.12s2.31,10.36-5.71,13.52-16.24,7.5-25.36,19.6c-8.6,11.4-27.72,41.42-13.65,38.44s13.87,8.1,26.35,11.52c9.34,2.56,19.54,4.82,19.7-1.32.55-21.32,4.87-24.61,13-34.39s-.64-25.74-2.24-32.5c-.42-1.76,1.26-15.31,1.26-15.31L57,84.88l-7.85-1.2a5.19,5.19,0,0,1-1.1,2.44Z"/></g></mask><mask id="mask-33" x="112.63" y="73.09" width="30.94" height="26.67" maskUnits="userSpaceOnUse"><g id="h-2" data-name="h"><path class="cls-1" d="M113.56,88.6l8.91,11.16,21.1-14.48L135,73.72,113.56,88.6Z"/></g></mask><mask id="mask-34" x="37.5" y="73.53" width="94.86" height="59.96" maskUnits="userSpaceOnUse"><g id="i-2" data-name="i"><path id="At" class="cls-1" d="M110.48,74.56c-12.36,3.1-16.27,19.9-16.27,19.9s-4.35,17.3-14,21.52-16.45-.31-20.42-4.24c0,0-11.43-14.64-19.69-7.94s4.84,21.27,17.47,25.49,31,8.89,40.08-5.79S100,85.9,117.08,83.23c3.33-.52,6.15,4,7.52,4.13s2.06-.72,1.85-1.56c0,0,2.83.08,1.62-2.38,0,0,3.4.91,1.71-2.07,0,0,2.3,1.15,2.57-.57.22-1.41-4-7.25-14.08-7.25a32.51,32.51,0,0,0-7.79,1Z"/></g></mask><mask id="mask-36" x="165.67" y="45.22" width="27.21" height="32.95" maskUnits="userSpaceOnUse"><g id="k-2" data-name="k"><path class="cls-1" d="M165.67,53.37l10.47,24.8L190.08,72,178.9,47.12l-13.23,6.26Z"/></g></mask><mask id="mask-37" x="178.36" y="50.97" width="82.85" height="48.86" maskUnits="userSpaceOnUse"><g id="l-2" data-name="l"><path id="Au" class="cls-1" d="M181,52l3.5,7.82a4,4,0,0,1-1,1.15c-2.27,1.71-6.28,2.11-4.77,4.46s5-2.06,8.27-2.85,7,2.88,10.94,7.48S233,109.85,259,92.44l-2.26-21.26s-10.16,16.14-29.33,6.93C210.49,70,195.16,51,184.79,51A7.2,7.2,0,0,0,181,52Z"/></g></mask><mask id="mask-38" x="246.39" y="71.18" width="12.64" height="24.95" maskUnits="userSpaceOnUse"><g id="m-2" data-name="m"><path id="Av" class="cls-1" d="M246.39,79.52c.12,4,.93,11.37,4.82,16.61A28.41,28.41,0,0,0,259,92.44l-2.26-21.26a23.59,23.59,0,0,1-10.37,8.34Z"/></g></mask><mask id="mask-42" x="178.36" y="50.97" width="82.96" height="48.96" maskUnits="userSpaceOnUse"><g id="q-2" data-name="q"><path id="Au-2" data-name="Au" class="cls-1" d="M181,52l3.5,7.82a4,4,0,0,1-1,1.15c-2.27,1.71-6.28,2.11-4.77,4.46s5-2.06,8.27-2.85,7,2.88,10.94,7.48S233,109.85,259,92.44l-2.26-21.26s-10.16,16.14-29.33,6.93C210.49,70,195.16,51,184.79,51A7.2,7.2,0,0,0,181,52Z"/></g></mask><mask id="mask-43" x="47.86" y="67.85" width="20.35" height="20.6" maskUnits="userSpaceOnUse"><g id="r-2" data-name="r"><path id="Aw" class="cls-1" d="M47.86,78.15A10.18,10.18,0,1,0,58,67.85,10.24,10.24,0,0,0,47.86,78.15Z"/></g></mask><mask id="mask-44" x="47.86" y="67.85" width="20.61" height="20.6" maskUnits="userSpaceOnUse"><g id="s-2" data-name="s"><path id="Aw-2" data-name="Aw" class="cls-1" d="M47.86,78.15A10.18,10.18,0,1,0,58,67.85,10.24,10.24,0,0,0,47.86,78.15Z"/></g></mask><mask id="mask-48" x="47.86" y="67.85" width="20.46" height="20.6" maskUnits="userSpaceOnUse"><g id="w-2" data-name="w"><path id="Aw-6" data-name="Aw" class="cls-1" d="M47.86,78.15A10.18,10.18,0,1,0,58,67.85,10.24,10.24,0,0,0,47.86,78.15Z"/></g></mask><mask id="mask-49" x="143.32" y="91.65" width="93.53" height="147.37" maskUnits="userSpaceOnUse"><g id="x-2" data-name="x"><path id="Ax" class="cls-1" d="M182.36,92c-.94.82.28,2,.84,2.33l.08,0-.08,0c-.4-.23-2.28-1.18-3-.11s.87,2.18,1.24,2.42l.07,0-.07,0c-.37-.22-2.07-1.18-2.8-.37-.9,1,.23,2.31.57,2.53l0,0,0,0a1.37,1.37,0,0,0-1.81.28c-.78,1.09.64,2.43,2,3.25,2.34,1.44,5.9,3,7.87,4.21,3.16,2,11.52,5.6,18.94,15.32s13.18,24.62,9.46,36.09-14.46,17.34-21.8,18.55a20.67,20.67,0,0,0-11.74,6.66l-2.8.72s-20.42,7.42-24.89,20.53-8.3,26-8.3,26l18.92.33,6.93-25.06s5.11,23.1,2.6,30.25,62.32,0,62.32,0-2.79-22.54-6.68-35.19-5.09-13.88-4.45-15.73,10.43-22.09,7.48-38.95-12.26-37.1-39.52-49.63l-8.58-4.06a6.16,6.16,0,0,0-2-.63,1.16,1.16,0,0,0-.78.3Z"/></g></mask><mask id="mask-50" x="143.3" y="91.65" width="93.56" height="147.37" maskUnits="userSpaceOnUse"><g id="y-2" data-name="y"><path id="Ax-2" data-name="Ax" class="cls-1" d="M182.36,92c-.94.82.28,2,.84,2.33l.08,0-.08,0c-.4-.23-2.28-1.18-3-.11s.87,2.18,1.24,2.42l.07,0-.07,0c-.37-.22-2.07-1.18-2.8-.37-.9,1,.23,2.31.57,2.53l0,0,0,0a1.37,1.37,0,0,0-1.81.28c-.78,1.09.64,2.43,2,3.25,2.34,1.44,5.9,3,7.87,4.21,3.16,2,11.52,5.6,18.94,15.32s13.18,24.62,9.46,36.09-14.46,17.34-21.8,18.55a20.67,20.67,0,0,0-11.74,6.66l-2.8.72s-20.42,7.42-24.89,20.53-8.3,26-8.3,26l18.92.33,6.93-25.06s5.11,23.1,2.6,30.25,62.32,0,62.32,0-2.79-22.54-6.68-35.19-5.09-13.88-4.45-15.73,10.43-22.09,7.48-38.95-12.26-37.1-39.52-49.63l-8.58-4.06a6.16,6.16,0,0,0-2-.63,1.16,1.16,0,0,0-.78.3Z"/></g></mask><mask id="mask-51" x="146.08" y="89.92" width="90.77" height="149.1" maskUnits="userSpaceOnUse"><g id="z-2" data-name="z"><path id="Ax-3" data-name="Ax" class="cls-1" d="M182.36,92c-.94.82.28,2,.84,2.33l.08,0-.08,0c-.4-.23-2.28-1.18-3-.11s.87,2.18,1.24,2.42l.07,0-.07,0c-.37-.22-2.07-1.18-2.8-.37-.9,1,.23,2.31.57,2.53l0,0,0,0a1.37,1.37,0,0,0-1.81.28c-.78,1.09.64,2.43,2,3.25,2.34,1.44,5.9,3,7.87,4.21,3.16,2,11.52,5.6,18.94,15.32s13.18,24.62,9.46,36.09-14.46,17.34-21.8,18.55a20.67,20.67,0,0,0-11.74,6.66l-2.8.72s-20.42,7.42-24.89,20.53-8.3,26-8.3,26l18.92.33,6.93-25.06s5.11,23.1,2.6,30.25,62.32,0,62.32,0-2.79-22.54-6.68-35.19-5.09-13.88-4.45-15.73,10.43-22.09,7.48-38.95-12.26-37.1-39.52-49.63l-8.58-4.06a6.16,6.16,0,0,0-2-.63,1.16,1.16,0,0,0-.78.3Z"/></g></mask><mask id="mask-52" x="146.08" y="89.87" width="90.77" height="149.15" maskUnits="userSpaceOnUse"><g id="AA"><path id="Ax-4" data-name="Ax" class="cls-1" d="M182.36,92c-.94.82.28,2,.84,2.33l.08,0-.08,0c-.4-.23-2.28-1.18-3-.11s.87,2.18,1.24,2.42l.07,0-.07,0c-.37-.22-2.07-1.18-2.8-.37-.9,1,.23,2.31.57,2.53l0,0,0,0a1.37,1.37,0,0,0-1.81.28c-.78,1.09.64,2.43,2,3.25,2.34,1.44,5.9,3,7.87,4.21,3.16,2,11.52,5.6,18.94,15.32s13.18,24.62,9.46,36.09-14.46,17.34-21.8,18.55a20.67,20.67,0,0,0-11.74,6.66l-2.8.72s-20.42,7.42-24.89,20.53-8.3,26-8.3,26l18.92.33,6.93-25.06s5.11,23.1,2.6,30.25,62.32,0,62.32,0-2.79-22.54-6.68-35.19-5.09-13.88-4.45-15.73,10.43-22.09,7.48-38.95-12.26-37.1-39.52-49.63l-8.58-4.06a6.16,6.16,0,0,0-2-.63,1.16,1.16,0,0,0-.78.3Z"/></g></mask><mask id="mask-53" x="146.08" y="91.65" width="90.77" height="147.37" maskUnits="userSpaceOnUse"><g id="AB"><path id="Ax-5" data-name="Ax" class="cls-1" d="M182.36,92c-.94.82.28,2,.84,2.33l.08,0-.08,0c-.4-.23-2.28-1.18-3-.11s.87,2.18,1.24,2.42l.07,0-.07,0c-.37-.22-2.07-1.18-2.8-.37-.9,1,.23,2.31.57,2.53l0,0,0,0a1.37,1.37,0,0,0-1.81.28c-.78,1.09.64,2.43,2,3.25,2.34,1.44,5.9,3,7.87,4.21,3.16,2,11.52,5.6,18.94,15.32s13.18,24.62,9.46,36.09-14.46,17.34-21.8,18.55a20.67,20.67,0,0,0-11.74,6.66l-2.8.72s-20.42,7.42-24.89,20.53-8.3,26-8.3,26l18.92.33,6.93-25.06s5.11,23.1,2.6,30.25,62.32,0,62.32,0-2.79-22.54-6.68-35.19-5.09-13.88-4.45-15.73,10.43-22.09,7.48-38.95-12.26-37.1-39.52-49.63l-8.58-4.06a6.16,6.16,0,0,0-2-.63,1.16,1.16,0,0,0-.78.3Z"/></g></mask><mask id="mask-60" x="177.4" y="168.4" width="17.96" height="17.12" maskUnits="userSpaceOnUse"><g id="AI"><path class="cls-1" d="M177.4,171.66l1.95,12.25s3.37,1.06,8.46-1.46c5.68-2.8,6.58-6,6.58-6l-9.27-8.08-7.72,3.26Z"/></g></mask><mask id="mask-61" x="177.4" y="168.4" width="18.15" height="17.3" maskUnits="userSpaceOnUse"><g id="AJ"><path class="cls-1" d="M177.4,171.66l1.95,12.25s3.37,1.06,8.46-1.46c5.68-2.8,6.58-6,6.58-6l-9.27-8.08"/></g></mask><mask id="mask-62" x="246.83" y="51.9" width="36.02" height="93.9" maskUnits="userSpaceOnUse"><g id="AK"><path id="Ay" class="cls-1" d="M246.84,60,254,69.22a18.65,18.65,0,0,1,1.13,5.66c.19,3.42,5,54.78,21.86,67.13l5,2.76V63.88a47.85,47.85,0,0,1-21.71-6.22l-7.74-5.76L246.83,60Z"/></g></mask><mask id="mask-63" x="254.43" y="58.35" width="27.64" height="86.42" maskUnits="userSpaceOnUse"><g id="AL"><path id="Az" class="cls-1" d="M259.42,66.54a19,19,0,0,1-5,3.88,21.12,21.12,0,0,1,.73,4.46c.2,3.42,5,54.78,21.86,67.13l5,2.76V63.88a47.94,47.94,0,0,1-20.48-5.53c-.08,2.16-.46,6.24-2.16,8.19Z"/></g></mask><mask id="mask-76" x="246.84" y="51.9" width="43.56" height="92.87" maskUnits="userSpaceOnUse"><g id="AY-2" data-name="AY"><path id="BA" class="cls-1" d="M246.84,60,254,69.22a18.65,18.65,0,0,1,1.13,5.66c.19,3.42,5,54.78,21.86,67.13l5,2.76V63.88a47.85,47.85,0,0,1-21.71-6.22l-7.74-5.76"/></g></mask><mask id="mask-77" x="246.83" y="51.9" width="43.61" height="92.87" maskUnits="userSpaceOnUse"><g id="AZ-14" data-name="AZ"><path id="Ay-3" data-name="Ay" class="cls-1" d="M246.84,60,254,69.22a18.65,18.65,0,0,1,1.13,5.66c.19,3.42,5,54.78,21.86,67.13l5,2.76V63.88a47.85,47.85,0,0,1-21.71-6.22l-7.74-5.76L246.83,60Z"/></g></mask><mask id="mask-78" x="246.83" y="51.9" width="35.23" height="92.87" maskUnits="userSpaceOnUse"><g id="Aa-2" data-name="Aa"><path id="Ay-4" data-name="Ay" class="cls-1" d="M246.84,60,254,69.22a18.65,18.65,0,0,1,1.13,5.66c.19,3.42,5,54.78,21.86,67.13l5,2.76V63.88a47.85,47.85,0,0,1-21.71-6.22l-7.74-5.76L246.83,60Z"/></g></mask><mask id="mask-79" x="246.84" y="51.9" width="35.23" height="92.87" maskUnits="userSpaceOnUse"><g id="Ab-2" data-name="Ab"><path id="BA-2" data-name="BA" class="cls-1" d="M246.84,60,254,69.22a18.65,18.65,0,0,1,1.13,5.66c.19,3.42,5,54.78,21.86,67.13l5,2.76V63.88a47.85,47.85,0,0,1-21.71-6.22l-7.74-5.76"/></g></mask><mask id="mask-80" x="264.5" y="65.19" width="23.31" height="35.3" maskUnits="userSpaceOnUse"><g id="Ac-2" data-name="Ac"><path id="BB" class="cls-1" d="M266.5,69.06c-9,10.12,15.2,27.75,20,31.43l1.29-25.13s-7.18-9.59-14.59-9.59a8.8,8.8,0,0,0-6.72,3.29Z"/></g></mask><mask id="mask-81" x="264.5" y="65.77" width="23.31" height="34.72" maskUnits="userSpaceOnUse"><g id="Ad-2" data-name="Ad"><path id="BB-2" data-name="BB" class="cls-1" d="M266.5,69.06c-9,10.12,15.2,27.75,20,31.43l1.29-25.13s-7.18-9.59-14.59-9.59a8.8,8.8,0,0,0-6.72,3.29Z"/></g></mask><mask id="mask-84" x="264.5" y="65.77" width="23.31" height="35.39" maskUnits="userSpaceOnUse"><g id="Ag-2" data-name="Ag"><path id="BB-5" data-name="BB" class="cls-1" d="M266.5,69.06c-9,10.12,15.2,27.75,20,31.43l1.29-25.13s-7.18-9.59-14.59-9.59a8.8,8.8,0,0,0-6.72,3.29Z"/></g></mask><mask id="mask-85" x="264.5" y="65.77" width="23.31" height="35.5" maskUnits="userSpaceOnUse"><g id="Ah-2" data-name="Ah"><path id="BB-6" data-name="BB" class="cls-1" d="M266.5,69.06c-9,10.12,15.2,27.75,20,31.43l1.29-25.13s-7.18-9.59-14.59-9.59a8.8,8.8,0,0,0-6.72,3.29Z"/></g></mask><mask id="mask-86" x="234.26" y="41.05" width="20.51" height="20.75" maskUnits="userSpaceOnUse"><g id="Ai-2" data-name="Ai"><path id="BC" class="cls-1" d="M234.26,51.42a10.25,10.25,0,1,0,10.25-10.37,10.32,10.32,0,0,0-10.25,10.37Z"/></g></mask></defs><title>Group 10</title><path class="cls-2" d="M142,225.42A142,142,0,1,0,0,83.42,142,142,0,0,0,142,225.42Z"/><g class="cls-3"><path class="cls-1" d="M117.71,139.53h49.9V89h-49.9Z"/><path class="cls-4" d="M118,139.29h49.42v-50H118Zm49.66.48h-49.9a.24.24,0,0,1-.24-.24V89a.24.24,0,0,1,.24-.24h49.9a.24.24,0,0,1,.24.24v50.53a.24.24,0,0,1-.24.24Z"/><path class="cls-1" d="M167.6,89,156,78.62H124.73l-7,10.38H167.6Z"/><path class="cls-4" d="M118.16,88.76H167l-11.11-9.91h-31l-6.7,9.91Zm49.45.48h-49.9a.23.23,0,0,1-.21-.13.25.25,0,0,1,0-.25l7-10.38a.24.24,0,0,1,.2-.11H156a.24.24,0,0,1,.16.07l11.65,10.38a.24.24,0,0,1-.16.42Z"/><path class="cls-5" d="M153.55,83.65l-1.29-1.26-18.42,0-.64,1.24Z"/><path class="cls-5" d="M133.86,82.45l-.61,1.18h20.22l-1.22-1.2-18.39,0Zm-.66,1.24,0,0a0,0,0,0,1,0,0l.64-1.23,0,0,18.42,0s0,0,0,0l1.29,1.26a0,0,0,0,1,0,0s0,0,0,0Z"/><path class="cls-6" d="M128.87,133.34l17.89,18.95,10-9.71L139,123.46l-10.1,9.88Z"/><g class="cls-7"><path class="cls-8" d="M146.9,153.27l-2.34-16.34-17.28-4,19.62,20.29Z"/></g><path class="cls-5" d="M82.13,210.47s-6.43,5.43-11.42.42-5.15-21,2.8-28.39,17.84-13.12,31-17.47S135,154.57,139.44,148s.53-5.77-.31-4.9c0,0,.84-1.59,0-2.3a1.61,1.61,0,0,0-2,.08s.94-1,0-1.81c-.67-.54-1.9.6-1.9.6s1.18-1.5-.07-2.13-3.32,1.16-5.5,3.47-4.46,6.39-14.39,8.85-34.2,3.88-51.95,20.65S45.17,214.82,45.1,217.21L29.33,230.89l87.42.74s-16.39-10.57-25-12.69-9.63-8.47-9.63-8.47Z"/><g class="cls-9"><path class="cls-10" d="M68.44,199.09c-7.31,8.74-15.24,11.49-23.83,8l-3.54,10.37-12.7,13.22,2.51,2.73h86.26l.12-4.08L93.15,218.17l-1.82.91-5-.07-5.93-4.1-3.51-1.67-1.33-1.33-7.07-12.82Z"/></g><g class="cls-11"><path class="cls-5" d="M30.9,233.36h86.21l.12-4L93.15,218.2l-1.8.91L86.28,219l-6-4.1-3.5-1.66-1.34-1.34-7-12.8C64.79,203.49,61,206.37,57,207.7a17.36,17.36,0,0,1-12.39-.6L41.1,217.45,28.41,230.66l2.48,2.7Zm32.09.06H30.86l-2.52-2.73a0,0,0,0,1,0-.05L41,217.42l3.54-10.37h0a17.31,17.31,0,0,0,12.37.61c3.93-1.33,7.78-4.22,11.43-8.58h0l0,0,7.07,12.82,1.32,1.32,3.5,1.67L86.29,219l5,.08,1.81-.91h0l24.11,11.13s0,0,0,0l-.12,4.08a0,0,0,0,1,0,0l-54.16,0Z"/></g><g class="cls-12"><path class="cls-1" d="M46,211.64c1.12-.16,2.23,1.15,2.47,2.92s-.47,3.34-1.59,3.5-2.23-1.15-2.47-2.92S44.83,211.8,46,211.64Z"/></g><g class="cls-12"><path class="cls-1" d="M43.89,222.15c1.38,1.62.57,4.62-1.8,6.7s-5.43,2.45-6.82.83-.57-4.62,1.8-6.7S42.51,220.53,43.89,222.15Z"/></g><g class="cls-12"><path class="cls-1" d="M67,215.33a3.31,3.31,0,0,1,4,.89c.73,1.13.12,2.58-1.36,3.22a3.31,3.31,0,0,1-4-.89c-.73-1.14-.12-2.58,1.36-3.22Z"/></g><g class="cls-12"><path class="cls-1" d="M54,217.72a3,3,0,0,1,.45-4.05,2.69,2.69,0,0,1,3.86.65,3,3,0,0,1-.45,4A2.7,2.7,0,0,1,54,217.72Z"/></g><g class="cls-12"><path class="cls-1" d="M71,207.71c1.65.66,2.77,2.33,2.49,3.73s-1.86,2-3.51,1.36-2.77-2.32-2.49-3.73,1.86-2,3.51-1.36Z"/></g><g class="cls-12"><path id="Aq-2" data-name="Aq" class="cls-1" d="M83.08,217.17c1.66.66,2.31,2.14,1.46,3.32a4,4,0,0,1-4.54.95c-1.66-.65-2.31-2.14-1.46-3.32A4,4,0,0,1,83.08,217.17Z"/></g><g class="cls-12"><path id="Aq-3" data-name="Aq" class="cls-1" d="M64.68,224.07c1.66.65,2.31,2.14,1.46,3.32a4,4,0,0,1-4.54,1c-1.66-.66-2.31-2.14-1.46-3.32A4,4,0,0,1,64.68,224.07Z"/></g><g class="cls-12"><path class="cls-1" d="M53.71,227c-1.24,1-2.78.95-3.43-.21a3.42,3.42,0,0,1,1-4c1.23-1,2.77-.95,3.43.22a3.43,3.43,0,0,1-1,4Z"/></g><g class="cls-12"><path class="cls-1" d="M75.53,228.35a3.24,3.24,0,0,1-3-2.74c-.06-1.34,1.21-2.28,2.81-2.11a3.25,3.25,0,0,1,3,2.74c0,1.34-1.21,2.28-2.81,2.11Z"/></g><g class="cls-12"><path class="cls-1" d="M95.84,224.19c-1.9-.75-2.77-2.25-2-3.35s3-1.38,4.89-.63,2.77,2.25,2,3.35S97.73,224.94,95.84,224.19Z"/></g><g class="cls-12"><path class="cls-1" d="M135.25,139.62,131.56,143Z"/></g><g class="cls-12"><path class="cls-5" d="M131.56,143h0a0,0,0,0,1,0,0l3.69-3.33h0a0,0,0,0,1,0,.05L131.58,143Z"/></g><g class="cls-12"><path class="cls-1" d="M137.14,140.84a46.22,46.22,0,0,0-3.59,4Z"/></g><g class="cls-12"><path class="cls-5" d="M133.55,144.87s0,0,0-.05a47,47,0,0,1,3.6-4h0a0,0,0,0,1,0,.05,44,44,0,0,0-3.58,4Z"/></g><g class="cls-12"><path class="cls-1" d="M139.15,143.07,136,146.62Z"/></g><g class="cls-12"><path class="cls-5" d="M136,146.65h0s0,0,0,0a47.39,47.39,0,0,1,3.2-3.55,0,0,0,1,1,.05,0L136,146.64s0,0,0,0Z"/></g><path class="cls-13" d="M47,169.92l.73.69s-8.89,24.63-34.56,62.18l-8.13-.71,1.08-79.56S37.65,169.14,47,169.92Z"/><g class="cls-14"><path class="cls-15" d="M5.08,155.49c3.44,0,6.76,1.51,9.83,3.18a69,69,0,0,1,10.11,7c4.94,4,11.44,5.59,17.59,5.7a32.55,32.55,0,0,0,7-.56l.46,0a2.44,2.44,0,0,1,2.11,1.6,2.33,2.33,0,0,1-1.27,2.75,3.54,3.54,0,0,1-.79.21,39.36,39.36,0,0,1-14.4-.13,30.8,30.8,0,0,1-13.21-5.8,59.48,59.48,0,0,0-11.9-7.82A14,14,0,0,0,5.11,160a3.35,3.35,0,0,0-.7,0h0l.09,0-.45.12a2.55,2.55,0,0,1-1.37-.22,2.35,2.35,0,0,1-.86-3.25,2.82,2.82,0,0,1,1.08-.88,6.75,6.75,0,0,1,.88-.22,8.17,8.17,0,0,1,1.31-.1Z"/></g><g class="cls-16"><path class="cls-15" d="M3.74,165c3.48,0,6.82,1.43,10,3.06a71.15,71.15,0,0,1,10,6.52c5,3.8,11.59,5.27,17.74,5.21a33.27,33.27,0,0,0,6.82-.73l.12,0,.46-.06a2.9,2.9,0,0,1,.92.19,2.34,2.34,0,0,1,1.06,3.19,2.29,2.29,0,0,1-1,.95c-.14.06-.29.1-.44.15l-.13,0a39.12,39.12,0,0,1-14.06.41,31,31,0,0,1-13.91-5.51c-4.14-3.06-8.36-6.14-13.18-7.9a10.8,10.8,0,0,0-4.91-.93c-.13,0-.32.08-.15,0l-.45.14a2.65,2.65,0,0,1-1.37-.19,2.35,2.35,0,0,1-.95-3.22,2.55,2.55,0,0,1,1.05-.9,7.9,7.9,0,0,1,.94-.27A7.63,7.63,0,0,1,3.74,165Z"/></g><g class="cls-17"><path class="cls-15" d="M-.76,173.35c3.44,0,6.78,1.42,9.9,3a67.07,67.07,0,0,1,9.78,6.35,24.47,24.47,0,0,0,5.45,3.15,33.25,33.25,0,0,0,17.82,1.83c.56-.09,1.12-.2,1.68-.32l.46-.06a2.79,2.79,0,0,1,.91.19,2.27,2.27,0,0,1,0,4.13,3.75,3.75,0,0,1-.79.23,39,39,0,0,1-14,.33,30.84,30.84,0,0,1-13.73-5.48c-4.11-3-8.34-6.11-13.13-7.88a10.78,10.78,0,0,0-4.94-.94c-.14,0-.36.09-.16,0l-.45.13a2.65,2.65,0,0,1-1.37-.18,2.35,2.35,0,0,1-.95-3.23,2.56,2.56,0,0,1,1-.9,6.63,6.63,0,0,1,.94-.26,8.47,8.47,0,0,1,1.51-.12Z"/></g><g class="cls-18"><path class="cls-15" d="M-2.88,183.58c3.55,0,7,1.36,10.23,2.93A70.22,70.22,0,0,1,17,192.27c6.76,4.65,15.72,5.28,23.19,3.75.56-.12,1.11-.25,1.66-.4l.46-.07a2.49,2.49,0,0,1,1.7.65,2.34,2.34,0,0,1-.55,3.62,3.25,3.25,0,0,1-.78.26,39,39,0,0,1-12.84,1.07,31.31,31.31,0,0,1-15.12-5c-3.94-2.65-7.94-5.3-12.42-6.94a14.13,14.13,0,0,0-5.56-1.12,3.09,3.09,0,0,0-.68.09c-.08,0,0,0,.07,0l-.44.15a2.68,2.68,0,0,1-1.38-.11,2.34,2.34,0,0,1-1.37-2.28,2.31,2.31,0,0,1,.88-1.61,2.69,2.69,0,0,1,.43-.26,6.82,6.82,0,0,1,2.91-.49Z"/></g><g class="cls-19"><path class="cls-15" d="M-7.17,192.13a23.87,23.87,0,0,1,9.77,2.72,70.52,70.52,0,0,1,10.07,6,27.9,27.9,0,0,0,15.42,4.46,34.33,34.33,0,0,0,9.31-1.08l.12,0,.46-.08a2.49,2.49,0,0,1,1.7.66,2.34,2.34,0,0,1-.55,3.62,3.76,3.76,0,0,1-.78.26,39.26,39.26,0,0,1-13.14,1,31,31,0,0,1-14.81-5c-4-2.66-8-5.3-12.43-6.93a13.85,13.85,0,0,0-5.55-1.13,2.51,2.51,0,0,0-.72.11l.1,0-.44.15-.46.06a2.76,2.76,0,0,1-1.33-.4,2.36,2.36,0,0,1-.67-3,2.79,2.79,0,0,1,1-1A6.7,6.7,0,0,1-9,192.31a8.94,8.94,0,0,1,1.86-.17Z"/></g><g class="cls-20"><path class="cls-15" d="M-11,200.28A23.81,23.81,0,0,1-1.22,203a70.52,70.52,0,0,1,10.07,6,28,28,0,0,0,15.42,4.46,33.94,33.94,0,0,0,9.31-1.08l.12,0,.46-.07a2.44,2.44,0,0,1,2,1,2.35,2.35,0,0,1-.85,3.25,3.8,3.8,0,0,1-.78.27,39.26,39.26,0,0,1-13.14,1,31.2,31.2,0,0,1-14.81-5c-4-2.66-8-5.3-12.43-6.94a14,14,0,0,0-5.55-1.12,2.91,2.91,0,0,0-.72.1l.09,0-.44.16-.46.05a2.66,2.66,0,0,1-1.33-.4,2.36,2.36,0,0,1-.67-2.95,2.67,2.67,0,0,1,1-1,6.34,6.34,0,0,1,1.1-.34,9.3,9.3,0,0,1,1.83-.16Z"/></g><g class="cls-21"><path class="cls-15" d="M-14.56,208.74c4.26,0,8.38,1.89,12.15,3.91a80.83,80.83,0,0,1,7.69,4.78,28,28,0,0,0,15.31,4.46,34,34,0,0,0,9.54-1.11l.46-.07a2.53,2.53,0,0,1,1.7.65,2.36,2.36,0,0,1-.55,3.62,3.8,3.8,0,0,1-.78.27,39.21,39.21,0,0,1-13.2,1A31.11,31.11,0,0,1,3,221.34c-4.27-2.87-8.58-5.72-13.42-7.28a11,11,0,0,0-5-.74c-.16,0-.41.12-.2,0l-.45.15a2.64,2.64,0,0,1-1.37-.12,2.34,2.34,0,0,1-1.36-2.29,2.32,2.32,0,0,1,.89-1.61,3.4,3.4,0,0,1,.42-.25,7.17,7.17,0,0,1,2.91-.5Z"/></g><g class="cls-22"><path class="cls-15" d="M-17.53,217.72c4.26,0,8.38,1.89,12.14,3.91a79.73,79.73,0,0,1,7.7,4.78,28,28,0,0,0,15.31,4.46,34,34,0,0,0,9.54-1.11l.46-.07a2.53,2.53,0,0,1,1.7.65,2.36,2.36,0,0,1-.56,3.62,3.52,3.52,0,0,1-.77.27,39.25,39.25,0,0,1-13.21,1A31.11,31.11,0,0,1,0,230.32c-4.27-2.87-8.58-5.72-13.42-7.28a11,11,0,0,0-5-.74c-.16,0-.41.12-.2,0l-.44.15a2.68,2.68,0,0,1-1.38-.12,2.34,2.34,0,0,1-1.36-2.29,2.32,2.32,0,0,1,.89-1.61,3.4,3.4,0,0,1,.42-.25,7.17,7.17,0,0,1,2.91-.5Z"/></g><path class="cls-1" d="M61.45,85.68S59.77,99.23,60.19,101c1.61,6.76,10.4,22.71,2.24,32.5S50,146.57,49.4,167.88c-.16,6.14-10.35,3.88-19.7,1.32-12.48-3.42-12.29-14.51-26.35-11.52s5.05-27,13.65-38.44c9.12-12.1,17.34-16.45,25.36-19.6s5.71-13.52,5.71-13.52a5.3,5.3,0,0,0,1.1-2.44L57,84.88l4.44.8Z"/><g class="cls-23"><path class="cls-1" d="M47.63,93s6.71,10,13,8l1.16,3s-8,2.62-15.72-8.26L47.64,93Z"/></g><g class="cls-23"><path class="cls-5" d="M46.33,95.68c2.19,3,5.78,6.88,10.55,8a10.28,10.28,0,0,0,4.63.11l-1-2.6c-2.6.77-5.66-.36-8.87-3.29a31.23,31.23,0,0,1-4-4.52l-1.32,2.28Zm13.23,8.77a12.23,12.23,0,0,1-2.78-.34c-5-1.18-8.65-5.16-10.88-8.3a.21.21,0,0,1,0-.23l1.56-2.69a.22.22,0,0,1,.18-.1.21.21,0,0,1,.18.09c.07.1,6.69,9.9,12.75,7.87a.21.21,0,0,1,.27.13l1.16,3a.2.2,0,0,1,0,.17.22.22,0,0,1-.12.11,7.92,7.92,0,0,1-2.3.29Z"/></g><g class="cls-24"><path class="cls-5" d="M61.64,88.84,62,94.7c-6.1.17-9.69-5.84-13.51-12.67l13.63,5.28-.51,1.53Z"/></g><g class="cls-23"><path class="cls-5" d="M37.48,110.16s4.59,30.42,22.17,33.67c9.5,1.76,4-13.64,4-13.64l-26.18-20Z"/></g><path class="cls-5" d="M7.75,156.93c5.27,0,8.06,2.55,11.2,5.42,2.67,2.44,5.7,5.21,10.82,6.62,7.7,2.1,15.22,3.75,18.14,1.57a3.19,3.19,0,0,0,1.26-2.66c.24-9.33,1.22-15.63,3.18-20.44,1.86-4.6,4.58-7.8,8-11.86l1.9-2.25c2.8-3.36,3.84-7.74,3.16-13.37-.58-4.82-2.32-9.68-3.71-13.58-.75-2.1-1.4-3.9-1.74-5.33-.4-1.68,1-13.34,1.23-15.18L57,85.12,49.38,84a5.55,5.55,0,0,1-1.05,2.22,17.26,17.26,0,0,1,.13,5.55c-.57,4-2.64,6.81-6,8.13-7.24,2.85-15.77,7-25.25,19.53a179.54,179.54,0,0,0-13,20.16c-4.8,8.79-6.57,14.67-5.1,17,.68,1.06,2.1,1.37,4.23.92a21.76,21.76,0,0,1,4.45-.51Zm35.81,15.13c-3.88,0-9.07-1.3-13.92-2.63-5.24-1.44-8.3-4.24-11-6.72-3.82-3.5-7.12-6.52-15.22-4.8-2.35.5-3.94.12-4.73-1.13-1.58-2.51.12-8.38,5.06-17.45A180.41,180.41,0,0,1,16.81,119.1C26.36,106.43,35,102.29,42.27,99.41c3.24-1.27,5.16-3.87,5.7-7.74a17,17,0,0,0-.15-5.5.24.24,0,0,1,0-.2,5,5,0,0,0,1.05-2.31A.19.19,0,0,1,49,83.5a.23.23,0,0,1,.18,0L57,84.64l4.45.8a.24.24,0,0,1,.2.27c-.58,4.67-1.59,13.87-1.27,15.23s1,3.2,1.72,5.28c2.8,7.79,7,19.57.47,27.42l-1.89,2.25c-3.41,4-6.1,7.2-7.94,11.73-1.93,4.75-2.9,11-3.14,20.27a3.74,3.74,0,0,1-1.46,3,7.83,7.83,0,0,1-4.62,1.13Z"/><path class="cls-25" d="M113.56,88.6l8.91,11.16,21.1-14.48L135,73.72,113.56,88.6Z"/><g class="cls-26"><path class="cls-27" d="M135.15,73.09l-4.62,15.46h-17.9l22.52-15.45Z"/></g><path class="cls-1" d="M59.77,111.74S48.34,97.1,40.08,103.8s4.84,21.27,17.47,25.49,31,8.89,40.07-5.79S100,85.9,117.08,83.23c3.33-.52,6.15,4,7.52,4.13s2.06-.72,1.85-1.56c0,0,2.83.08,1.62-2.38,0,0,3.4.91,1.71-2.07,0,0,2.3,1.15,2.57-.57s-6.19-10.14-21.87-6.22c-12.36,3.1-16.26,19.9-16.26,19.9s-4.35,17.31-14,21.52-16.44-.31-20.42-4.24Z"/><g class="cls-28"><path class="cls-1" d="M47.34,124.88s2-8.68,13.09-13.25L57.79,109s-8.94,2.39-13.72,13.12l3.27,2.81Z"/></g><g class="cls-28"><path class="cls-5" d="M44.36,122l2.85,2.44a17.1,17.1,0,0,1,2.32-4.62A23.89,23.89,0,0,1,60,111.54l-2.28-2.32a19.08,19.08,0,0,0-4.89,2.48A24.74,24.74,0,0,0,44.36,122Zm3,3.11a.25.25,0,0,1-.16-.06l-3.26-2.81a.25.25,0,0,1-.07-.28,25.21,25.21,0,0,1,8.74-10.68,18.92,18.92,0,0,1,5.14-2.58.24.24,0,0,1,.23.07l2.64,2.68a.24.24,0,0,1,0,.34.18.18,0,0,1-.07,0,23.38,23.38,0,0,0-10.58,8.23,15.9,15.9,0,0,0-2.37,4.85.26.26,0,0,1-.16.18h-.07Z"/></g><path class="cls-5" d="M44.93,102.28a7.29,7.29,0,0,0-4.7,1.7,6.48,6.48,0,0,0-2.36,6.61c.6,3.3,3.05,7.09,6.91,10.67a36.91,36.91,0,0,0,12.84,7.8c6,2,13.92,4.32,21.28,4.18A24.32,24.32,0,0,0,89.19,131a20,20,0,0,0,8.23-7.6c3.5-5.65,4.63-12.46,5.72-19,.85-5.17,1.66-10,3.58-13.88A12.92,12.92,0,0,1,117,83c2.23-.35,4.23,1.46,5.69,2.78.75.68,1.46,1.33,1.88,1.35a1.67,1.67,0,0,0,1.43-.47.87.87,0,0,0,.17-.79.23.23,0,0,1,.05-.21.24.24,0,0,1,.19-.1s1.16,0,1.55-.59a1.49,1.49,0,0,0-.15-1.44.24.24,0,0,1,.27-.34c.36.09,1.46.27,1.78-.15.21-.27.09-.83-.34-1.58a.24.24,0,0,1,.32-.33,2.52,2.52,0,0,0,1.83.25.79.79,0,0,0,.4-.64c.07-.44-.49-1.65-1.93-3-2-1.86-8-5.88-19.65-3a17,17,0,0,0-7.64,4.35,27.36,27.36,0,0,0-5,6.63,38.67,38.67,0,0,0-3.48,8.74,56.72,56.72,0,0,1-3.4,9.23c-2.11,4.47-5.69,10.25-10.76,12.46C72.76,119.47,65.8,118,59.6,111.9l0,0c-.07-.08-6.93-8.77-13.7-9.54a7.69,7.69,0,0,0-1-.06Zm33.32,31.45c-7.24,0-14.88-2.24-20.78-4.21a37.54,37.54,0,0,1-13-7.9C40.52,118,38,114.08,37.4,110.68a7,7,0,0,1,2.53-7.07,7.82,7.82,0,0,1,6-1.75c3.66.42,7.28,3,9.67,5.18A39.11,39.11,0,0,1,60,111.58a20.34,20.34,0,0,0,8,5.11,16.8,16.8,0,0,0,12.18-.93c4.93-2.15,8.44-7.83,10.52-12.22A56,56,0,0,0,94,94.4a39.56,39.56,0,0,1,3.52-8.84,28,28,0,0,1,5.06-6.76,17.56,17.56,0,0,1,7.86-4.47c11.87-3,18,1.16,20.08,3.08,1.35,1.23,2.2,2.63,2.08,3.4a1.25,1.25,0,0,1-.65,1,2.32,2.32,0,0,1-1.66,0,1.52,1.52,0,0,1,0,1.54c-.4.52-1.28.49-1.83.41a1.64,1.64,0,0,1-.06,1.48,2.21,2.21,0,0,1-1.68.8,1.33,1.33,0,0,1-.31.93,2.12,2.12,0,0,1-1.83.64c-.58,0-1.28-.67-2.17-1.47-1.46-1.33-3.29-3-5.3-2.67a12.48,12.48,0,0,0-10,7.21c-1.89,3.76-2.69,8.61-3.54,13.74-1.1,6.63-2.23,13.49-5.78,19.22a20.41,20.41,0,0,1-8.43,7.78,24.92,24.92,0,0,1-10.49,2.32Z"/><path class="cls-1" d="M121.35,81.53a17.69,17.69,0,0,1,5.1,4.27Z"/><path class="cls-5" d="M126.45,86a.27.27,0,0,1-.19-.08,17.45,17.45,0,0,0-5-4.21.24.24,0,0,1-.11-.32.24.24,0,0,1,.32-.11,17.74,17.74,0,0,1,5.18,4.33.24.24,0,0,1,0,.34.25.25,0,0,1-.15,0Z"/><path class="cls-1" d="M124,79.37a24.14,24.14,0,0,1,4,4Z"/><path class="cls-5" d="M128.07,83.66a.24.24,0,0,1-.19-.1,23.57,23.57,0,0,0-4-4,.24.24,0,0,1,0-.34.24.24,0,0,1,.33,0,24,24,0,0,1,4.1,4.11.24.24,0,0,1-.06.33.23.23,0,0,1-.14,0Z"/><path class="cls-1" d="M126,77.6a24.66,24.66,0,0,1,3.81,3.75Z"/><path class="cls-5" d="M129.78,81.59a.23.23,0,0,1-.2-.11,25.15,25.15,0,0,0-3.76-3.7.24.24,0,0,1,0-.33.24.24,0,0,1,.34,0A24.45,24.45,0,0,1,130,81.22a.24.24,0,0,1-.07.33.33.33,0,0,1-.13,0Z"/><path class="cls-29" d="M178.3,79.91l11.26,6.62L176,108.73l-11.83-5.94,14.18-22.87Z"/><path class="cls-30" d="M178.92,47.14,190.1,72l-13.8,6.12-10.48-24.8,13.1-6.23Z"/><g class="cls-31"><path class="cls-32" d="M179,45.22l-3.85,18.14,17.71,10.27L179,45.23Z"/></g><path class="cls-5" d="M256.76,71.18s-10.16,16.14-29.33,6.93S191.15,45.77,181,52l3.5,7.82a4,4,0,0,1-1,1.15c-2.27,1.72-6.28,2.1-4.77,4.46s5-2.06,8.27-2.85,7,2.88,10.94,7.48S233,109.85,259,92.44Z"/><g class="cls-33"><path class="cls-1" d="M246.41,76.57s-1,13.71,6.08,21.08,8.72-6.43,8.72-6.43l-3.71-21-11.09,6.3Z"/></g><g class="cls-34"><path class="cls-35" d="M247,78.52l3.78,1.94,1.58-5.37L247,78.52Z"/></g><g class="cls-34"><path class="cls-35" d="M253.51,89.34l-.35,4L256.78,92l-3.27-2.64Z"/></g><g class="cls-34"><path class="cls-35" d="M246.79,86.27l5.33.34-3.84,4.92Z"/></g><g class="cls-34"><path class="cls-35" d="M255.06,79.26l.23,4.57L257.47,81l-2.41-1.78Z"/></g><g class="cls-36"><path class="cls-5" d="M246.51,76.63a41.5,41.5,0,0,0,.41,7.7c1.05,7.16,3.65,11.16,5.65,13.25,1.68,1.76,3.18,2.44,4.47,2,.9-.3,2.19-1.34,3.21-4.57a23.58,23.58,0,0,0,.85-3.79l-3.68-20.8-10.91,6.19Zm9.75,23.3c-1.16,0-2.45-.74-3.85-2.2-2-2.12-4.64-6.15-5.7-13.37a40.78,40.78,0,0,1-.41-7.8.15.15,0,0,1,.06-.09l11.09-6.29a.1.1,0,0,1,.09,0,.09.09,0,0,1,.06.08l3.72,21v0c0,.3-.95,7.46-4.21,8.55a2.69,2.69,0,0,1-.84.14Z"/></g><path class="cls-5" d="M187.87,62.35c3.23,0,6.77,3.75,10.13,7.64A104.82,104.82,0,0,0,220.26,89.4c6.56,4.09,12.89,6.58,18.81,7.4a27.85,27.85,0,0,0,19.8-4.43l-2.21-20.79a24.34,24.34,0,0,1-7.31,6.65,20.59,20.59,0,0,1-9.24,2.83,25.89,25.89,0,0,1-12.74-2.82c-7.59-3.64-15-9.56-21.49-14.78-10-8-18.67-15-24.74-11.38l3.45,7.7a.2.2,0,0,1,0,.13,4.33,4.33,0,0,1-1,1.19A13.9,13.9,0,0,1,181,62.47c-1.17.54-2.29,1-2.5,1.77a1.42,1.42,0,0,0,.27,1.13c.75,1.17,2.12.42,4.27-1a14.12,14.12,0,0,1,3.85-1.95,3.8,3.8,0,0,1,1-.11Zm55.48,35a31.26,31.26,0,0,1-4.32-.3c-6-.82-12.32-3.33-18.91-7.44-10.77-6.71-19.2-15.85-22.33-19.46a42.61,42.61,0,0,0-5.72-5.75c-2-1.49-3.62-2.05-5.08-1.69a13.36,13.36,0,0,0-3.76,1.91c-1.91,1.22-3.7,2.37-4.66.88a1.64,1.64,0,0,1-.31-1.37c.25-.85,1.37-1.36,2.66-1.95a13.17,13.17,0,0,0,2.46-1.33,3.69,3.69,0,0,0,.92-1.05l-3.47-7.74a.13.13,0,0,1,.06-.18c6.25-3.84,15,3.19,25.17,11.33,6.51,5.21,13.87,11.12,21.43,14.75a25.57,25.57,0,0,0,12.6,2.79,20.27,20.27,0,0,0,9.12-2.8,23.76,23.76,0,0,0,7.44-6.88.14.14,0,0,1,.15-.06.14.14,0,0,1,.11.12l2.26,21.26a.15.15,0,0,1-.07.13,27.83,27.83,0,0,1-15.74,4.83Z"/><path class="cls-1" d="M58,67.85a10.3,10.3,0,1,1-10.18,10.3A10.24,10.24,0,0,1,58,67.85Z"/><g class="cls-37"><path class="cls-5" d="M61.45,77.67H60.26v0h0v0h0v0h0v0h0v0h0v0h0v0h0v0h0v0h0v0h0v0h0v0h0v0h-.26v0h0l0,0v0h0v0l0,0h0v0h0v0h0v0h0v0h0v0h0v0h0v0h0v0h0v0h0v0h0v0h1.46Z"/></g><g class="cls-38"><path class="cls-5" d="M66.49,76h2v0H66.49Z"/></g><g class="cls-37"><path class="cls-5" d="M62.36,81.88h.12v0h0v0h0v0h0v0h0v0h0v0h0v0h0v0h0v0h.07v0h1.11v0H62.57v0h0l0,0h0v0l0,0h0v0h0v0h0v0h0v0h0v0h0v0h0l0,0h0v0h0l0,0h0v0h.17Z"/></g><g class="cls-37"><path class="cls-39" d="M64.48,77.71a6.84,6.84,0,0,1,.06,2.3c-.29,1.3.32,2.51.77,2.57s.74-1,.72-1.55c0-.67-.61-1.1-.89-1.67s-.67-1.65-.67-1.65Z"/></g><g class="cls-37"><path class="cls-5" d="M62.5,78.74c.2,0,.36.4.36.89s-.16.89-.36.89-.36-.4-.36-.89S62.3,78.74,62.5,78.74Z"/></g><g class="cls-40"><path class="cls-5" d="M68,77.24c.2,0,.36.4.36.89S68.16,79,68,79s-.37-.4-.37-.89S67.76,77.24,68,77.24Z"/></g><path class="cls-5" d="M58,68a10.14,10.14,0,1,0,10,10.14A10.09,10.09,0,0,0,58,68ZM58,88.6A10.46,10.46,0,1,1,68.37,78.15,10.41,10.41,0,0,1,58,88.6Z"/><path class="cls-39" d="M52.22,75.05c.41,4.84-.54,8.37-3.06,10.4,0,0,2.83,14.57-15,19.07C13.34,109.76,12.64,89.4,23.63,79.2c5.79-5.37,12.26-4.17,18-6.69,11.12-4.88,20.7-9.65,25.4-4.26,1.81,2.07-.17,4.87-3.1,3.15,0,0-2.72,7.89-11.74,3.65Z"/><path class="cls-41" d="M61.3,65.93c-4.61,0-10.7,2.69-17.4,5.65l-2.22,1a30.75,30.75,0,0,1-6.55,1.78c-3.84.74-7.8,1.51-11.46,4.9a22.65,22.65,0,0,0-6.4,10.53c-1.05,3.92-.8,7.62.71,10.41s5.54,6.95,16.13,4.29A23.08,23.08,0,0,0,44,99.6a15.49,15.49,0,0,0,4.32-6.31,16.25,16.25,0,0,0,.81-7.82.14.14,0,0,1,0-.06c2.44-2,3.46-5.45,3-10.35a.08.08,0,0,1,0,0,.06.06,0,0,1,.06,0c2.93,1.37,5.5,1.61,7.63.71a8,8,0,0,0,4-4.34l0,0h0c1,.57,2.42.88,3.27-.16A2.19,2.19,0,0,0,67,68.3a7.14,7.14,0,0,0-5.73-2.36Zm-33.37,39.5c-6.15,0-8.88-3-10-5.19-1.52-2.82-1.78-6.55-.72-10.5A22.73,22.73,0,0,1,23.6,79.15c3.68-3.41,7.66-4.18,11.51-4.92a30.32,30.32,0,0,0,6.53-1.78l2.22-1C54,67,62.7,63.15,67.11,68.22a2.33,2.33,0,0,1,.24,3c-.88,1.07-2.35.79-3.36.22a8.08,8.08,0,0,1-4.08,4.34c-2.14.91-4.71.68-7.63-.67.4,4.87-.63,8.35-3.06,10.33a16.6,16.6,0,0,1-.82,7.84,15.47,15.47,0,0,1-4.35,6.36,23.32,23.32,0,0,1-9.9,4.9,25.72,25.72,0,0,1-6.22.86Z"/><path class="cls-5" d="M24.39,100.31a12.11,12.11,0,0,1-6.13-1.82A19.13,19.13,0,0,1,13.21,94a.26.26,0,0,1,0-.34.25.25,0,0,1,.34,0,18.94,18.94,0,0,0,4.92,4.36,11.72,11.72,0,0,0,5.25,1.73A10.39,10.39,0,0,0,30.13,98a34,34,0,0,0,9.59-9.33,45.53,45.53,0,0,0,4.28-8l.31-.71c.54-1.2,3.32-7.21,5.93-7.21h0c.91,0,1.65.76,2.22,2.19a.24.24,0,0,1-.14.31.24.24,0,0,1-.31-.13c-.48-1.24-1.08-1.88-1.78-1.9h0c-1.67,0-4,3.48-5.5,6.93l-.3.7c-1.66,3.83-5.12,11.8-14,17.57a10.9,10.9,0,0,1-6,1.87Zm-4.95-9.24a7.44,7.44,0,0,1-1.25-.1,6.89,6.89,0,0,1-4.6-3,.24.24,0,0,1,.08-.33.25.25,0,0,1,.33.08,6.47,6.47,0,0,0,4.28,2.73c2.91.48,6.3-.9,10.1-4.09a71.17,71.17,0,0,0,8.25-8.49c3.87-4.48,7.52-8.71,14.54-11.69a12.34,12.34,0,0,1,6.32-1,9.07,9.07,0,0,1,4.58,1.84,4.92,4.92,0,0,1,2.16,4.4.25.25,0,0,1-.28.2.24.24,0,0,1-.19-.28,4.43,4.43,0,0,0-2-3.94,8.56,8.56,0,0,0-4.34-1.74,11.68,11.68,0,0,0-6.07,1C44.43,69.61,41,73.61,37,78.24a72,72,0,0,1-8.3,8.54c-3.38,2.85-6.48,4.29-9.24,4.29ZM83.78,204.16,76.38,213s2.63,11.62,15.29,6L93,207.52l-9.19-3.36Z"/><path class="cls-5" d="M76.54,213c.15.58,1.32,4.67,4.93,6.5,2.69,1.36,6.08,1.17,10.07-.57l1.27-11.33-9-3.29L76.53,213Zm8.86,7.68a8.85,8.85,0,0,1-4.06-.93c-4-2-5.08-6.7-5.09-6.75a.15.15,0,0,1,0-.13l7.4-8.82a.12.12,0,0,1,.15,0L93,207.39a.14.14,0,0,1,.1.15l-1.3,11.52a.12.12,0,0,1-.08.11,15.88,15.88,0,0,1-6.33,1.53Z"/><path class="cls-30" d="M92.47,187.87a10.6,10.6,0,0,1,10.64,10.76c-.35,12.51,9.34,4.79,14,3.87,8.55-1.7,12.55,6.7,12.95,8.35,1.3,5.29-2,9-8.16,10.93a32.79,32.79,0,0,1-25.45-3.41c-10.84-6.23-14.56-13.8-14.56-19.74a10.71,10.71,0,0,1,10.64-10.76Z"/><path class="cls-5" d="M115.2,213.44a15.1,15.1,0,0,1-4.33-.66c-7.09-2.14-11.68-5.58-13.65-10.23-2.65-6.25.5-12.55.55-12.61a.16.16,0,0,1,.2-.07.16.16,0,0,1,.06.2c0,.06-3.14,6.24-.54,12.37C99.43,207,104,210.39,111,212.5a13.69,13.69,0,0,0,12.57-2.21,21.62,21.62,0,0,0,7.15-10.12.13.13,0,0,1,.17-.08.13.13,0,0,1,.09.18,21.78,21.78,0,0,1-7.25,10.25,14.08,14.08,0,0,1-8.48,2.92ZM91.63,192.65a.16.16,0,0,1-.15-.1,4.61,4.61,0,0,1,3.09-5.61.15.15,0,0,1,.2.1.14.14,0,0,1-.1.19,4.22,4.22,0,0,0-3,3.18,4.77,4.77,0,0,0,0,2.06.15.15,0,0,1-.1.19h0Zm-4-1.66a.16.16,0,0,1-.15-.12c0-.09-.58-2.31.5-3.57a.15.15,0,0,1,.23.2c-1,1.13-.45,3.27-.44,3.3a.16.16,0,0,1-.1.19h0Zm40.24,34a65,65,0,0,1-23-5.92,43.94,43.94,0,0,1-13.38-9.88,33.44,33.44,0,0,1-7.74-13.4.15.15,0,0,1,.11-.17.14.14,0,0,1,.17.11A33.27,33.27,0,0,0,91.69,209a43,43,0,0,0,13.29,9.8,64.43,64.43,0,0,0,22.89,5.89.14.14,0,0,1,.13.15h0a.14.14,0,0,1-.14.13Z"/><path class="cls-29" d="M182.07,183.11l-2.81.72s-20.42,7.42-24.88,20.53-8.3,26-8.3,26l18.92.33,6.93-25.06s5.11,23.1,2.6,30.25,62.32,0,62.32,0-2.79-22.54-6.68-35.19-5.09-13.88-4.45-15.73,10.43-22.09,7.48-38.94-12.26-37.11-39.52-49.64l-8.58-4.06c-1.24-.5-2-.94-2.75-.33-1,.86.41,2.1.93,2.37,0,0-2.27-1.35-3.12-.15s1.3,2.46,1.3,2.46-2.05-1.32-2.87-.4.35,2.43.62,2.54c0,0-1.18-.69-1.86.26s.64,2.43,2,3.25c2.34,1.44,5.9,3,7.87,4.21,3.16,2,11.51,5.6,18.94,15.32s13.18,24.63,9.45,36.09-14.45,17.35-21.79,18.55a20.71,20.71,0,0,0-11.75,6.66Z"/><g class="cls-42"><path class="cls-1" d="M151.75,205.17s6.28,5,11,4.29a35.48,35.48,0,0,0,9.42-3l-5.14,25.08-23.74-1.13,8.43-25.26Z"/></g><g class="cls-43"><path class="cls-5" d="M143.37,230.4,167,231.53l5.12-25a35.38,35.38,0,0,1-9.36,3c-4.53.63-10.51-3.87-11-4.26l-8.39,25.17Zm23.69,1.19h0l-23.73-1.12,0,0s0,0,0,0l8.42-25.26a0,0,0,0,1,0,0h0c.06,0,6.33,4.93,11,4.28a35.66,35.66,0,0,0,9.4-3,0,0,0,0,1,0,0,0,0,0,0,1,0,0l-5.14,25.08s0,0,0,0Z"/></g><g class="cls-44"><path class="cls-1" d="M189.29,92.36s21.76,11,28.65,18,18.16,27.22,17.89,42.13-4.5,14.79-4.5,14.79-14.52-4.05-17.9-9.72-2.19-21.45-7.65-28.37-3.49-13.61-17.19-19.9S173.3,101.36,176.48,95c4.78-9.59,12.81-2.64,12.81-2.64Z"/></g><g class="cls-45"><path class="cls-5" d="M183.2,89.92h2.74l0,0h.31l0,0h.32l0,0,.05,0,.05,0h0l0,0h.07l.05,0h0l0,0h.12l0,0h.07l0,0h0l0,0,0,0h0l0,0,0,0h.13l0,0h.1l0,0h.1l0,0H188l0,0h0l.05,0h0l0,0,0,0h.11v0h.44l0,0h.09l0,0h0l0,0h0l0,0,0,0h0l0,0h.22l0,0,0,0,0,0,.05,0,.06,0,.13.07.08,0,.09,0,.09,0,.09,0,.11,0,.1.06.12.06.06,0,.19.1.07,0,.07,0,.07,0,.07,0,.07,0,.07,0,.08,0,.07,0,.08,0,.08,0,.08,0,.09,0,.17.09.08,0,.09,0,.1,0,.18.09.09,0,.1,0,.09.05.1,0,.1,0,.1.06.1,0,.1,0,.2.11.11.06.1,0,.11.06.11.06.1.06.1.06.1.06.11.06.11.06.23.12.12.06.12.06.11.07.12.06.49.26.12.07.13.07.12.07.13.06.12.07.13.07.13.07.13.07.13.07.06,0,.07,0,.06,0,.2.11.07,0,.06,0,.07,0,.07,0,.06,0,.07,0,.14.08.06,0,.07,0,.07,0,.14.07.07,0,.06,0,.07,0,.07,0L198,97l.07,0,.07,0,.07,0,.07,0,.2.11.07,0,.07,0,.07,0,.07,0,.07,0,.07,0,.07,0,.07,0,.07,0,.08,0,.07,0,.07,0,.07,0,.07,0,.07,0,.07,0,.22.13.15.08.07,0,.07,0,.07,0,.08,0,.07,0,.07,0,.08,0,.07,0,.07,0,.08,0,.07,0,.07,0,.08,0,.07,0,.08,0,.14.09.08,0,.07.05.08,0,.07,0,.15.09.15.08.07,0,.15.08.08,0,.07,0,.08,0,.07,0,.08,0,.07,0,.08,0,.07,0,.08,0,.08,0,.07,0,.08,0,.07,0,.08,0,.07,0,.08,0,.07,0,.08,0,.07,0,.15.1.08,0,.08,0,.07,0,.08,0,.07,0,.08,0,.07,0,.08,0,.08,0,.07,0,.15.1.16.1.07,0,.08,0,.07,0,.08,0,.07,0,.08,0,.07,0,.08,0,.08,0,.07,0,.08.05.07,0,.08,0,.07.05.08,0,.08,0,.07.05.08,0,.07,0,.15.09.08,0,.07,0,.08,0,.07,0,.08,0,.07,0,.08,0,.07,0,.08,0,.07,0,.08,0,.07,0,.08,0,.07,0,.08,0,.15.1.07,0,.07,0,.08,0,.22.14.08,0,.07,0,.15.09.14.1.08,0,.07,0,.15.1.07,0,.07,0,.08,0,.07,0,.07,0,.07,0,.08,0,.07,0,.14.1.08.05.07,0,.07,0,.07,0,.07,0,.07,0,.08,0,.07.05.07,0,.07,0,.07.05.07,0,.14.1.07,0,.07,0,.07.05.07,0,.07,0,.14.1.07,0,.07,0,.07.05.07,0,.07,0,.07.05.07,0,.07,0,.13.09,0,0,0,0,0,0,0,0,0,0,.07,0,0,0,0,0,0,0,0,0,0,0,.07,0,0,0,0,0,0,0,0,0,0,0,0,0,0,0,0,0,0,0,0,0,0,0,0,0,0,0,0,0,0,0,0,0,0,0,0,0,0,0,0,0,0,0,0,0,0,0,0,0,0,0,0,0,0,0,0,0,0,0,0,0,0,0,0,0,.07,0,0,0,0,0,0,0,0,0,0,0,0,0,0,0,0,0,0,0,0,0,0,0,.13.09,0,0,0,0,0,0,0,0,0,0,0,0,0,0,0,0,0,0,0,0,0,0,0,0,0,0,0,0,0,0,0,0,0,0,.12.09,0,0,0,0,0,0,0,0,0,0,0,0,0,0,0,0,0,0,.06,0,0,0,0,0,0,0,0,0,0,0,0,0,0,0,0,0,0,0,0,0,.06,0,.06,0,0,0,0,0,0,0,0,0,0,0,0,0,0,0,0,0,0,0,0,0,0,0,0,0,0,0,0,0,0,0,0,0,0,0,0,0,0,0,0,0,0,0,0,0,0,0,0,0,0,0,0,0,0,0,0,0,0,0,0,0,0,0,0,0,0,0,0,0,.05,0,0,0,0,0,.05,0,0,0,0,0,0,0,0,0,0,0,0,0,0,0,0,0,0,0,0,0,0,0,.05,0,0,0,0,0,0,0,0,0,0,0,0,0,0,0,0,0,0,0,0,0,0,0,0,0,0,0,0,0,0,0,.05,0,0,0,0,0,0,0,0,0,0,0,0,0,0,0,0,0,0,0,0,0,0,0,0,0,0,0,.09.08,0,0,0,0,0,0,0,0,.05,0,0,0,0,0,0,0,0,0,0,0,0,0,0,0,0,0,0,0,0,0,0,0,0,0,.06.06,0,0,0,0,0,0,0,0,0,0,0,0,0,0,0,0,0,0,0,0,0,0,0,0,0,0,0,0,0,0,0,0,0,0,0,0,0,0,0,0,0,0,0,0,0,0,0,0,0,0,0,0,0,0,0,0,0,0,0,0,0,0,0,0,0,0,0,0,0,0,0,0,0,0,0,0,0,0,0,0,0,0,0,0,0,0,0,0,0,0,0,0,0,0,0,0,0,0,0,0,0,0,0,0,0,0,0,0,0,0,0,0,0,0,0,0,0,0,0,0,0,0,0,0,0,0,0,0,0,0,0,0,0,0,0,0,0,0,0,0,0,0,0,0,0,0,0,0,0,0,0,0,0,0,.05,0,0,0,0,0,0,0,0,0,0,0,0,0,0,0,0,0,0,0,0,0,0,0,0,0,0,0,0,0,0,0,0,0,0,0,0,0,0,0,0,0,0,0,0,0,0,0,0,0,0,0,0,0,0,0,0,0,0,0,0,0,0,0,0,0,0,0,0,0,0,0,0,0,0,0,0,0,0,0,0,0,0,.06,0,0,0,0,0,0,0,0,0,0,0,0,0,0,0,0,0,0,0,0,0,0,0,0,0,0,0,0,0,0,0,0,0,0,0,0,0,0,0,0,0,0,0,0,0,0,0,0,0,0,0,0,0,0,0,0,0,0,0,0,0,0,0,0,0,0,0,0,0,0,0,0,0,0,0,0,0,0,0,0,0,0,0,0,0,.06,0,0,0,0,0,0,0,0,0,0,0,0,0,0,0,0,0,0,0,0,0,0,0,0,0,0,0,0,0,0,0,0,0,0,0,0,0,0,0,0,0,0,0,0,0,0,0,0,0,0,0,0,0,0,0,0,0,0,0,0,0,.06,0,0,0,.06.05.07,0,0,0,0,0,0,0,0,.05.07,0,0,0,0,0,0,0,0,0,0,0,0,0,0,0,0,0,0,0,0,0,0,0,0,.05.07.05.07,0,0,0,0,0,0,0,0,0,0,0,0,0,0,0,0,0,0,0,0,0,0,0,0,0,.07,0,.08,0,0,0,0,0,0,0,0,0,0,0,0,0,0,0,0,0,0,0,0,0,0,0,0,0,0,0,0,.05.08,0,0,0,0,0,0,0,0,0,0,0,0,0,0,0,0,0,0,0,.08,0,0,0,0,0,0,0,0,0,0,0,0,0,0,0,0,0,0,0,0,0,0,0,0,0,0,0,0,0,0,0,0,.05.08,0,0,0,0,0,0,0,0,0,0,0,0,0,0,0,0,0,0,0,0,0,0,0,0,0,0,0,0,.05.07,0,0,0,0,0,0,0,0,0,0,0,0,0,0,0,0,.05.08,0,0,0,0,0,0,0,.08,0,0,0,0,0,0,0,0,0,0,.05.08,0,0,0,0,0,0,0,0,0,0,0,0,0,0,0,0,0,0,0,0,0,0,0,.08,0,0,0,0,0,0,0,0,0,0,0,0,0,0,0,0,0,0,0,0,0,0,0,0,0,0,0,0,0,.08,0,0,0,0,.05.08,0,0,.05.08,0,0,0,0,0,0,0,0,0,0,0,0,0,0,0,0,0,0,0,0,0,0,0,0,0,0,0,0,0,0,0,.08,0,0,0,0,0,0,0,0,0,.09,0,0,0,.08,0,0,0,.09,0,0,0,0,0,0,0,0,0,0,0,0,0,.05,0,0,0,0,0,0,0,.05,0,0,0,0,0,0,0,0,0,0,0,0,.14.26,0,0,0,0,0,0,0,0,0,0,0,0,0,0,0,.05,0,0,0,0,0,0,0,0,0,0,0,0,0,0,0,0,0,.05,0,0,0,0,0,0,0,0,0,.05,0,0,0,0,0,0,0,0,.05.09,0,.09.05.09,0,0,0,0,0,.09,0,0,0,0,0,.09,0,0,0,.09,0,.05,0,0,0,0,0,0,0,0,0,0,0,0,0,.05,0,0,0,0,0,0,0,0,0,0,0,0,.1.22,0,0,.05.1,0,0,0,0,0,0,0,0,0,.05,0,0,0,0,0,.05,0,0,0,0,0,0,0,0,0,.1,0,0,0,.1,0,.05,0,0,0,0,0,0,0,.05,0,0,0,0,0,.05,0,0,0,.05,0,.09,0,0,0,.1,0,0,0,0,.06.14,0,0,.32.69,0,.05,0,.09,0,.05,0,0,0,.05,0,0,0,.05,0,0,0,0,0,0,0,.05,0,0,0,.05,0,0,0,0,0,0,0,0,0,0,0,.05,0,0,0,.05,0,0,0,0,0,0,0,.05,0,0,.06.14,0,.05,0,.05,0,0,0,.05,0,0,0,0,.12.29,0,0,0,.05,0,0,0,0,0,.05,0,.05,0,0,0,.05v0l0,.09,0,.05,0,.09,0,0,0,.05,0,0,0,0,0,.1,0,0,.06.14,0,0,0,.1,0,0,0,0,0,.05,0,0,0,0,0,0,0,.05,0,.05,0,0,0,0,0,.05,0,.05,0,0,0,0,0,.05,0,.05,0,0,0,.1,0,.05,0,0,0,.05,0,0,0,.05,0,0V134l0,0,0,.05,0,0,0,.05,0,0,0,.05.05.14,0,.05,0,.05v0l0,.05,0,0,0,.09v.05l0,.1,0,0,0,.09,0,.05,0,.05v0l0,0,0,.1v0l0,0,0,.05,0,.05.06.19,0,0,.07.19,0,.05V136l0,0,.07.19v.05l0,.09v0l0,.05,0,.05v0l0,0,0,.05v.05l0,0,0,.14v0l.13.39,0,0v0l0,.15,0,0,0,.09v.05l0,0v.05l0,.09v0l0,.05v0l0,.05v.05l0,0v.05l0,.1,0,0,0,.09v.05l0,0v.05l0,.05v0l.05.15v0l0,.09v.05l0,0v.05l0,.05v.09l0,.1,0,0v.05l0,.09v0l0,.05v.05l.06.19,0,.1,0,.09v0l0,.05v.1l0,0v.1l0,0v.09l0,.1v.1l0,.09V141l0,.05v.15l0,0v.15l0,.05v.19l.09.33v.19l0,.1v.14l0,.1,0,.1v.28l0,.1v.38l0,.09v1l0,.1v.19l0,.09v.05l0,.09v.33l0,.14v0l0,.14V146l0,.14v.42l0,.14V157l0,.14v1.56l0,.12v1.49l0,.08v.31l0,.17v1.45l0,.05V163l0,.12v.06h0v.06l0,0v.13h0v.08h0v0h0v.06h0l0,0v0h0v.06h0v0h0v0h0v0h0v0h0v0h0V164h0v0h0v0h0v0h0l0,0v0h0v0h0v.05h0v0h0v0h0v0h0v0h0v0h0v0h0v0h0v0h0v0h0v0h0v0h0v0h0v0h0v.06h0l0,0h0v0h0v0h0l0,0h0v.05h0v0h0v0h0l0,0v0h0v0h0l0,0h-.09v0h0v0h-.13v0h0v0h0v0h-.12l0,0h-.06v0h-.05v0h0l0,0h0v0h0v0h0v0h0v0h0v0h0l0,0h0l0,0,0,0h-.07l0,0h0l0,0h-.05l0,0h0l0,0h0l0,0h0l0,0,0,0h0l0,0h-1.09l-.05,0h-.09l-.06,0h-.1l-.08,0h0l0,0h-.13l0,0h-.09l-.05,0-.09,0H230l-.05,0,0,0h-.05l-.06,0,0,0h-.05l-.06,0-.06,0,0,0-.06,0-.06,0-.06,0-.06,0-.06,0-.06,0-.07,0-.06,0-.06,0-.07,0-.07,0-.06,0-.07,0-.07,0-.14,0-.07,0-.18-.06h-.1l0,0h-.08l-.07,0h-.07l0,0h-.08l0,0h-.08l0,0h-.07l0,0h0l-.08,0-.12,0,0,0-.08,0-.08,0,0,0h0l0,0h0l0,0h0l0,0h0l0,0h0l0,0h0l0,0h0l-.05,0,0,0h0l0,0h-.05l0,0,0,0h0l0,0h0l0,0,0,0h0l-.05,0,0,0h0l0,0,0,0h-.05l-.1,0,0,0h-.05l0,0-.05,0,0,0h0l0,0,0,0,0,0h0l-.09,0,0,0-.1,0,0,0,0,0,0,0,0,0-.05,0,0,0-.05,0,0,0h0l0,0-.09,0-.05,0-.09,0,0,0,0,0-.05,0-.05,0,0,0,0,0,0,0-.05,0,0,0-.05,0,0,0-.05,0-.14-.06-.05,0,0,0-.05,0,0,0-.05,0,0,0-.05,0,0,0-.05,0-.05,0,0,0-.05,0,0,0-.05,0,0,0-.05,0,0,0-.05,0,0,0-.05,0-.05,0,0,0-.05,0,0,0-.05,0,0,0,0,0,0,0-.05,0,0,0-.05,0-.05,0-.09-.05-.05,0-.05,0,0,0-.05,0,0,0-.05,0,0,0-.05,0-.05,0,0,0-.05,0,0,0-.09,0-.1-.05-.09,0-.05,0-.1,0-.05,0,0,0-.05,0,0,0-.1-.05,0,0-.15-.08-.09-.05-.1,0,0,0,0,0-.05,0-.05,0-.09-.05,0,0,0,0-.05,0-.05,0-.09-.05-.05,0-.05,0-.07,0h0l0,0h0l-.05,0h0l-.09,0h0l0,0h-.05l0,0H219l-.18-.11h-.07l-.07,0,0,0h0l0,0h0l0,0h0l0,0h0l0,0h0l-.05,0h0l0,0h0l0,0h0l0,0h-.05l0,0h0l0,0h0l0,0h0l0,0h0l0,0,0,0,0,0h0l0,0h0l0,0h0l0,0h0l0,0,0,0h0l-.07,0,0,0h0l0,0h0l-.06-.05h0l-.14-.1h0l0,0h-.05l0,0h0l-.06,0,0,0h0l0,0,0,0h0l-.06,0,0,0,0,0h0l0,0h0l0,0,0,0h0l0,0h0l0,0h0l0,0h0l0,0h0l0,0h0l0,0h0l0,0h0l0,0h0l0,0,0,0h0l0,0h0l0,0,0,0h0v0l-.06,0,0,0h0l0,0h0l0,0,0,0h0l0,0,0,0-.07-.06h0l0,0,0,0h0l0,0,0,0h0l0,0h0l0,0h0l0,0,0,0h0l0,0h0l0,0h0v0l0,0h0v0l-.05-.05h0l0,0h0l0,0h0v0h0l0,0h0l0,0,0,0h0l0,0h0v0h0v0h0l0,0,0-.05h0l0,0,0,0h0l0,0h0l0,0,0,0h0l0,0v0l0,0,0,0h0l-.09-.1v0h0v0h0v0l0-.05h0l-.07-.08v0l0,0v0h0v0h0v0h0v0l0,0h0l0,0h0l0-.05v0l0,0,0,0,0,0h0v0h0v0l0,0h0v0h0l0,0v0h0v0h0l0,0h0l0,0v0h0v0l0,0v0h0v0h0v0h0v0h0v0l0,0v0h0v0h0v0h0v0h0v-.06h0v-.06h0v-.06h0v-.06h0l0,0v0h0v-.22h0v-.46l0-.06v-.79l0,0v-.3l0-.07V155l0,0v0l0-.07v-.16l0-.05v-.17l0-.05v-1.2l0-.08v0l0-.1v-.62l0,0v-.22l0-.16v-.73l0-.12v-.4l0-.17v-1.14l0-.12v-.18l0-.12v-.18l-.1-.61V148l0-.12,0-.12,0-.13-.07-.5,0-.12-.05-.38,0-.26,0-.25,0-.26-.12-.89,0-.13,0-.13,0-.13,0-.13,0-.13,0-.13,0-.13v-.32l0-.13v-.32l0-.2V143l0-.19v-.13l0-.2v-1.16l0-.07v-.7l0-.13v-.07l0-.13V140l0-.06v-.13l-.06-.32v-.06l0-.13v-.19l0-.06,0-.13,0-.06,0-.19v-.19l0-.07v-.85l0-.13v-.18l0-.06v-.78l0-.06V136l0-.06v-.09l0-.06v-.84l-.08-.26v-1.12l0-.08v-.38l0-.06v-.08l0-.05v0l0,0v0l0-.08v-.21l0,0v-.08l0,0v-.08l0-.05v-.06l0,0v-.07l0,0V132l0-.05v0l0,0v-.08l0,0v0l0-.08,0,0,0-.05,0,0v0l0-.07v0l0-.05,0,0v-.07l0,0,0-.05,0,0V131l0,0V131l-.06-.09v0l0,0v0l0-.05v0l0,0v0l0,0v0l-.05-.07v0l0-.05v0l0-.05,0,0v0l0,0v0l0,0v0l0,0v0l0,0v0l0,0v0l0,0v0l0,0v0l0,0,0,0v0l0-.06,0,0v0l0,0,0,0v0l0,0,0,0,0,0v0l0,0v0l0,0,0,0v0l0,0,0,0,0,0v0l0,0v0l0,0v0l0,0v0l0,0,0,0v0l0,0,0,0v0l0,0v0l0,0v0l0,0v0l0-.06v0l0,0,0,0,0,0v0l0,0,0,0,0-.06,0,0,0-.06,0,0v0l0,0,0,0v0l0,0v0l0,0,0,0h0v0l0,0v0l0,0v0l0,0,0-.06v0l0,0,0-.06v0l-.05-.06v0l0,0v0l0,0v-.06l0,0,0,0,0,0v0l0,0v0l0,0,0,0v0l0,0v0l0-.06v0l0,0v0l0,0,0,0v-.06l0-.06v0l0,0v-.12l0,0v0l0,0v0l0,0v0l0,0v0l0,0v0l0,0,0,0v0l0,0v0l0,0v-.06l0,0,0-.06v-.08l0,0,0,0-.05-.08,0,0,0,0,0,0,0,0-.07-.12,0,0,0,0,0,0,0,0,0,0,0,0,0,0-.08-.16,0,0L203,125l0,0,0,0,0,0,0,0,0,0,0,0,0,0-.06-.12,0,0,0-.12,0,0-.06-.12,0,0,0,0,0,0,0,0,0,0,0-.08,0,0,0,0,0,0,0,0,0-.08,0,0,0-.08,0,0-.06-.12,0-.08,0-.08-.07-.16,0-.08-.07-.16-.07-.16-.07-.15-.15-.32,0-.08,0-.08,0-.08,0-.08,0-.08,0,0,0,0v0l0,0,0,0,0,0,0,0,0,0v0l0,0,0,0,0,0,0,0,0,0,0,0,0-.07,0,0,0,0,0,0,0,0,0,0,0-.08,0,0,0-.08v0l0,0,0,0,0,0,0,0,0,0,0,0,0,0,0,0,0,0,0,0,0,0,0,0,0,0,0,0,0,0,0,0,0-.08,0,0,0,0,0,0,0,0,0,0,0,0,0,0,0,0,0,0,0,0,0,0,0,0,0,0,0,0,0,0,0,0,0,0v0l0,0v-.2l0,0V119l0,0v-.08l0,0v-.08l0,0v0l0,0v-.06l0,0v0l0,0v-.12l0,0v-.1l0,0v-.06l0-.06v0l0,0V118l0,0v-.06l0,0,0,0v0l0,0v0l0,0v-.06l-.06-.08,0,0,0,0v0l0,0v0l0,0v0l0,0v0l0,0,0,0,0,0,0,0v0l0,0v0l0,0v0l0,0v0l0,0v0l0,0v0l-.05-.06v0l0,0v0l0,0v0l0,0v0l0,0,0,0,0,0v0l-.05-.06v0l0,0v0l0,0v0l0,0,0,0,0,0v0l0,0,0,0v0l0,0v0l0,0-.06-.07,0,0-.06-.08,0,0v0l0,0v0l0,0,0,0,0,0v0l0,0,0,0,0,0v0l-.07-.08,0,0-.14-.15v0l0,0,0,0,0,0,0,0,0,0,0,0,0,0-.06,0,0,0,0,0,0,0,0,0,0-.06,0,0,0,0,0,0,0,0,0,0v0l0,0,0,0,0,0,0,0,0,0-.06-.06,0,0-.06-.06h0l0,0,0,0,0,0,0,0,0,0,0,0,0,0,0,0,0,0,0,0,0,0,0,0,0,0,0,0,0,0,0,0,0,0,0,0,0,0h0l0,0,0,0,0,0,0,0,0,0,0,0-.06-.06,0,0-.07-.06,0,0,0,0,0,0,0,0-.05,0,0,0,0,0,0,0,0,0,0,0,0,0,0,0,0,0,0,0-.07-.05-.05,0,0,0,0,0,0,0,0,0,0,0,0,0,0,0,0,0,0,0,0,0,0,0,0,0,0,0,0,0,0,0,0,0-.07,0,0,0,0,0,0,0,0,0,0,0,0,0,0,0,0,0,0,0,0,0-.05,0,0,0,0,0,0,0,0,0,0,0,0,0,0,0,0,0-.05,0,0,0,0,0,0,0,0,0,0,0,0,0,0,0h0l0,0,0,0,0,0,0,0,0,0-.08,0,0,0,0,0,0,0,0,0,0,0,0,0,0,0,0,0-.06,0h0l0,0,0,0,0,0,0,0,0,0,0,0,0,0,0,0,0,0,0,0,0,0,0,0,0,0,0,0h0l0,0,0,0,0,0,0,0,0,0,0,0,0,0,0,0,0,0,0,0,0,0,0,0,0,0h0l0,0,0,0,0,0,0,0,0,0,0,0,0,0,0,0,0,0,0,0,0,0h0l0,0,0,0,0,0,0,0-.1-.06h0l0,0,0,0,0,0,0,0,0,0,0,0,0,0,0,0,0,0h0l0,0,0,0-.07,0,0,0,0,0,0,0,0,0,0,0h0l0,0,0,0,0,0,0,0,0,0,0,0,0,0,0,0-.1,0,0,0,0,0,0,0,0,0,0,0h0l0,0,0,0,0,0-.07,0,0,0,0,0,0,0,0,0,0,0h0l0,0,0,0,0,0,0,0,0,0,0,0-.07,0,0,0,0,0,0,0-.07,0,0,0h0l0,0-.07,0,0,0,0,0,0,0,0,0,0,0,0,0h0l0,0,0,0-.08,0,0,0-.08,0,0,0,0,0,0,0,0,0,0,0,0,0,0,0h0l0,0-.07,0,0,0-.08,0,0,0h0l0,0-.12-.06,0,0,0,0,0,0h0l0,0-.08,0,0,0,0,0,0,0h0l0,0,0,0,0,0-.16-.07-.08,0-.08,0-.08,0-.08,0-.08,0-.15-.08-.08,0-.08,0-.07,0-.08,0-.08,0-.07,0-.08,0-.07,0-.08,0-.15-.07-.08,0-.07,0-.07,0-.08,0-.07,0-.07,0-.08,0-.14-.06-.07,0-.08,0-.07,0-.07,0-.07,0-.07,0-.07,0-.07,0-.07,0-.07,0-.07,0-.07,0-.14-.07-.07,0-.06,0-.07,0-.07,0-.07,0-.06,0-.07,0-.07,0-.06,0-.07,0-.07,0-.06,0-.07,0-.06,0-.07,0-.06,0-.13-.06L184,107l-.06,0-.06,0-.07,0-.06,0-.06,0-.06,0-.06,0-.07,0-.06,0-.06,0-.06,0-.06,0-.06,0-.06,0-.06,0-.06,0-.11-.06-.06,0-.06,0-.06,0-.06,0-.06,0,0,0-.06,0-.06,0-.11-.06-.06,0,0,0-.06,0-.06,0-.05,0-.1,0,0,0-.06,0-.05,0-.06,0-.05,0,0,0-.06,0-.05,0,0,0-.06,0-.1,0-.05,0-.05,0,0,0-.05,0,0,0-.1,0,0,0-.05,0,0,0-.05,0-.05,0,0,0-.05,0,0,0-.05,0,0,0-.05,0,0,0-.05,0-.09-.06-.05,0,0,0,0,0,0,0,0,0,0,0,0,0,0,0-.05,0,0,0-.05,0,0,0h-.06l0,0h0l0,0h0l0,0,0,0h-.05l0,0h0l0,0h-.06l0,0h0l0,0h0l0,0h0l0,0h-.06l0,0h-.06l0,0h-.06l0,0h-.06l0,0,0,0,0,0h-.06l0,0h-.06l0,0-.05,0,0,0-.06,0h0v0h-.06l0,0h-.08l0,0-.05,0,0,0h-.07l0,0h0l0,0h0l0,0h0l0,0,0,0h-.08l0,0h0l0,0h0l0,0h0l0,0h-.06v0h0l0,0h0l0,0,0,0h-.06l0,0h0l0,0h-.05l0,0h0l-.05,0h0v0h-.07l0,0h-.08v0h-.08v0h0l0,0h0l0,0h0l0,0h0v0h-.08l0,0h0l0,0h0v0h-.07l0,0h-.06v0h-.06v0h0v0h0v0H176v0h0v0h0l0,0h0v0h-.06v0h-.05l0,0h0l0,0h0v0h0l0,0h0v0h0l0,0h0v0h0v0h0v0h0v0h0v0h0v0h0v0h0v0h0v0h0v0l0,0h0v0h0v0h0v0h0v0h0v0h0v0h0v0h0v0h0v0h0v0h0v0h0v0h0v0h0v0h0v0h0v-.06h0v-.06h0v0h0v0h0v0h0v0h0v0h0v0h0v-.15h0v0h0v0h0v0h0v0h0v0h0v0h0v0h0v0h0v0h0v0h0v0h0v0h0v-.06h0v0h0v-.07h0v0h0v-.06h0v0h0v0h0v-.06h0v0h0v0h0v0h0v0h0v0h0v0h0v0h0v0h0v0h0v0h0v0h0v-.08h0v0h0v-.06h0v-.05h0v0h0v0h0V97.4h0v0h0v0h0v0h0v0h0v0h0v0h0v0h0v0h0v0h0V97h0V97h0v0l0,0v0h0v0h0l0-.08v0l0,0v0h0v-.09h0v0h0v0h0v0h0v0h0v0h0v0l0,0v0l0,0v0l0,0,0-.07v0l0-.06,0,0v0l0,0,0,0v0l0,0,0-.07,0,0v0l0,0,0,0v0l0,0,0-.07,0,0,0,0,0,0v0l0,0,.07-.15,0-.07,0,0,0,0,0-.06v0l0,0v0l0,0v0l0,0v0l0,0v0l0,0v0l0,0v0l0,0v0l0-.07,0,0v0l0,0v0l0,0v0l0,0v0l0,0v0l0,0v0l0,0v0l0,0v0l0,0v0l0,0v0l0,0v0l0,0,0-.05v0l0,0v0l0,0v0l0,0,0,0,0,0v0l0,0v0l0,0v0l0,0v0l0,0,0-.07,0,0,0,0,0,0v0l0,0,0,0v0l0,0v0l0,0v0l0,0v0l0,0v0l0,0,0,0v0l0,0v0l0,0v0l0,0v0l0,0,0,0v0l0-.06v0l0,0,0,0v0l0,0,0,0v0l0,0v0l.07-.07v0l0,0,0,0,0,0,0,0,0,0v0l0,0,0-.05h0l0,0v0h0l0,0,0,0v0h0l0,0h0v0h0l0,0h0l0,0h0l0,0h0v0h0v0h0l0,0h0l0,0h0l0,0h0v0h0l0,0h0l0,0,0,0v0h0l0,0h0v0h0v0h0v0h0l0,0h.05v0h0l0,0h.1l0,0h.18v0h.22l0,0h.28l.05,0h.14l.05,0h.45l.05,0h2.22Zm0,.06h-2l0,0h-.71l0,0h-.51l0,0h-.15l0,0h-.15v0h-.07v0h0l0,0h0v0h0l0,0h0l0,0h0l0,0h0v0h0l0,0,0,0v0h0v0h0v0h0v0h0l0,0,0,0-.06.06h0l0,0h0l0,0h0l0,0,0,0h0l-.09.1,0,0,0,0h0l0,0,0,0,0,0v0h0l0,0,0,0h0l0,0v0h0l-.05.06v0h0v0l0,0v0l0,0v0l0,0v0l0,0v0l0,0v0l0,0,0,0v0l0,0v0l0,0,0,0v0l0,0v0l0,0,0,0v0l0,0v0l0,0v0l0,0v0l0,0v0l0,0v0l0,0v0l0,0,0,0v0l0,0,0,0v0l0,0,0,.07,0,0v0l0,0,0,0v0l0,0v0l0,0,0,0v0l0,0v0l0,0v0l0,0v0l0,0v0l0,0,0,.05v0l0,0v0l0,0v0l0,0,0,.05v0l0,0v0l0,0v0l0,.05v0l0,0,0,.07,0,0v0l0,0v0l0,0v0l0,0,0,0v0l0,0v0l0,0v.06l0,0v0l0,0V95l0,0,0,0,0,0,0,0,0,0v0l0,0,0,0,0,0,0,0v0l0,0,0,.07,0,.07,0,0v0l0,0,0,0v0l0,.07,0,0,0,.07,0,0v0l0,0v0l0,0v0l-.05.11v0l0,0v0l0,0v.07h0v0h0v0h0v0h0l0,0h0v0h0v0h0v.12h0v.07h0v0h0v0h0v0h0v0h0v0h0v0h0v0h0v0h0v0h0v0h0v0h0v0h0v0h0v0h0v0h0v.1h0v0h0v.08h0v0h0v0h0v0h0v0h0v0h0v0h0v0h0v0h0v0h0v0h0v0h0v0h0v0h0v0h0v0h0v0h0v0h0v0h0v0h0v0h0v.06h0v0h0v0h0v0h0v.06h0v0h0V99h0v0h0v0h0v0h0v0h0v0h0v0h0v.06h0v.14h0v.06h0v0h0v0h0v0h0v.13h0v0h0v0h0v0h0v0h0v0h0v0h0v0h0v0h0v0h0v0h0v0h0v0h0v0h0v0h0v0h0v0h0v0h0v0h0v0h0v0h0v0h0v0h0v0h0v0h0v0h0l0,0h0v0h.06v0h0v0h0v0h0l0,0h0v0h0l0,0h0l0,0h0v0h.06v0h.07v0h0l0,0h0l0,0h0l0,0h0l0,0h0l0,0h0l0,0h0l0,0h0v0h0l0,0h0l0,0h0l0,0h0l0,0h0l0,0h0l0,0h0v0H177v0h.06l0,0v0h.08l0,0h0l0,0h0l0,0h.07l0,0h.06l0,0h.09l0,0h0l0,0h.07l0,0h0l0,0h0l0,0h0l0,0h0l0,0h.08l0,0h.07l0,0h.07v0h.08l0,0h.07l0,0h.05l0,0h.1l0,0h0l0,0,0,0h0l0,0h0l0,0,0,0H179l0,0H179l0,0h0l0,0h0l.06,0h.06l0,0h0l0,0h0l0,0,0,0h0l0,0,.07,0h.06l0,0h0l0,0h0l0,0,.05,0,0,0,0,0,0,0,0,0,0,0,0,0,.09,0,0,0,.05,0,.1.06,0,0,.1.06,0,0,.05,0,0,0,.05,0,0,0,.05,0,0,0,.15.08.05,0,0,0,.05,0,.05,0,0,0,.06,0,.05,0,0,0,.05,0,.05,0,.06,0,.1.06.06,0,0,0,.22.11.05,0,.06,0,0,0,.06,0,.05,0,.06,0,.06,0,0,0,.06,0,.06,0,.05,0,.06,0,.06,0,.06,0,.06,0,.12.06.06,0,.06,0,.06,0,.18.1.06,0,.06,0,.06,0,.06,0,.06,0,.06,0,.06,0,.07,0,.06,0,.06,0,.07,0,.06,0,.13.07.06,0,.07,0,.06,0,.07,0,.13.06.06,0,.14.06.26.13.07,0,.07,0,.07,0,.07,0,.07,0,.07,0,.07,0,.07,0,.2.1.07,0,.14.07.07,0,.07,0,.22.11.07,0,.22.1.07,0,.08,0,.07,0,.08,0,.07,0,.08,0,.07,0,.23.1.08,0,.07,0,.08,0,.08,0,.08,0,.07,0,.08,0,.08,0,.08,0,.08,0,.08,0,.08,0,.16.08,0,0h0l0,0,0,0,0,0,.08,0,0,0h0l0,0,0,0,0,0,0,0,0,0,0,0,0,0,0,0,.08,0,0,0,0,0,0,0,.07,0h0l0,0,.11.06,0,0,0,0,.07,0,0,0,0,0,0,0,0,0,0,0,0,0,0,0,0,0,0,0h0l0,0,.07,0,0,0,0,0,0,0,0,0,0,0h0l0,0,0,0,0,0,0,0,.07,0,.07,0,0,0,0,0,0,0,0,0,0,0,0,0,0,0,0,0,0,0,0,0h0l0,0,0,0,0,0,0,0,0,0,0,0,0,0,0,0,0,0h0l0,0,0,0,0,0,0,0,0,0,0,0,0,0h0l0,0,0,0,0,0,0,0,0,0,0,0,0,0,0,0,0,0h0l0,0,0,0,0,0,0,0,0,0,0,0,0,0,0,0,.06,0h0l0,0,0,0,0,0,0,0,0,0,0,0,0,0,0,0,0,0,0,0h0l0,0,0,0,.06,0,0,0,0,0,0,0,0,0,0,0,0,0,0,0h0l0,0,0,0,0,0,0,0,0,0,0,0,0,0,0,0,0,0,0,0,0,0,0,0,0,0,.11.08,0,0,0,0h0l0,0,0,0,0,0,0,0,0,0,0,0,0,0,.08.06,0,0,0,0,0,0,0,0h0l0,0,0,0,0,0,0,0,0,0,0,0,0,0,0,0h0l0,0,0,0,0,0,0,0,0,0,0,0,0,0h0l0,0,0,0,0,0,0,0,0,0,0,0,0,0,0,0,0,0,0,0,0,0,0,0,0,0,0,0,.08.06,0,0,0,0h0l0,0,0,0,0,0,0,0,0,0,.07.06,0,0,0,0,0,0,0,0,0,0,0,0,0,0,0,0,0,0,0,0h0l.07.06,0,0,0,0,0,0,.05,0,0,0,0,0,0,0,0,0,0,0,.07.06,0,0,0,0,0,0,0,0,0,0,0,0,0,0,0,0,0,0,0,0,0,0,0,0,0,0h0l0,0,0,0,0,0,0,0,0,0,0,0,0,0,0,0,0,0,0,0,0,0,0,0,0,0,.06.06h0l.1.1,0,0,0,0,0,0,0,0,0,0,0,0,0,0,0,0,.1.09,0,0,.06.06,0,0v0l.06.06,0,0,0,0v0l0,0,0,0,0,0,0,0,.1.1,0,0,.07.08,0,0,0,0v0l0,0,0,0,0,0v0l0,0,0,0,0,0,0,0v0l0,0,0,0,0,0,0,0,0,0v0l0,0,0,0v0l0,0,0,0v0l0,0,0,0,0,0,0,0v0l0,0,0,0v0l0,0v0l0,0v0l.07.08v0l.07.07v0l0,0v0l0,0v0l0,0,0,0v0l0,0v0l0,0v0l0,0v0l0,0,0,0v0l0,0v0l0,0,0,.06,0,0v0l0,0v0l0,0v0l0,0,0,0v0l0,0,0,0,0,0v0l0,0v0l0,0,0,.06,0,0v0l0,0v0l0,0v0l0,0v0l0,0v0l0,0v0l0,0,0,0,0,0v0l0,0,0,0v0l0,0v0l0,0v0l0,0V118l0,0,0,0,0,0v.08l0,0v.06l0,0v.1l0,0v.1l0,0v.1l0,0v.1l0,0,0,0v.2l0,0,0,0v.08l0,0v.06l0,0v.08l0,0v0l0,0,0,0,.06.11,0,0,0,0,0,0,0,.08,0,0,0,0,0,0,0,0,0,.08,0,.08,0,0,0,.07,0,0,0,0,0,0,0,0,0,0,0,0,0,0,0,0,0,0,0,0,0,0,0,.08,0,0,0,0,0,0,.05.12,0,0,0,0,0,0,0,0,0,0,0,0,0,0,0,0v0l0,0,0,0,0,0,0,0,0,0,0,0,0,0v0l0,0,0,0,0,0,0,0,0,0,0,0,.25.55.07.16.07.16.08.16,0,.08.07.15,0,.08,0,.08,0,.08,0,.08,0,0,0,0,0,0v0l0,0,0,0,0,0,0,0,0,0,0,0,0,0v0l.06.12,0,0,0,0,.06.12v0l.1.2,0,0,0,0,.06.12,0,0,0,0,0,0,0,0,0,0,0,0,0,.08,0,0,0,0,0,0,0,0,0,.08,0,0,0,0,0,.08,0,0,0,0,0,0,0,0,0,0,0,0,0,0,0,0,0,.08,0,.08,0,0,0,0,0,0,0,0v0l0,0v.08l0,.06,0,0v0l0,0v0l0,.06v.08l0,0v0l0,0v.06l0,.06v.08l.06.1,0,0v0l0,.06v0l0,0v0l0,0,0,0v0l0,0v.06l0,0,0,.06v0l0,.06v0l0,0v.06l0,0v0l0,0v0l0,0v0h0l0,0v0l0,0v0l.05.06v0l0,0,0,.06v0l0,0v0l0,0v0l0,0v0l0,0,0,0v0l0,0v0l0,0,0,0,0,.06,0,0v0l.06.08v0l0,0,0,0v0l0,0,0,0,0,0v0l0,0v0l0,0v0l0,0v0l0,0,0,0,0,0v0l.06.08,0,0,0,0v0l0,0v0l0,0,0,.05,0,0v0l0,0,0,.06v0l0,0,0,0v0l0,0v0l0,0v0l0,0,0,0v0l0,0v0l.08.1v0l.07.1,0,0v0l0,0v0l0,0v0l0,0v.05l0,0v0l0,0v0l0,0v0l0,.07,0,0v0l0,0v0l0,0v0l0,0v0l0,0,0,.05,0,0v0l0,0,0,.05,0,.07,0,0V131l0,0v0l0,.07v0l0,0v.08l0,0v0l0,0v.08l0,.05v0l0,0,0,.05v0l0,0v0l0,.05v0l0,0v.1l0,0v.1l0,.05v0l0,0v0l0,.05v0l0,.06v0l0,.05v.14l0,0v.19l0,0v0l.05.11V133l0,.05v0l0,.05v0l0,0v.25l0,.06v0l0,.09v.91l0,.06v.18l.07.2v.18l0,.06v.69l0,.12v.09l0,.15v0l0,.1v0l0,.06v.84l0,.12v0l0,.13v.09l0,.09v.06l0,.09v.16l0,.06v.34l0,.06v.07l0,.19v.13l0,.12v.13l0,.06v.19l0,.07v.32l0,.06V140l0,.13v.12l0,.07v.64l0,.07v.26l0,.13v.9l.05.33v.13l0,.13v1.23l0,.25,0,.26,0,.13.11.77,0,.13.07.5,0,.25.05.38,0,.13.05.38,0,.12,0,.38,0,.24v.06l0,.13v.43l0,.24v.36l0,.12v.24l0,.12v1.52l0,.12v.33l0,.12V152l.05.22v.27l0,.17V153l0,.08v.49l0,0v1l0,.05v.1l0,0v.1l0,.11v.12l0,.07v.61l0,.06v.1l0,.09v.16l0,.06v.3l0,0v.28l0,0V157l0,.06h0v.06l0,0v.06h0v0h0v.06h0l0,0h0v0l0,0v0h0v0h0v0l0,0v0h0v0h0v0h0v0h0v0h0v0h0l0,0h0l0,0h0v0l0,0v0l0,0h0v0h0v0l0,0,0,0h0l0,0v0l0,0v0h0l0,0,0,.05h0v0h0v0h0v0h0l0,0h0l0,0h0v0h0l.05.07h0v0l0,0h0l0,0h0l0,0v0l0,0,0,0h0l0,0h0l0,0h0v0h0v0h0v0h0l0,.05,0,0h0l0,0h0v0h0v0h0l0,0v0h0l0,0,0,0h0l0,0,0,0h0v0h0l0,0,0,0,0,0h0l.05,0h0l.05,0h0v0l.05,0,0,0,0,0h0l0,0h0l0,0h0l0,0,0,0h0l.11.1,0,0,.1.07,0,0,0,0h0v0h0l0,0h0l0,0h0l0,0v0h0l0,0h0l0,0h0l0,0h0l0,0,0,0h0l0,0h0l0,0h0l0,0h0l0,0h0l0,0h0l0,0h0l0,0h0l0,0h0l0,0h0l0,0h0l0,0,0,0h0l0,0h0l0,0,0,0,0,0h0l0,0,0,0h0l0,0h0l0,0h0l0,0h0l0,0h0l0,0h0l.05,0h0l0,0h0l.08.06h0l.05,0,0,0h0l0,0h0l0,0,0,0h0l0,0h.05l0,0h0l0,0h0l0,0,0,0h0l0,0h0l0,0h0l0,0h0l0,0h0l0,0h0l0,0h0l0,0h0l0,0h0l0,0h0l.05,0,0,0h0l0,0h.05l0,0h0l0,0H219l.07,0,0,0h.07l.07,0,0,0h0l0,0h.07l0,0h0l0,0,0,0h0l.05,0,0,0,0,0,.1.05,0,0,.05,0,.09.05,0,0,.05,0,0,0,0,0,0,0,.05,0,.05,0,0,0,0,0,.05,0,.05,0,0,0,.15.07,0,0,.1.05.05,0,0,0,.05,0,.1,0,0,0,0,0,0,0,.1,0,0,0,0,0,.05,0,.1.05.05,0,.09.05,0,0,.05,0,.05,0,0,0,.05,0,0,0,.05,0,0,0,.05,0,0,0,.05,0,.19.09.05,0,0,0,.05,0,0,0,.05,0,0,0,.05,0,.05,0,0,0,0,0,.1.05,0,0,.05,0,0,0,.05,0,0,0,.05,0,0,0,.05,0,0,0,0,0,.15.06,0,0,0,0,.14.06,0,0,.09,0,.05,0,.05,0,.09,0,.05,0,0,0,.05,0,.14,0,.05,0,0,0,.05,0,0,0,.05,0,0,0,0,0,0,0h.05l0,0,.05,0,0,0,.09,0h0l.05,0,0,0,.05,0h0l.05,0,0,0,.05,0h0l.05,0,0,0,.1,0,.13,0,.05,0,0,0H226l0,0,0,0h.05l0,0,0,0h.05l0,0h0l0,0,0,0h0l0,0h.05l0,0h0l0,0,.05,0h0l0,0h0l0,0,.08,0h0l0,0h0l0,0h0l0,0h.08l0,0h0l0,0h0l0,0h.08l0,0h.08l0,0h0l0,0,.08,0,0,0H228l0,0h.07l0,0h.11l.11,0,.07,0,.07,0,.07,0,.07,0,.07,0,.07,0,.07,0,.13.05.06,0,.07,0,.06,0,.06,0,.07,0,.06,0,.06,0,.06,0,.06,0,.06,0,.11,0,.05,0,.06,0h0l.06,0,.05,0h0l.05,0h0l.05,0h0l.05,0h0l.05,0h.12l.08,0h.22l.06,0,.06,0h0l.05,0h0l0,0h.75l0,0h.26l0,0h0l0,0h.11l0,0h0l0,0h.08l0,0h0l.06-.06h0l0,0h0l0,0h0v0h0v0h0v0h0v0h0l0,0H233v0H233v0l0,0h0l0,0h0l0,0h0l0,0h0v0h0v0h0v0h0v0h0v0h0v0h0v0h.06v0h0v0h0l0,0h0v0h0v0h0v0h0v0h0v0h0v0h0v-.06h0v0h0v0l0,0v0h0v0h0v0h0v0h0v0h0v0h0v0h0v0h0v0h0v0l0,0h0v0h0v0h0v0h0v-.05h0v0h0v0h0v0h0l0-.07h0v0h0v0h0v0h0v0h0v0h0v0h0v-.06h0v-.06h0v-.06h0v-.08h0v-.12h0v-.86l0-.06v-1l0-.07v-.68l0-.08v-1l0-.09v-4.52l0-.31v-4.82l0-.18v-1.1l0-.13v-.14l0-.23v-.47l0-.09V146l0-.09v0l0-.19V145l0-.1v-.05l0-.09v0l0-.09V143l0-.05v-.42l0-.1v-.05l0-.09v0l0-.1v0l0-.1v-.24l0,0,0-.14,0,0v-.14l0,0v-.05l0-.1v0l0-.15,0-.05-.07-.28,0,0v-.1l0,0v0l0-.15,0-.09,0-.1,0-.05V140l0,0v0l-.06-.2v-.09l-.07-.24,0-.05v-.05l0,0v-.05l0-.09,0-.1v-.05l0-.09,0-.05v-.05l0,0-.06-.19v-.05l-.05-.14v-.05l0-.05v0l0,0v-.05l0-.05v0l0-.05v0l0,0,0-.1,0-.05v0l-.1-.28v-.05l0,0v-.05l-.08-.24,0,0,0-.09,0-.05,0-.1,0,0,0,0v0l0-.05,0-.1,0,0,0-.05v-.05l0,0v-.05l-.17-.48,0,0,0-.05,0-.15,0,0v-.05l0,0,0-.05,0-.05v0l0,0,0-.05,0-.05v0l0-.05,0,0,0-.05,0,0v0l0,0,0-.05,0,0,0,0,0,0v-.05l0,0-.06-.14,0-.05v0l0,0,0-.1,0,0,0,0v0l0-.05,0,0,0,0,0,0,0-.05,0,0,0,0v0l0-.05,0,0,0,0,0,0,0-.05,0-.05,0,0,0,0,0-.05,0,0,0-.05,0-.1,0,0v-.05l0-.1,0,0,0-.05,0-.05,0-.09,0,0,0-.09,0-.05,0,0,0,0,0,0,0-.05,0,0,0,0,0,0,0-.05-.06-.14,0,0,0,0,0-.05,0,0,0,0,0,0,0-.05,0,0,0-.05,0-.09,0,0,0-.05,0,0,0-.05,0,0,0-.09,0-.05,0,0,0-.05,0,0,0-.09,0-.05,0,0,0-.1,0-.09,0-.05,0,0,0-.05,0,0,0,0,0-.09,0-.05,0-.05,0,0,0,0,0-.05,0,0,0-.05,0,0,0-.1,0,0,0-.09,0,0,0-.05,0-.09,0,0,0,0-.12-.28,0,0,0-.09,0,0,0-.05,0,0,0-.05,0,0,0-.05,0,0,0,0,0,0,0,0,0-.05,0,0,0-.05,0,0,0-.05,0,0,0,0,0,0,0,0,0,0,0-.1,0,0,0,0,0,0,0-.1,0,0,0,0,0,0,0-.1,0,0,0,0,0,0,0,0,0,0,0,0-.08-.18,0,0,0,0,0-.05,0,0,0,0,0,0,0,0,0,0,0,0,0,0,0,0,0,0,0,0,0,0,0-.09,0,0,0-.05,0,0,0,0,0,0,0,0,0-.09,0-.09,0,0-.05-.09,0,0-.07-.13,0,0,0,0,0,0,0,0,0,0,0,0,0,0,0,0,0,0,0,0,0-.05,0,0,0,0,0,0,0,0,0-.05-.05-.08,0,0,0,0,0,0,0-.09,0,0,0,0-.09-.18,0,0,0,0,0,0,0,0,0,0,0,0,0-.05,0,0,0,0,0-.09,0,0,0,0,0,0,0,0,0,0,0,0,0,0,0,0,0,0,0,0,0,0,0,0,0,0,0,0,0,0,0,0,0-.09,0,0,0-.08,0,0,0,0,0,0,0,0,0,0,0,0,0,0,0,0,0,0,0,0,0,0,0,0,0,0,0,0,0,0,0,0,0,0,0,0,0,0-.05-.08-.07-.13,0-.08,0,0,0-.08,0,0,0,0,0,0,0,0,0,0,0,0,0,0,0,0,0,0,0,0,0,0,0,0,0,0,0,0-.05-.08,0,0,0,0,0-.08,0,0,0,0,0,0,0,0-.05-.08,0,0,0,0,0,0,0,0,0,0,0,0-.05-.08,0,0L225,120l0,0,0,0,0,0,0,0,0,0,0,0,0,0,0,0,0,0,0,0,0,0,0,0,0,0,0,0,0,0,0,0,0,0,0,0-.05-.08,0,0,0-.07,0,0,0,0,0,0,0,0,0,0,0,0,0,0,0,0,0,0,0-.08,0,0,0-.08,0,0,0,0,0,0,0,0,0,0,0,0,0,0,0,0,0,0,0,0,0,0,0,0,0,0,0,0,0,0,0,0,0,0,0,0,0,0,0,0,0,0,0,0,0,0,0,0,0,0,0,0,0-.07,0,0,0,0,0,0,0-.07,0,0,0,0,0,0,0,0,0,0,0,0,0,0,0,0,0,0,0,0,0,0,0,0-.05-.07,0,0,0,0,0,0,0-.07,0,0,0,0,0,0,0,0,0,0,0,0,0,0,0,0,0,0,0,0,0,0,0,0,0,0,0,0,0,0,0,0,0,0-.05-.07,0,0,0,0,0,0,0,0,0,0,0,0,0,0,0,0,0,0,0,0,0,0,0,0,0,0,0,0,0,0,0-.07,0,0,0,0,0,0,0,0,0,0,0,0,0,0,0,0,0,0,0,0,0,0,0,0,0,0,0,0,0,0,0,0-.05-.07,0,0,0,0,0,0,0,0,0,0,0,0,0,0,0,0,0,0,0,0,0,0,0,0,0,0,0,0,0,0,0,0,0,0,0,0,0,0,0,0,0,0,0,0,0,0,0,0,0,0,0,0,0,0,0,0,0,0,0,0,0,0,0,0,0,0,0,0,0,0,0,0-.05-.06,0,0,0,0,0,0,0,0,0,0,0,0,0,0,0-.06,0,0,0,0,0,0,0,0,0,0,0,0,0,0,0,0,0,0,0,0,0,0,0,0,0,0,0,0,0,0,0,0,0,0,0,0,0,0,0,0,0,0,0,0,0,0,0,0-.05-.06,0,0,0,0,0-.06,0,0-.13-.16,0,0,0,0,0,0,0,0,0,0,0,0,0,0,0,0,0,0,0,0,0,0,0,0,0,0,0,0,0,0,0,0,0,0,0,0,0,0,0,0,0,0,0,0-.05,0,0,0,0,0,0,0,0,0,0,0,0,0,0,0,0,0,0,0,0,0,0,0,0,0,0,0,0,0,0,0,0,0,0,0,0,0,0,0,0,0,0,0,0,0,0,0,0,0,0,0,0,0,0,0,0,0,0,0,0,0,0,0,0,0,0,0,0,0,0,0,0,0,0,0,0,0,0,0,0,0,0,0,0,0,0,0,0,0,0,0,0,0,0,0,0,0,0,0,0,0,0,0,0,0,0,0,0,0,0,0,0,0-.09-.09,0,0,0,0,0,0,0,0,0,0,0,0,0,0,0,0,0,0,0,0,0,0,0,0,0,0-.1-.11,0,0,0,0,0,0,0,0-.07-.06,0,0,0,0-.07-.07,0,0,0,0,0,0,0,0,0,0-.05,0,0,0-.05,0,0,0,0,0,0,0,0,0,0,0,0-.05,0,0,0,0,0,0,0,0,0,0,0,0,0,0,0,0,0,0,0,0,0,0,0,0,0,0,0,0,0,0,0,0,0,0,0,0,0,0,0,0,0,0,0,0,0,0,0,0,0,0,0,0,0,0,0,0,0,0,0,0,0,0,0,0,0,0,0,0,0,0,0,0,0,0,0,0,0,0,0,0,0,0,0,0,0,0,0,0,0,0,0,0,0,0,0,0,0,0,0,0,0,0,0,0,0,0,0,0,0,0,0,0-.06,0-.06-.05,0,0-.05,0,0,0,0,0,0,0,0,0,0,0,0,0,0,0,0,0,0,0,0,0,0,0,0,0,0,0-.06,0,0,0,0,0-.06-.05,0,0,0,0,0,0,0,0,0,0,0,0,0,0,0,0,0,0,0,0,0,0,0,0,0,0,0,0,0,0,0,0,0,0,0,0,0,0,0,0,0,0,0,0,0,0,0,0,0,0,0,0,0,0,0,0,0,0,0,0,0,0,0,0,0,0,0,0,0,0-.1-.07,0,0,0,0,0,0,0,0,0,0,0,0,0,0,0,0,0,0,0,0,0,0,0,0,0,0,0,0,0,0,0,0,0,0,0,0,0,0,0,0,0,0,0,0-.06,0,0,0-.06,0,0,0,0,0,0,0,0,0,0,0,0,0,0,0,0,0,0,0,0,0,0,0,0,0,0,0,0,0-.07,0,0,0-.07,0,0,0,0,0-.13-.1-.07-.05-.07,0-.07,0-.07-.05-.14-.09-.07-.05-.07,0-.07,0-.07-.05-.07,0-.07,0-.07,0-.07-.05-.07,0-.07,0-.07-.05-.07,0-.07,0-.07-.05-.07,0-.15-.09-.07,0-.07,0-.07,0-.07,0-.07,0-.07,0-.08,0-.14-.1-.07,0-.08,0-.07,0-.07,0-.07,0-.08,0-.07,0-.07,0-.08,0-.07,0-.07,0-.08,0-.07,0-.07,0-.08,0-.07,0-.08,0-.07,0-.07,0-.08,0-.07,0-.08,0-.07,0-.15-.09-.08,0-.07,0-.08,0-.07,0-.07,0-.08,0-.07,0-.08,0-.07,0-.08,0-.07,0-.08,0-.07,0-.08,0-.08,0-.07,0-.08,0-.07,0-.15-.09-.08-.05-.07,0-.08,0-.07-.05-.08,0-.08,0-.15-.09-.07,0-.08,0-.07,0-.08,0-.07,0-.08,0-.08,0-.07,0-.08,0-.07-.05-.08,0-.07,0-.08,0-.08,0-.07,0-.08,0-.07,0-.08,0-.07,0-.08,0-.08,0-.07,0-.08,0-.07,0-.08,0-.07-.05-.08,0-.07,0-.08,0-.07,0-.08,0-.08,0-.07,0-.08,0-.15-.09-.07,0-.08,0-.07,0-.08,0-.07,0-.08,0-.07-.05-.08,0-.07,0-.08,0-.07,0-.07,0-.08,0-.07,0-.15-.09-.08,0-.07,0-.07,0-.08-.05-.07,0-.15-.09-.07,0-.08,0-.14-.08-.08,0-.14-.09-.08,0-.07,0-.07,0-.08,0-.07,0-.07,0-.07,0-.08,0-.07,0-.14-.09-.07,0-.08,0-.07,0-.07,0-.07,0-.07,0-.07,0-.07,0-.07,0-.07,0-.07,0-.07,0-.07,0-.07,0-.07,0-.14-.07-.07,0-.07,0-.07,0-.07,0L198,97l-.07,0-.14-.07-.07,0-.07,0-.2-.11-.07,0-.07,0-.06,0-.07,0-.07,0-.13-.07-.07,0-.07,0-.06,0-.07,0-.06,0-.07,0-.06,0-.07,0-.06,0-.13-.07-.39-.21-.13-.07-.12-.07-.13-.07-.12-.06-.12-.07-.13-.07L195,95.4l-.12-.07-.12-.06-.12-.07-.11-.06-.24-.13-.11-.06-.12-.06-.11-.06-.11-.06-.11-.06-.11-.06-.22-.11-.11-.06-.1-.06-.11,0-.1-.06-.1,0-.1-.05-.1-.06-.1-.05-.2-.1-.09,0-.1,0-.09-.05-.09,0-.1,0-.09,0-.09,0-.09,0-.08,0-.08,0-.09,0-.16-.08-.08,0-.07,0-.08,0-.07,0-.08,0-.07,0-.07,0-.07,0-.06,0-.07,0-.12-.06-.07,0-.06,0,0,0-.06,0-.05,0-.11-.06-.1,0-.09,0-.08,0-.08,0-.07,0-.06,0-.06,0-.09,0,0,0,0,0h-.17l0,0H189l0,0h0l0,0h0l0,0,0,0,0,0,0,0h0l0,0h-.08l0,0h-.08l0,0h0l0,0h-.06l0,0h-.22l0,0,0,0H188l0,0,0,0h0l0,0h-.06l0,0h-.06l0,0h-.1l0,0h-.08l0,0h-.11l0,0h-.11l-.05,0h0l0,0h0l0,0h-.12l0,0h-.08l-.05,0h0l-.05,0h-.18l0,0h0l-.11,0h-.28l0,0h-.13l-.07,0h-2.67Z"/></g><g class="cls-46"><path class="cls-5" d="M185.34,98.91a.2.2,0,0,1-.11,0l-3.88-2a.24.24,0,0,1-.1-.32.24.24,0,0,1,.33-.1l3.87,2a.24.24,0,0,1,.1.32.22.22,0,0,1-.21.13Z"/></g><g class="cls-46"><path class="cls-5" d="M184,101.28l-.1,0L179.11,99a.24.24,0,1,1,.2-.44l4.79,2.26a.24.24,0,0,1,.11.32.25.25,0,0,1-.22.14Z"/></g><g class="cls-46"><path class="cls-5" d="M186.37,96.35a.27.27,0,0,1-.12,0l-3.09-1.78a.24.24,0,0,1,.24-.42l3.09,1.78a.25.25,0,0,1,.09.33.27.27,0,0,1-.21.12Z"/></g><g class="cls-46"><path class="cls-1" d="M215.4,157s8.15,9,17.74,8.94l-.34,2.46s-13.37-1.11-18.74-9.6L215.4,157Z"/></g><g class="cls-46"><path class="cls-5" d="M214.32,158.77c2.75,4.26,7.59,6.58,11.18,7.78a36.78,36.78,0,0,0,7.12,1.59l.28-2c-4.92-.06-9.42-2.47-12.35-4.49a35.79,35.79,0,0,1-5.13-4.33l-1.1,1.46Zm18.48,9.81a36.25,36.25,0,0,1-7.42-1.63c-3.7-1.23-8.69-3.63-11.5-8.08a.21.21,0,0,1,0-.24l1.34-1.78a.26.26,0,0,1,.16-.09.21.21,0,0,1,.17.07,33.73,33.73,0,0,0,5.24,4.46c2.93,2,7.44,4.43,12.34,4.41a.2.2,0,0,1,.16.07.22.22,0,0,1,0,.17L233,168.4a.2.2,0,0,1-.2.18Z"/></g><g class="cls-46"><path class="cls-1" d="M153.43,202.92s4.58,9.78,18.47,2.7l-.22,1.68s-9.27,8.28-19.71-.57l1.46-3.8Z"/></g><g class="cls-46"><path class="cls-5" d="M152.22,206.67a16.43,16.43,0,0,0,7.27,3.68,13.57,13.57,0,0,0,6.2-.21,16,16,0,0,0,5.8-2.94l.16-1.2c-4.9,2.42-9.18,3-12.72,1.8a10.23,10.23,0,0,1-5.45-4.37l-1.25,3.24Zm9.89,4.37a14.37,14.37,0,0,1-2.7-.27,16.9,16.9,0,0,1-7.58-3.87.22.22,0,0,1-.06-.24l1.47-3.81a.22.22,0,0,1,.19-.14.23.23,0,0,1,.2.13,9.84,9.84,0,0,0,5.43,4.56c3.52,1.21,7.81.55,12.74-2a.22.22,0,0,1,.22,0,.21.21,0,0,1,.09.2l-.22,1.68a.21.21,0,0,1-.07.13,15.78,15.78,0,0,1-6,3.09,14.76,14.76,0,0,1-3.68.49Z"/></g><path class="cls-5" d="M171.93,205.35a.25.25,0,0,1,.23.19c.21,1,5.1,23.25,2.6,30.38a.79.79,0,0,0,.13.82c1.17,1.48,7.75,2.92,32.46,1.39,13.78-.85,27.28-2.29,29.24-2.5-.32-2.47-3-23.13-6.65-34.91q-1.56-5.07-3.29-10.07c-1.25-3.6-1.58-4.58-1.16-5.81q.12-.32.51-1.23a107.76,107.76,0,0,0,5.25-15.05c2.25-8.6,2.83-16.19,1.72-22.55a65.12,65.12,0,0,0-10.61-26.34c-6.75-9.66-16.43-17.44-28.77-23.12l-5.49-2.61c-1.35-.66-2.33-1.14-3.09-1.44l-.36-.15c-1.1-.45-1.65-.65-2.13-.22a.64.64,0,0,0-.26.59,2.35,2.35,0,0,0,1.05,1.34l.09,0a.24.24,0,0,1,.09.33.24.24,0,0,1-.32.09l-.08,0c-.37-.21-2.1-1.08-2.73-.18a.74.74,0,0,0-.14.62,3,3,0,0,0,1.27,1.43l.11.07a.24.24,0,0,1,.07.32.24.24,0,0,1-.32.09l-.11-.07c-.6-.35-1.94-1-2.46-.39a1,1,0,0,0-.26.94,2.25,2.25,0,0,0,.76,1.21l.05,0a.25.25,0,0,1,.1.32.24.24,0,0,1-.31.11l-.06,0a1.15,1.15,0,0,0-1.51.2.9.9,0,0,0-.16.73,4.24,4.24,0,0,0,2.08,2.17c1.19.74,2.71,1.5,4.18,2.25s2.72,1.37,3.69,2c.48.3,1.1.65,1.82,1a52.54,52.54,0,0,1,17.18,14.33c7.44,9.73,13.26,24.73,9.5,36.31a27,27,0,0,1-9.63,13.24,29.29,29.29,0,0,1-12.36,5.47,20.69,20.69,0,0,0-11.6,6.58.2.2,0,0,1-.12.08l-2.8.72a65.7,65.7,0,0,0-10.72,5.33,45.64,45.64,0,0,0-8.29,6.4,22.55,22.55,0,0,0-5.7,8.65q-4.32,12.75-8.21,25.64l18.42.32,6.87-24.87a.23.23,0,0,1,.23-.18Zm17.64,33.91c-1.12,0-2.25,0-3.38,0-6.83-.17-10.65-.89-11.67-2.18a1.26,1.26,0,0,1-.2-1.28c2.17-6.18-1.49-24.74-2.41-29.16l-6.67,24.11a.25.25,0,0,1-.23.18l-18.92-.33a.23.23,0,0,1-.19-.1.25.25,0,0,1,0-.2q3.94-13,8.31-26a23.34,23.34,0,0,1,5.82-8.83,46.65,46.65,0,0,1,8.39-6.48,67.51,67.51,0,0,1,10.81-5.37h0l2.73-.7a21.08,21.08,0,0,1,11.83-6.69,28.81,28.81,0,0,0,12.15-5.38,26.59,26.59,0,0,0,9.46-13c3.71-11.41-2.06-26.24-9.42-35.87a51.83,51.83,0,0,0-17-14.2l-1.83-1.06c-.95-.58-2.26-1.25-3.65-2s-3-1.51-4.22-2.26c-.61-.37-2.07-1.37-2.29-2.49a1.35,1.35,0,0,1,.23-1.1,1.39,1.39,0,0,1,1.27-.6,2.55,2.55,0,0,1-.37-.82,1.55,1.55,0,0,1,.36-1.4,1.64,1.64,0,0,1,1.7-.3,1.79,1.79,0,0,1-.36-.73,1.2,1.2,0,0,1,.21-1,1.87,1.87,0,0,1,2.15-.46,1.81,1.81,0,0,1-.33-.79,1.13,1.13,0,0,1,.41-1c.74-.64,1.57-.3,2.63.14l.36.15c.77.31,1.76.8,3.12,1.45l5.48,2.61c12.42,5.72,22.17,13.55,29,23.28A65.68,65.68,0,0,1,233.45,146c1.12,6.42.54,14.08-1.72,22.75a109.49,109.49,0,0,1-5.28,15.12L226,185c-.37,1.07-.08,1.92,1.15,5.5.73,2.12,1.83,5.32,3.3,10.08,3.85,12.52,6.67,35,6.69,35.24a.22.22,0,0,1-.05.17.19.19,0,0,1-.16.09c-.14,0-14.66,1.61-29.5,2.53-7,.43-13,.65-17.81.65Z"/><path class="cls-1" d="M177.4,171.66l1.95,12.25s3.37,1.06,8.46-1.46c5.68-2.81,6.58-6,6.58-6l-9.27-8.08-7.72,3.26Z"/><g class="cls-47"><path class="cls-1" d="M178.34,182.22c6.51.47,11.85-1.32,14.88-7.18l2,1.6.1,2.19-8.8,6.4-7.43.29-.79-3.29Z"/></g><g class="cls-48"><path class="cls-5" d="M178.58,182.42l.69,2.9,7.23-.28,8.67-6.31-.09-2-1.8-1.4c-2.79,5.23-7.61,7.56-14.7,7.1Zm.55,3.27a.18.18,0,0,1-.18-.14l-.79-3.29a.18.18,0,0,1,0-.16.2.2,0,0,1,.16-.07c7.15.52,12-1.79,14.69-7.08a.2.2,0,0,1,.28-.06l2,1.6a.19.19,0,0,1,.07.14l.1,2.19a.18.18,0,0,1-.07.16l-8.8,6.41a.2.2,0,0,1-.11,0l-7.43.29Z"/></g><path class="cls-5" d="M179.56,183.72c.68.16,3.78.67,8.14-1.48,4.85-2.4,6.16-5.06,6.41-5.69l-9-7.87-7.42,3.13,1.9,11.91Zm1.74.66a7.1,7.1,0,0,1-2-.24.24.24,0,0,1-.17-.19l-2-12.25a.24.24,0,0,1,.15-.26l7.72-3.26a.25.25,0,0,1,.25,0l9.26,8.08a.26.26,0,0,1,.08.25c0,.13-1,3.3-6.71,6.12a14.82,14.82,0,0,1-6.61,1.71Z"/><path class="cls-25" d="M179.94,147.75c1.11.47.43,3.93,1.95,4.47a10.47,10.47,0,1,1-13.79,9.9,32.26,32.26,0,0,0,.22-3.55,16.75,16.75,0,0,1,.67-6.81c.59-1.72,1.81-2.54,2.53-2.52a1.43,1.43,0,0,1,1,.58,5.88,5.88,0,0,1,2.48-4.19c1.19-.72,1.2,1.85,1.2,1.85s.67-2.45,2.05-2.08c1.11.3.64,2.85.64,2.85s.58-.71,1.09-.5Z"/><path class="cls-5" d="M173.27,151.74a.24.24,0,0,1-.19-.1c-1.36-1.88-.62-5.58-.59-5.73a.24.24,0,0,1,.28-.19.24.24,0,0,1,.19.28s-.73,3.64.5,5.35a.24.24,0,0,1-.05.34.23.23,0,0,1-.14,0Zm2.16-1.44a.25.25,0,0,1-.24-.21c-.34-2.22,1.73-6.12,1.82-6.29a.24.24,0,1,1,.42.23s-2.1,3.92-1.77,6a.22.22,0,0,1-.19.27Zm2.69-.07h-.05a.26.26,0,0,1-.19-.29,22.92,22.92,0,0,1,1.54-3.67.24.24,0,0,1,.43.22,22.85,22.85,0,0,0-1.5,3.56.24.24,0,0,1-.23.19Z"/><path class="cls-1" d="M260.35,57.66l-7.74-5.76L246.83,60l7.2,9.25a18.85,18.85,0,0,1,1.12,5.66c.19,3.42,5,54.78,21.86,67.13l5.05,2.76V63.88a47.9,47.9,0,0,1-21.72-6.22Z"/><g class="cls-49"><path class="cls-50" d="M261.6,56.94s.19,6.88-2.18,9.6a19.42,19.42,0,0,1-5.78,4.28s6,72.37,29.21,75l-.14-84-21.12-4.83Z"/></g><g class="cls-51"><path class="cls-35" d="M255.07,70.56l3.62,3-.2-5.21-3.42,2.16Z"/></g><g class="cls-51"><path class="cls-35" d="M264.53,59.29l.71,3.27,3.16-1.67-3.87-1.6Z"/></g><g class="cls-51"><path class="cls-35" d="M264.14,73l-1.36,3.79,3.78.48L264.14,73Z"/></g><g class="cls-51"><path class="cls-30" d="M273.09,86.42l.46,5.89,4.59-1.45-5.05-4.44Z"/></g><g class="cls-51"><path class="cls-35" d="M261.42,86.17l-.28,7.09,4.78-3.67-4.5-3.42Z"/></g><g class="cls-51"><path class="cls-35" d="M267.86,95.61l2.42,4,2.37-4-4.79,0Z"/></g><g class="cls-51"><path class="cls-35" d="M261.57,97.42l2.74,2.28-3.89,1.57Z"/></g><g class="cls-51"><path class="cls-35" d="M262.4,108l-1.48,6,4.54-4.78L262.4,108Z"/></g><g class="cls-51"><path class="cls-35" d="M272,112.15l-2.71,3.08,4.16,1.82-1.44-4.9Z"/></g><g class="cls-51"><path class="cls-35" d="M275.38,105.66l1.62,2.39.18-3.72-1.81,1.33Z"/></g><g class="cls-51"><path class="cls-35" d="M267.51,120.26l3.95,1-2.66,3.4Z"/></g><g class="cls-51"><path class="cls-35" d="M272.61,127.16l-1.76,8.71L267,129.41l5.57-2.25Z"/></g><g class="cls-51"><path class="cls-35" d="M275.14,134.05l2.41-1.9-.32,3.87-2.09-2Z"/></g><g class="cls-52"><path class="cls-5" d="M265.62,79s6.88,20.52,19.68,30.82-2.54-19.9-2.54-19.9L265.62,78.94Z"/></g><g class="cls-53"><path class="cls-5" d="M265.68,79a92.92,92.92,0,0,0,5,11.46c5.48,10.6,11,16.33,14.63,19.26,2.32,1.87,3.85,2.51,4.57,1.93,2.72-2.22-6.9-21.3-7.15-21.78L265.68,79Zm23.57,32.92c-.87,0-2.2-.72-4-2.15-6.62-5.32-11.62-13.42-14.65-19.28a93.11,93.11,0,0,1-5-11.55s0,0,0,0a0,0,0,0,1,0,0l17.15,10.92c0,.06,2.51,5,4.62,10.08,2.84,6.88,3.69,10.85,2.52,11.8a1,1,0,0,1-.68.22Z"/></g><g class="cls-54"><path class="cls-1" d="M253.1,69.44s8.07-.57,7.25-12.48l1.83,1.14s1.32,10.71-8.47,13.2l-.61-1.86Z"/></g><g class="cls-55"><path class="cls-5" d="M253.25,69.53l.53,1.64a10.5,10.5,0,0,0,7.74-7.43,15.48,15.48,0,0,0,.56-5.58l-1.6-1c.2,3.4-.24,7.92-3.37,10.59a7.67,7.67,0,0,1-3.86,1.78Zm.46,1.87a.11.11,0,0,1-.1-.07L253,69.47a.15.15,0,0,1,0-.09.14.14,0,0,1,.08,0A7.46,7.46,0,0,0,257,67.58c3.12-2.67,3.5-7.25,3.27-10.6a.12.12,0,0,1,.05-.1.11.11,0,0,1,.11,0L262.24,58a.13.13,0,0,1,.05.07,15.83,15.83,0,0,1-.57,5.72,10.67,10.67,0,0,1-8,7.6h0Z"/></g><path class="cls-5" d="M277.09,141.89l4.83,2.64V64a48.7,48.7,0,0,1-21.64-6.23l-7.64-5.69L247,60l7.13,9.16,0,0a19.11,19.11,0,0,1,1.14,5.72A231.42,231.42,0,0,0,260,105.07a127,127,0,0,0,6.67,21.67c3.1,7.24,6.61,12.34,10.44,15.15Zm5,3H282L277,142.13c-3.9-2.85-7.44-8-10.56-15.28a127.26,127.26,0,0,1-6.69-21.72A232.84,232.84,0,0,1,255,74.89a18.4,18.4,0,0,0-1.11-5.6l-7.18-9.23a.14.14,0,0,1,0-.17l5.77-8.07a.17.17,0,0,1,.1-.06.1.1,0,0,1,.1,0l7.73,5.75a48.27,48.27,0,0,0,21.64,6.19h0a.18.18,0,0,1,.15.15v80.89a.14.14,0,0,1-.07.12.12.12,0,0,1-.08,0Z"/><path class="cls-1" d="M287.81,75.36s-12.28-16.42-21.31-6.3,15.2,27.75,20,31.43l1.29-25.13Z"/><g class="cls-56"><path class="cls-35" d="M274.58,65.19l1.09,4.9,4.48-4Z"/></g><g class="cls-57"><path class="cls-35" d="M269.39,69.68l2.75,4L267,73.6l2.38-3.92Z"/></g><g class="cls-57"><path class="cls-35" d="M278.32,76.08l0,5.88L275,77.47l3.36-1.4Z"/></g><g class="cls-57"><path class="cls-35" d="M272,80.47l-.22,8.12-5-5.1,5.2-3Z"/></g><g class="cls-58"><path class="cls-1" d="M284.58,67.33s-10.8,14.33-9.73,25l11.53,8.86.85-29.38-2.65-4.44Z"/></g><g class="cls-59"><path class="cls-5" d="M275,92.23l11.33,8.71.84-29.14-2.55-4.28a69.06,69.06,0,0,0-5.16,8.36c-2.33,4.45-5,10.9-4.46,16.36Zm11.43,9-.07,0-11.52-8.86a.12.12,0,0,1,0-.08c-.56-5.51,2.12-12,4.47-16.52a68.73,68.73,0,0,1,5.27-8.51.12.12,0,0,1,.09,0,.11.11,0,0,1,.09,0l2.65,4.43a.13.13,0,0,1,0,.06l-.85,29.39a.1.1,0,0,1-.06.09Z"/></g><path class="cls-35" d="M273.22,65.92a8.71,8.71,0,0,0-6.61,3.24,7.47,7.47,0,0,0-1.92,5.91c.92,9.39,16.21,21,21.23,24.78l.46.35,1.28-24.78a36,36,0,0,0-4.33-4.62c-2.39-2.13-6-4.71-9.74-4.87h-.37Zm13.3,34.72-.1,0-.69-.52c-5.05-3.83-20.42-15.47-21.34-25a7.75,7.75,0,0,1,2-6.14,8.94,8.94,0,0,1,7.21-3.34c3.81.17,7.5,2.79,9.93,4.95a36.2,36.2,0,0,1,4.4,4.7.17.17,0,0,1,0,.1l-1.29,25.13a.17.17,0,0,1-.09.13h-.05Z"/><path class="cls-1" d="M244.51,41.05a10.38,10.38,0,1,1-10.25,10.37A10.32,10.32,0,0,1,244.51,41.05Z"/><g class="cls-60"><path class="cls-5" d="M239.79,53.89h0a.11.11,0,0,1-.05-.14,3.46,3.46,0,0,1,2.91-1.94c.06,0,.1,0,.11.1s0,.1-.1.11a3.25,3.25,0,0,0-2.72,1.82A.11.11,0,0,1,239.79,53.89Z"/></g><g class="cls-60"><path class="cls-5" d="M244.06,60H244a.11.11,0,0,1,0-.15,2,2,0,0,0-.18-2.35.1.1,0,0,1,0-.14.1.1,0,0,1,.15,0,2.2,2.2,0,0,1,.18,2.57s-.05.05-.1.05Z"/></g><g class="cls-60"><path class="cls-5" d="M236.7,58.92a.12.12,0,0,1-.11-.1,2.26,2.26,0,0,1,.68-1.77.1.1,0,0,1,.15,0,.11.11,0,0,1,0,.15,2,2,0,0,0-.62,1.6.13.13,0,0,1-.1.12Z"/></g><g class="cls-60"><path class="cls-5" d="M239.61,57.15a6.54,6.54,0,0,1,1.25,1.52,3,3,0,0,0,1,1.24c.64.36,1.31-.58.95-1.15s-1.1-.59-1.66-.84a5.89,5.89,0,0,1-.77-.48,3.45,3.45,0,0,0-.79-.29Z"/></g><g class="cls-60"><path class="cls-5" d="M242,55.32h0a1.66,1.66,0,0,1-.32-.22c-.1-.09-.31-.3-.28-.52a.35.35,0,0,1,.25-.27.46.46,0,0,1,.2,0,1.28,1.28,0,0,1,.75.33.1.1,0,0,1,0,.15.11.11,0,0,1-.15,0,1,1,0,0,0-.61-.28l-.13,0a.19.19,0,0,0-.12.11.47.47,0,0,0,.21.33,1.26,1.26,0,0,0,.28.19.11.11,0,0,1,0,.15.12.12,0,0,1-.09,0Z"/></g><g class="cls-60"><path class="cls-5" d="M238.38,60l0,0a1.69,1.69,0,0,1-.31-.21c-.1-.09-.32-.3-.28-.53a.35.35,0,0,1,.24-.27.46.46,0,0,1,.21,0,1.2,1.2,0,0,1,.75.33.12.12,0,0,1,0,.15.12.12,0,0,1-.15,0,1,1,0,0,0-.62-.28.3.3,0,0,0-.13,0,.17.17,0,0,0-.11.11c0,.08.07.21.2.33a1.54,1.54,0,0,0,.28.19.11.11,0,0,1,0,.15.11.11,0,0,1-.09,0Z"/></g><path class="cls-5" d="M244.53,41.05h3.27l.07,0h.35l0,0H249l0,0h.22l0,0h0l0,0h.47l0,0h.31l0,0h.06l0,0h.29l0,0h.35l0,0h.12l0,0h.06l0,0h.07l0,0h0l0,0h0l0,0h0l0,0h.05l0,0h0v0h.09l0,0h0l0,0v0h.13v0h0l0,0h0l0,0h0v0h0l0,0h0v0h.07l0,0h0l0,0h0l0,0h.06v0h.05v0l0,0h0v0h0v0h0v0h0v0h0v0h0v0h0v0h0l0,0v0h0v0h0v0l0,0h0v0h0v0h0v0h0v0h0v0h0v0h0v0h0v0h0v.06h0v0h0v0h0v0h0v.06h0v0h0v0h0v0h0l0,0h0v0h0v0h0v0h0v0h0l0,0h0v0h0v0h0v0h0v0h0v0h0v0h0v0h0l0,0h0v0h0v0h0v0h0v.06h0v0h0v0h0v0h0v0h0v0h0v0h0v0h0v0h0v0h0v0h0v0h0v0h0v0h0v.05h0v0h0v0h0v0h0v0h0v0h0v0h0v0h0v.05h0v0h0v0h0l0,0v0h0v0h0v.05h0v0h0v0h0v0h0v0h0v0h0v0h0v0h0v0h0v0h0v0h0v0h0v0h0v0h0v0h0v0h0v.05h0v0h0v0h0v0h0v0h0v0h0v0h0v0h0v0h0v0h0v0h0v0h0v0h0v0h0v0h0v.07h0v.07h0v0h0v.15h0v.05h0v0h0v0h0v0h0v0h0v0h0v.07h0v0h0v.07h0V50h0v.12h0v0h0v0h0v0h0v0h0v.07h0v0h0v0h0v0h0v0h0v0h0v.06h0v0h0v0h0v0h0v0h0v0h0v0h0v.14h0v.14h0v.39h0v0h0v0h0v0h0v.09h0v0h0v0h0v0h0v0h0v0h0v0h0v0h0v0h0v0h0v0h0v.09h0v0h0v0h0v0h0v.12h0v.12h0v.07h0V53h0v0h0v0h0v0h0v0h0v0h0l0,.15h0v0h0v0h0v.07h0v0h0v0h0v0h0v0h0v0h0v0h0v0h0v.07h0v0h0v0h0v0h0v0h0v0h0v0h0v0h0v0h0v0h0v0h0v0h0v0h0v0h0v.07h0v0h0v0h0v0h0v0h0v0h0v0h0v0h0v0h0v0h0v0h0v0h0v.14h0l0,0h0v0h0v0h0v0h0v0l0,0h0v0h0v0h0v0h0v0h0v0h0v0h0v0h0v0h0v0h0v0h0v0h0v0h0v0h0v0h0v0h0v0h0l0,0v0h0v.05h0v0h0v0h0v0h0v0h0v0h0v0l0,0v0h0v0l0,.05h0v0h0v0h0v0h0l0,0h0v0h0v0h0v0h0v0h0v0h0v0h0v0l0,0h0v0h0l0,0,0,0,0,0h0v0h0v0h0v0h0v0h0v0h0v0h0v0h0v0h0v0h0v0h0v0h0v0h0v0h0v0h0v0h0l0,0v0h0v0h0v0h0v0h0v0h0v0h0l0,0v0h0v0h0v0h0v0h0v0h0v0l0,0h0l0,0h0l0,0h0v0h0l0,0h0l0,0H252v0l0,0h-.06v0h-.07l0,0h0l0,0h-.11v0h-.28l0,0h0l0,0h0l0,0h0l0,0h-.62l0,0h0l0,0h-.16l0,0h0l0,0h-.06l0,0h0l0,0h-.26l0,0H249l0,0h-.7l0,0h-.22l0,0H242l-.06,0H241l0,0h-.78l0,0,0,0h-.67l0,0h-.21l0,0h-.26l0,0h-.43l0,0h0l0,0h-.76l0,0h0l0,0h-.07l0,0v0h-.21l0,0h-.06l0,0h0l0,0h-.05v0H237v0h-.05v0h0l0,0h0v0h0l0,0h0v0h0v0h0v0h0v0h0v0h0v0h0v0h0v0h0v0h0v0h0v0h0v0h0v0h0v0h0l0,0h0v0h0v0h0v0h0v0h0v0h0v0h0v0h0v0h0v0h0v0h0v0h0v0l0,0v0l0,0h0v0h0v0h0v-.06h0v0h0l0,0h0v0h0v0h0v0h0v0h0v0h0v0h0v0h0l0,0h0v0h0l0,0v0h0l0,0V55.9h0l0-.05h0v0h0v0h0v0h0v0h0v0h0v0h0v0h0v0h0v0h0v0h0v0h0v0h0v0h0l0,0v0h0v0h0v0h0v0h0v0h0v0h0v0h0v0h0l0,0v0h0v0h0v0h0v0h0v-.05h0l0,0h0v0h0v0h0v-.05h0v0h0v0h0v0h0v0h0v0h0v0h0v0h0v-.1h0v0h0v0h0v0h0v0h0v0h0v0h0v0h0v0h0v0h0v0h0v0h0v0h0v0h0v0h0v0h0v0h0v0h0v0h0v0h0v0h0v-.07h0v0h0v-.1h0V53.3h0v-.07h0v0h0v-.07h0v0h0v0h0v0h0v0h0v0h0v0h0v0h0v-.07h0v-.09h0v0h0v-.12h0v0h0v0h0v0h0v0h0v0h0v0h0v0h0v0h0v0h0v0h0v0h0v0h0v0h0v0h0v0h0v0h0v0h0v0h0v-.14h0v-.34h0v0h0V51h0v0h0v0h0v0h0v0h0v-.09h0v0h0v0h0v0h0v0h0v0h0v0h0v0h0v0h0v-.07h0v0h0v0h0v0h0v0h0v0h0v-.12h0v0h0v-.07h0v-.12h0v0h0v0h0v0h0v-.07h0v0h0v0h0v-.15h0v0h0v0h0v0h0v0h0v0h0v0h0v0h0v0h0v0h0v0h0v0h0v-.05h0v0h0v0h0v0h0v0h0v0h0v0h0v0h0v0h0v0h0v0h0v0h0v-.07h0v-.07h0v0h0v0h0v0h0v0h0v0h0v0h0V48h0v0h0v0h0v0h0v-.11h0v0h0v-.05h0v0h0v0h0v0h0v0h0v0h0v0h0v0h0v-.09h0v0h0v0h0v0h0v0h0v0h0v0h0v0h0v0h0v0h0v0h0v0h0v0h0v0l0,0v0h0v0h0v0h0l0,0v0l0,0h0v0h0v0h0v0h0v0h0v0h0v0h0v0h0v0h0v0l0,0v0h0v0h0v0h0v0h0v0h0v0h0v0h0l0,0h0v0h0l0,0h0v0h0v0h0v0h0v0h0v0h0v0h0l0,0h0v0h0v0h0v0h0l0,0v0h0v0h0v0h0v0l0,0v0h0v0h0v0h0v0h0v0h0v0l0,0h0v0h0v0l0,0h0v0h0v0h.05v0h.06v0H237l0,0H237v0h0l0,0h0v0h.08v0h0l0,0h.08v0l0,0h0l0,0h0l0,0h0l0,0h.29l0,0h0l0,0h0l0,0h.49l0,0h.17l0,0h0l0,0h0l0,0h.52l0,0h.2l0,0h.22l0,0H240l0,0h0l0,0h0l0,0h1l.07,0h3.29Zm0,.28h-2.08l-.06,0H240l0,0h-.27l0,0h-.22l0,0h-.45l0,0h-.11l0,0h-.34l0,0h-.09l0,0h-.39l0,0h-.1l0,0h0l0,0h0l0,0h-.16v0l0,0h0l0,0,0,0h-.07v0l0,0h-.09l0,0h-.08l0,0h0l0,0h0v0h0l0,0h0v0h-.07v0h0l0,0h0l0,0h0l0,0h0v0h0v0h0v0l0,0h0v0h0v0h0v0h0v0h0v0h0v0h0v0h0v0h0v0h0v0h0v0h0v0h0v0h0v0h0v0l0,0h0l0,0h0v0h0v0h0l0,0h0v0h0v0h0v0h0v0h0v0h0v0h0v0h0v0h0v0h0l0,0,0,0h0v0h0v0h0v0h0v0l0,0v0h0v0h0v.05h0l0,0h0v0h0v0h0v.06h0v0h0v0h0v0h0v0h0v0h0v0h0v0h0v0h0v0h0v0h0v0h0v0h0v0h0v.05h0v0h0v0h0v0h0v0h0v0h0v0h0v0h0v0h0v0h0v0h0v0h0v0h0v.08h0v.08h0v.08h0v.08h0v0h0l0,0v0h0v0h0v0h0v0h0v0h0v0h0v0h0v0h0v0h0v0h0v0h0v0h0v0h0v0h0v0h0v0h0v.05h0v0h0v0h0v0h0v0h0v0h0v0h0v0h0v0h0v0h0v0h0v.07h0v.05h0v0h0v0h0v.05h0V50h0v.12h0v0h0v0h0v.07h0v.11h0v0h0v0h0v0h0v0h0v.07h0v0h0V51h0v.12h0v0h0v.12h0v.17h0v.12h0v.07h0v.07h0v.07h0v0h0v.12h0v.1h0v.12h0v0h0v0h0v0h0v0h0v0h0v.07h0v0h0v0h0v.1h0v0h0V53h0v0h0v0h0v0h0v0h0v0h0v0h0v0h0v0h0v0h0v0h0v0h0v0h0v0h0v0h0v.07h0v0h0v0h0v0h0v0h0v0h0v0h0v0h0v0h0v0h0v0h0v.07h0v0h0v0l0,0v.07h0v0h0v0h0v.08h0v0h0v0h0v.08h0v0h0v.05h0v0h0v0h0v.09h0v0h0V55h0v0h0v0h0v0h0v0h0v0h0v0h0v0h0v0h0v0h0v.09h0v0h0v0h0v0h0v0h0v0h0v0h0v0h0v0h0l0,0h0v0h0v0h0v0h0v0h0v0h0v0h0v0h0v0h0v0h0v.05l0,0h0v0h0v0h0l0,0h0v0h0v0h0v0h0v0h0v0h0v0h0v0h0v0h0v0h0v0h0l0,0h0v0h0v0h0v0h0l0,0v0l0,0h0v0l0,0v0h0v0h0v0h0v0h0v0h0l0,0h0v0h.05v0l0,0v0h0l0,0h0v0h0l0,0v0h0v0h0v0h.05v0h.06v0h0l0,0h0v0H237l0,0h0l0,0h0v0h.06l0,0h0v0l0,0h.07l0,0v0l0,0h.1l0,0v0l0,0h.08l0,0h.08l0,0h0l0,0h0l0,0H238l0,0h0l0,0h1.36l0,0h.29l0,0h.69l0,0h.1l0,0h0l0,0h.05l0,0h7.56l.05,0h.19l0,0H249l0,0h0l0,0h.15l0,0h.24l0,0h.11l0,0h0l0,0h.06l0,0h.1l0,0h.23l0,0h.15l0,0h0l.05,0h.11l0,0h0l0,0h.07l0,0h.29l0,0h.13l0,0h0l0,0h0l0,0,0,0h0l0,0h0l0,0h0l0,0h0l.07-.06h0l0,0h.06l0,0v0h.09l0,0h0l0,0h.07l0,0v0H252v0h.06v0h.06v0h.05v0h0l0,0h0v0h0v0h0v0h0v0h.05v0h0v0l0,0v0h.05v0h0v0h0l0,0h0v0l0,0,0,0h0v0h0v0h0v0h0v0h0v0h0v0h0l0,0v0h0v0h0v0h0v0h0v0h0v0h0v0h0v0h0v0h0v0h0v0h0v0h0v0h0v0l0,0,0,0h0v0h0l0,0v0h0v0h0l0-.05h0v0h0v-.05h0l0,0h0v0h0v-.06h0v0h0v0h0v0h0v0h0v0h0v0h0v0h0v0h0v0h0v0h0v0h0v0h0v0h0v0h0v0h0v0h0v0h0v0h0v0h0v0h0v0h0v0h0v0h0v0h0v0h0v0h0v0h0v-.05h0v0h0v0h0v0h0v-.11h0v0h0v-.08h0v0h0v0h0v0h0v0h0v0h0v0h0v0h0v0h0l0,0h0v-.05h0v0h0v-.08h0v-.13h0v0h0v0h0v0h0v-.13h0v0h0v-.07h0v0h0v0h0v0h0V53h0v0h0v-.1h0v-.1h0v-.64h0v0h0v0h0v0h0v-.33h0v-.4h0v-.07h0v0h0v0h0v0h0v-.07h0v-.15h0v-.07h0v-.07h0v0h0v0h0v0h0v0h0v-.07h0v-.1h0v0h0v0h0v0h0v0h0v-.07h0v0h0v0h0v0h0v0h0v0h0v0h0v0h0v0h0v0h0v0h0v0h0v0h0v0h0v0h0v0h0v0h0v0h0v-.05h0v0h0v0h0v0h0v0h0v0h0v0h0v0h0v-.08h0v0h0v0h0v-.08h0v0h0v0h0v0h0l0-.05h0v0h0v0h0v0h0v0h0V48.3h0v0h0v0h0v0h0v0h0v0h0v0h0v0h0v0h0v0h0v0h0v0h0v0h0v0h0v0h0v-.05h0v0h0v-.08h0l0,0v0h0v0h0v0h0v0h0v0h0v0h0v0h0v0h0v0h0v0h0v0h0l0,0h0v0h0v0h0v0h0v0h0v0h0v0h0v0h0v0h0v0h0v0h0v0h0v0l0,0h0v0l0,0v0h0v0h0v0h0v0h0v0h0v0h0v0h0v0h0v0h0v0h0l0,0h0v0l0,0h0l0,0V46h0v0h0v0h0v0h0v0h0v0h0l0,0,0,0v0h0v0h0v0h0v0h0v0h0l0,0h0v0l0,0v0h0l0,0h0v0h-.06v0h0v0h-.06l0,0h-.05v0H252v0h-.09v0h-.05l0,0v0h-.13l-.06-.05v0l0,0h0l0,0h-.13l0,0h0l0,0h0l0,0H251l0,0h-.11l0,0h-.08l0,0h-.26l-.1-.08h-.17l0,0H250l0,0h-.14l0,0h-.13l0,0h-.91l0,0h-.56l0,0h-.43l-.05,0h-3.11Z"/><path class="cls-5" d="M242.52,42.3a15.59,15.59,0,0,0-4,7.27c-1.13,4.68-3.31,5.93-4.81,5.72-8.36-1.12,0-17.66,7.6-15.09,0,0,3.15-4.9,8.76-1.2s4.6,11,4.6,11-.89-1.65-4.15-2.28c-7.59-1.46-8-5.36-8-5.36Zm-154,84.39c1.39-.58,2.64-.74,2.8-.34s-.83,1.18-2.22,1.76-2.64.73-2.8.34.83-1.18,2.22-1.76Z"/><path class="cls-5" d="M88.52,126.82c-1.45.61-2.23,1.34-2.14,1.58a.18.18,0,0,0,.1.07A4.39,4.39,0,0,0,89,128c1.45-.61,2.24-1.34,2.14-1.58a.2.2,0,0,0-.1-.08A4.43,4.43,0,0,0,88.52,126.82Zm-1.68,2a1.26,1.26,0,0,1-.47-.07.42.42,0,0,1-.25-.24c-.23-.55,1-1.4,2.29-2a4.62,4.62,0,0,1,2.74-.49.43.43,0,0,1,.25.23c.22.56-1,1.4-2.3,2a6.35,6.35,0,0,1-2.26.57Z"/><path class="cls-1" d="M64.32,173.13c1.1-1,2.22-1.62,2.51-1.31s-.37,1.41-1.47,2.44-2.22,1.62-2.51,1.31S63.23,174.16,64.32,173.13Z"/><path class="cls-5" d="M66.6,171.88a4.57,4.57,0,0,0-2.18,1.35h0c-1.15,1.09-1.63,2.05-1.46,2.24a.15.15,0,0,0,.11,0,4.56,4.56,0,0,0,2.2-1.35c1.15-1.09,1.64-2,1.47-2.24a.17.17,0,0,0-.12,0Zm-3.5,3.9h0a.41.41,0,0,1-.31-.13c-.4-.44.44-1.66,1.48-2.63a4.5,4.5,0,0,1,2.39-1.43.37.37,0,0,1,.31.13c.41.43-.43,1.65-1.47,2.63a4.71,4.71,0,0,1-2.37,1.43Zm162.6-47.85c.7,1.34,1,2.58.61,2.78s-1.24-.72-1.95-2.05-1-2.58-.62-2.79S225,126.59,225.7,127.93Z"/><path class="cls-5" d="M223.84,126h0c-.23.12-.07,1.2.67,2.59a4.45,4.45,0,0,0,1.65,2,.17.17,0,0,0,.12,0c.22-.12.07-1.19-.68-2.59a4.46,4.46,0,0,0-1.64-2h-.08Zm2.35,4.9a.76.76,0,0,1-.16,0,4.62,4.62,0,0,1-1.81-2.13c-.67-1.27-1.08-2.7-.56-3a.43.43,0,0,1,.34,0,4.67,4.67,0,0,1,1.81,2.13c.67,1.27,1.08,2.7.56,3a.41.41,0,0,1-.18,0Zm-128,18.33a.32.32,0,0,1-.27-.15.32.32,0,0,1,.1-.44c.13-.09,3.3-2.13,6-2.15h0a.32.32,0,0,1,.32.32.32.32,0,0,1-.31.32c-2.57,0-5.67,2-5.71,2A.34.34,0,0,1,98.14,149.22Zm16.4-3.27a3.65,3.65,0,0,1-.63,0,.31.31,0,0,1-.27-.35.31.31,0,0,1,.35-.28,5.85,5.85,0,0,0,5.05-2.05.32.32,0,0,1,.45-.06.33.33,0,0,1,.05.45,6.21,6.21,0,0,1-5,2.33Zm79.92-27.66a.31.31,0,0,1-.29-.2,6,6,0,0,0-4.33-3.32.32.32,0,0,1,.07-.63,6.48,6.48,0,0,1,4.85,3.7.32.32,0,0,1-.17.42.28.28,0,0,1-.13,0Zm-22.37-5.55a.32.32,0,0,1-.32-.32.33.33,0,0,1,.2-.3,8.61,8.61,0,0,1,5.9-.2.33.33,0,0,1,.19.42.33.33,0,0,1-.41.18,8.24,8.24,0,0,0-5.43.21l-.12,0Zm-40.75,49a.32.32,0,0,1-.32-.32.32.32,0,0,1,.16-.27,15.13,15.13,0,0,0,4.84-4.37.3.3,0,0,1,.43-.1.31.31,0,0,1,.11.43,15.86,15.86,0,0,1-5.07,4.6.28.28,0,0,1-.15,0Zm23.91-12a.33.33,0,0,1-.3-.19.32.32,0,0,1,.17-.42,6.84,6.84,0,0,0,3.34-3.74.32.32,0,1,1,.6.21,7.28,7.28,0,0,1-3.7,4.11.28.28,0,0,1-.13,0ZM110.6,71.29a.32.32,0,0,1-.27-.16.32.32,0,0,1,.1-.44,11.9,11.9,0,0,1,6.78-1.13.32.32,0,0,1,.29.35.32.32,0,0,1-.34.29,13,13,0,0,0-4.73.4,7.78,7.78,0,0,0-1.67.65.3.3,0,0,1-.16,0Zm11.8-2.84a.3.3,0,0,1-.18-.06.31.31,0,0,1-.08-.44c.07-.1,1.77-2.42,5.83-2.28a.31.31,0,0,1,.31.33.32.32,0,0,1-.33.31c-3.7-.13-5.23,1.92-5.29,2a.33.33,0,0,1-.26.13Zm68-23.15a.3.3,0,0,1-.21-.09,6.92,6.92,0,0,0-5.38-1.47.32.32,0,0,1-.37-.26.31.31,0,0,1,.26-.37,7.48,7.48,0,0,1,5.92,1.63.32.32,0,0,1-.22.56Zm-38,17.1-.1,0a.32.32,0,0,1-.21-.4,8.64,8.64,0,0,1,3.38-4.25.33.33,0,0,1,.44.1.31.31,0,0,1-.1.44,8.13,8.13,0,0,0-3.11,3.9.31.31,0,0,1-.3.22ZM167.9,81.82a.33.33,0,0,1-.27-.15,6,6,0,0,0-3-2.67.32.32,0,0,1-.23-.39.32.32,0,0,1,.39-.23,6.58,6.58,0,0,1,3.35,2.94.32.32,0,0,1-.1.44.26.26,0,0,1-.17,0Zm30.54,6.1a.36.36,0,0,1-.2-.06,6.07,6.07,0,0,0-3.67-1.56.32.32,0,0,1-.34-.29.32.32,0,0,1,.29-.34c.08,0,1.8-.13,4.12,1.68a.33.33,0,0,1,.05.45.3.3,0,0,1-.25.12ZM141,70.64a.31.31,0,0,1-.2-.07,6,6,0,0,0-3.68-1.52.32.32,0,0,1-.35-.29.32.32,0,0,1,.3-.34c.08,0,1.8-.14,4.13,1.65a.31.31,0,0,1,.06.44.3.3,0,0,1-.25.13Zm28-28.55a.32.32,0,0,1-.25-.51,6.46,6.46,0,0,1,4-1.86.32.32,0,0,1,.36.26.32.32,0,0,1-.26.37A6,6,0,0,0,169.29,42a.34.34,0,0,1-.25.11Z"/></g></svg>