<svg width="60" height="60" viewBox="0 0 60 60" fill="none" xmlns="http://www.w3.org/2000/svg">
<path fill-rule="evenodd" clip-rule="evenodd" d="M30 60C46.5685 60 60 46.5685 60 30C60 13.4315 46.5685 0 30 0C13.4315 0 0 13.4315 0 30C0 46.5685 13.4315 60 30 60Z" fill="url(#paint0_linear)"/>
<path fill-rule="evenodd" clip-rule="evenodd" d="M49.5794 35.8391C48.7023 35.8391 47.8881 36.2345 47.4205 36.8565V30.0037H40.5969C41.1907 30.4712 41.5657 31.2937 41.5657 32.1477C41.5657 33.7264 40.286 35.0003 38.7073 35.0003C37.1287 35.0003 35.8489 33.7194 35.8489 32.1407C35.8489 31.2867 36.2239 30.4712 36.8176 30.0037H30.0033V36.7608C29.5357 36.1942 28.7131 35.8391 27.8819 35.8391C26.3032 35.8391 25.0137 37.1189 25.0137 38.6975C25.0137 40.2762 26.3082 41.5559 27.8868 41.5559C28.7182 41.5559 29.5358 41.2008 30.0034 40.6342V47.4209H47.4206V40.5386C47.8882 41.1605 48.7025 41.5559 49.5795 41.5559C51.1582 41.5559 52.4379 40.2762 52.4379 38.6975C52.4378 37.1189 51.158 35.8391 49.5794 35.8391Z" fill="white"/>
<path opacity="0.4" fill-rule="evenodd" clip-rule="evenodd" d="M49.5802 35.8391C48.7031 35.8391 47.8888 36.2345 47.4213 36.8565V30.0037H43.6807V47.4209H47.4213V40.5386C47.8888 41.1605 48.7031 41.5559 49.5802 41.5559C51.1588 41.5559 52.4386 40.2762 52.4386 38.6975C52.4386 37.1189 51.1588 35.8391 49.5802 35.8391Z" fill="url(#paint1_linear)"/>
<path fill-rule="evenodd" clip-rule="evenodd" d="M47.4201 12.5865H40.5966C41.1904 12.1189 41.5654 11.3002 41.5654 10.4463C41.5654 8.86763 40.2856 7.58963 38.707 7.58963C37.1283 7.58963 35.8486 8.8667 35.8486 10.4453C35.8486 11.2994 36.2236 12.1189 36.8173 12.5865H30.0029V19.0755C30.4705 18.4536 31.292 18.0582 32.1691 18.0582C33.7477 18.0582 35.0177 19.3379 35.0177 20.9166C35.0177 22.4952 33.7527 23.775 32.174 23.775C31.2969 23.775 30.4705 23.3797 30.0029 22.7577V30.0037H36.8173C36.2236 30.4713 35.8486 31.2898 35.8486 32.1438C35.8486 33.7224 37.1283 35.0003 38.707 35.0003C40.2856 35.0003 41.5654 33.7234 41.5654 32.1447C41.5654 31.2907 41.1904 30.4713 40.5966 30.0037H47.4201V12.5865Z" fill="url(#paint2_linear)"/>
<rect x="43.6807" y="12.5865" width="3.7406" height="17.4172" fill="#FD5F5A"/>
<path fill-rule="evenodd" clip-rule="evenodd" d="M32.1695 18.0582C31.2925 18.0582 30.4709 18.4535 30.0034 19.0755V12.5865H12.5862V18.9799C12.1186 18.4133 11.3033 18.0582 10.472 18.0582C8.89337 18.0582 7.60742 19.3379 7.60742 20.9166C7.60742 22.4952 8.89653 23.775 10.4751 23.775C11.3064 23.775 12.1186 23.4199 12.5862 22.8533V30.0037H19.4091C18.8189 29.5361 18.4463 28.7099 18.4463 27.8589C18.4463 26.2803 19.726 24.9973 21.3047 24.9973C22.8833 24.9973 24.1631 26.282 24.1631 27.8607C24.1631 28.7118 23.7904 29.5362 23.2002 30.0038H30.0034V22.7578C30.4709 23.3796 31.2925 23.7751 32.1695 23.7751C33.7482 23.7751 35.0279 22.4953 35.0279 20.9167C35.0279 19.3379 33.7482 18.0582 32.1695 18.0582Z" fill="white"/>
<path fill-rule="evenodd" clip-rule="evenodd" d="M27.8817 35.8391C28.7131 35.8391 29.5355 36.1943 30.0031 36.7608V30.0037H23.1942C23.788 29.5361 24.163 28.7101 24.163 27.8561C24.163 26.2774 22.8832 24.9958 21.3046 24.9958C19.7259 24.9958 18.4462 26.2784 18.4462 27.857C18.4462 28.7111 18.8212 29.5361 19.4149 30.0037H12.5859V47.4209H19.4149C18.8212 47.8884 18.4462 48.6997 18.4462 49.5537C18.4462 51.1324 19.7259 52.4066 21.3046 52.4066C22.8832 52.4066 24.163 51.1352 24.163 49.5565C24.163 48.7025 23.788 47.8885 23.1942 47.421H30.0031V40.6344C29.5355 41.2009 28.713 41.5561 27.8817 41.5561C26.3031 41.5561 25.0233 40.2763 25.0233 38.6977C25.0233 37.1189 26.3031 35.8391 27.8817 35.8391Z" fill="url(#paint3_linear)"/>
<defs>
<linearGradient id="paint0_linear" x1="30" y1="90" x2="90" y2="30" gradientUnits="userSpaceOnUse">
<stop stop-color="#FFDDC3"/>
<stop offset="1" stop-color="#FFE5D3"/>
</linearGradient>
<linearGradient id="paint1_linear" x1="48.0596" y1="56.1295" x2="62.0405" y2="49.0994" gradientUnits="userSpaceOnUse">
<stop stop-color="#CFDDF2"/>
<stop offset="1" stop-color="#DFEAF9"/>
</linearGradient>
<linearGradient id="paint2_linear" x1="28.3622" y1="15.7334" x2="46.8649" y2="35.5195" gradientUnits="userSpaceOnUse">
<stop stop-color="#FF7E72"/>
<stop offset="1" stop-color="#FF5E5E"/>
</linearGradient>
<linearGradient id="paint3_linear" x1="12.5859" y1="24.9958" x2="12.5859" y2="52.4066" gradientUnits="userSpaceOnUse">
<stop stop-color="#00A07D"/>
<stop offset="1" stop-color="#2CBB9C"/>
</linearGradient>
</defs>
</svg>
