<svg width="40" height="40" viewBox="0 0 40 40" fill="none" xmlns="http://www.w3.org/2000/svg">
<path fill-rule="evenodd" clip-rule="evenodd" d="M20 40C31.0457 40 40 31.0457 40 20C40 8.95431 31.0457 0 20 0C8.95431 0 0 8.95431 0 20C0 31.0457 8.95431 40 20 40Z" fill="#FFE2CD"/>
<path fill-rule="evenodd" clip-rule="evenodd" d="M29.1223 26.085C28.535 25.4976 27.7195 25.2224 26.9813 25.3342L31.6638 20.6518L27.0938 16.0818C27.172 16.799 26.8612 17.6122 26.2776 18.1957C25.199 19.2744 23.4714 19.2877 22.4142 18.2305C21.3569 17.1732 21.375 15.4409 22.4537 14.3622C23.0373 13.7786 23.8456 13.4726 24.5627 13.5507L19.9989 8.98696L15.3818 13.6041C15.4558 12.9038 15.1476 12.1102 14.5909 11.5535C13.5336 10.4962 11.7955 10.507 10.7168 11.5857C9.63813 12.6644 9.63065 14.4058 10.6879 15.463C11.2447 16.0198 12.035 16.3248 12.7353 16.2508L8.09804 20.888L19.7629 32.5528L24.4654 27.8503C24.3537 28.5884 24.6288 29.4039 25.2162 29.9913C26.2735 31.0486 28.005 31.0312 29.0837 29.9525C30.1623 28.8738 30.1796 27.1423 29.1223 26.085Z" fill="white" stroke="#323A4A" stroke-width="0.6" stroke-linecap="round" stroke-linejoin="round"/>
<path opacity="0.1" fill-rule="evenodd" clip-rule="evenodd" d="M29.1219 26.0851C28.5345 25.4977 27.7191 25.2224 26.9809 25.3343L31.6633 20.6519L30.5789 19.5674L18.6779 31.4683L19.7624 32.5528L24.4649 27.8503C24.3532 28.5883 24.6283 29.4039 25.2157 29.9913C26.273 31.0486 28.0045 31.0312 29.0832 29.9525C30.1619 28.8739 30.1792 27.1423 29.1219 26.0851Z" fill="#323A4A"/>
</svg>
