<svg width="60" height="60" viewBox="0 0 60 60" fill="none" xmlns="http://www.w3.org/2000/svg">
<path fill-rule="evenodd" clip-rule="evenodd" d="M30 60C46.5685 60 60 46.5685 60 30C60 13.4315 46.5685 0 30 0C13.4315 0 0 13.4315 0 30C0 46.5685 13.4315 60 30 60Z" fill="#B8F2EF"/>
<mask id="mask0" mask-type="alpha" maskUnits="userSpaceOnUse" x="0" y="0" width="60" height="60">
<path fill-rule="evenodd" clip-rule="evenodd" d="M30 60C46.5685 60 60 46.5685 60 30C60 13.4315 46.5685 0 30 0C13.4315 0 0 13.4315 0 30C0 46.5685 13.4315 60 30 60Z" fill="white"/>
</mask>
<g mask="url(#mask0)">
<path fill-rule="evenodd" clip-rule="evenodd" d="M21.7395 43.8241C21.4629 44.0339 21.1862 44.2299 20.9095 44.4148L20.5913 44.6246C19.9751 45.0309 19.3348 45.3996 18.6739 45.7286C18.5134 45.8114 18.3529 45.886 18.1925 45.9605L18.0929 46.0047C17.9324 46.0764 17.7747 46.1454 17.6142 46.2089C17.296 46.3386 16.9861 46.4518 16.6845 46.5539L16.4383 46.634L16.2142 46.7002C16.1422 46.7223 16.0703 46.7444 15.9984 46.7609C15.5251 46.8911 15.0447 46.9943 14.5596 47.0701L14.2995 47.106L14.0478 47.1363C13.9648 47.1363 13.879 47.1529 13.796 47.1612C13.6549 47.1612 13.5193 47.1832 13.3782 47.1888H13.1375H12.8995C9.82717 47.1796 6.88993 45.9277 4.75952 43.7192C7.09749 42.5462 7.3382 38.9138 7.57615 37.2991C7.07112 36.919 6.60077 36.495 6.1706 36.0322C6.52565 36.3787 6.90878 36.6954 7.31607 36.979C10.7067 39.3552 15.2555 39.2432 18.5245 36.7029C18.5738 37.7248 18.7475 38.737 19.0419 39.717C19.4901 41.3676 20.334 43.181 21.7395 43.8241Z" fill="white" stroke="#323A4A" stroke-width="0.6" stroke-linecap="round" stroke-linejoin="round"/>
<path opacity="0.3" fill-rule="evenodd" clip-rule="evenodd" d="M19.1671 39.8134C15.5829 41.5932 11.2628 40.9203 8.39307 38.1352C8.14927 37.9012 7.91924 37.6533 7.70413 37.3927C7.61559 37.2879 7.53259 37.183 7.44958 37.0753C10.8402 39.4516 15.389 39.3396 18.658 36.7993C18.7046 37.8209 18.8756 38.833 19.1671 39.8134Z" fill="#323A4A"/>
<path fill-rule="evenodd" clip-rule="evenodd" d="M32.2895 92.8858C18.5827 95.9633 4.92284 95.7756 -8.68994 92.7064C-8.65674 89.1182 -8.4852 83.3053 -7.82669 76.8907C-7.03261 69.1071 -5.52746 60.4126 -2.68593 53.6419C-1.5294 50.8956 -0.151516 48.4473 1.47814 46.5152L1.54732 46.4352C1.62755 46.3413 1.71056 46.2503 1.7908 46.1592C1.79951 46.1469 1.80974 46.1358 1.82123 46.126C1.85497 46.0845 1.89099 46.0449 1.92914 46.0074C2.02321 45.9052 2.11728 45.8004 2.20582 45.701C2.29436 45.6016 2.4576 45.4415 2.58764 45.3173C2.71768 45.1931 2.82836 45.0882 2.95286 44.9778L3.01927 44.9171L3.32085 44.6576C3.59753 44.412 3.90189 44.1884 4.20347 43.9731L4.2173 43.9593H4.23944C4.36395 43.871 4.48845 43.7827 4.61573 43.7026L4.68766 43.7827C5.71148 44.846 6.93321 45.7001 8.28454 46.2972C9.71069 46.9372 11.2584 47.2629 12.8221 47.2522H13.0601H13.3008C13.4391 47.2522 13.5775 47.2356 13.7186 47.2246C13.8016 47.2246 13.8874 47.2246 13.9704 47.1997L14.2221 47.1694L14.4822 47.1335C14.9673 47.0578 15.4477 46.9546 15.921 46.8244C15.9929 46.8078 16.0649 46.7857 16.1368 46.7636L16.3609 46.6974L16.5435 46.6367L16.6072 46.6174C16.9087 46.5152 17.2186 46.4021 17.5368 46.2723C17.6973 46.2089 17.855 46.1398 18.0155 46.0681L18.1151 46.0239C18.2755 45.9494 18.436 45.8749 18.5965 45.7921C19.2574 45.4631 19.8977 45.0944 20.5139 44.688L20.8321 44.4782C21.1088 44.2933 21.3855 44.0973 21.6621 43.8876C21.7063 43.8587 21.7488 43.8274 21.7894 43.7937L21.9444 43.9952C22.0633 44.1581 22.257 44.4203 22.4977 44.7791L22.7301 45.1186C22.7938 45.2152 22.8657 45.3173 22.9349 45.425C23.0041 45.5326 23.0649 45.6182 23.1313 45.7258L23.3416 46.0488C23.3665 46.0902 23.3942 46.1316 23.4218 46.173C23.5021 46.3027 23.5906 46.449 23.6764 46.5815C23.7151 46.645 23.7539 46.7057 23.7926 46.7719L24.0333 47.1666C25.2947 49.2827 26.4042 51.4853 27.3535 53.7579C29.3851 58.5122 30.6369 63.5615 31.0611 68.7124C31.2907 71.7485 31.4788 74.735 31.6338 77.5255C32.0626 84.0533 32.2204 89.6288 32.2895 92.8858Z" fill="white" stroke="#323A4A" stroke-width="0.6" stroke-linecap="round" stroke-linejoin="round"/>
<path opacity="0.01" fill-rule="evenodd" clip-rule="evenodd" d="M22.1032 29.3417C22.1032 29.5266 22.1032 29.7088 22.0866 29.8937C22.088 29.913 22.088 29.9324 22.0866 29.9517C22.0654 30.3072 22.0229 30.6611 21.9594 31.0116C21.9428 31.1165 21.9206 31.2241 21.8957 31.3345C21.6785 32.3433 21.2942 33.3088 20.7586 34.1913C20.7171 34.2686 20.6673 34.3431 20.6202 34.4204C20.1112 35.2084 19.4884 35.9171 18.772 36.5236C18.6668 36.6147 18.5589 36.7003 18.451 36.7803C16.0473 38.6377 12.8944 39.2277 9.97934 38.3655C7.06425 37.5034 4.74316 35.2945 3.74258 32.4303C3.73306 32.4078 3.72475 32.3847 3.71768 32.3613C3.38879 31.3884 3.2215 30.3684 3.22242 29.3417C3.22242 29.0188 3.23902 28.6958 3.26945 28.3784C3.76881 23.5712 7.83197 19.9196 12.6767 19.9241C13.2547 19.9236 13.8317 19.9753 14.4004 20.0786C15.2489 20.2335 16.0713 20.5067 16.8435 20.8901L16.8905 20.9122C20.0867 22.5121 22.1041 25.7744 22.1032 29.3417Z" fill="white" stroke="#323A4A" stroke-width="0.6" stroke-linecap="round" stroke-linejoin="round"/>
<path fill-rule="evenodd" clip-rule="evenodd" d="M22.1032 29.3417C22.1032 29.5266 22.1032 29.7088 22.0866 29.8937C22.088 29.913 22.088 29.9324 22.0866 29.9517C22.0654 30.3072 22.0229 30.6611 21.9594 31.0116C21.9428 31.1165 21.9206 31.2241 21.8957 31.3345C21.6785 32.3433 21.2942 33.3088 20.7586 34.1913C20.7171 34.2686 20.6673 34.3431 20.6202 34.4204C20.1112 35.2084 19.4884 35.9171 18.772 36.5236C18.6668 36.6147 18.5589 36.7003 18.451 36.7803C16.0473 38.6377 12.8944 39.2277 9.97934 38.3655C7.06425 37.5034 4.74316 35.2945 3.74258 32.4303C3.73306 32.4078 3.72475 32.3847 3.71768 32.3613C3.38879 31.3884 3.2215 30.3684 3.22242 29.3417C3.22242 29.0188 3.23902 28.6958 3.26945 28.3784C3.76881 23.5712 7.83197 19.9196 12.6767 19.9241C13.2547 19.9236 13.8317 19.9753 14.4004 20.0786C15.2489 20.2335 16.0713 20.5067 16.8435 20.8901L16.8905 20.9122C20.0867 22.5121 22.1041 25.7744 22.1032 29.3417Z" fill="white" stroke="#323A4A" stroke-width="0.6" stroke-linecap="round" stroke-linejoin="round"/>
<path d="M13.2139 19.9057C13.2139 19.9057 13.6178 17.8659 15.2752 17.623" stroke="#323A4A" stroke-width="0.6" stroke-linecap="round" stroke-linejoin="round"/>
<path d="M12.3717 19.77C12.3717 19.77 11.7741 18.4644 10.9081 18.3899" stroke="#323A4A" stroke-width="0.6" stroke-linecap="round" stroke-linejoin="round"/>
<path d="M12.4453 16.856C12.5837 17.4049 12.6762 17.9644 12.722 18.5286" stroke="#323A4A" stroke-width="0.6" stroke-linecap="round" stroke-linejoin="round"/>
<path d="M23.9739 32.197C23.9739 32.197 27.936 37.1901 24.2948 40.9274" stroke="white" stroke-width="0.6" stroke-linecap="round" stroke-linejoin="round"/>
<path fill-rule="evenodd" clip-rule="evenodd" d="M15.8214 29.3471C16.2004 29.3471 16.5076 29.0406 16.5076 28.6625C16.5076 28.2845 16.2004 27.978 15.8214 27.978C15.4425 27.978 15.1353 28.2845 15.1353 28.6625C15.1353 29.0406 15.4425 29.3471 15.8214 29.3471Z" fill="#323A4A"/>
<path fill-rule="evenodd" clip-rule="evenodd" d="M9.28859 29.3471C9.66755 29.3471 9.97476 29.0406 9.97476 28.6625C9.97476 28.2845 9.66755 27.978 9.28859 27.978C8.90963 27.978 8.60242 28.2845 8.60242 28.6625C8.60242 29.0406 8.90963 29.3471 9.28859 29.3471Z" fill="#323A4A"/>
<path d="M13.4887 26.0605L13.5468 32.6739L12.061 32.8809" stroke="#323A4A" stroke-width="0.6" stroke-linecap="round" stroke-linejoin="round"/>
<path fill-rule="evenodd" clip-rule="evenodd" d="M16.9887 33.2106C17.8001 33.2106 18.4579 32.5544 18.4579 31.7449C18.4579 30.9355 17.8001 30.2793 16.9887 30.2793C16.1773 30.2793 15.5195 30.9355 15.5195 31.7449C15.5195 32.5544 16.1773 33.2106 16.9887 33.2106Z" fill="#FF756B"/>
<path fill-rule="evenodd" clip-rule="evenodd" d="M8.91877 33.5941C9.73018 33.5941 10.388 32.9379 10.388 32.1285C10.388 31.319 9.73018 30.6628 8.91877 30.6628C8.10736 30.6628 7.44958 31.319 7.44958 32.1285C7.44958 32.9379 8.10736 33.5941 8.91877 33.5941Z" fill="#FF756B"/>
<path d="M16.9644 32.197C16.9644 32.197 16.8621 34.6094 14.751 34.8357" stroke="#323A4A" stroke-width="0.6" stroke-linecap="round" stroke-linejoin="round"/>
<path fill-rule="evenodd" clip-rule="evenodd" d="M66.244 92.8858C52.5371 95.9661 38.8773 95.7729 25.2645 92.7064C25.2977 89.1182 25.4693 83.3053 26.125 76.8907C26.9219 69.1043 28.4242 60.4154 31.2685 53.6419C32.4251 50.8818 33.803 48.4446 35.4437 46.5152C35.4652 46.4873 35.4883 46.4606 35.5128 46.4352L35.7536 46.1592L35.7868 46.126C35.8195 46.0845 35.8546 46.0449 35.8919 46.0074C35.986 45.9052 36.0828 45.8004 36.1824 45.701C36.282 45.6016 36.4342 45.4415 36.5642 45.3201C36.6943 45.1986 36.805 45.0882 36.9267 44.9778L36.9959 44.9171C37.0927 44.8288 37.1951 44.7405 37.2975 44.6576C37.5741 44.4148 37.8785 44.1884 38.1801 43.9731L38.1939 43.9593H38.216C38.3378 43.8682 38.4651 43.7827 38.5923 43.7026C38.5923 43.7026 38.6145 43.7302 38.6643 43.7827C39.6873 44.8469 40.9092 45.7011 42.2611 46.2972C43.6861 46.9378 45.233 47.2635 46.796 47.2522H47.0339H47.2746L47.6924 47.2218L47.9414 47.197L48.196 47.1666C48.2825 47.1592 48.3684 47.1463 48.4533 47.128C48.8474 47.0708 49.238 46.9925 49.6237 46.8934L49.8395 46.8382L49.8948 46.8244L50.1079 46.7609L50.3347 46.6919C50.3928 46.6753 50.4565 46.656 50.5173 46.6339L50.581 46.6146C50.8826 46.5125 51.1925 46.3965 51.5106 46.2723C51.6711 46.2061 51.8288 46.1343 51.9893 46.0653C52.0217 46.0489 52.055 46.0342 52.0889 46.0212C52.2466 45.9466 52.4099 45.8721 52.5676 45.7893C53.2294 45.4604 53.8706 45.0917 54.4877 44.6853C54.5956 44.619 54.7008 44.5472 54.8059 44.4755C55.0826 44.2905 55.3593 44.0946 55.636 43.8876C55.683 43.8572 55.7217 43.8241 55.766 43.791C55.766 43.791 55.8186 43.8572 55.921 43.9952C56.0233 44.1332 56.2336 44.4175 56.4743 44.7763C56.5463 44.884 56.6237 44.9944 56.704 45.1158C56.7842 45.2373 56.8423 45.3118 56.9115 45.4195L57.1079 45.7231C57.1771 45.828 57.2435 45.9356 57.3182 46.046C57.3431 46.0874 57.3708 46.126 57.3957 46.173C57.4787 46.2999 57.5644 46.449 57.653 46.5787C57.689 46.6422 57.7305 46.7057 57.7664 46.7692C57.8467 46.8961 57.9269 47.0286 58.0099 47.1639C59.2749 49.2802 60.389 51.4827 61.3439 53.7551C62.4968 56.4768 63.406 59.2948 64.061 62.1763C64.5498 64.3272 64.8808 66.5107 65.0515 68.7096C65.2811 71.7458 65.4693 74.7323 65.6242 77.5228C65.7349 79.5515 65.8262 81.4891 65.9009 83.2887C66.1139 87.2909 66.2052 90.6418 66.244 92.8858Z" fill="#404A59" stroke="#323A4A" stroke-width="0.6"/>
<path fill-rule="evenodd" clip-rule="evenodd" d="M55.6946 43.8241C55.4179 44.0339 55.1412 44.2299 54.8646 44.4148L54.5464 44.6246C53.9302 45.0309 53.2899 45.3996 52.629 45.7286C52.4685 45.8114 52.3052 45.886 52.1475 45.9605L52.0479 46.0047C51.8875 46.0764 51.727 46.1454 51.5693 46.2089C51.2511 46.3386 50.9412 46.4518 50.6369 46.5539L50.3934 46.634L50.1693 46.7002C50.0973 46.7223 50.0254 46.7444 49.9507 46.7609C49.4775 46.8917 48.9971 46.9949 48.5119 47.0701L48.2546 47.106L48.0028 47.1363L47.7511 47.1612C47.6099 47.1612 47.4744 47.1832 47.3333 47.1888H47.0925H46.8546C43.7818 47.1818 40.8437 45.9295 38.7146 43.7192C41.0526 42.5462 41.2933 38.9138 41.5312 37.2991C41.0281 36.9177 40.5588 36.4939 40.1284 36.0322C40.4852 36.3799 40.8701 36.6975 41.2794 36.9817C44.6701 39.358 49.2189 39.246 52.4879 36.7057C52.5278 37.7296 52.6941 38.7448 52.9831 39.7281C53.4535 41.3676 54.2891 43.181 55.6946 43.8241Z" fill="white" stroke="#323A4A" stroke-width="0.6" stroke-linecap="round" stroke-linejoin="round"/>
<path opacity="0.3" fill-rule="evenodd" clip-rule="evenodd" d="M53.1193 39.8134C49.5351 41.5932 45.215 40.9203 42.3453 38.1352C42.1015 37.9012 41.8714 37.6533 41.6563 37.3927C41.5706 37.2879 41.4875 37.183 41.4045 37.0753C44.7952 39.4516 49.344 39.3396 52.613 36.7993C52.6572 37.8209 52.8272 38.8332 53.1193 39.8134Z" fill="#323A4A"/>
<path opacity="0.01" fill-rule="evenodd" clip-rule="evenodd" d="M56.0554 29.3419C56.0554 29.5268 56.0554 29.709 56.0388 29.8939C56.0402 29.9132 56.0402 29.9326 56.0388 29.9519C56.0176 30.3074 55.9751 30.6613 55.9116 31.0118C55.895 31.1167 55.8701 31.2243 55.8479 31.3347C55.6308 32.3435 55.2464 33.309 54.7108 34.1915C54.6665 34.2688 54.6195 34.3433 54.5724 34.4206C54.0633 35.2093 53.4395 35.9181 52.7214 36.5238C52.619 36.6149 52.5111 36.7005 52.4032 36.7805C49.9996 38.6367 46.8475 39.226 43.9333 38.3639C41.019 37.5019 38.6984 35.2938 37.6976 32.4305C37.6868 32.4085 37.6785 32.3853 37.6727 32.3615C37.3424 31.389 37.1751 30.3688 37.1774 29.3419C37.1774 29.019 37.194 28.696 37.2244 28.3786C37.4988 25.7639 38.8541 23.3818 40.9639 21.8063C43.0736 20.2308 45.7466 19.6047 48.3388 20.0788C49.1871 20.2341 50.0095 20.5073 50.7819 20.8903L50.8261 20.9124C54.0292 22.5072 56.0538 25.7707 56.0554 29.3419Z" fill="white" stroke="#323A4A" stroke-width="0.6" stroke-linecap="round" stroke-linejoin="round"/>
<path fill-rule="evenodd" clip-rule="evenodd" d="M56.0554 29.3419C56.0554 29.5268 56.0554 29.709 56.0388 29.8939C56.0402 29.9132 56.0402 29.9326 56.0388 29.9519C56.0176 30.3074 55.9751 30.6613 55.9116 31.0118C55.895 31.1167 55.8701 31.2243 55.8479 31.3347C55.6308 32.3435 55.2464 33.309 54.7108 34.1915C54.6665 34.2688 54.6195 34.3433 54.5724 34.4206C54.0633 35.2093 53.4395 35.9181 52.7214 36.5238C52.619 36.6149 52.5111 36.7005 52.4032 36.7805C49.9996 38.6367 46.8475 39.226 43.9333 38.3639C41.019 37.5019 38.6984 35.2938 37.6976 32.4305C37.6868 32.4085 37.6785 32.3853 37.6727 32.3615C37.3424 31.389 37.1751 30.3688 37.1774 29.3419C37.1774 29.019 37.194 28.696 37.2244 28.3786C37.4988 25.7639 38.8541 23.3818 40.9639 21.8063C43.0736 20.2308 45.7466 19.6047 48.3388 20.0788C49.1871 20.2341 50.0095 20.5073 50.7819 20.8903L50.8261 20.9124C54.0292 22.5072 56.0538 25.7707 56.0554 29.3419Z" fill="white" stroke="#323A4A" stroke-width="0.6" stroke-linecap="round" stroke-linejoin="round"/>
<path fill-rule="evenodd" clip-rule="evenodd" d="M49.7764 29.3471C50.1553 29.3471 50.4626 29.0406 50.4626 28.6625C50.4626 28.2845 50.1553 27.978 49.7764 27.978C49.3974 27.978 49.0902 28.2845 49.0902 28.6625C49.0902 29.0406 49.3974 29.3471 49.7764 29.3471Z" fill="#323A4A"/>
<path fill-rule="evenodd" clip-rule="evenodd" d="M43.6278 29.3471C44.0068 29.3471 44.314 29.0406 44.314 28.6625C44.314 28.2845 44.0068 27.978 43.6278 27.978C43.2489 27.978 42.9417 28.2845 42.9417 28.6625C42.9417 29.0406 43.2489 29.3471 43.6278 29.3471Z" fill="#323A4A"/>
<path d="M47.4437 26.0605L47.5045 32.6739L46.016 32.8809" stroke="#323A4A" stroke-width="0.6" stroke-linecap="round" stroke-linejoin="round"/>
<path fill-rule="evenodd" clip-rule="evenodd" d="M50.9438 33.2106C51.7552 33.2106 52.413 32.5544 52.413 31.7449C52.413 30.9355 51.7552 30.2793 50.9438 30.2793C50.1324 30.2793 49.4746 30.9355 49.4746 31.7449C49.4746 32.5544 50.1324 33.2106 50.9438 33.2106Z" fill="#FF756B"/>
<path fill-rule="evenodd" clip-rule="evenodd" d="M42.8737 33.5941C43.6851 33.5941 44.3429 32.9379 44.3429 32.1285C44.3429 31.319 43.6851 30.6628 42.8737 30.6628C42.0623 30.6628 41.4045 31.319 41.4045 32.1285C41.4045 32.9379 42.0623 33.5941 42.8737 33.5941Z" fill="#FF756B"/>
<path d="M51.3037 32.197C51.3037 32.197 51.2013 34.6094 49.0902 34.8357" stroke="#323A4A" stroke-width="0.6" stroke-linecap="round" stroke-linejoin="round"/>
<path d="M49.0902 19.9057C49.0902 19.9057 49.4942 17.8659 51.1515 17.623" stroke="#323A4A" stroke-width="0.6" stroke-linecap="round" stroke-linejoin="round"/>
<path d="M48.2482 19.77C48.2482 19.77 47.6506 18.4644 46.7845 18.3899" stroke="#323A4A" stroke-width="0.6" stroke-linecap="round" stroke-linejoin="round"/>
<path d="M48.3217 16.856C48.46 17.4049 48.5526 17.9644 48.5983 18.5286" stroke="#323A4A" stroke-width="0.6" stroke-linecap="round" stroke-linejoin="round"/>
<path fill-rule="evenodd" clip-rule="evenodd" d="M40.3656 41.9303C40.0318 42.1787 39.7016 42.4124 39.3751 42.6313C39.2506 42.7169 39.1233 42.7997 38.9988 42.8798C38.2667 43.3568 37.5073 43.7909 36.7245 44.1798C36.5336 44.2764 36.3427 44.3647 36.1545 44.4558L36.0356 44.5083C35.8446 44.5938 35.6565 44.6766 35.4684 44.7511C35.0921 44.903 34.7241 45.0272 34.3616 45.1596C34.2648 45.1928 34.1679 45.2259 34.0711 45.2535L33.7944 45.3335L33.5371 45.4081C32.9751 45.5604 32.4052 45.682 31.83 45.7724C31.7276 45.789 31.628 45.8028 31.5256 45.8138L31.224 45.8524L30.9252 45.88L30.43 45.9132H30.1533H29.8766C24.2931 45.9518 20.8069 42.4326 20.2231 41.8005C22.99 40.4205 23.2805 36.1008 23.5627 34.188C22.9668 33.7364 22.4114 33.234 21.9026 32.6865C22.3259 33.0974 22.7821 33.4731 23.2667 33.8099C27.2815 36.6279 32.6699 36.5013 36.5474 33.498C36.6025 34.7094 36.8089 35.9092 37.1616 37.0696C37.7095 39.0238 38.7 41.1685 40.3656 41.9303Z" fill="white" stroke="#323A4A" stroke-width="0.6" stroke-linecap="round" stroke-linejoin="round"/>
<path opacity="0.3" fill-rule="evenodd" clip-rule="evenodd" d="M37.156 37.0725C32.5047 39.3697 26.881 38.1835 23.5598 34.2047C23.4574 34.0805 23.3578 33.9563 23.261 33.8265C27.2758 36.6445 32.6643 36.518 36.5418 33.5146C36.598 34.7214 36.8043 35.9165 37.156 37.0725Z" fill="#323A4A"/>
<path fill-rule="evenodd" clip-rule="evenodd" d="M52.9104 100.065C48.9301 100.963 44.9014 101.632 40.8442 102.068C32.1548 103.005 23.3836 102.887 14.7226 101.718C11.253 101.26 7.78621 100.64 4.32214 99.8576C4.34151 97.6246 4.40792 94.6796 4.57946 91.2873C4.6929 88.9826 4.85614 86.4764 5.08302 83.8487C5.16049 82.9462 5.24903 82.0298 5.3431 81.1051C6.28382 71.8752 8.07119 61.5688 11.4301 53.5395C12.8135 50.2687 14.4377 47.3761 16.3827 45.0852L16.4657 44.9913C16.5598 44.8809 16.6567 44.7733 16.7424 44.6656C16.7522 44.65 16.7643 44.6361 16.7784 44.6242C16.8178 44.5756 16.8603 44.5295 16.9057 44.4862C17.0163 44.362 17.1298 44.2406 17.2488 44.1219C17.3677 44.0032 17.5476 43.8127 17.7025 43.6692C17.8575 43.5257 17.9792 43.3932 18.1341 43.2635L18.2116 43.1917L18.5685 42.8853C18.9088 42.6093 19.2602 42.3333 19.6172 42.0738H19.631L19.6587 42.0573C19.8053 41.9524 19.9547 41.8503 20.1069 41.7537L20.1899 41.8503C20.5357 42.2199 20.9054 42.5666 21.2966 42.8881C22.2605 43.6674 23.3228 44.317 24.4563 44.8202C26.1467 45.5791 27.9814 45.9652 29.835 45.9519H30.1117H30.3884L30.8837 45.916L31.1825 45.8884C31.2821 45.8884 31.3817 45.8663 31.4813 45.8497C31.5809 45.8332 31.686 45.8249 31.7884 45.8083C32.3639 45.7192 32.9339 45.5976 33.4956 45.444L33.7529 45.3695C33.8414 45.3446 33.9272 45.3198 34.0157 45.2894C34.0901 45.2705 34.1632 45.2465 34.2343 45.2177L34.309 45.1956C34.6687 45.0769 35.0367 44.9389 35.4157 44.7898C35.6039 44.7125 35.792 44.6297 35.9829 44.5442L36.0991 44.4917C36.29 44.4034 36.481 44.3151 36.6719 44.2157C37.181 43.9673 37.6993 43.6839 38.2268 43.3656C38.4648 43.2221 38.7027 43.073 38.9462 42.9157C39.0707 42.8356 39.198 42.7528 39.3225 42.6673C39.649 42.4483 39.9791 42.2146 40.313 41.9662C40.3656 41.9331 40.4126 41.8944 40.4652 41.8558L40.6478 42.0959C40.7889 42.2891 41.0186 42.5983 41.3118 43.0233C41.3976 43.1503 41.4917 43.2828 41.5885 43.4291C41.6854 43.5754 41.749 43.6609 41.832 43.7907C41.915 43.9204 41.9842 44.0197 42.0644 44.1467L42.3134 44.5304L42.4075 44.6767L42.7118 45.1624C42.7561 45.237 42.8032 45.3087 42.8474 45.386L43.1241 45.8525C44.6241 48.3628 45.9462 50.9748 47.0807 53.6692C49.4876 59.3077 50.9711 65.2953 51.4744 71.4032C51.7511 75.019 51.9724 78.5465 52.155 81.8531C52.3127 84.7568 52.4317 87.4976 52.5368 89.9928C52.7637 94.1413 52.8578 97.6357 52.9104 100.065Z" fill="#FFE1CB" stroke="#323A4A" stroke-width="0.6" stroke-linecap="round" stroke-linejoin="round"/>
<path fill-rule="evenodd" clip-rule="evenodd" d="M21.4656 30.3433L21.5098 30.2135C21.4988 30.2549 21.4822 30.2991 21.4656 30.3433Z" fill="#323A4A"/>
<path fill-rule="evenodd" clip-rule="evenodd" d="M22.2761 30.7048C22.2235 30.9063 22.1682 31.0719 22.1461 31.1437C22.1627 31.0747 22.2069 30.9063 22.2761 30.7048Z" fill="#323A4A"/>
<path opacity="0.01" fill-rule="evenodd" clip-rule="evenodd" d="M40.8666 24.6711C40.8666 24.892 40.8666 25.1072 40.8472 25.3198C40.8486 25.3437 40.8486 25.3676 40.8472 25.3915C40.8204 25.8127 40.7696 26.232 40.6951 26.6474C40.6757 26.7716 40.648 26.9013 40.6176 27.0283C40.3607 28.2247 39.9063 29.3701 39.2729 30.4178C39.2203 30.5089 39.1622 30.6 39.1069 30.6938C38.5036 31.6254 37.7651 32.4625 36.9156 33.1779C36.7911 33.2883 36.6638 33.3905 36.5338 33.4871C33.6842 35.687 29.9478 36.385 26.4934 35.3627C23.039 34.3404 20.2886 31.7226 19.1027 28.3283C19.1027 28.298 19.0806 28.2731 19.0723 28.2455C18.6811 27.0896 18.4829 25.8774 18.4857 24.6573C18.4857 24.2737 18.5051 23.8928 18.5411 23.5174C19.1308 17.8217 23.9404 13.492 29.6803 13.4898C30.3652 13.4883 31.0488 13.5502 31.7222 13.6747C32.7279 13.8592 33.7029 14.1824 34.6191 14.6352L34.6744 14.6628C38.4731 16.5586 40.8708 20.4339 40.8666 24.6711Z" fill="white" stroke="#323A4A" stroke-width="0.6" stroke-linecap="round" stroke-linejoin="round"/>
<path fill-rule="evenodd" clip-rule="evenodd" d="M40.8666 24.6711C40.8666 24.892 40.8666 25.1072 40.8472 25.3198C40.8486 25.3437 40.8486 25.3676 40.8472 25.3915C40.8204 25.8127 40.7696 26.232 40.6951 26.6474C40.6757 26.7716 40.648 26.9013 40.6176 27.0283C40.3607 28.2247 39.9063 29.3701 39.2729 30.4178C39.2203 30.5089 39.1622 30.6 39.1069 30.6938C38.5036 31.6254 37.7651 32.4625 36.9156 33.1779C36.7911 33.2883 36.6638 33.3905 36.5338 33.4871C33.6842 35.687 29.9478 36.385 26.4934 35.3627C23.039 34.3404 20.2886 31.7226 19.1027 28.3283C19.1027 28.298 19.0806 28.2731 19.0723 28.2455C18.6811 27.0896 18.4829 25.8774 18.4857 24.6573C18.4857 24.2737 18.5051 23.8928 18.5411 23.5174C19.1308 17.8217 23.9404 13.492 29.6803 13.4898C30.3652 13.4883 31.0488 13.5502 31.7222 13.6747C32.7279 13.8592 33.7029 14.1824 34.6191 14.6352L34.6744 14.6628C38.4731 16.5586 40.8708 20.4339 40.8666 24.6711Z" fill="white" stroke="#323A4A" stroke-width="0.6" stroke-linecap="round" stroke-linejoin="round"/>
<path d="M30 15.2882C30 15.2882 30.671 11.8935 33.4238 11.4893" stroke="#323A4A" stroke-width="0.6" stroke-linecap="round" stroke-linejoin="round"/>
<path d="M28.6011 15.0627C28.6011 15.0627 27.6084 12.8899 26.1699 12.7659" stroke="#323A4A" stroke-width="0.6" stroke-linecap="round" stroke-linejoin="round"/>
<path d="M28.7231 10.2126C28.953 11.1263 29.1067 12.0574 29.1827 12.9964" stroke="#323A4A" stroke-width="0.6" stroke-linecap="round" stroke-linejoin="round"/>
<path fill-rule="evenodd" clip-rule="evenodd" d="M33.1029 24.7485C33.5521 24.7485 33.9163 24.3851 33.9163 23.937C33.9163 23.4888 33.5521 23.1255 33.1029 23.1255C32.6536 23.1255 32.2894 23.4888 32.2894 23.937C32.2894 24.3851 32.6536 24.7485 33.1029 24.7485Z" fill="#323A4A"/>
<path fill-rule="evenodd" clip-rule="evenodd" d="M25.7682 24.9057C26.2174 24.9057 26.5816 24.5424 26.5816 24.0942C26.5816 23.646 26.2174 23.2827 25.7682 23.2827C25.3189 23.2827 24.9547 23.646 24.9547 24.0942C24.9547 24.5424 25.3189 24.9057 25.7682 24.9057Z" fill="#323A4A"/>
<path d="M30.3469 21.0195L30.4188 28.8611L28.6536 29.1068" stroke="#323A4A" stroke-width="0.6" stroke-linecap="round" stroke-linejoin="round"/>
<path fill-rule="evenodd" clip-rule="evenodd" d="M34.7323 29.2447C35.6934 29.2447 36.4726 28.4674 36.4726 27.5086C36.4726 26.5498 35.6934 25.7725 34.7323 25.7725C33.7711 25.7725 32.9919 26.5498 32.9919 27.5086C32.9919 28.4674 33.7711 29.2447 34.7323 29.2447Z" fill="#FF756B"/>
<path fill-rule="evenodd" clip-rule="evenodd" d="M25.0237 29.9017C25.9848 29.9017 26.764 29.1244 26.764 28.1656C26.764 27.2067 25.9848 26.4294 25.0237 26.4294C24.0625 26.4294 23.2833 27.2067 23.2833 28.1656C23.2833 29.1244 24.0625 29.9017 25.0237 29.9017Z" fill="#FF756B"/>
<path d="M34.8018 27.9282C34.8018 27.9282 34.6801 30.7877 32.1733 31.0582" stroke="#323A4A" stroke-width="0.6" stroke-linecap="round" stroke-linejoin="round"/>
</g>
</svg>
