<svg width="60" height="60" viewBox="0 0 60 60" fill="none" xmlns="http://www.w3.org/2000/svg">
<path fill-rule="evenodd" clip-rule="evenodd" d="M30 60C46.5685 60 60 46.5685 60 30C60 13.4315 46.5685 0 30 0C13.4315 0 0 13.4315 0 30C0 46.5685 13.4315 60 30 60Z" fill="#F45E5D"/>
<path fill-rule="evenodd" clip-rule="evenodd" d="M42.2718 48.7701H17.3032C16.1134 48.7701 15.1489 47.8464 15.1489 46.7068V13.4606C15.1489 12.321 16.1135 11.3972 17.3032 11.3972H42.2718C43.4616 11.3972 44.426 12.321 44.426 13.4606V46.7068C44.426 47.8464 43.4616 48.7701 42.2718 48.7701Z" fill="white" stroke="#323A4A" stroke-width="0.6" stroke-linecap="round" stroke-linejoin="round"/>
<path d="M21.3247 22.8686H34.1172" stroke="#404A59" stroke-width="0.6"/>
<path d="M21.3247 29.9972H37.0922" stroke="#404A59" stroke-width="0.6"/>
<path d="M21.3247 36.5319H39.4722" stroke="#404A59" stroke-width="0.6"/>
<path opacity="0.1" fill-rule="evenodd" clip-rule="evenodd" d="M42.2824 11.3972H40.4629V48.755H42.2824C43.4722 48.755 44.3755 47.7472 44.3755 46.6076V13.3614C44.3755 12.2218 43.4722 11.3972 42.2824 11.3972Z" fill="#323A4A"/>
</svg>
