<svg width="170" height="170" viewBox="0 0 170 170" fill="none" xmlns="http://www.w3.org/2000/svg">
<path fill-rule="evenodd" clip-rule="evenodd" d="M78 170C121.078 170 156 135.078 156 92C156 48.9218 121.078 14 78 14C34.9218 14 0 48.9218 0 92C0 135.078 34.9218 170 78 170Z" fill="#B8F2EF"/>
<mask id="mask0" mask-type="alpha" maskUnits="userSpaceOnUse" x="0" y="14" width="156" height="156">
<path fill-rule="evenodd" clip-rule="evenodd" d="M78 170C121.078 170 156 135.078 156 92C156 48.9218 121.078 14 78 14C34.9218 14 0 48.9218 0 92C0 135.078 34.9218 170 78 170Z" fill="white"/>
</mask>
<g mask="url(#mask0)">
<path fill-rule="evenodd" clip-rule="evenodd" d="M56.524 127.943C55.8046 128.488 55.0853 128.998 54.3659 129.479L53.5386 130.024C51.9366 131.081 50.2718 132.039 48.5533 132.895C48.1361 133.11 47.7189 133.304 47.3016 133.498L47.0426 133.612C46.6254 133.799 46.2154 133.978 45.7981 134.143C44.9708 134.481 44.1651 134.775 43.381 135.04L42.7408 135.249L42.1581 135.421C41.9711 135.478 41.784 135.536 41.597 135.579C40.3664 135.917 39.1174 136.186 37.8562 136.382L37.18 136.476L36.5254 136.555C36.3096 136.555 36.0866 136.598 35.8708 136.619C35.5039 136.619 35.1514 136.677 34.7845 136.691H34.1586H33.54C25.5519 136.667 17.915 133.412 12.376 127.67C18.4547 124.62 19.0805 115.176 19.6992 110.978C18.3861 109.99 17.1632 108.887 16.0448 107.684C16.9679 108.585 17.964 109.408 19.023 110.146C27.8387 116.324 39.6655 116.033 48.1649 109.428C48.2931 112.085 48.7448 114.716 49.5101 117.265C50.6755 121.556 52.8696 126.271 56.524 127.943Z" fill="white" stroke="#323A4A" stroke-width="0.6" stroke-linecap="round" stroke-linejoin="round"/>
<path opacity="0.3" fill-rule="evenodd" clip-rule="evenodd" d="M49.8351 117.515C40.5163 122.143 29.2839 120.393 21.8227 113.152C21.1888 112.543 20.5907 111.899 20.0315 111.221C19.8013 110.949 19.5854 110.676 19.3696 110.396C28.1853 116.574 40.0121 116.283 48.5115 109.678C48.6327 112.335 49.0772 114.966 49.8351 117.515Z" fill="#323A4A"/>
<path fill-rule="evenodd" clip-rule="evenodd" d="M83.9528 255.504C48.315 263.505 12.7995 263.017 -22.5938 255.037C-22.5074 245.708 -22.0614 230.594 -20.3493 213.916C-18.2847 193.679 -14.3713 171.073 -6.98332 153.47C-3.97633 146.329 -0.393845 139.964 3.84327 134.94L4.02312 134.732C4.23174 134.488 4.44755 134.251 4.65617 134.014C4.67882 133.983 4.70541 133.954 4.7353 133.928C4.82301 133.82 4.91667 133.717 5.01585 133.62C5.26044 133.354 5.50503 133.082 5.73523 132.823C5.96543 132.565 6.38986 132.149 6.72796 131.826C7.06607 131.503 7.35382 131.23 7.67754 130.943L7.85019 130.785L8.63431 130.11C9.35368 129.472 10.145 128.89 10.9291 128.331L10.9651 128.295H11.0226C11.3464 128.065 11.6701 127.836 12.001 127.627L12.188 127.836C14.8499 130.6 18.0264 132.821 21.5399 134.373C25.2479 136.037 29.2719 136.884 33.3376 136.856H33.9563H34.5822C34.9418 136.856 35.3015 136.813 35.6684 136.785C35.8842 136.785 36.1072 136.785 36.323 136.72L36.9777 136.641L37.6539 136.548C38.9151 136.351 40.164 136.082 41.3946 135.744C41.5817 135.701 41.7687 135.643 41.9557 135.586L42.5384 135.414L43.0132 135.256L43.1787 135.206C43.9628 134.94 44.7685 134.646 45.5958 134.309C46.013 134.144 46.4231 133.964 46.8403 133.778L47.0993 133.663C47.5165 133.469 47.9338 133.275 48.351 133.06C50.0694 132.205 51.7342 131.246 53.3363 130.189L54.1635 129.644C54.8829 129.163 55.6023 128.654 56.3217 128.108C56.4365 128.033 56.547 127.952 56.6526 127.864L57.0554 128.388C57.3648 128.812 57.8683 129.493 58.4942 130.426L59.0984 131.309C59.2639 131.56 59.4509 131.826 59.6308 132.106C59.8106 132.385 59.9689 132.608 60.1415 132.888L60.6883 133.727C60.753 133.835 60.825 133.943 60.8969 134.05C61.1055 134.388 61.3357 134.768 61.5587 135.112C61.6594 135.277 61.7601 135.435 61.8608 135.608L62.4867 136.634C65.7663 142.136 68.651 147.862 71.1192 153.771C76.4013 166.132 79.6561 179.26 80.7588 192.653C81.3559 200.547 81.8451 208.312 82.2479 215.567C83.363 232.539 83.773 247.035 83.9528 255.504Z" fill="white" stroke="#323A4A" stroke-width="0.6" stroke-linecap="round" stroke-linejoin="round"/>
<path opacity="0.01" fill-rule="evenodd" clip-rule="evenodd" d="M57.4695 90.2888C57.4695 90.7697 57.4695 91.2433 57.4264 91.7241C57.43 91.7743 57.43 91.8247 57.4264 91.8748C57.3711 92.7991 57.2606 93.7194 57.0955 94.6306C57.0523 94.9033 56.9948 95.1831 56.93 95.4702C56.3653 98.0928 55.3661 100.603 53.9734 102.898C53.8655 103.099 53.736 103.292 53.6137 103.493C52.2903 105.542 50.6711 107.385 48.8083 108.962C48.5349 109.199 48.2543 109.421 47.9738 109.629C41.7241 114.458 33.5266 115.992 25.9474 113.751C18.3682 111.509 12.3333 105.766 9.73183 98.3192C9.70707 98.2606 9.68546 98.2007 9.66709 98.1398C8.81198 95.6103 8.37702 92.9583 8.3794 90.2888C8.3794 89.4492 8.42257 88.6096 8.5017 87.7843C9.80004 75.2854 20.3643 65.7913 32.9604 65.803C34.4634 65.8018 35.9635 65.9363 37.4421 66.2049C39.6482 66.6075 41.7865 67.3178 43.7942 68.3147L43.9165 68.3721C52.2265 72.5318 57.4717 81.0138 57.4695 90.2888Z" fill="white" stroke="#323A4A" stroke-width="0.6" stroke-linecap="round" stroke-linejoin="round"/>
<path fill-rule="evenodd" clip-rule="evenodd" d="M57.4695 90.2888C57.4695 90.7697 57.4695 91.2433 57.4264 91.7241C57.43 91.7743 57.43 91.8247 57.4264 91.8748C57.3711 92.7991 57.2606 93.7194 57.0955 94.6306C57.0523 94.9033 56.9948 95.1831 56.93 95.4702C56.3653 98.0928 55.3661 100.603 53.9734 102.898C53.8655 103.099 53.736 103.292 53.6137 103.493C52.2903 105.542 50.6711 107.385 48.8083 108.962C48.5349 109.199 48.2543 109.421 47.9738 109.629C41.7241 114.458 33.5266 115.992 25.9474 113.751C18.3682 111.509 12.3333 105.766 9.73183 98.3192C9.70707 98.2606 9.68546 98.2007 9.66709 98.1398C8.81198 95.6103 8.37702 92.9583 8.3794 90.2888C8.3794 89.4492 8.42257 88.6096 8.5017 87.7843C9.80004 75.2854 20.3643 65.7913 32.9604 65.803C34.4634 65.8018 35.9635 65.9363 37.4421 66.2049C39.6482 66.6075 41.7865 67.3178 43.7942 68.3147L43.9165 68.3721C52.2265 72.5318 57.4717 81.0138 57.4695 90.2888Z" fill="white" stroke="#323A4A" stroke-width="0.6" stroke-linecap="round" stroke-linejoin="round"/>
<path d="M34.3564 65.7548C34.3564 65.7548 35.4067 60.4515 39.7158 59.8199" stroke="#323A4A" stroke-width="0.6" stroke-linecap="round" stroke-linejoin="round"/>
<path d="M32.1673 65.4025C32.1673 65.4025 30.6135 62.0081 28.3618 61.8143" stroke="#323A4A" stroke-width="0.6" stroke-linecap="round" stroke-linejoin="round"/>
<path d="M32.3584 57.8257C32.7182 59.253 32.9588 60.7076 33.0778 62.1746" stroke="#323A4A" stroke-width="0.6" stroke-linecap="round" stroke-linejoin="round"/>
<path d="M62.3325 97.7124C62.3325 97.7124 72.634 110.694 63.167 120.411" stroke="white" stroke-width="0.6" stroke-linecap="round" stroke-linejoin="round"/>
<path fill-rule="evenodd" clip-rule="evenodd" d="M41.1366 90.303C42.1219 90.303 42.9206 89.5062 42.9206 88.5233C42.9206 87.5403 42.1219 86.7435 41.1366 86.7435C40.1513 86.7435 39.3525 87.5403 39.3525 88.5233C39.3525 89.5062 40.1513 90.303 41.1366 90.303Z" fill="#323A4A"/>
<path fill-rule="evenodd" clip-rule="evenodd" d="M24.1512 90.303C25.1365 90.303 25.9353 89.5062 25.9353 88.5233C25.9353 87.5403 25.1365 86.7435 24.1512 86.7435C23.1659 86.7435 22.3672 87.5403 22.3672 88.5233C22.3672 89.5062 23.1659 90.303 24.1512 90.303Z" fill="#323A4A"/>
<path d="M35.0714 81.7577L35.2224 98.9523L31.3594 99.4906" stroke="#323A4A" stroke-width="0.6" stroke-linecap="round" stroke-linejoin="round"/>
<path fill-rule="evenodd" clip-rule="evenodd" d="M44.1714 100.348C46.2811 100.348 47.9913 98.6418 47.9913 96.5372C47.9913 94.4327 46.2811 92.7266 44.1714 92.7266C42.0618 92.7266 40.3516 94.4327 40.3516 96.5372C40.3516 98.6418 42.0618 100.348 44.1714 100.348Z" fill="#FF756B"/>
<path fill-rule="evenodd" clip-rule="evenodd" d="M23.1895 101.345C25.2992 101.345 27.0094 99.639 27.0094 97.5344C27.0094 95.4298 25.2992 93.7238 23.1895 93.7238C21.0798 93.7238 19.3696 95.4298 19.3696 97.5344C19.3696 99.639 21.0798 101.345 23.1895 101.345Z" fill="#FF756B"/>
<path d="M44.108 97.7124C44.108 97.7124 43.8419 103.985 38.353 104.573" stroke="#323A4A" stroke-width="0.6" stroke-linecap="round" stroke-linejoin="round"/>
<path fill-rule="evenodd" clip-rule="evenodd" d="M172.235 255.504C136.597 263.512 101.082 263.01 65.6885 255.037C65.7748 245.708 66.2208 230.594 67.9257 213.916C69.9975 193.672 73.9037 171.081 81.2989 153.47C84.3059 146.293 87.8884 139.956 92.1543 134.94C92.2103 134.868 92.2704 134.798 92.3341 134.732L92.96 134.014L93.0463 133.928C93.1315 133.82 93.2228 133.717 93.3197 133.62C93.5642 133.354 93.816 133.082 94.075 132.823C94.334 132.565 94.7296 132.149 95.0677 131.833C95.4058 131.517 95.6936 131.23 96.0101 130.943L96.19 130.785C96.4417 130.555 96.7079 130.326 96.9741 130.11C97.6935 129.479 98.4848 128.89 99.2689 128.331L99.3049 128.295H99.3624C99.6789 128.058 100.01 127.836 100.341 127.627C100.341 127.627 100.398 127.699 100.528 127.836C103.188 130.603 106.365 132.824 109.88 134.373C113.585 136.039 117.607 136.886 121.67 136.856H122.289H122.915L124.001 136.777L124.648 136.713L125.31 136.634C125.535 136.614 125.759 136.581 125.979 136.533C127.004 136.385 128.02 136.181 129.022 135.923L129.583 135.78L129.727 135.744L130.281 135.579L130.871 135.399C131.022 135.356 131.188 135.306 131.346 135.249L131.511 135.199C132.295 134.933 133.101 134.632 133.928 134.309C134.346 134.136 134.756 133.95 135.173 133.77C135.257 133.728 135.344 133.69 135.432 133.656C135.842 133.462 136.266 133.268 136.676 133.053C138.397 132.198 140.064 131.239 141.669 130.182C141.949 130.01 142.223 129.823 142.496 129.637C143.215 129.156 143.935 128.646 144.654 128.108C144.777 128.029 144.877 127.943 144.992 127.857C144.992 127.857 145.129 128.029 145.395 128.388C145.661 128.747 146.208 129.486 146.834 130.419C147.021 130.699 147.222 130.986 147.431 131.302C147.64 131.618 147.791 131.811 147.971 132.091L148.481 132.881C148.661 133.153 148.834 133.433 149.028 133.72C149.093 133.828 149.165 133.928 149.229 134.05C149.445 134.38 149.668 134.768 149.898 135.105C149.992 135.27 150.1 135.435 150.193 135.6C150.402 135.931 150.611 136.275 150.826 136.627C154.116 142.129 157.012 147.856 159.495 153.764C162.492 160.84 164.856 168.167 166.559 175.659C167.83 181.251 168.691 186.929 169.135 192.646C169.732 200.54 170.221 208.304 170.624 215.56C170.911 220.834 171.149 225.872 171.343 230.551C171.897 240.957 172.134 249.669 172.235 255.504Z" fill="#404A59" stroke="#323A4A" stroke-width="0.6"/>
<path fill-rule="evenodd" clip-rule="evenodd" d="M144.806 127.943C144.087 128.488 143.367 128.998 142.648 129.479L141.821 130.024C140.219 131.081 138.554 132.039 136.836 132.895C136.418 133.11 135.994 133.304 135.584 133.498L135.325 133.612C134.908 133.799 134.49 133.978 134.08 134.143C133.253 134.481 132.447 134.775 131.656 135.04L131.023 135.249L130.44 135.421C130.253 135.478 130.066 135.536 129.872 135.579C128.642 135.919 127.393 136.187 126.131 136.382L125.462 136.476L124.808 136.555L124.153 136.619C123.786 136.619 123.434 136.677 123.067 136.691H122.441H121.822C113.833 136.673 106.194 133.417 100.658 127.67C106.737 124.62 107.363 115.176 107.981 110.978C106.673 109.986 105.453 108.884 104.334 107.684C105.262 108.588 106.263 109.414 107.327 110.153C116.142 116.331 127.969 116.04 136.469 109.435C136.572 112.097 137.005 114.737 137.756 117.293C138.979 121.556 141.152 126.271 144.806 127.943Z" fill="white" stroke="#323A4A" stroke-width="0.6" stroke-linecap="round" stroke-linejoin="round"/>
<path opacity="0.3" fill-rule="evenodd" clip-rule="evenodd" d="M138.111 117.515C128.792 122.143 117.559 120.393 110.098 113.152C109.464 112.543 108.866 111.899 108.307 111.221C108.084 110.949 107.868 110.676 107.652 110.396C116.468 116.574 128.295 116.283 136.794 109.678C136.909 112.335 137.351 114.967 138.111 117.515Z" fill="#323A4A"/>
<path opacity="0.01" fill-rule="evenodd" clip-rule="evenodd" d="M145.745 90.2894C145.745 90.7702 145.745 91.2438 145.702 91.7247C145.706 91.7748 145.706 91.8252 145.702 91.8754C145.647 92.7997 145.536 93.7199 145.371 94.6311C145.328 94.9038 145.263 95.1837 145.206 95.4707C144.641 98.0934 143.642 100.604 142.249 102.898C142.134 103.099 142.012 103.293 141.889 103.494C140.565 105.545 138.944 107.387 137.077 108.962C136.81 109.199 136.53 109.422 136.249 109.63C130 114.456 121.805 115.988 114.227 113.747C106.65 111.505 100.617 105.764 98.0146 98.3198C97.9867 98.2624 97.965 98.2023 97.9499 98.1404C97.0912 95.6117 96.6561 92.9592 96.6622 90.2894C96.6622 89.4497 96.7053 88.6101 96.7845 87.7848C97.4978 80.9865 101.022 74.7931 106.507 70.6968C111.992 66.6006 118.942 64.9727 125.682 66.2054C127.888 66.6092 130.026 67.3193 132.034 68.3153L132.149 68.3727C140.477 72.519 145.741 81.0043 145.745 90.2894Z" fill="white" stroke="#323A4A" stroke-width="0.6" stroke-linecap="round" stroke-linejoin="round"/>
<path fill-rule="evenodd" clip-rule="evenodd" d="M145.745 90.2894C145.745 90.7702 145.745 91.2438 145.702 91.7247C145.706 91.7748 145.706 91.8252 145.702 91.8754C145.647 92.7997 145.536 93.7199 145.371 94.6311C145.328 94.9038 145.263 95.1837 145.206 95.4707C144.641 98.0934 143.642 100.604 142.249 102.898C142.134 103.099 142.012 103.293 141.889 103.494C140.565 105.545 138.944 107.387 137.077 108.962C136.81 109.199 136.53 109.422 136.249 109.63C130 114.456 121.805 115.988 114.227 113.747C106.65 111.505 100.617 105.764 98.0146 98.3198C97.9867 98.2624 97.965 98.2023 97.9499 98.1404C97.0912 95.6117 96.6561 92.9592 96.6622 90.2894C96.6622 89.4497 96.7053 88.6101 96.7845 87.7848C97.4978 80.9865 101.022 74.7931 106.507 70.6968C111.992 66.6006 118.942 64.9727 125.682 66.2054C127.888 66.6092 130.026 67.3193 132.034 68.3153L132.149 68.3727C140.477 72.519 145.741 81.0043 145.745 90.2894Z" fill="white" stroke="#323A4A" stroke-width="0.6" stroke-linecap="round" stroke-linejoin="round"/>
<path fill-rule="evenodd" clip-rule="evenodd" d="M129.419 90.303C130.404 90.303 131.203 89.5062 131.203 88.5233C131.203 87.5403 130.404 86.7435 129.419 86.7435C128.434 86.7435 127.635 87.5403 127.635 88.5233C127.635 89.5062 128.434 90.303 129.419 90.303Z" fill="#323A4A"/>
<path fill-rule="evenodd" clip-rule="evenodd" d="M113.433 90.303C114.418 90.303 115.217 89.5062 115.217 88.5233C115.217 87.5403 114.418 86.7435 113.433 86.7435C112.448 86.7435 111.649 87.5403 111.649 88.5233C111.649 89.5062 112.448 90.303 113.433 90.303Z" fill="#323A4A"/>
<path d="M123.354 81.7577L123.512 98.9523L119.642 99.4906" stroke="#323A4A" stroke-width="0.6" stroke-linecap="round" stroke-linejoin="round"/>
<path fill-rule="evenodd" clip-rule="evenodd" d="M132.454 100.348C134.563 100.348 136.274 98.6418 136.274 96.5372C136.274 94.4327 134.563 92.7266 132.454 92.7266C130.344 92.7266 128.634 94.4327 128.634 96.5372C128.634 98.6418 130.344 100.348 132.454 100.348Z" fill="#FF756B"/>
<path fill-rule="evenodd" clip-rule="evenodd" d="M111.472 101.345C113.582 101.345 115.292 99.639 115.292 97.5344C115.292 95.4298 113.582 93.7238 111.472 93.7238C109.363 93.7238 107.652 95.4298 107.652 97.5344C107.652 99.639 109.363 101.345 111.472 101.345Z" fill="#FF756B"/>
<path d="M133.39 97.7124C133.39 97.7124 133.124 103.985 127.635 104.573" stroke="#323A4A" stroke-width="0.6" stroke-linecap="round" stroke-linejoin="round"/>
<path d="M127.635 65.7548C127.635 65.7548 128.685 60.4515 132.994 59.8199" stroke="#323A4A" stroke-width="0.6" stroke-linecap="round" stroke-linejoin="round"/>
<path d="M125.446 65.4025C125.446 65.4025 123.892 62.0081 121.64 61.8143" stroke="#323A4A" stroke-width="0.6" stroke-linecap="round" stroke-linejoin="round"/>
<path d="M125.637 57.8257C125.996 59.253 126.237 60.7076 126.356 62.1746" stroke="#323A4A" stroke-width="0.6" stroke-linecap="round" stroke-linejoin="round"/>
<path fill-rule="evenodd" clip-rule="evenodd" d="M104.952 123.019C104.083 123.665 103.225 124.273 102.376 124.842C102.052 125.065 101.722 125.28 101.398 125.488C99.4943 126.728 97.5198 127.857 95.4846 128.868C94.9882 129.119 94.4918 129.349 94.0027 129.586L93.6933 129.722C93.197 129.945 92.7078 130.16 92.2186 130.354C91.2402 130.748 90.2835 131.071 89.3411 131.416C89.0893 131.502 88.8375 131.588 88.5858 131.66L87.8664 131.868L87.1974 132.062C85.7362 132.458 84.2545 132.774 82.7588 133.009C82.4927 133.052 82.2337 133.088 81.9675 133.117L81.1834 133.217L80.4065 133.289L79.1188 133.375H78.3994H77.68C63.1631 133.475 54.0989 124.325 52.5811 122.682C59.7748 119.094 60.5301 107.863 61.2639 102.89C59.7146 101.715 58.2704 100.409 56.9477 98.9856C58.0481 100.054 59.2342 101.031 60.4942 101.906C70.9328 109.233 84.9427 108.904 95.0242 101.095C95.1674 104.245 95.7039 107.365 96.6212 110.382C98.0455 115.463 100.621 121.039 104.952 123.019Z" fill="white" stroke="#323A4A" stroke-width="0.6" stroke-linecap="round" stroke-linejoin="round"/>
<path opacity="0.3" fill-rule="evenodd" clip-rule="evenodd" d="M96.6065 110.389C84.513 116.361 69.8914 113.277 61.2564 102.933C60.9902 102.61 60.7313 102.287 60.4795 101.949C70.9181 109.276 84.928 108.947 95.0095 101.138C95.1557 104.276 95.6922 107.383 96.6065 110.389Z" fill="#323A4A"/>
<path fill-rule="evenodd" clip-rule="evenodd" d="M137.568 274.169C127.219 276.503 116.744 278.243 106.196 279.379C83.6033 281.814 60.7982 281.508 38.2796 278.467C29.2586 277.276 20.2449 275.664 11.2383 273.63C11.2886 267.825 11.4613 260.167 11.9073 251.348C12.2022 245.355 12.6267 238.839 13.2166 232.007C13.418 229.661 13.6482 227.278 13.8928 224.874C16.3386 200.876 20.9858 174.079 29.719 153.203C33.3159 144.699 37.5386 137.178 42.5958 131.222L42.8116 130.978C43.0562 130.691 43.308 130.411 43.531 130.131C43.5564 130.091 43.5879 130.054 43.6245 130.024C43.7271 129.897 43.8376 129.777 43.9554 129.665C44.2432 129.342 44.5381 129.026 44.8475 128.717C45.1568 128.409 45.6244 127.914 46.0272 127.54C46.4301 127.167 46.7466 126.823 47.1495 126.486L47.3509 126.299L48.2789 125.502C49.1637 124.785 50.0773 124.067 51.0053 123.393H51.0413L51.1132 123.349C51.4945 123.077 51.8829 122.811 52.2786 122.56L52.4944 122.811C53.3936 123.772 54.3548 124.674 55.3719 125.51C57.8779 127.536 60.64 129.225 63.5872 130.533C67.9822 132.506 72.7523 133.51 77.5718 133.475H78.2912H79.0106L80.2983 133.382L81.0752 133.31C81.3342 133.31 81.5931 133.253 81.8521 133.21C82.1111 133.167 82.3844 133.145 82.6506 133.102C84.1469 132.871 85.6288 132.554 87.0891 132.155L87.7582 131.961C87.9884 131.897 88.2114 131.832 88.4416 131.753C88.6351 131.704 88.8249 131.642 89.0099 131.566L89.2041 131.509C90.1393 131.2 91.0961 130.842 92.0816 130.454C92.5708 130.253 93.06 130.038 93.5563 129.815L93.8585 129.679C94.3548 129.449 94.8512 129.22 95.3476 128.961C96.6712 128.316 98.0189 127.579 99.3905 126.751C100.009 126.378 100.628 125.99 101.261 125.581C101.585 125.373 101.915 125.158 102.239 124.935C103.088 124.366 103.946 123.759 104.815 123.113C104.951 123.027 105.074 122.926 105.21 122.826L105.685 123.45C106.052 123.952 106.649 124.756 107.411 125.861C107.634 126.191 107.879 126.536 108.131 126.916C108.383 127.296 108.548 127.519 108.764 127.856C108.98 128.194 109.16 128.452 109.368 128.782L110.016 129.78L110.26 130.16L111.052 131.423C111.167 131.617 111.289 131.803 111.404 132.004L112.123 133.217C116.023 139.744 119.461 146.535 122.41 153.541C128.669 168.201 132.526 183.768 133.834 199.649C134.553 209.05 135.129 218.221 135.604 226.819C136.014 234.368 136.323 241.494 136.597 247.982C137.186 258.768 137.431 267.853 137.568 274.169Z" fill="#FFE1CB" stroke="#323A4A" stroke-width="0.6" stroke-linecap="round" stroke-linejoin="round"/>
<path fill-rule="evenodd" clip-rule="evenodd" d="M55.8109 92.8928L55.926 92.5555C55.8973 92.6632 55.8541 92.778 55.8109 92.8928Z" fill="#323A4A"/>
<path fill-rule="evenodd" clip-rule="evenodd" d="M57.9189 93.8329C57.7822 94.3568 57.6383 94.7873 57.5808 94.9739C57.6239 94.7945 57.739 94.3568 57.9189 93.8329Z" fill="#323A4A"/>
<path opacity="0.01" fill-rule="evenodd" clip-rule="evenodd" d="M106.253 78.1452C106.253 78.7194 106.253 79.2791 106.203 79.8317C106.207 79.8938 106.207 79.9561 106.203 80.0183C106.133 81.1133 106.001 82.2035 105.807 83.2835C105.757 83.6065 105.685 83.9438 105.606 84.2739C104.938 87.3844 103.756 90.3625 102.11 93.0865C101.973 93.3233 101.822 93.5601 101.678 93.8041C100.109 96.2262 98.1894 98.4028 95.9806 100.263C95.6569 100.55 95.326 100.815 94.9879 101.067C87.5792 106.787 77.8644 108.601 68.883 105.943C59.9016 103.285 52.7506 96.479 49.6673 87.654C49.6673 87.575 49.6097 87.5104 49.5881 87.4387C48.571 84.4332 48.0558 81.2815 48.0631 78.1094C48.0631 77.1118 48.1134 76.1215 48.2069 75.1455C49.7402 60.3366 62.2453 49.0795 77.169 49.0737C78.9497 49.0697 80.727 49.2307 82.478 49.5545C85.0926 50.0341 87.6276 50.8746 90.0098 52.0519L90.1537 52.1236C100.03 57.0526 106.264 67.1285 106.253 78.1452Z" fill="white" stroke="#323A4A" stroke-width="0.6" stroke-linecap="round" stroke-linejoin="round"/>
<path fill-rule="evenodd" clip-rule="evenodd" d="M106.253 78.1452C106.253 78.7194 106.253 79.2791 106.203 79.8317C106.207 79.8938 106.207 79.9561 106.203 80.0183C106.133 81.1133 106.001 82.2035 105.807 83.2835C105.757 83.6065 105.685 83.9438 105.606 84.2739C104.938 87.3844 103.756 90.3625 102.11 93.0865C101.973 93.3233 101.822 93.5601 101.678 93.8041C100.109 96.2262 98.1894 98.4028 95.9806 100.263C95.6569 100.55 95.326 100.815 94.9879 101.067C87.5792 106.787 77.8644 108.601 68.883 105.943C59.9016 103.285 52.7506 96.479 49.6673 87.654C49.6673 87.575 49.6097 87.5104 49.5881 87.4387C48.571 84.4332 48.0558 81.2815 48.0631 78.1094C48.0631 77.1118 48.1134 76.1215 48.2069 75.1455C49.7402 60.3366 62.2453 49.0795 77.169 49.0737C78.9497 49.0697 80.727 49.2307 82.478 49.5545C85.0926 50.0341 87.6276 50.8746 90.0098 52.0519L90.1537 52.1236C100.03 57.0526 106.264 67.1285 106.253 78.1452Z" fill="white" stroke="#323A4A" stroke-width="0.6" stroke-linecap="round" stroke-linejoin="round"/>
<path d="M78 53.7496C78 53.7496 79.7445 44.9233 86.902 43.8723" stroke="#323A4A" stroke-width="0.6" stroke-linecap="round" stroke-linejoin="round"/>
<path d="M74.364 53.1633C74.364 53.1633 71.783 47.514 68.043 47.1915" stroke="#323A4A" stroke-width="0.6" stroke-linecap="round" stroke-linejoin="round"/>
<path d="M74.6807 40.5532C75.2783 42.9287 75.6779 45.3496 75.8756 47.791" stroke="#323A4A" stroke-width="0.6" stroke-linecap="round" stroke-linejoin="round"/>
<path fill-rule="evenodd" clip-rule="evenodd" d="M86.0676 78.3462C87.2357 78.3462 88.1826 77.4016 88.1826 76.2363C88.1826 75.0711 87.2357 74.1265 86.0676 74.1265C84.8995 74.1265 83.9526 75.0711 83.9526 76.2363C83.9526 77.4016 84.8995 78.3462 86.0676 78.3462Z" fill="#323A4A"/>
<path fill-rule="evenodd" clip-rule="evenodd" d="M66.9973 78.7552C68.1653 78.7552 69.1122 77.8106 69.1122 76.6454C69.1122 75.4801 68.1653 74.5355 66.9973 74.5355C65.8292 74.5355 64.8823 75.4801 64.8823 76.6454C64.8823 77.8106 65.8292 78.7552 66.9973 78.7552Z" fill="#323A4A"/>
<path d="M78.9026 68.6509L79.0896 89.039L74.5 89.6777" stroke="#323A4A" stroke-width="0.6" stroke-linecap="round" stroke-linejoin="round"/>
<path fill-rule="evenodd" clip-rule="evenodd" d="M90.3047 90.0366C92.8037 90.0366 94.8295 88.0156 94.8295 85.5226C94.8295 83.0296 92.8037 81.0087 90.3047 81.0087C87.8056 81.0087 85.7798 83.0296 85.7798 85.5226C85.7798 88.0156 87.8056 90.0366 90.3047 90.0366Z" fill="#FF756B"/>
<path fill-rule="evenodd" clip-rule="evenodd" d="M65.062 91.7446C67.561 91.7446 69.5868 89.7236 69.5868 87.2306C69.5868 84.7376 67.561 82.7167 65.062 82.7167C62.563 82.7167 60.5371 84.7376 60.5371 87.2306C60.5371 89.7236 62.563 91.7446 65.062 91.7446Z" fill="#FF756B"/>
<path d="M90.4849 86.6134C90.4849 86.6134 90.1684 94.0481 83.6509 94.7514" stroke="#323A4A" stroke-width="0.6" stroke-linecap="round" stroke-linejoin="round"/>
</g>
<path fill-rule="evenodd" clip-rule="evenodd" d="M143 53C157.359 53 169 41.3594 169 27C169 12.6406 157.359 1 143 1C128.641 1 117 12.6406 117 27C117 41.3594 128.641 53 143 53Z" fill="white" stroke="#323A4A" stroke-width="0.6" stroke-linecap="round" stroke-linejoin="round"/>
<path opacity="0.14" fill-rule="evenodd" clip-rule="evenodd" d="M139.1 52.7095C140.372 52.9008 141.675 53 143 53C157.36 53 169 41.3594 169 27C169 12.6406 157.36 1 143 1C141.675 1 140.372 1.09919 139.1 1.29055C151.609 3.17224 161.2 13.9661 161.2 27C161.2 40.0339 151.609 50.8278 139.1 52.7095Z" fill="#323A4A"/>
<path fill-rule="evenodd" clip-rule="evenodd" d="M141.899 37.4L130 26.9004L134.097 23.285L141.899 30.169L155.803 17.9L159.9 21.5154L141.899 37.4Z" fill="white" stroke="#323A4A" stroke-width="0.6" stroke-linecap="round" stroke-linejoin="round"/>
</svg>
