<svg width="451" height="360" viewBox="0 0 451 360" fill="none" xmlns="http://www.w3.org/2000/svg">
<path fill-rule="evenodd" clip-rule="evenodd" d="M179.84 30.6719C224.496 0.327932 358.17 85.9999 400.204 169.904C455.036 279.344 262.79 299.664 195.226 313.856C169.05 319.36 90.9272 322.912 65.262 292.8C24.6661 245.088 95.1154 88.1759 179.84 30.6719Z" fill="#FFE2CD"/>
<path fill-rule="evenodd" clip-rule="evenodd" d="M72.3916 229.664L74.1261 232.648C74.1261 232.648 83.5417 254.592 114.89 248.288C146.238 241.984 146.821 228.04 154.191 228.776C154.191 228.776 157.676 229.4 154.702 233.144C154.702 233.144 156.685 229.904 158.875 230.552C161.065 231.2 159.186 233.456 158.315 234.552C158.315 234.552 160.29 231.744 162.52 232.592C164.75 233.44 161.72 236.496 161.456 236.704C161.456 236.704 164.238 233.688 166.348 234.648C168.458 235.608 164.174 240.544 157.556 246.392C128.893 271.68 66.5728 278.48 48.5648 239.392L55.5586 233.648L72.3916 229.664Z" fill="white" stroke="#323A4A" stroke-width="0.6" stroke-linecap="round" stroke-linejoin="round"/>
<path fill-rule="evenodd" clip-rule="evenodd" d="M427.172 294.816L111.549 296.456L157.588 215.216H383.147L427.172 294.816Z" fill="white" stroke="#323A4A" stroke-width="0.6" stroke-linecap="round" stroke-linejoin="round"/>
<path opacity="0.1" fill-rule="evenodd" clip-rule="evenodd" d="M154.375 221.68H379.934L420.402 294.856L427.172 294.816L383.147 215.216H157.588L111.549 296.456H111.996L154.375 221.68Z" fill="#323A4A"/>
<path fill-rule="evenodd" clip-rule="evenodd" d="M449.84 270.184H311.891C312.386 269.176 312.882 268.184 313.385 267.2H448.186L449.84 270.184Z" fill="#404A59" stroke="#323A4A" stroke-width="0.6"/>
<path fill-rule="evenodd" clip-rule="evenodd" d="M15.0506 359.2C8.77618 360.712 4.07635 353.44 7.40939 343.704C9.85522 336.568 15.0346 328.352 22.3561 327.16C22.3561 327.16 11.8375 333.32 9.71135 346.288C8.33657 354.592 13.5319 358.4 15.0506 359.2Z" fill="#323A4A" stroke="#323A4A" stroke-width="0.6" stroke-linecap="round" stroke-linejoin="round"/>
<path fill-rule="evenodd" clip-rule="evenodd" d="M15.8419 358.92C15.5801 359.015 15.3133 359.095 15.0426 359.16C13.5239 358.36 8.32855 354.592 9.70333 346.248C11.8374 333.28 22.3801 327.12 22.3801 327.12C25.4653 326.624 28.9342 327.36 32.7708 329.96C32.7708 329.96 25.2415 334.232 28.7104 343.224C27.0432 343.458 25.5354 344.34 24.5142 345.68C22.5559 348 22.508 356.576 15.8419 358.92Z" fill="white" stroke="#323A4A" stroke-width="0.6" stroke-linecap="round" stroke-linejoin="round"/>
<path fill-rule="evenodd" clip-rule="evenodd" d="M12.7886 302.72C12.7886 302.72 2.82148 323.6 26.2087 335.52C26.2087 335.52 24.8739 342.376 30.8206 344.256C36.7673 346.136 96.9218 365.056 127.535 346.976C158.147 328.896 156.789 300.888 113.531 300.088C78.6341 299.448 70.4254 290.856 64.8863 288.56C59.3472 286.264 12.7886 302.72 12.7886 302.72Z" fill="white" stroke="#323A4A" stroke-width="0.6" stroke-linecap="round" stroke-linejoin="round"/>
<path d="M26.1768 335.624C26.1768 335.624 49.3082 335.296 67.6199 332.592C85.9316 329.888 106.114 326.992 120.565 330.192" stroke="#323A4A" stroke-width="0.6" stroke-linecap="round" stroke-linejoin="round"/>
<path fill-rule="evenodd" clip-rule="evenodd" d="M102.733 307.264C104.619 312.68 102.733 315.104 97.5773 314.904C99.9751 319.472 99.1758 322.104 94.8037 322.704C96.9858 325.832 97.3774 328.024 95.603 329.16C93.1332 329.336 90.6314 329.568 88.1057 329.84C85.492 314.368 99.008 302.864 103.292 299.656C104.459 299.744 105.69 299.816 106.929 299.88C109.063 302.736 106.401 308.232 102.733 307.264Z" fill="#404A59" stroke="#323A4A" stroke-width="0.6"/>
<path opacity="0.3" fill-rule="evenodd" clip-rule="evenodd" d="M105.666 299.808L103.316 299.656C99.04 302.856 85.524 314.368 88.1297 329.84L89.8801 329.664C89.5764 315.744 99.6634 304.96 105.666 299.808Z" fill="#323A4A"/>
<path fill-rule="evenodd" clip-rule="evenodd" d="M69.0426 217.656C69.0426 217.656 58.9956 224.056 44.1288 211.856L46.7185 201.76L48.4529 195.016C48.4529 195.016 56.9654 201.52 65.5977 194.336C63.4286 197.559 62.2047 201.325 62.0648 205.208C62.058 206.383 62.1949 207.554 62.4725 208.696C63.8473 214.328 68.0595 214.896 69.0426 217.656Z" fill="white" stroke="#323A4A" stroke-width="0.6" stroke-linecap="round" stroke-linejoin="round"/>
<g opacity="0.3">
<path fill-rule="evenodd" clip-rule="evenodd" d="M65.5977 194.336C63.4286 197.559 62.2048 201.325 62.0649 205.208C61.4619 205.399 60.848 205.554 60.2265 205.672C55.3589 206.584 50.3475 205.133 46.7185 201.76L48.453 195.016C48.453 195.016 56.9654 201.52 65.5977 194.336Z" fill="#323A4A"/>
</g>
<path opacity="0.01" fill-rule="evenodd" clip-rule="evenodd" d="M50.5231 171.008C56.7495 169.85 63.0601 172.559 66.5121 177.874C69.9642 183.188 69.8779 190.06 66.2935 195.286C62.7091 200.512 56.3325 203.062 50.1371 201.747C43.9417 200.433 39.1475 195.512 37.9902 189.28C36.4193 180.772 42.0263 172.598 50.5231 171.008Z" fill="white" stroke="#323A4A" stroke-width="0.6" stroke-linecap="round" stroke-linejoin="round"/>
<path fill-rule="evenodd" clip-rule="evenodd" d="M50.5231 171.008C56.7495 169.85 63.0601 172.559 66.5121 177.874C69.9642 183.188 69.8779 190.06 66.2935 195.286C62.7091 200.512 56.3325 203.062 50.1371 201.747C43.9417 200.433 39.1475 195.512 37.9902 189.28C36.4193 180.772 42.0263 172.598 50.5231 171.008Z" fill="white" stroke="#323A4A" stroke-width="0.6" stroke-linecap="round" stroke-linejoin="round"/>
<path fill-rule="evenodd" clip-rule="evenodd" d="M87.8099 325.6C87.7905 327.034 87.9002 328.466 88.1376 329.88C81.3037 330.608 74.3339 331.632 67.6199 332.624C51.8019 334.968 31.42 335.536 26.1607 335.64C26.1586 335.621 26.1586 335.603 26.1607 335.584C2.7815 323.6 12.7886 302.72 12.7886 302.72C12.7886 302.72 14.8668 301.984 18.1838 300.856C30.6128 296.616 60.5462 286.768 64.9023 288.584C69.8579 290.64 76.9476 297.72 103.356 299.656C99.4476 302.56 88.0017 312.264 87.8099 325.6Z" fill="#FF756B" stroke="#323A4A" stroke-width="0.6" stroke-linecap="round" stroke-linejoin="round"/>
<path opacity="0.1" fill-rule="evenodd" clip-rule="evenodd" d="M88.1376 329.84C81.3037 330.568 74.3339 331.592 67.6199 332.584C51.8019 334.928 31.42 335.496 26.1607 335.6C26.1586 335.581 26.1586 335.563 26.1607 335.544C2.7815 323.6 12.7886 302.72 12.7886 302.72C12.7886 302.72 14.8668 301.984 18.1838 300.856C19.5106 308 19.9822 323.152 32.7149 324.896C56.4698 328.144 68.1074 314.888 87.8099 325.56C87.7905 326.994 87.9002 328.426 88.1376 329.84Z" fill="#323A4A"/>
<path fill-rule="evenodd" clip-rule="evenodd" d="M112.7 88.688C112.284 88.856 111.853 89.048 111.413 89.272C110.614 89.856 109.814 90.408 109.063 90.936C101.646 83.92 101.142 74.488 101.366 70.136C102.575 69.5068 103.737 68.7903 104.843 67.992L105.418 67.656C105.123 71.632 105.306 81.368 112.7 88.688Z" fill="#FF756B" stroke="#323A4A" stroke-width="0.6" stroke-linecap="round" stroke-linejoin="round"/>
<path fill-rule="evenodd" clip-rule="evenodd" d="M58.0044 267.88C58.6998 276.256 62.5923 285.888 70.4254 291.408C70.4254 291.408 46.3428 308.728 12.7487 302.72C12.7487 302.72 -0.895218 235.36 48.1812 210.288C48.1812 210.288 59.3712 219.688 68.9627 217.488C68.9627 217.488 73.5666 231.16 74.5577 235.088C75.357 238.216 73.7025 242.384 70.5613 246.136C68.3747 248.75 65.7212 250.934 62.7362 252.576C59.1474 254.504 57.405 260.736 58.0044 267.88Z" fill="white" stroke="#323A4A" stroke-width="0.6" stroke-linecap="round" stroke-linejoin="round"/>
<g opacity="0.3">
<path fill-rule="evenodd" clip-rule="evenodd" d="M70.5534 246.088C68.3668 248.702 65.7133 250.886 62.7283 252.528C59.1315 254.504 57.405 260.736 58.0045 267.88C57.0693 266.912 56.1661 265.96 55.3109 265.048C44.1208 253.184 38.7416 228.4 51.81 224.6C64.8784 220.8 70.0338 244.28 70.0338 244.28C70.1937 244.872 70.3375 245.472 70.5534 246.088Z" fill="#323A4A"/>
</g>
<path opacity="0.1" fill-rule="evenodd" clip-rule="evenodd" d="M46.3588 211.248C-0.551521 237.024 12.7886 302.72 12.7886 302.72C14.8588 303.096 16.889 303.376 18.8792 303.576C15.4423 286.288 9.67938 237.224 46.3588 211.248Z" fill="#323A4A"/>
<path fill-rule="evenodd" clip-rule="evenodd" d="M68.9627 217.456C68.9627 217.456 68.4671 223.104 64.0391 222.608C59.611 222.112 49.5559 218.008 45.1039 212C46.103 211.416 47.1261 210.856 48.1811 210.32C48.1811 210.288 59.4112 219.688 68.9627 217.456Z" fill="#404A59" stroke="#323A4A" stroke-width="0.6"/>
<path fill-rule="evenodd" clip-rule="evenodd" d="M71.4564 240C71.4564 240 61.1296 218.288 49.2602 224.952C37.3907 231.616 48.2371 254.552 61.801 263.568C75.365 272.584 97.6571 286.304 113.051 269.256C128.446 252.208 125.624 217.384 146.67 218.464C150.762 218.672 152.648 225.52 154.231 226C155.813 226.48 156.9 225.6 156.908 224.4C156.908 224.4 160.234 225.264 159.578 221.672C159.578 221.672 163.303 223.792 162.248 219.376C162.248 219.376 164.598 221.528 165.445 219.312C166.292 217.096 161.345 204.168 141.594 205.136C126.032 205.936 116.097 227.176 116.097 227.176C116.097 227.176 105.506 249.008 92.7175 252C79.9289 254.992 74.9014 246.288 71.4564 240Z" fill="white" stroke="#323A4A" stroke-width="0.6" stroke-linecap="round" stroke-linejoin="round"/>
<path fill-rule="evenodd" clip-rule="evenodd" d="M296.025 57C291.861 59.56 289.327 56.944 292.7 54.792C293.655 54.1059 294.745 53.6314 295.897 53.4C297.735 53.192 297.999 55.784 296.025 57Z" fill="white" stroke="#323A4A" stroke-width="0.6" stroke-linecap="round" stroke-linejoin="round"/>
<path fill-rule="evenodd" clip-rule="evenodd" d="M297.448 59.384C293.411 61.912 290.845 60.184 294.115 58.048C295.053 57.3836 296.096 56.8807 297.2 56.56C299.038 56.168 299.366 58.184 297.448 59.384Z" fill="white" stroke="#323A4A" stroke-width="0.6" stroke-linecap="round" stroke-linejoin="round"/>
<path fill-rule="evenodd" clip-rule="evenodd" d="M298.615 62.0321C294.578 64.5601 292.012 62.8321 295.282 60.6961C296.219 60.0289 297.262 59.5233 298.367 59.2001C300.205 58.8241 300.533 60.8001 298.615 62.0321Z" fill="white" stroke="#323A4A" stroke-width="0.6" stroke-linecap="round" stroke-linejoin="round"/>
<path fill-rule="evenodd" clip-rule="evenodd" d="M51.3143 159.04C51.3143 159.04 58.5639 155.32 62.4325 159.04C66.301 162.76 62.0088 178.976 44.928 181.096C44.928 181.088 36.9671 167.008 51.3143 159.04Z" fill="#323A4A"/>
<path fill-rule="evenodd" clip-rule="evenodd" d="M27.0479 259.472C27.3676 257.512 29.8374 237.568 44.8801 222.52C59.9227 207.472 42.7619 185.808 48.8765 179.752C66.5568 162.2 50.2513 168.208 50.2513 168.208C14.1554 168.144 43.7291 197.544 11.19 218.8C-19.7265 238.976 22.8436 284.72 27.0479 259.472Z" fill="#323A4A"/>
<path fill-rule="evenodd" clip-rule="evenodd" d="M57.3411 186.16C58.0076 186.16 58.548 185.619 58.548 184.952C58.548 184.285 58.0076 183.744 57.3411 183.744C56.6745 183.744 56.1342 184.285 56.1342 184.952C56.1342 185.619 56.6745 186.16 57.3411 186.16Z" fill="#323A4A"/>
<path fill-rule="evenodd" clip-rule="evenodd" d="M61.9369 179.584C62.6035 179.584 63.1438 179.043 63.1438 178.376C63.1438 177.709 62.6035 177.168 61.9369 177.168C61.2703 177.168 60.73 177.709 60.73 178.376C60.73 179.043 61.2703 179.584 61.9369 179.584Z" fill="#323A4A"/>
<path d="M54.8313 179.552L65.8295 183.48L65.27 186.064" stroke="#323A4A" stroke-width="0.6" stroke-linecap="round" stroke-linejoin="round"/>
<path fill-rule="evenodd" clip-rule="evenodd" d="M56.9973 193.488C58.4275 193.488 59.587 192.327 59.587 190.896C59.587 189.464 58.4275 188.304 56.9973 188.304C55.567 188.304 54.4076 189.464 54.4076 190.896C54.4076 192.327 55.567 193.488 56.9973 193.488Z" fill="#FF756B"/>
<path d="M58.1803 192.8C58.1803 192.8 61.6972 195.2 64.2469 192.448" stroke="#323A4A" stroke-width="0.6" stroke-linecap="round" stroke-linejoin="round"/>
<path fill-rule="evenodd" clip-rule="evenodd" d="M96.7177 274.01C98.4872 273.876 99.8909 273.36 99.8529 272.858C99.8149 272.355 98.3497 272.057 96.5801 272.191C94.8106 272.325 93.407 272.841 93.445 273.343C93.483 273.845 94.9482 274.144 96.7177 274.01Z" fill="white" stroke="#323A4A" stroke-width="0.6" stroke-linecap="round" stroke-linejoin="round"/>
<path fill-rule="evenodd" clip-rule="evenodd" d="M70.4814 245.176C71.6563 246.832 70.5533 248.704 69.0586 247.656C67.564 246.608 65.5258 248.68 66.5249 249.928C67.524 251.176 65.8375 254.08 64.6066 253.648C63.6919 253.294 62.6575 253.687 62.2087 254.56C62.0638 255.08 62.1512 255.637 62.4485 256.088C63.5435 258.072 62.6164 259.832 60.3544 259.288C59.1235 258.992 58.54 259.928 58.2522 260.888C46.5586 250.696 38.5258 231.288 49.0364 225.104C49.1029 225.059 49.1723 225.019 49.2442 224.984C61.1297 218.272 71.4565 240 71.4565 240C71.984 240.968 72.5515 241.984 73.175 243.016C71.984 242.816 69.4663 243.744 70.4814 245.176Z" fill="#FF756B" stroke="#323A4A" stroke-width="0.6" stroke-linecap="round" stroke-linejoin="round"/>
<path opacity="0.1" fill-rule="evenodd" clip-rule="evenodd" d="M60.3704 259.272C59.1394 258.976 58.556 259.912 58.2682 260.872C46.5746 250.68 38.5418 231.272 49.0524 225.088C49.556 230.984 51.818 246.4 62.2247 254.56C62.0798 255.08 62.1672 255.637 62.4645 256.088C63.5595 258.072 62.6323 259.832 60.3704 259.272Z" fill="#323A4A"/>
<path d="M17.4645 257.136C17.4645 244.296 35.3686 222.688 42.722 214.56C50.0755 206.432 43.4494 185.456 43.4494 185.456C43.4494 185.456 41.2433 176.864 48.9085 175.728" stroke="white" stroke-width="0.6" stroke-linecap="round" stroke-linejoin="round"/>
<path d="M12.3411 248.264C14.1475 235.928 27.9672 224.84 36.3197 212.544C43.4334 202.088 37.3189 182.432 37.3189 182.432C37.3189 182.432 35.0089 172.888 47.262 173.208" stroke="white" stroke-width="0.6" stroke-linecap="round" stroke-linejoin="round"/>
<path d="M33.3783 193.68C33.3783 193.68 38.9094 208.224 15.1226 225.312C8.51243 230.056 7.54529 239.648 7.54529 239.648" stroke="white" stroke-width="0.6" stroke-linecap="round" stroke-linejoin="round"/>
<path d="M26.6963 191.872C26.6963 191.872 25.5773 203.56 14.7869 213.168" stroke="#323A4A" stroke-width="0.6" stroke-linecap="round" stroke-linejoin="round"/>
<path d="M42.722 165.008C42.722 165.008 40.532 159.176 42.8579 157.384" stroke="#323A4A" stroke-width="0.6" stroke-linecap="round" stroke-linejoin="round"/>
<path d="M40.7638 165.008C39.2551 164.43 37.6466 164.158 36.032 164.208" stroke="#323A4A" stroke-width="0.6" stroke-linecap="round" stroke-linejoin="round"/>
<path d="M58.9476 159.664C58.9476 159.664 63.2158 167.912 52.3135 176.152" stroke="white" stroke-width="0.6" stroke-linecap="round" stroke-linejoin="round"/>
<path d="M54.2078 162.192C54.2078 162.192 57.1891 167.664 52.3135 171.248" stroke="white" stroke-width="0.6" stroke-linecap="round" stroke-linejoin="round"/>
<path d="M49.7239 164.616C49.7239 164.616 51.6022 168.448 48.9246 169.24" stroke="white" stroke-width="0.6" stroke-linecap="round" stroke-linejoin="round"/>
<path opacity="0.1" fill-rule="evenodd" clip-rule="evenodd" d="M127.511 343.672C96.8819 361.728 36.7194 342.872 30.7967 340.952C24.8739 339.032 26.1848 332.216 26.1848 332.216C14.5391 326.264 11.1661 318.104 10.7105 311.416C10.2469 318.544 12.5249 328.576 26.1848 335.552C26.1848 335.552 24.85 342.408 30.7967 344.288C36.7434 346.168 96.8979 365.088 127.511 347.008C142.082 338.424 149.403 327.576 148.42 318.472C147.549 326.8 140.339 336.112 127.511 343.672Z" fill="#323A4A"/>
<path fill-rule="evenodd" clip-rule="evenodd" d="M296.193 343.064C293.971 344.272 287.912 347.104 278.401 347.992C267.274 349.016 259.146 345.256 256.94 343.36C255.925 340.48 258.538 339.28 260.816 338.784C262.271 338.456 267.211 338.656 268.745 338.784C275.883 339.368 278.337 335.44 280.615 333.536C283.18 334.6 286.625 338.216 294.618 335.936C295.577 336.728 296.6 340 296.193 343.064Z" fill="#FF756B" stroke="#323A4A" stroke-width="0.6" stroke-linecap="round" stroke-linejoin="round"/>
<path fill-rule="evenodd" clip-rule="evenodd" d="M296.193 343.064C296.025 344.891 295.168 346.585 293.795 347.8C289.798 351.184 266.531 354.792 258.97 346.456C258.093 345.567 257.398 344.515 256.924 343.36C259.13 345.256 267.258 349.016 278.385 347.992C287.912 347.104 293.971 344.272 296.193 343.064Z" fill="#404A59" stroke="#323A4A" stroke-width="0.6"/>
<path fill-rule="evenodd" clip-rule="evenodd" d="M409.756 251.2C394.569 261.512 376.585 262.296 360.607 265.048C359.456 265.248 358.313 265.456 357.186 265.68C354.948 266.12 352.75 266.624 350.624 267.216C347.787 267.983 345.018 268.981 342.344 270.2C334.951 273.508 328.932 279.278 325.311 286.528C309.325 317.328 294.938 335.896 294.938 335.896L294.77 336.016C294.183 336.448 293.56 336.828 292.908 337.152C291.088 338.147 289.004 338.552 286.945 338.312C284.899 337.984 282.781 336.712 281.054 333.712C281.054 333.648 280.974 333.592 280.942 333.528C280.91 333.464 291.333 297.168 304.537 270.216C305.033 269.208 305.528 268.216 306.032 267.232C311.043 257.424 316.423 249.184 321.73 244.896C330.075 238.168 347.987 230.312 366.051 223.44H366.115C373.156 220.76 380.222 218.232 386.744 215.976C398.829 211.8 409.076 208.56 413.984 207.04L417.077 206.088C418.907 208.476 420.442 211.076 421.649 213.832C421.852 214.291 422.051 214.763 422.249 215.248C422.528 215.96 422.8 216.696 423.048 217.472C426.021 226.728 426.181 240.08 409.756 251.2Z" fill="white" stroke="#323A4A" stroke-width="0.6" stroke-linecap="round" stroke-linejoin="round"/>
<path opacity="0.1" fill-rule="evenodd" clip-rule="evenodd" d="M424.199 213.048C424.199 213.048 439.385 243.224 410.947 262.504C381.773 282.288 355.732 253.288 339.754 284.104C323.776 314.92 300.589 342.464 300.589 342.464C300.589 342.464 290.198 354.336 284.931 344.968C284.931 344.968 307.311 267.624 327.381 251.456C347.451 235.288 368.856 227.688 373.98 227.04C379.103 226.392 424.199 213.048 424.199 213.048Z" fill="#323A4A"/>
<path fill-rule="evenodd" clip-rule="evenodd" d="M307.591 349.6C305.369 350.8 299.31 353.6 289.798 354.52C278.68 355.552 270.543 351.792 268.345 349.888C267.33 347.016 269.944 345.816 272.214 345.32C273.669 344.984 278.608 345.184 280.143 345.32C287.281 345.896 289.734 341.968 292.012 340.064C294.578 341.136 298.023 344.744 306.016 342.464C306.975 343.28 307.998 346.512 307.591 349.6Z" fill="#FF756B" stroke="#323A4A" stroke-width="0.6" stroke-linecap="round" stroke-linejoin="round"/>
<path fill-rule="evenodd" clip-rule="evenodd" d="M307.591 349.6C307.421 351.424 306.564 353.115 305.193 354.328C301.196 357.72 277.921 361.32 270.368 352.992C269.49 352.101 268.795 351.046 268.322 349.888C270.52 351.792 278.656 355.552 289.774 354.52C299.31 353.648 305.369 350.816 307.591 349.6Z" fill="#404A59" stroke="#323A4A" stroke-width="0.6"/>
<path d="M368.72 232.112L365.939 223.2" stroke="#323A4A" stroke-width="0.6" stroke-linecap="round" stroke-linejoin="round"/>
<path fill-rule="evenodd" clip-rule="evenodd" d="M429.658 213.048C429.658 213.048 444.845 243.224 416.398 262.504C387.224 282.288 361.191 253.288 345.213 284.104C329.235 314.92 306.048 342.464 306.048 342.464C306.048 342.464 297.256 349.456 292.052 340.064C292.052 340.064 312.786 267.6 332.816 251.432C352.846 235.264 374.299 227.664 379.415 227.016C384.53 226.368 429.658 213.048 429.658 213.048Z" fill="white" stroke="#323A4A" stroke-width="0.6" stroke-linecap="round" stroke-linejoin="round"/>
<path opacity="0.1" fill-rule="evenodd" clip-rule="evenodd" d="M429.658 213.048L427.412 213.712C430.361 222.968 433.806 243.816 412.314 258.416C383.139 278.2 357.107 249.2 341.129 280.016C327.397 306.488 304.361 336.88 298.183 344.896C302.251 345.464 306.016 342.496 306.016 342.496C306.016 342.496 329.195 314.944 345.181 284.136C361.167 253.328 387.192 282.336 416.366 262.536C444.821 243.2 429.658 213.048 429.658 213.048Z" fill="#323A4A"/>
<path fill-rule="evenodd" clip-rule="evenodd" d="M407.262 135.888C407.262 135.888 403.985 146.12 392.075 143.32C380.166 140.52 381.429 136.8 381.429 136.8C382.715 135.299 383.608 133.501 384.027 131.568C384.826 128.368 384.938 123.744 382.492 117.552C382.492 117.552 391.052 128.912 404.321 120.408C404.085 122.176 403.986 123.96 404.025 125.744C404.089 129.312 404.736 133.68 407.262 135.888Z" fill="white" stroke="#323A4A" stroke-width="0.6" stroke-linecap="round" stroke-linejoin="round"/>
<path opacity="0.3" fill-rule="evenodd" clip-rule="evenodd" d="M384.458 123.344C388.675 130.082 397.268 132.587 404.44 129.168C403.641 125.968 403.529 121.336 405.975 115.152C405.975 115.152 397.415 126.504 384.146 118C384.383 119.771 384.487 121.557 384.458 123.344Z" fill="#323A4A"/>
<path fill-rule="evenodd" clip-rule="evenodd" d="M354.125 155.112C349.034 153.424 343.447 152.328 339.498 150.992C308.326 140.376 301.132 101.064 313.122 73.3041C316.615 65.2241 320.243 61.2161 321.914 62.4561C323.233 63.4401 322.226 65.9201 321.754 66.9121C321.682 67.0481 321.626 67.1521 321.594 67.2321C321.594 67.1521 321.69 67.0561 321.754 66.9121C322.329 65.8721 323.92 63.4081 325.255 64.5601C326.59 65.7121 325.519 67.5841 325.007 68.4321C325.806 67.1521 327.269 65.2321 328.508 66.5281C329.459 67.5281 328.556 69.3041 327.9 70.3201C327.741 70.5361 327.573 70.7681 327.397 71.0321C327.477 70.9281 327.669 70.6641 327.9 70.3201C330.298 67.2801 331.849 69.4561 331.849 69.4561C335.094 75.0081 325.271 75.7681 324.184 104.16C323.552 121.6 341.952 131.2 358.417 134.784C355.468 137.6 350.209 144.48 354.125 155.112Z" fill="white" stroke="#323A4A" stroke-width="0.6" stroke-linecap="round" stroke-linejoin="round"/>
<path fill-rule="evenodd" clip-rule="evenodd" d="M433.295 172.664C432.975 173.896 432.679 175.064 432.408 176.288C428.275 194.496 429.802 207.24 429.658 213.048C429.658 213.048 400.356 236.64 366.434 223.928C366.434 223.928 363.389 219.928 361.447 212.272C360.141 206.931 359.651 201.424 359.992 195.936C360.562 187.68 362.479 179.572 365.667 171.936C369.568 162.248 362.526 157.88 354.125 155.136C351.52 148.048 352.974 142.632 355.116 138.968C356.018 137.435 357.129 136.034 358.417 134.808C370.463 137.448 381.485 136.912 383.267 133.896C382.82 134.696 382.42 137.184 385.082 138.904C386.68 139.936 389.318 140.696 393.682 140.696C396.843 140.775 399.899 139.562 402.147 137.336C403.637 135.821 404.577 133.849 404.816 131.736C407.988 134.648 411.833 136.727 416.006 137.784C430.769 141.16 438.514 152.528 433.295 172.664Z" fill="white" stroke="#323A4A" stroke-width="0.6" stroke-linecap="round" stroke-linejoin="round"/>
<path opacity="0.3" fill-rule="evenodd" clip-rule="evenodd" d="M431.52 178.616C428.131 190.736 416.885 213.08 394.569 215.472C383.426 216.713 372.147 215.623 361.447 212.272C360.141 206.931 359.651 201.424 359.992 195.936C365.307 197.696 373.26 199 384.226 198.648C404.44 198 410.923 184.72 413.001 177.256C415.838 178.944 422.385 181.656 431.52 178.616Z" fill="#323A4A"/>
<path opacity="0.1" fill-rule="evenodd" clip-rule="evenodd" d="M385.082 138.88C384.506 139.056 383.931 139.24 383.355 139.44C373.908 142.64 362.262 140.736 355.116 138.944C356.018 137.411 357.129 136.01 358.417 134.784C370.463 137.424 381.485 136.888 383.267 133.872C382.86 134.68 382.42 137.16 385.082 138.88Z" fill="#323A4A"/>
<path opacity="0.1" fill-rule="evenodd" clip-rule="evenodd" d="M433.295 172.664C432.975 173.896 432.679 175.064 432.408 176.288H428.787L429.402 172.736C434.038 150.576 426.948 148.128 420.099 143.232C416.238 140.472 409.708 138.016 402.146 137.312C403.637 135.797 404.577 133.825 404.816 131.712C407.988 134.624 411.833 136.702 416.006 137.76C430.769 141.16 438.514 152.528 433.295 172.664Z" fill="#323A4A"/>
<path fill-rule="evenodd" clip-rule="evenodd" d="M433.215 173.16C432.785 174.888 432.21 176.577 431.496 178.208C422.049 180.08 415.894 176.56 413.281 174.536C413.946 172.988 414.465 171.381 414.831 169.736C422.896 175.28 433.215 173.16 433.215 173.16Z" fill="#FF756B" stroke="#323A4A" stroke-width="0.6" stroke-linecap="round" stroke-linejoin="round"/>
<path fill-rule="evenodd" clip-rule="evenodd" d="M415.135 157.696C415.135 157.696 415.431 166.16 414.855 169.696L415.135 157.696Z" fill="white"/>
<path d="M415.135 157.696C415.135 157.696 415.431 166.16 414.855 169.696" stroke="#323A4A" stroke-width="0.6" stroke-linecap="round" stroke-linejoin="round"/>
<path fill-rule="evenodd" clip-rule="evenodd" d="M319.186 132.259C319.666 131.941 319.275 130.505 318.314 129.053C317.353 127.601 316.184 126.682 315.704 127C315.224 127.318 315.614 128.754 316.576 130.206C317.537 131.658 318.706 132.577 319.186 132.259Z" fill="white" stroke="#323A4A" stroke-width="0.6" stroke-linecap="round" stroke-linejoin="round"/>
<path fill-rule="evenodd" clip-rule="evenodd" d="M392.715 94.4959C384.086 95.0335 377.525 102.47 378.06 111.107C378.594 119.745 386.023 126.313 394.652 125.78C403.282 125.247 409.847 117.813 409.316 109.176C408.777 100.536 401.348 93.967 392.715 94.4959Z" fill="white" stroke="#323A4A" stroke-width="0.6" stroke-linecap="round" stroke-linejoin="round"/>
<path fill-rule="evenodd" clip-rule="evenodd" d="M393.218 111.272C393.934 111.272 394.513 110.692 394.513 109.976C394.513 109.26 393.934 108.68 393.218 108.68C392.503 108.68 391.924 109.26 391.924 109.976C391.924 110.692 392.503 111.272 393.218 111.272Z" fill="#323A4A"/>
<path fill-rule="evenodd" clip-rule="evenodd" d="M384.65 110.704C385.365 110.704 385.945 110.124 385.945 109.408C385.945 108.692 385.365 108.112 384.65 108.112C383.935 108.112 383.355 108.692 383.355 109.408C383.355 110.124 383.935 110.704 384.65 110.704Z" fill="#323A4A"/>
<path d="M390.389 104.256L386.297 116.08L388.83 117.352" stroke="#323A4A" stroke-width="0.6" stroke-linecap="round" stroke-linejoin="round"/>
<path fill-rule="evenodd" clip-rule="evenodd" d="M398.414 116.448C399.946 116.448 401.187 115.205 401.187 113.672C401.187 112.139 399.946 110.896 398.414 110.896C396.882 110.896 395.64 112.139 395.64 113.672C395.64 115.205 396.882 116.448 398.414 116.448Z" fill="#FF756B"/>
<path d="M399.221 116C399.221 116 398.861 120.552 394.865 120.8" stroke="#323A4A" stroke-width="0.6" stroke-linecap="round" stroke-linejoin="round"/>
<path fill-rule="evenodd" clip-rule="evenodd" d="M408.109 103.264C408.109 103.264 404.808 92.432 391.324 92.68C391.324 92.68 391.46 92.736 390.765 95.024C390.069 97.312 400.236 106.456 408.109 103.264Z" fill="#323A4A"/>
<path fill-rule="evenodd" clip-rule="evenodd" d="M391.236 91.6721C391.236 91.6721 395.944 100.032 386.041 102.736C376.138 105.44 368.752 101.48 368.68 95.9841C368.68 95.9841 368.768 94.1841 371.334 95.8081C372.425 96.579 373.613 97.203 374.867 97.6641C374.867 97.6641 370.766 96.2481 371.31 94.1681C371.646 92.8641 374.915 94.8561 375.562 95.1921C374.637 94.7711 373.832 94.1248 373.22 93.3121C372.765 92.5121 373.172 91.3921 374.819 91.2721C377.944 91.0561 379.902 93.1601 384.586 93.6721C389.27 94.1841 391.236 91.6721 391.236 91.6721Z" fill="#323A4A"/>
<path d="M389.358 95.3121C389.358 95.3121 382.348 97.0321 375.986 93.5281" stroke="white" stroke-width="0.6" stroke-linecap="round" stroke-linejoin="round"/>
<path d="M371.15 98.176C375.153 101.514 380.601 102.532 385.537 100.864" stroke="white" stroke-width="0.6" stroke-linecap="round" stroke-linejoin="round"/>
<path d="M403.473 100.944C403.473 100.944 400.276 95.3439 394.681 95.0959" stroke="white" stroke-width="0.6" stroke-linecap="round" stroke-linejoin="round"/>
<path d="M374.443 95.6799C374.443 95.6799 375.011 96.6079 378.344 97.4319" stroke="white" stroke-width="0.6" stroke-linecap="round" stroke-linejoin="round"/>
<path fill-rule="evenodd" clip-rule="evenodd" d="M391.7 92.6799C391.862 91.4712 392.676 90.4501 393.818 90.0239L391.7 92.6799Z" fill="white"/>
<path d="M391.7 92.6799C391.862 91.4712 392.676 90.4501 393.818 90.0239" stroke="#323A4A" stroke-width="0.6" stroke-linecap="round" stroke-linejoin="round"/>
<path fill-rule="evenodd" clip-rule="evenodd" d="M389.781 86.9839C390.784 87.7848 391.266 89.0725 391.036 90.3359L389.781 86.9839Z" fill="white"/>
<path d="M389.781 86.9839C390.784 87.7848 391.266 89.0725 391.036 90.3359" stroke="#323A4A" stroke-width="0.6" stroke-linecap="round" stroke-linejoin="round"/>
<path fill-rule="evenodd" clip-rule="evenodd" d="M354.125 155.112C352.455 154.56 350.728 154.072 349.026 153.616C345.309 143.048 350.68 136.256 353.574 133.552C355.172 134.016 356.819 134.424 358.417 134.784C355.468 137.6 350.209 144.48 354.125 155.112Z" fill="#FF756B" stroke="#323A4A" stroke-width="0.6" stroke-linecap="round" stroke-linejoin="round"/>
<path fill-rule="evenodd" clip-rule="evenodd" d="M407.55 133.864C404.632 143.816 397.383 144.264 391.484 144.264C381.892 144.264 380.789 138.552 380.869 135.464C381.826 135.216 382.671 134.652 383.267 133.864C382.556 135.16 381.956 140.664 393.658 140.664C399.996 140.664 404.313 136.44 404.792 131.664C405.653 132.467 406.575 133.203 407.55 133.864Z" fill="#404A59" stroke="#323A4A" stroke-width="0.6"/>
<path d="M360.791 157.976C364.977 160.657 368.23 164.569 370.103 169.176" stroke="#323A4A" stroke-width="0.6" stroke-linecap="round" stroke-linejoin="round"/>
<path fill-rule="evenodd" clip-rule="evenodd" d="M369.264 190.52H116.584V187.544H367.609L369.264 190.52Z" fill="#404A59" stroke="#323A4A" stroke-width="0.6"/>
<path fill-rule="evenodd" clip-rule="evenodd" d="M278.6 181.744C277.002 183.168 269.009 186.416 258.178 184.944C252.839 184.316 247.645 182.788 242.816 180.424C241.607 178.162 242.087 175.367 243.983 173.64C248.938 175.209 254.279 175.045 259.13 173.176C261.104 174.904 263.334 177.248 268.09 177.544C269.488 177.624 273.948 177.544 275.243 177.904C277.17 178.4 279.4 179.504 278.6 181.744Z" fill="#404A59" stroke="#323A4A" stroke-width="0.6"/>
<path fill-rule="evenodd" clip-rule="evenodd" d="M278.6 181.744C278.126 182.828 277.407 183.787 276.498 184.544C269.257 191.304 247.492 184.976 244.031 181.912C243.55 181.492 243.14 180.998 242.816 180.448C247.643 182.811 252.834 184.34 258.171 184.968C268.993 186.4 277.01 183.2 278.6 181.744Z" fill="#FF756B" stroke="#323A4A" stroke-width="0.6" stroke-linecap="round" stroke-linejoin="round"/>
<path fill-rule="evenodd" clip-rule="evenodd" d="M204.394 124.528C204.394 124.528 204.97 123.056 220.692 107.28C236.414 91.5039 249.466 80.9359 263.805 82.1599C278.145 83.3839 287.193 110.48 281.598 129C276.003 147.52 259.162 173.6 259.162 173.6C254.326 175.808 248.819 177.32 245.286 174.048C245.286 174.048 262.83 121.712 254.598 122.048C246.605 122.384 242.4 159.72 230.707 164.248C219.013 168.776 187.034 150.888 187.034 150.888L176.811 125.512L204.394 124.528Z" fill="white" stroke="#323A4A" stroke-width="0.6" stroke-linecap="round" stroke-linejoin="round"/>
<path d="M204.394 124.528C204.394 124.528 211.644 132.928 206.736 149.664" stroke="#323A4A" stroke-width="0.6" stroke-linecap="round" stroke-linejoin="round"/>
<g opacity="0.1">
<path fill-rule="evenodd" clip-rule="evenodd" d="M205.825 154.864C205.825 154.864 208.439 138.864 214.793 124.464C223.809 104.096 248.435 89.128 262.75 90.36C274.524 91.368 282.733 109.824 282.181 126.656C286.417 108.256 277.529 83.312 263.797 82.136C249.466 80.912 236.398 91.48 220.684 107.256C204.97 123.032 204.386 124.504 204.386 124.504L176.827 125.488L178.353 137.248L205.825 154.864Z" fill="#323A4A"/>
<path fill-rule="evenodd" clip-rule="evenodd" d="M245.286 174.04C245.684 174.402 246.121 174.718 246.589 174.984C249.85 164.512 255.381 145.384 255.741 135.928C252.903 151.328 245.286 174.04 245.286 174.04Z" fill="#323A4A"/>
</g>
<path fill-rule="evenodd" clip-rule="evenodd" d="M286.377 54.6241L276.786 69.3441C276.786 69.3441 271.631 68.7361 263.877 68.0801C256.372 67.4561 246.429 66.7761 236.406 66.5841C226.814 66.3921 217.111 66.6401 209.414 67.7841C210.269 63.6401 211.092 55.2561 206.113 47.6321C220.806 46.9989 235.524 47.3089 250.178 48.5601C254.31 48.9361 258.474 49.4081 262.623 49.9841C270.624 51.0711 278.555 52.6204 286.377 54.6241Z" fill="white" stroke="#323A4A" stroke-width="0.6" stroke-linecap="round" stroke-linejoin="round"/>
<path opacity="0.1" fill-rule="evenodd" clip-rule="evenodd" d="M263.909 68.0799C256.404 67.4559 253.519 66.9919 243.496 66.7999L253.599 48.9519C257.731 49.3279 258.506 49.4079 262.655 49.9839L263.909 68.0799Z" fill="#323A4A"/>
<path fill-rule="evenodd" clip-rule="evenodd" d="M369.264 190.52L273.789 18.0161L184.988 174.416L225.52 190.52H369.264Z" fill="#FF756B" stroke="#323A4A" stroke-width="0.6" stroke-linecap="round" stroke-linejoin="round"/>
<path opacity="0.1" fill-rule="evenodd" clip-rule="evenodd" d="M272.27 26.7761L362.901 190.52H369.264L273.789 18.0161L184.988 174.416L187.817 175.544L272.27 26.7761Z" fill="#323A4A"/>
<path fill-rule="evenodd" clip-rule="evenodd" d="M259.705 267.672C248.843 263.608 239.427 254.384 240.163 248.152C240.191 247.85 240.245 247.55 240.322 247.256C242.808 251.016 253.766 266.088 268.457 263.856C274.012 263.016 275.052 261.104 275.347 259.664C277.29 264.752 268.346 270.912 259.705 267.672Z" fill="#FF756B" stroke="#323A4A" stroke-width="0.6" stroke-linecap="round" stroke-linejoin="round"/>
<path fill-rule="evenodd" clip-rule="evenodd" d="M275.347 259.664C275.052 261.104 274.012 263.016 268.457 263.856C253.766 266.088 242.808 251.016 240.322 247.256C241.178 243.624 244.247 244.136 244.223 240.608C244.223 236.816 254.174 240.136 254.174 240.136C254.174 240.136 261.032 251.288 271.479 256.136C273.621 257.112 274.844 258.4 275.347 259.664Z" fill="#404A59" stroke="#323A4A" stroke-width="0.6"/>
<path fill-rule="evenodd" clip-rule="evenodd" d="M140.435 137.32C140.435 137.32 127.239 148.8 134.984 170.12C142.729 191.44 166.58 187.216 182.462 187.576C200.046 187.984 235.303 183.936 239.132 210.536C243.128 238.44 243.016 241.128 243.016 241.128C247.956 244.144 251.808 244.168 255.725 240.328C255.725 240.328 268.921 165.248 220.716 153.488C177.898 143.04 185.108 135.888 180.991 129.616C175.116 121.656 140.435 137.32 140.435 137.32Z" fill="white" stroke="#323A4A" stroke-width="0.6" stroke-linecap="round" stroke-linejoin="round"/>
<path opacity="0.1" fill-rule="evenodd" clip-rule="evenodd" d="M247.62 243.072C247.548 239.984 247.052 228.296 243.663 204.768C239.827 178.168 204.554 182.216 186.986 181.808C171.104 181.448 147.253 185.64 139.508 164.352C134.928 151.752 137.686 142.584 140.691 137.2L140.443 137.32C140.443 137.32 127.239 148.8 134.984 170.12C142.729 191.44 166.58 187.216 182.462 187.576C200.046 187.984 235.303 183.936 239.131 210.536C243.128 238.44 243.016 241.128 243.016 241.128C244.433 242.026 245.989 242.683 247.62 243.072Z" fill="#323A4A"/>
<path fill-rule="evenodd" clip-rule="evenodd" d="M209.414 67.7841C207.951 68.0001 206.544 68.2561 205.242 68.5361C206.097 64.0641 206.696 55.4641 201.165 47.8561C202.764 47.7761 204.442 47.6961 206.113 47.6321C211.124 55.2561 210.301 63.6401 209.414 67.7841Z" fill="#FF756B" stroke="#323A4A" stroke-width="0.6" stroke-linecap="round" stroke-linejoin="round"/>
<path fill-rule="evenodd" clip-rule="evenodd" d="M161.456 53.8319C152.776 62.7119 143.56 64.2319 134.281 58.8159C134.281 58.8159 142.825 51.8399 139.276 41.5119C138.955 40.5841 138.562 39.6827 138.101 38.8159C138.101 38.8159 152.073 37.3679 154.83 33.5039C154.83 33.5039 155.31 37.2879 156.285 41.6319C157.38 46.5199 159.107 52.1119 161.456 53.8319Z" fill="white" stroke="#323A4A" stroke-width="0.6" stroke-linecap="round" stroke-linejoin="round"/>
<path opacity="0.3" fill-rule="evenodd" clip-rule="evenodd" d="M156.285 41.5999C151.09 44.9286 144.424 44.8816 139.276 41.4799C138.955 40.5521 138.562 39.6507 138.101 38.7839C138.101 38.7839 152.073 37.3359 154.83 33.4719C154.83 33.5039 155.31 37.2879 156.285 41.5999Z" fill="#323A4A"/>
<path opacity="0.01" fill-rule="evenodd" clip-rule="evenodd" d="M142.753 10.04C151.4 10.0445 158.406 17.063 158.403 25.7174C158.4 34.3717 151.389 41.3855 142.742 41.384C134.096 41.3826 127.087 34.3664 127.087 25.712C127.091 17.0553 134.104 10.04 142.753 10.04Z" fill="white" stroke="#323A4A" stroke-width="0.6" stroke-linecap="round" stroke-linejoin="round"/>
<path fill-rule="evenodd" clip-rule="evenodd" d="M142.753 10.04C151.4 10.0445 158.406 17.063 158.403 25.7174C158.4 34.3717 151.389 41.3855 142.742 41.384C134.096 41.3826 127.087 34.3664 127.087 25.712C127.091 17.0553 134.104 10.04 142.753 10.04Z" fill="white" stroke="#323A4A" stroke-width="0.6" stroke-linecap="round" stroke-linejoin="round"/>
<path fill-rule="evenodd" clip-rule="evenodd" d="M139.364 8.71209C139.364 8.71209 145.039 5.44809 149.467 6.96009C153.895 8.47208 161.185 15.4161 158.395 25.3601C158.395 25.3601 157.18 17.9041 151.282 15.9601C143.688 13.4401 140.947 15.4561 139.364 8.71209Z" fill="#323A4A"/>
<path fill-rule="evenodd" clip-rule="evenodd" d="M130.148 12.72C130.148 12.72 122.523 14.832 127.103 27.632C127.103 27.632 128.43 19.632 130.628 18.832C132.826 18.032 133.481 13.672 130.148 12.72Z" fill="#323A4A"/>
<path fill-rule="evenodd" clip-rule="evenodd" d="M146.454 9.32006C146.454 9.32006 133.034 28.0001 121.948 12.5201C121.948 12.5201 127.543 12.9761 131.419 11.1201C131.419 11.1201 128.222 11.3601 126.392 6.76806C126.392 6.76806 131.187 1.65606 139.98 6.07206C147.741 9.91206 146.454 9.32006 146.454 9.32006Z" fill="#323A4A"/>
<path fill-rule="evenodd" clip-rule="evenodd" d="M109.063 90.9359C72.4556 115.392 35.5284 72.3039 33.2025 37.3359C32.595 28.2239 33.2425 21.8479 35.3926 22.0239C37.095 22.1599 37.5746 24.9039 37.6945 26.0239C37.6945 26.2799 37.7345 26.4639 37.7425 26.5119C37.7505 26.5599 37.7425 26.3279 37.6945 26.0239C37.6306 24.7759 37.6945 21.7359 39.4849 22.0239C41.1554 22.2879 41.3872 24.5439 41.4032 25.5759C41.4432 23.9759 41.635 21.5039 43.4334 21.9679C44.8242 22.3279 45.032 24.3679 44.984 25.6479C44.9506 25.9481 44.9346 26.2499 44.9361 26.5519C44.9688 26.2517 44.9849 25.9499 44.984 25.6479C45.4236 21.6479 47.9894 22.7039 47.9894 22.7039C53.8961 25.8079 43.3535 40.5919 62.6563 62.8959C77.4032 79.9439 94.2442 73.8799 101.366 70.0959C101.142 74.4879 101.646 83.9199 109.063 90.9359Z" fill="white" stroke="#323A4A" stroke-width="0.6" stroke-linecap="round" stroke-linejoin="round"/>
<path fill-rule="evenodd" clip-rule="evenodd" d="M194.507 79.2C203.619 99.888 206.265 117.544 204.394 124.512C204.394 124.512 173.885 144.624 143.057 142.112C141.003 141.944 138.94 141.68 136.886 141.312C136.886 141.312 124.002 123.968 125.057 97.224C125.195 94.2203 123.806 91.3504 121.364 89.5981C118.923 87.8458 115.762 87.4491 112.964 88.544L112.7 88.656L112.244 88.184C105.298 80.92 105.131 71.52 105.418 67.584C108.759 65.632 125.768 56.04 135.975 56.92C136.087 56.92 146.726 64.304 159.818 52.176C173.518 49.9437 187.333 48.4907 201.197 47.824C206.728 55.432 206.129 64.032 205.273 68.504C196.897 70.4 192.061 73.648 194.507 79.2Z" fill="#404A59" stroke="#323A4A" stroke-width="0.6"/>
<path fill-rule="evenodd" clip-rule="evenodd" d="M143.712 25.9759C144.441 25.9759 145.031 25.385 145.031 24.6559C145.031 23.9269 144.441 23.3359 143.712 23.3359C142.984 23.3359 142.393 23.9269 142.393 24.6559C142.393 25.385 142.984 25.9759 143.712 25.9759Z" fill="#323A4A"/>
<path fill-rule="evenodd" clip-rule="evenodd" d="M134.984 25.4C135.712 25.4 136.303 24.809 136.303 24.08C136.303 23.351 135.712 22.76 134.984 22.76C134.256 22.76 133.665 23.351 133.665 24.08C133.665 24.809 134.256 25.4 134.984 25.4Z" fill="#323A4A"/>
<path d="M140.835 18.824L136.662 30.88L139.244 32.176" stroke="#323A4A" stroke-width="0.6" stroke-linecap="round" stroke-linejoin="round"/>
<path fill-rule="evenodd" clip-rule="evenodd" d="M149.012 31.2481C150.57 31.2481 151.833 29.9837 151.833 28.4241C151.833 26.8644 150.57 25.6001 149.012 25.6001C147.453 25.6001 146.19 26.8644 146.19 28.4241C146.19 29.9837 147.453 31.2481 149.012 31.2481Z" fill="#FF756B"/>
<path d="M149.843 30.752C149.843 30.752 149.475 35.392 145.399 35.68" stroke="#323A4A" stroke-width="0.6" stroke-linecap="round" stroke-linejoin="round"/>
<path fill-rule="evenodd" clip-rule="evenodd" d="M82.2911 94.3828C82.3466 93.8067 80.981 93.2035 79.241 93.0355C77.501 92.8675 76.0455 93.1983 75.9899 93.7745C75.9344 94.3506 77.3 94.9538 79.04 95.1218C80.78 95.2898 82.2355 94.959 82.2911 94.3828Z" fill="white" stroke="#323A4A" stroke-width="0.6" stroke-linecap="round" stroke-linejoin="round"/>
<path opacity="0.3" fill-rule="evenodd" clip-rule="evenodd" d="M101.742 72.8001L102.357 72.4401C105.89 70.3681 123.938 60.1921 134.768 61.1281C134.888 61.1281 146.182 68.9601 160.074 56.0961C174.607 53.725 189.263 52.1839 203.971 51.4801C205.313 51.4081 206.696 51.3441 208.079 51.2881C207.547 50.0233 206.899 48.8102 206.145 47.6641C204.474 47.7281 202.812 47.8081 201.197 47.8881C187.347 48.5457 173.545 49.988 159.858 52.2081C146.766 64.3361 136.127 56.9601 136.015 56.9521C125.808 56.0721 108.799 65.6641 105.458 67.6161L104.883 67.9521C103.777 68.7503 102.615 69.4669 101.406 70.0961C101.406 70.8961 101.35 71.9201 101.406 73.0481C101.614 72.8721 101.742 72.8001 101.742 72.8001Z" fill="#323A4A"/>
<path fill-rule="evenodd" clip-rule="evenodd" d="M165.093 51.3679C162.4 56.4079 157.62 61.4799 149.203 62.7439C136.639 64.6559 131.283 60.3439 129.221 57.5359C131.443 57.0121 133.729 56.8154 136.007 56.9519C136.119 56.9519 146.758 64.3359 159.85 52.2079C159.858 52.2079 161.704 51.8639 165.093 51.3679Z" fill="#FF756B" stroke="#323A4A" stroke-width="0.6" stroke-linecap="round" stroke-linejoin="round"/>
<path fill-rule="evenodd" clip-rule="evenodd" d="M143.073 142.152C141.019 141.984 138.957 141.72 136.902 141.352C136.902 141.352 124.018 124.008 125.073 97.264C125.211 94.2603 123.822 91.3904 121.381 89.6381C118.939 87.8858 115.778 87.4891 112.98 88.584L112.716 88.696L112.26 88.224C115.066 85.968 119.861 84.648 127.599 88.952C142.489 97.24 128.885 115.888 140.515 136.424C141.567 138.238 142.424 140.158 143.073 142.152Z" fill="#323A4A"/>
<path d="M126.096 13.8241C126.096 13.8241 134.201 18.4881 140.835 12.3521" stroke="white" stroke-width="0.6" stroke-linecap="round" stroke-linejoin="round"/>
<path d="M129.621 6.56006C129.621 6.56006 132.075 11.0801 139.94 10.0401" stroke="white" stroke-width="0.6" stroke-linecap="round" stroke-linejoin="round"/>
<path d="M146.534 11.448C146.534 11.448 153.527 11.784 157.044 17.928" stroke="white" stroke-width="0.6" stroke-linecap="round" stroke-linejoin="round"/>
<path d="M149.203 8.80005C149.203 8.80005 151.969 9.31205 154.343 12.688" stroke="white" stroke-width="0.6" stroke-linecap="round" stroke-linejoin="round"/>
<path d="M140.835 0.399902C140.835 0.399902 143.6 2.7999 142.753 5.5039" stroke="#323A4A" stroke-width="0.6" stroke-linecap="round" stroke-linejoin="round"/>
<path d="M148.372 1.9519C147.011 2.04598 145.774 2.77487 145.031 3.9199" stroke="#323A4A" stroke-width="0.6" stroke-linecap="round" stroke-linejoin="round"/>
<path fill-rule="evenodd" clip-rule="evenodd" d="M431.52 178.208C426.645 189.8 412.657 209.032 390.245 210.136C356.579 211.808 323.856 180.44 321.107 178.568C318.357 176.696 315.703 174.464 316.814 172.744C317.75 171.288 319.82 172.816 320.419 173.304C319.292 172.32 318.277 170.792 319.084 169.616C319.772 168.6 321.586 170.216 322.178 170.792C321.538 170.104 319.532 167.784 320.883 166.84C322.417 165.792 324.48 168.104 324.695 168.344C320.971 162.808 324.2 162.056 325.383 162.928C326.465 163.794 327.493 164.726 328.46 165.72C331.985 169.168 362.829 192.72 382.092 192.12C402.306 191.52 410.323 181.648 413.305 174.52C415.918 176.56 422.073 180.08 431.52 178.208Z" fill="white" stroke="#323A4A" stroke-width="0.6" stroke-linecap="round" stroke-linejoin="round"/>
<path fill-rule="evenodd" clip-rule="evenodd" d="M401.461 206.092C403.085 205.446 404.229 204.487 404.016 203.949C403.802 203.411 402.312 203.498 400.688 204.144C399.063 204.79 397.919 205.749 398.132 206.287C398.346 206.825 399.836 206.738 401.461 206.092Z" fill="white" stroke="#323A4A" stroke-width="0.6" stroke-linecap="round" stroke-linejoin="round"/>
</svg>
