<svg width="170" height="170" viewBox="0 0 170 170" fill="none" xmlns="http://www.w3.org/2000/svg">
<path fill-rule="evenodd" clip-rule="evenodd" d="M78 170C121.078 170 156 135.078 156 92C156 48.9218 121.078 14 78 14C34.9218 14 0 48.9218 0 92C0 135.078 34.9218 170 78 170Z" fill="#FFE2CD"/>
<mask id="mask0" mask-type="alpha" maskUnits="userSpaceOnUse" x="0" y="14" width="156" height="156">
<path fill-rule="evenodd" clip-rule="evenodd" d="M78 170C121.078 170 156 135.078 156 92C156 48.9218 121.078 14 78 14C34.9218 14 0 48.9218 0 92C0 135.078 34.9218 170 78 170Z" fill="white"/>
</mask>
<g mask="url(#mask0)">
<rect x="40.7935" y="35.5076" width="72.2268" height="12.0197" fill="white" stroke="#323A4A" stroke-width="0.6" stroke-linecap="round" stroke-linejoin="round"/>
<rect x="40.7935" y="35.5076" width="48.1512" height="12.0197" fill="#F45E5D" stroke="#323A4A" stroke-width="0.6" stroke-linecap="round" stroke-linejoin="round"/>
<path fill-rule="evenodd" clip-rule="evenodd" d="M26.3467 168.96V158.147C26.3467 149.049 31.1164 140.601 38.9451 135.835L69.0904 117.48H85.002L115.147 135.835C122.977 140.602 127.747 149.049 127.747 158.147V168.96H26.3467Z" fill="white" stroke="#323A4A" stroke-width="0.6" stroke-linecap="round" stroke-linejoin="round"/>
<path opacity="0.3" fill-rule="evenodd" clip-rule="evenodd" d="M91.2599 123.193C88.9907 125.466 90.5346 123.544 88.9199 126.32C87.7986 126.492 85.7999 129.44 77.9999 131C70.8091 132.438 62.7577 131.138 59.2799 123.193C59.5623 122.185 59.7035 121.64 59.7035 121.64C74.8799 134.9 90.7253 123.476 91.2599 123.193Z" fill="#323A4A"/>
<path d="M45.2398 131.78L70.9798 146.6L76.4398 180.92L81.1198 146.6L108.42 131.78C108.42 131.78 122.46 139.58 125.58 148.94C128.7 158.3 125.58 180.92 125.58 180.92H28.0798C28.0798 180.92 28.0798 152.84 29.6398 146.6C31.1998 140.36 45.2398 131.78 45.2398 131.78Z" fill="#F45E5D" stroke="#404A59" stroke-width="0.6"/>
<path fill-rule="evenodd" clip-rule="evenodd" d="M109.299 97.4953C109.299 98.1583 109.299 98.8048 109.241 99.443C109.245 99.5148 109.245 99.5867 109.241 99.6585C109.16 100.923 109.008 102.182 108.784 103.43C108.726 103.803 108.643 104.192 108.552 104.573C107.781 108.166 106.417 111.605 104.515 114.751C104.358 115.025 104.183 115.298 104.017 115.58C102.206 118.377 99.9895 120.891 97.4395 123.039C97.0658 123.371 96.6838 123.677 96.2934 123.968C87.7403 130.574 76.5249 132.669 66.1561 129.6C55.7874 126.53 47.5318 118.669 43.9722 108.477C43.9722 108.386 43.9058 108.311 43.8809 108.228C42.7066 104.757 42.1118 101.117 42.1202 97.4538C42.1202 96.3018 42.1783 95.158 42.2863 94.0309C44.0564 76.9279 58.4931 63.9268 75.7221 63.9201C77.7779 63.9156 79.8297 64.1015 81.8511 64.4754C84.8697 65.0293 87.7962 66.0001 90.5464 67.3597L90.7125 67.4426C102.115 73.1351 109.311 84.7719 109.299 97.4953Z" fill="#F8F3F3" stroke="#323A4A" stroke-width="0.6" stroke-linecap="round" stroke-linejoin="round"/>
<path fill-rule="evenodd" clip-rule="evenodd" d="M104.619 95.9313C104.619 96.5326 104.619 97.119 104.566 97.6978C104.57 97.7629 104.57 97.8281 104.566 97.8932C104.493 99.0402 104.355 100.182 104.152 101.313C104.099 101.652 104.024 102.005 103.941 102.351C103.241 105.609 102.004 108.728 100.279 111.582C100.136 111.83 99.9781 112.078 99.8275 112.333C98.1847 114.87 96.174 117.15 93.8609 119.099C93.5219 119.399 93.1754 119.677 92.8213 119.94C85.0626 125.932 74.8889 127.833 65.4833 125.049C56.0777 122.264 48.5889 115.135 45.36 105.891C45.36 105.809 45.2997 105.741 45.2771 105.666C44.2119 102.518 43.6724 99.2163 43.68 95.8937C43.68 94.8488 43.7327 93.8115 43.8307 92.7892C45.4364 77.2775 58.5321 65.4861 74.1607 65.4801C76.0256 65.4759 77.8868 65.6445 79.7205 65.9837C82.4586 66.486 85.1133 67.3665 87.6081 68.5996L87.7588 68.6748C98.1017 73.8377 104.63 84.3917 104.619 95.9313Z" fill="white"/>
<path d="M78 62.2847C78 62.2847 79.6736 53.988 86.4128 53" stroke="#323A4A" stroke-width="0.6" stroke-linecap="round" stroke-linejoin="round"/>
<path d="M74.5816 63.2934C74.5816 63.2934 72.1555 57.9831 68.6399 57.6799" stroke="#323A4A" stroke-width="0.6" stroke-linecap="round" stroke-linejoin="round"/>
<path d="M74.8799 51.4399C75.4416 53.6729 75.8173 55.9485 76.0031 58.2435" stroke="#323A4A" stroke-width="0.6" stroke-linecap="round" stroke-linejoin="round"/>
<path d="M90.2305 109.16C90.2305 109.16 89.7362 120.791 79.5601 121.891" stroke="#323A4A" stroke-width="0.6" stroke-linecap="round" stroke-linejoin="round"/>
<path fill-rule="evenodd" clip-rule="evenodd" d="M89.1023 92.3615C90.926 92.3615 92.4045 90.8837 92.4045 89.0607C92.4045 87.2378 90.926 85.76 89.1023 85.76C87.2785 85.76 85.8 87.2378 85.8 89.0607C85.8 90.8837 87.2785 92.3615 89.1023 92.3615Z" fill="#323A4A"/>
<path fill-rule="evenodd" clip-rule="evenodd" d="M64.1422 92.3615C65.9659 92.3615 67.4444 90.8837 67.4444 89.0607C67.4444 87.2378 65.9659 85.76 64.1422 85.76C62.3184 85.76 60.84 87.2378 60.84 89.0607C60.84 90.8837 62.3184 92.3615 64.1422 92.3615Z" fill="#323A4A"/>
<path d="M77.0739 77.96L77.366 109.856L70.2 110.855" stroke="#323A4A" stroke-width="0.6" stroke-linecap="round" stroke-linejoin="round"/>
</g>
<path fill-rule="evenodd" clip-rule="evenodd" d="M143 53C157.359 53 169 41.3594 169 27C169 12.6406 157.359 1 143 1C128.641 1 117 12.6406 117 27C117 41.3594 128.641 53 143 53Z" fill="white" stroke="#323A4A" stroke-width="0.6" stroke-linecap="round" stroke-linejoin="round"/>
<path opacity="0.14" fill-rule="evenodd" clip-rule="evenodd" d="M139.1 52.7095C140.372 52.9008 141.674 53 143 53C157.359 53 169 41.3594 169 27C169 12.6406 157.359 1 143 1C141.674 1 140.372 1.09919 139.1 1.29055C151.609 3.17224 161.2 13.9661 161.2 27C161.2 40.0339 151.609 50.8278 139.1 52.7095Z" fill="#323A4A"/>
<path fill-rule="evenodd" clip-rule="evenodd" d="M141.899 37.4L130 26.9004L134.097 23.285L141.899 30.169L155.803 17.9L159.9 21.5154L141.899 37.4Z" fill="white" stroke="#323A4A" stroke-width="0.6" stroke-linecap="round" stroke-linejoin="round"/>
</svg>
