<svg width="120" height="120" viewBox="0 0 120 120" fill="none" xmlns="http://www.w3.org/2000/svg">
<path fill-rule="evenodd" clip-rule="evenodd" d="M60 120C93.1371 120 120 93.1371 120 60C120 26.8629 93.1371 0 60 0C26.8629 0 0 26.8629 0 60C0 93.1371 26.8629 120 60 120Z" fill="url(#paint0_linear)"/>
<path fill-rule="evenodd" clip-rule="evenodd" d="M99.1598 71.6783C97.4056 71.6783 95.7771 72.469 94.8419 73.713V60.0074H81.1948C82.3824 60.9425 83.1324 62.5875 83.1324 64.2955C83.1324 67.4528 80.5729 70.0006 77.4156 70.0006C74.2583 70.0006 71.6988 67.4388 71.6988 64.2815C71.6988 62.5734 72.4488 60.9425 73.6362 60.0074H60.0076V73.5217C59.0724 72.3886 57.4272 71.6783 55.7648 71.6783C52.6075 71.6783 50.0283 74.2378 50.0283 77.3951C50.0283 80.5524 52.6173 83.1119 55.7746 83.1119C57.4373 83.1119 59.0726 82.4017 60.0078 81.2685V94.8418H94.8422V81.0773C95.7773 82.321 97.4059 83.1119 99.16 83.1119C102.317 83.1119 104.877 80.5524 104.877 77.3951C104.877 74.2378 102.317 71.6783 99.1598 71.6783Z" fill="white"/>
<path opacity="0.4" fill-rule="evenodd" clip-rule="evenodd" d="M99.1594 71.6783C97.4053 71.6783 95.7767 72.469 94.8416 73.713V60.0074H87.3604V94.8418H94.8416V81.0773C95.7767 82.321 97.4053 83.1119 99.1594 83.1119C102.317 83.1119 104.876 80.5524 104.876 77.3951C104.876 74.2378 102.317 71.6783 99.1594 71.6783Z" fill="url(#paint1_linear)"/>
<path fill-rule="evenodd" clip-rule="evenodd" d="M94.8422 25.173H81.1951C82.3827 24.2378 83.1327 22.6004 83.1327 20.8926C83.1327 17.7353 80.5732 15.1793 77.4159 15.1793C74.2586 15.1793 71.6991 17.7334 71.6991 20.8907C71.6991 22.5987 72.4491 24.2378 73.6365 25.173H60.0078V38.151C60.943 36.9073 62.586 36.1164 64.3401 36.1164C67.4974 36.1164 70.0373 38.6759 70.0373 41.8332C70.0373 44.9905 67.5073 47.55 64.35 47.55C62.5958 47.55 60.943 46.7593 60.0078 45.5153V60.0074H73.6365C72.4491 60.9425 71.6991 62.5795 71.6991 64.2875C71.6991 67.4449 74.2586 70.0006 77.4159 70.0006C80.5732 70.0006 83.1327 67.4467 83.1327 64.2894C83.1327 62.5814 82.3827 60.9425 81.1951 60.0074H94.8422V25.173Z" fill="url(#paint2_linear)"/>
<rect x="87.3604" y="25.173" width="7.48121" height="34.8344" fill="#FD5F5A"/>
<path fill-rule="evenodd" clip-rule="evenodd" d="M64.34 36.1164C62.5859 36.1164 60.9428 36.907 60.0077 38.151V25.173H25.1733V37.9598C24.2382 36.8266 22.6075 36.1164 20.945 36.1164C17.7877 36.1164 15.2158 38.6759 15.2158 41.8332C15.2158 44.9905 17.794 47.55 20.9511 47.55C22.6138 47.55 24.2382 46.8398 25.1733 45.7066V60.0074H38.8193C37.6389 59.0722 36.8936 57.4198 36.8936 55.7178C36.8936 52.5605 39.4531 49.9947 42.6104 49.9947C45.7677 49.9947 48.3272 52.564 48.3272 55.7213C48.3272 57.4236 47.5819 59.0725 46.4015 60.0076H60.0077V45.5156C60.9428 46.7593 62.5859 47.5502 64.34 47.5502C67.4973 47.5502 70.0568 44.9907 70.0568 41.8334C70.0568 38.6759 67.4973 36.1164 64.34 36.1164Z" fill="white"/>
<path fill-rule="evenodd" clip-rule="evenodd" d="M55.7644 71.6783C57.4271 71.6783 59.0721 72.3885 60.0072 73.5217V60.0074H46.3893C47.577 59.0722 48.327 57.4203 48.327 55.7122C48.327 52.5549 45.7674 49.9917 42.6101 49.9917C39.4528 49.9917 36.8933 52.5568 36.8933 55.7141C36.8933 57.4221 37.6433 59.0722 38.8307 60.0074H25.1729V94.8417H38.8307C37.6433 95.7769 36.8933 97.3994 36.8933 99.1074C36.8933 102.265 39.4528 104.813 42.6101 104.813C45.7674 104.813 48.327 102.27 48.327 99.113C48.327 97.405 47.577 95.7771 46.3893 94.842H60.0072V81.2687C59.0721 82.4019 57.4269 83.1121 55.7644 83.1121C52.6071 83.1121 50.0476 80.5526 50.0476 77.3953C50.0476 74.2378 52.6071 71.6783 55.7644 71.6783Z" fill="url(#paint3_linear)"/>
<defs>
<linearGradient id="paint0_linear" x1="60" y1="180" x2="180" y2="60" gradientUnits="userSpaceOnUse">
<stop stop-color="#FFDDC3"/>
<stop offset="1" stop-color="#FFE5D3"/>
</linearGradient>
<linearGradient id="paint1_linear" x1="96.1183" y1="112.259" x2="124.08" y2="98.1988" gradientUnits="userSpaceOnUse">
<stop stop-color="#CFDDF2"/>
<stop offset="1" stop-color="#DFEAF9"/>
</linearGradient>
<linearGradient id="paint2_linear" x1="56.7264" y1="31.4667" x2="93.7318" y2="71.039" gradientUnits="userSpaceOnUse">
<stop stop-color="#FF7E72"/>
<stop offset="1" stop-color="#FF5E5E"/>
</linearGradient>
<linearGradient id="paint3_linear" x1="25.1729" y1="49.9917" x2="25.1729" y2="104.813" gradientUnits="userSpaceOnUse">
<stop stop-color="#00A07D"/>
<stop offset="1" stop-color="#2CBB9C"/>
</linearGradient>
</defs>
</svg>
