<svg width="120" height="120" viewBox="0 0 120 120" fill="none" xmlns="http://www.w3.org/2000/svg">
<path fill-rule="evenodd" clip-rule="evenodd" d="M60 120C93.1371 120 120 93.1371 120 60C120 26.8629 93.1371 0 60 0C26.8629 0 0 26.8629 0 60C0 93.1371 26.8629 120 60 120Z" fill="url(#paint0_linear)"/>
<path fill-rule="evenodd" clip-rule="evenodd" d="M60 120C93.1371 120 120 93.1371 120 60C120 26.8629 93.1371 0 60 0C26.8629 0 0 26.8629 0 60C0 93.1371 26.8629 120 60 120Z" fill="url(#paint1_linear)"/>
<mask id="mask0" mask-type="alpha" maskUnits="userSpaceOnUse" x="0" y="0" width="120" height="120">
<path fill-rule="evenodd" clip-rule="evenodd" d="M60 120C93.1371 120 120 93.1371 120 60C120 26.8629 93.1371 0 60 0C26.8629 0 0 26.8629 0 60C0 93.1371 26.8629 120 60 120Z" fill="white"/>
</mask>
<g mask="url(#mask0)">
<path fill-rule="evenodd" clip-rule="evenodd" d="M26.8887 122.333V115.402C26.8887 109.57 29.9462 104.155 34.9646 101.099L54.2885 89.3334H64.4882L83.8122 101.099C88.8312 104.155 91.8887 109.57 91.8887 115.402V122.333H26.8887Z" fill="url(#paint2_linear)"/>
<path fill-rule="evenodd" clip-rule="evenodd" d="M58.8887 96.3334C50.0521 96.3334 42.8887 89.1577 42.8887 80.306V69.3607C42.8887 60.509 50.0521 53.3334 58.8887 53.3334C67.7253 53.3334 74.8887 60.509 74.8887 69.3607V80.306C74.8887 89.1577 67.7253 96.3334 58.8887 96.3334Z" fill="#D3E6F8"/>
<path fill-rule="evenodd" clip-rule="evenodd" d="M59.126 53.3334C50.1583 53.3334 42.8887 60.5657 42.8887 69.4874V80.5192C42.8887 85.453 45.1144 89.8673 48.619 92.8308C49.9086 93.1586 51.2596 93.3334 52.6514 93.3334C61.619 93.3334 68.8887 86.101 68.8887 77.1793V66.1475C68.8887 61.2138 66.6629 56.7994 63.1583 53.8359C61.8688 53.5082 60.5178 53.3334 59.126 53.3334Z" fill="white"/>
</g>
<rect x="27.8887" y="32.3334" width="60" height="10" fill="white"/>
<rect x="27.8887" y="32.3334" width="40" height="10" fill="url(#paint3_linear)"/>
<defs>
<linearGradient id="paint0_linear" x1="60" y1="180" x2="180" y2="60" gradientUnits="userSpaceOnUse">
<stop stop-color="#B0ECE9"/>
<stop offset="1" stop-color="#BCF5F3"/>
</linearGradient>
<linearGradient id="paint1_linear" x1="60" y1="180" x2="180" y2="60" gradientUnits="userSpaceOnUse">
<stop stop-color="#B0ECE9"/>
<stop offset="1" stop-color="#BCF5F3"/>
</linearGradient>
<linearGradient id="paint2_linear" x1="26.8887" y1="89.3334" x2="26.8887" y2="122.333" gradientUnits="userSpaceOnUse">
<stop stop-color="#00A07D"/>
<stop offset="1" stop-color="#2CBB9C"/>
</linearGradient>
<linearGradient id="paint3_linear" x1="24.1206" y1="35.3044" x2="26.0872" y2="48.543" gradientUnits="userSpaceOnUse">
<stop stop-color="#FF7E72"/>
<stop offset="1" stop-color="#FF5E5E"/>
</linearGradient>
</defs>
</svg>
