<svg fill="none" height="40" viewBox="0 0 40 40" width="40" xmlns="http://www.w3.org/2000/svg" xmlns:xlink="http://www.w3.org/1999/xlink"><mask id="a" height="40" maskUnits="userSpaceOnUse" width="40" x="0" y="0"><path clip-rule="evenodd" d="m20 40c11.0457 0 20-8.9543 20-20 0-11.04569-8.9543-20-20-20-11.04569 0-20 8.95431-20 20 0 11.0457 8.95431 20 20 20z" fill="#fff" fill-rule="evenodd"/></mask><path clip-rule="evenodd" d="m20 40c11.0457 0 20-8.9543 20-20 0-11.04569-8.9543-20-20-20-11.04569 0-20 8.95431-20 20 0 11.0457 8.95431 20 20 20z" fill="#ffe2cd" fill-rule="evenodd"/><g mask="url(#a)"><g stroke="#323a4a" stroke-linecap="round" stroke-linejoin="round" stroke-width=".6"><path d="m10.4597 5.51465h18.5197v3.08197h-18.5197z" fill="#fff"/><path d="m10.4597 5.51465h12.3465v3.08197h-12.3465z" fill="#f45e5d"/><path clip-rule="evenodd" d="m6.75562 39.7334v-2.7725c0-2.3329 1.223-4.499 3.23036-5.7211l7.72952-4.7064h4.0799l7.7296 4.7064c2.0076 1.2223 3.2306 3.3882 3.2306 5.7211v2.7725z" fill="#fff" fill-rule="evenodd"/></g><path clip-rule="evenodd" d="m23.4002 27.9981c-.5818.5827-.186.09-.6.8018-.2875.0441-.8.7999-2.8 1.1999-1.8438.3688-3.9083.0355-4.8-2.0017.0724-.2586.1086-.3982.1086-.3982 3.8914 3.3999 7.9543.4706 8.0914.3982z" fill="#323a4a" fill-rule="evenodd" opacity=".3"/><path d="m11.6002 30.2 6.6 3.7999 1.4 8.8 1.2-8.8 7-3.7999s3.6 2 4.4 4.3999c.8 2.4 0 8.2 0 8.2h-25s0-7.2.4-8.8c.4-1.5999 4-3.7999 4-3.7999z" fill="#f45e5d" stroke="#404a59" stroke-width=".6"/><path d="m28.0252 21.4091c0 .17 0 .3358-.015.4994.0011.0184.0011.0368 0 .0552-.0206.3243-.0597.6472-.1171.967-.0149.0956-.0362.1955-.0596.2933-.1977.9211-.5474 1.803-1.0349 2.6097-.0405.0701-.0852.1402-.1278.2125-.4643.7172-1.0327 1.3618-1.6865 1.9126-.0959.085-.1938.1637-.2939.238-2.1931 1.6939-5.0689 2.2313-7.7275 1.4442-2.6587-.7872-4.7755-2.8027-5.6882-5.4161 0-.0234-.017-.0425-.0234-.0637-.3011-.89-.4536-1.8234-.4515-2.7627 0-.2954.0149-.5887.0426-.8777.4539-4.3854 4.1556-7.719 8.5733-7.7207.5271-.0012 1.0532.0465 1.5715.1424.774.142 1.5244.3909 2.2296.7395l.0426.0213c2.9236 1.4596 4.769 4.4434 4.7658 7.7058z" style="fill-rule:evenodd;clip-rule:evenodd;fill:#f8f3f3;stroke:#323a4a;stroke-width:.6;stroke-linecap:round;stroke-linejoin:round"/><path clip-rule="evenodd" d="m26.8255 21.008c0 .1542 0 .3045-.0135.4529.001.0167.001.0334 0 .0501-.0187.2941-.0542.5869-.1062.877-.0135.0867-.0329.1773-.0541.266-.1793.8354-.4966 1.6353-.9388 2.3669-.0367.0636-.0773.1272-.1159.1927-.4212.6505-.9368 1.2351-1.5299 1.7347-.0869.0771-.1758.1484-.2666.2159-1.9894 1.5362-4.598 2.0236-7.0097 1.3097s-4.3319-2.5419-5.1598-4.9121c0-.0212-.0155-.0385-.0213-.0578-.2731-.8072-.4114-1.6537-.4095-2.5057 0-.2679.0135-.5339.0386-.796.4118-3.9773 3.7696-7.0008 7.777-7.0023.4782-.0011.9554.0421 1.4256.1291.702.1288 1.3827.3546 2.0224.6708l.0387.0192c2.652 1.3238 4.3259 4.03 4.323 6.9889z" fill="#fff" fill-rule="evenodd"/></g></svg>