<svg width="120" height="120" viewBox="0 0 120 120" fill="none" xmlns="http://www.w3.org/2000/svg">
<path fill-rule="evenodd" clip-rule="evenodd" d="M60 120C93.1371 120 120 93.1371 120 60C120 26.8629 93.1371 0 60 0C26.8629 0 0 26.8629 0 60C0 93.1371 26.8629 120 60 120Z" fill="url(#paint0_linear)"/>
<path fill-rule="evenodd" clip-rule="evenodd" d="M85.6537 99.7364H32.1702C29.6216 99.7364 27.5557 97.7545 27.5557 95.3096V23.9823C27.5557 21.5374 29.6218 19.5556 32.1702 19.5556H85.6537C88.2023 19.5556 90.2682 21.5374 90.2682 23.9823V95.3096C90.2682 97.7545 88.2023 99.7364 85.6537 99.7364Z" fill="white"/>
<path fill-rule="evenodd" clip-rule="evenodd" d="M85.6747 19.5556H81.7773V99.704H85.6747C88.2233 99.704 90.1583 97.5417 90.1583 95.0968V23.7695C90.1583 21.3246 88.2233 19.5556 85.6747 19.5556Z" fill="url(#paint1_linear)"/>
<path d="M67.611 51.015H38.0158C37.1478 51.015 36.4443 50.3401 36.4443 49.5075C36.4443 48.6749 37.1478 48 38.0158 48H67.611C68.479 48 69.1824 48.6749 69.1824 49.5075C69.1824 50.3401 68.479 51.015 67.611 51.015Z" fill="#727993"/>
<path d="M77.4588 62.5705H37.9179C37.104 62.5705 36.4443 61.8957 36.4443 61.0631C36.4443 60.2304 37.104 59.5556 37.9179 59.5556H77.4588C78.2727 59.5556 78.9323 60.2304 78.9323 61.0631C78.9323 61.8957 78.2727 62.5705 77.4588 62.5705Z" fill="#727993"/>
<path d="M77.4588 74.1261H37.9179C37.104 74.1261 36.4443 73.4512 36.4443 72.6186C36.4443 71.786 37.104 71.1111 37.9179 71.1111H77.4588C78.2727 71.1111 78.9323 71.786 78.9323 72.6186C78.9323 73.4512 78.2727 74.1261 77.4588 74.1261Z" fill="#727993"/>
<defs>
<linearGradient id="paint0_linear" x1="-11.3041" y1="35.6521" x2="60" y2="155.652" gradientUnits="userSpaceOnUse">
<stop stop-color="#FF7E72"/>
<stop offset="1" stop-color="#FF5E5E"/>
</linearGradient>
<linearGradient id="paint1_linear" x1="85.9678" y1="139.778" x2="102.548" y2="138.044" gradientUnits="userSpaceOnUse">
<stop stop-color="#CFDDF2"/>
<stop offset="1" stop-color="#DFEAF9"/>
</linearGradient>
</defs>
</svg>
