<svg width="20" height="20" viewBox="0 0 20 20" fill="none" xmlns="http://www.w3.org/2000/svg">
<path d="M9 9V10C9.55228 10 10 9.55228 10 9H9ZM9 11H10C10 10.4477 9.55228 10 9 10V11ZM11 11V10C10.4477 10 10 10.4477 10 11H11ZM11 9H10C10 9.55228 10.4477 10 11 10V9ZM10 2H12C12 0.89543 11.1046 0 10 0V2ZM10 2V0C8.89543 0 8 0.89543 8 2H10ZM10 9V2H8V9H10ZM2 10H9V8H2V10ZM2 10V8C0.89543 8 0 8.89543 0 10H2ZM2 10H0C0 11.1046 0.89543 12 2 12V10ZM9 10H2V12H9V10ZM10 18V11H8V18H10ZM10 18H8C8 19.1046 8.89543 20 10 20V18ZM10 18V20C11.1046 20 12 19.1046 12 18H10ZM10 11V18H12V11H10ZM18 10H11V12H18V10ZM18 10V12C19.1046 12 20 11.1046 20 10H18ZM18 10H20C20 8.89543 19.1046 8 18 8V10ZM11 10H18V8H11V10ZM10 2V9H12V2H10Z" fill="black"/>
</svg>
