<svg width="24" height="24" viewBox="0 0 24 24" fill="none" xmlns="http://www.w3.org/2000/svg">
<path fill-rule="evenodd" clip-rule="evenodd" d="M19.8448 13.561C19.9448 13.056 19.9998 12.534 19.9998 12C19.9998 11.466 19.9448 10.944 19.8448 10.439L21.6508 8.95C22.1528 8.536 22.2828 7.818 21.9578 7.254L21.0888 5.746C20.7638 5.182 20.0778 4.935 19.4688 5.164L17.2708 5.989C16.4918 5.305 15.5818 4.771 14.5798 4.43L14.1948 2.114C14.0868 1.471 13.5318 1 12.8808 1H11.1428C10.4918 1 9.9368 1.471 9.8298 2.114L9.4438 4.43C8.4418 4.771 7.5318 5.305 6.7528 5.989L4.5548 5.164C3.9448 4.936 3.2598 5.182 2.9348 5.746L2.0648 7.254C1.7398 7.818 1.8698 8.536 2.3718 8.95L4.1778 10.439C4.0778 10.944 4.0228 11.465 4.0228 12C4.0228 12.535 4.0778 13.056 4.1778 13.561L2.3718 15.05C1.8698 15.464 1.7398 16.182 2.0648 16.746L2.9338 18.254C3.2588 18.818 3.9448 19.065 4.5538 18.836L6.7518 18.011C7.5308 18.695 8.4408 19.229 9.4428 19.57L9.8278 21.886C9.9368 22.529 10.4918 23 11.1428 23H12.8808C13.5318 23 14.0868 22.529 14.1938 21.886L14.5788 19.57C15.5808 19.229 16.4918 18.695 17.2698 18.011L19.4678 18.836C20.0768 19.065 20.7628 18.819 21.0878 18.254L21.9568 16.746C22.2818 16.182 22.1528 15.464 21.6498 15.05L19.8448 13.561Z" stroke="#323A4A" stroke-width="2" stroke-linecap="round" stroke-linejoin="round"/>
<path fill-rule="evenodd" clip-rule="evenodd" d="M12.0117 15C13.6686 15 15.0117 13.6569 15.0117 12C15.0117 10.3431 13.6686 9 12.0117 9C10.3549 9 9.01172 10.3431 9.01172 12C9.01172 13.6569 10.3549 15 12.0117 15Z" stroke="#323A4A" stroke-width="2" stroke-linecap="round" stroke-linejoin="round"/>
</svg>
