<svg width="30" height="30" viewBox="0 0 30 30" fill="none" xmlns="http://www.w3.org/2000/svg">
<path fill-rule="evenodd" clip-rule="evenodd" d="M22.9254 22.7536C22.7202 23.2058 22.4856 23.6432 22.2255 24.0641C21.7302 24.864 21.142 25.6007 20.4756 26.2601C19.8089 26.9195 19.0644 27.5015 18.2563 27.9913C16.4323 29.0987 14.2873 29.7351 11.9939 29.7351H0V6H5.99809V23.8023H17.9917C19.7499 23.8023 21.4213 23.4278 22.9254 22.7536Z" fill="#3FCEE2"/>
<path fill-rule="evenodd" clip-rule="evenodd" d="M23.9895 17.8674C23.9895 19.6093 23.6106 21.2631 22.9273 22.7536C21.4232 23.4275 19.7518 23.8023 17.9936 23.8023H6V6H11.9959C14.2889 6 16.4343 6.63663 18.2582 7.74347C19.0663 8.23358 19.8109 8.81558 20.4776 9.47495C21.1439 10.1346 21.7321 10.8714 22.2274 11.6709C23.3464 13.4757 23.9895 15.5981 23.9895 17.8674Z" fill="#F45E5D"/>
<path fill-rule="evenodd" clip-rule="evenodd" d="M29.9876 11.8677C29.9876 14.1369 29.3441 16.2594 28.2252 18.0641C27.7302 18.8637 27.142 19.6004 26.4753 20.2601C25.8089 20.9195 25.0644 21.5015 24.2563 21.9916C23.8309 22.2486 23.3866 22.4833 22.9273 22.6863C23.611 21.1958 23.9895 19.542 23.9895 17.8001C23.9895 15.5312 23.3464 13.4084 22.2274 11.6037C21.7321 10.8041 21.1439 10.0674 20.4776 9.40768C19.8109 8.74832 19.0663 8.16632 18.2582 7.67653C16.4343 6.56937 14.2893 5.93274 11.9959 5.93274H6V0H17.9936C20.287 0 22.4323 0.636631 24.2563 1.74379C25.0644 2.23358 25.8089 2.81558 26.4753 3.47495C27.142 4.13463 27.7302 4.87137 28.2252 5.67095C29.3441 7.47568 29.9876 9.59811 29.9876 11.8677Z" fill="#FFBC48"/>
</svg>
