<svg width="22" height="22" viewBox="0 0 22 22" fill="none" xmlns="http://www.w3.org/2000/svg">
<path fill-rule="evenodd" clip-rule="evenodd" d="M3 21C1.895 21 1 20.2542 1 19.3333V12.6667C1 11.7458 1.895 11 3 11C4.105 11 5 11.7458 5 12.6667V19.3333C5 20.2542 4.105 21 3 21Z" stroke="#323A4A" stroke-width="2" stroke-linecap="round" stroke-linejoin="round"/>
<path fill-rule="evenodd" clip-rule="evenodd" d="M19 21C17.895 21 17 20.2243 17 19.2667V9.73333C17 8.77567 17.895 8 19 8C20.105 8 21 8.77567 21 9.73333V19.2667C21 20.2243 20.105 21 19 21Z" stroke="#323A4A" stroke-width="2" stroke-linecap="round" stroke-linejoin="round"/>
<path fill-rule="evenodd" clip-rule="evenodd" d="M11 21C9.895 21 9 20.227 9 19.2727V3.72727C9 2.77295 9.895 2 11 2C12.105 2 13 2.77295 13 3.72727V19.2727C13 20.227 12.105 21 11 21Z" stroke="#323A4A" stroke-width="2" stroke-linecap="round" stroke-linejoin="round"/>
</svg>
