<?xml version="1.0" standalone="no"?>
<!DOCTYPE svg PUBLIC "-//W3C//DTD SVG 20010904//EN"
 "http://www.w3.org/TR/2001/REC-SVG-20010904/DTD/svg10.dtd">
<svg version="1.0" xmlns="http://www.w3.org/2000/svg"
 width="700.000000pt" height="700.000000pt" viewBox="0 0 700.000000 700.000000"
 preserveAspectRatio="xMidYMid meet">
<metadata>
Created by potrace 1.11, written by Peter Selinger 2001-2013
</metadata>
<g transform="translate(0.000000,700.000000) scale(0.100000,-0.100000)"
fill="#000000" stroke="none">
<path d="M1400 6308 l0 -693 753 0 c679 -1 913 -5 987 -20 14 -3 47 -8 75 -11
27 -3 72 -10 100 -15 27 -6 61 -13 75 -15 94 -19 345 -91 395 -114 11 -5 61
-26 110 -46 101 -41 310 -147 335 -169 9 -8 20 -15 25 -15 23 0 263 -173 389
-280 39 -33 233 -226 271 -270 66 -75 176 -222 238 -316 67 -104 152 -254 144
-254 -3 0 -24 35 -48 78 -177 325 -472 658 -787 890 -348 257 -836 459 -1222
508 -34 4 -119 16 -155 22 -16 2 -717 6 -1558 9 l-1527 4 2 -2768 3 -2768
1480 0 c1323 0 1552 3 1672 20 79 10 231 37 268 47 22 5 48 12 59 14 136 26
405 128 596 225 353 180 676 443 909 739 45 58 88 112 94 120 45 56 158 245
210 351 l62 126 110 56 c61 31 133 70 160 86 28 17 63 38 79 47 48 27 206 143
296 217 111 92 297 280 383 387 156 194 315 462 402 676 20 49 40 98 45 109
31 71 112 372 125 468 3 23 10 69 16 103 33 216 30 601 -6 794 -3 14 -7 43
-10 65 -3 22 -19 94 -36 160 -16 66 -31 125 -33 130 -7 28 -59 184 -71 210 -7
17 -28 66 -46 110 -129 307 -341 615 -597 866 -321 316 -678 533 -1112 675
-82 27 -295 81 -350 88 -19 3 -64 10 -100 15 -36 5 -87 13 -115 17 -27 4 -735
9 -1572 11 l-1523 4 0 -693z m3919 -2258 c11 -24 11 -24 -3 -6 -9 11 -16 24
-16 30 0 12 5 7 19 -24z m39 -85 c-3 -3 -9 2 -12 12 -6 14 -5 15 5 6 7 -7 10
-15 7 -18z m25 -45 c3 -11 2 -18 -3 -15 -4 3 -10 14 -13 25 -3 11 -2 18 3 15
4 -3 10 -14 13 -25z m46 -130 c0 -10 -3 -8 -9 5 -12 27 -12 43 0 25 5 -8 9
-22 9 -30z"/>
</g>
</svg>
