<svg width="407" height="452" viewBox="0 0 407 452" fill="none" xmlns="http://www.w3.org/2000/svg">
<path fill-rule="evenodd" clip-rule="evenodd" d="M403.934 143.712C403.934 143.712 403.934 73.7354 295.027 73.7354C202.6 73.7354 194.063 197.113 118.629 197.113C43.1946 197.113 0 228.611 0 294.869C0 387.252 234.207 424.916 234.207 307.248C234.207 253.815 403.934 285.194 403.934 143.712Z" fill="#FFE2CD"/>
<path fill-rule="evenodd" clip-rule="evenodd" d="M399.898 323.265C399.257 343.112 389.76 362.247 372.439 378.624C363.966 386.524 354.569 393.374 344.451 399.023C341.019 397.456 337.76 395.857 334.674 394.225C383.242 368.781 390.449 337.45 390.921 322.993C391.906 293.206 369.3 264.995 334.674 252.752L334.546 252.704C330.456 251.254 326.492 249.655 322.654 247.906C306.334 240.517 292.544 230.498 282.318 218.543C270.09 204.285 263.62 188.237 263.612 172.164C263.612 144.032 282.991 120.986 316.856 108.992C318.946 108.248 321.092 107.456 323.263 106.593C326.898 108.352 330.702 110.058 334.674 111.711C329.965 113.683 325.027 115.583 319.859 117.412C289.79 128.055 272.557 147.99 272.613 172.092C272.613 186.022 278.354 200.079 289.165 212.682C300.216 225.58 315.919 236.079 334.706 243.148C335.643 243.508 336.604 243.852 337.565 244.196C340.709 245.299 343.757 246.523 346.71 247.866C379.862 262.971 400.915 292.278 399.898 323.265Z" fill="white" stroke="#2C2D52" stroke-width="0.6" stroke-linecap="round" stroke-linejoin="round"/>
<path fill-rule="evenodd" clip-rule="evenodd" d="M400.755 58.2062C392.275 76.9978 373.921 93.2226 346.069 106.641C342.434 108.389 338.635 110.092 334.674 111.75C330.702 110.098 326.898 108.392 323.263 106.633C326.986 105.217 330.814 103.658 334.666 101.963C358.273 91.5674 382.809 76.1502 392.579 54.5198C397.704 43.1648 397.063 33.833 396.151 29.0351C395.688 26.6061 397.286 24.2629 399.718 23.8014C402.15 23.3399 404.497 24.9349 404.959 27.3638C406.128 33.5851 406.801 44.8521 400.755 58.2062Z" fill="white" stroke="#2C2D52" stroke-width="0.6" stroke-linecap="round" stroke-linejoin="round"/>
<path fill-rule="evenodd" clip-rule="evenodd" d="M382.697 417.415C382.364 418.567 381.586 419.539 380.535 420.118C379.483 420.697 378.245 420.835 377.091 420.502C362.499 416.302 348.298 410.847 334.65 404.197C331.26 402.518 327.995 400.777 324.856 398.975C314.744 393.33 305.347 386.492 296.868 378.608C279.555 362.231 270.066 343.096 269.409 323.249C268.392 292.262 289.429 262.955 322.63 247.89C326.458 249.633 330.421 251.233 334.521 252.688L334.65 252.736C300.007 264.971 277.409 293.19 278.386 322.977C278.859 337.442 286.066 368.765 334.65 394.209C337.73 395.809 340.989 397.408 344.427 399.007C355.838 404.137 367.596 408.458 379.614 411.937C381.97 412.612 383.344 415.054 382.697 417.415Z" fill="white" stroke="#2C2D52" stroke-width="0.6" stroke-linecap="round" stroke-linejoin="round"/>
<path fill-rule="evenodd" clip-rule="evenodd" d="M405.736 172.148C405.736 188.237 399.241 204.285 387.029 218.527C376.795 230.482 363.006 240.501 346.677 247.89C343.731 246.547 340.682 245.323 337.532 244.22C336.571 243.876 335.611 243.532 334.674 243.172C353.46 236.095 369.148 225.58 380.206 212.706C391.025 200.087 396.743 186.046 396.759 172.116C396.759 148.014 379.542 128.079 349.512 117.436C344.355 115.602 339.42 113.702 334.706 111.734C330.734 110.082 326.93 108.376 323.294 106.617C295.403 93.2227 277.073 76.9979 268.585 58.2062C262.547 44.8521 263.203 33.5691 264.388 27.3639C264.9 24.9868 267.218 23.4517 269.61 23.9055C272.002 24.3594 273.594 26.6363 273.197 29.0351C272.268 33.833 271.595 43.1649 276.761 54.5198C286.522 76.1502 311.066 91.5994 334.666 101.963C338.509 103.658 342.337 105.217 346.069 106.641C348.247 107.44 350.377 108.24 352.475 109C386.349 121.002 405.752 144.016 405.736 172.148Z" fill="white" stroke="#2C2D52" stroke-width="0.6" stroke-linecap="round" stroke-linejoin="round"/>
<path fill-rule="evenodd" clip-rule="evenodd" d="M364.047 146.407H305.293C300.432 146.407 298.35 140.154 302.306 137.331L302.482 137.203C303.326 136.61 304.333 136.294 305.365 136.3H363.975C365.007 136.293 366.015 136.609 366.858 137.203L367.034 137.331C368.793 138.615 369.524 140.885 368.844 142.953C368.163 145.021 366.226 146.415 364.047 146.407Z" fill="#FF756B" stroke="#323A4A" stroke-width="0.6" stroke-linecap="round" stroke-linejoin="round"/>
<path fill-rule="evenodd" clip-rule="evenodd" d="M364.046 214.353H305.293C303.114 214.355 301.181 212.959 300.501 210.892C299.822 208.825 300.55 206.557 302.306 205.269L302.482 205.141C303.327 204.551 304.334 204.236 305.365 204.237H363.974C365.006 204.235 366.012 204.55 366.857 205.141L367.033 205.269C368.789 206.557 369.517 208.825 368.838 210.892C368.158 212.959 366.225 214.355 364.046 214.353Z" fill="#FF756B" stroke="#323A4A" stroke-width="0.6" stroke-linecap="round" stroke-linejoin="round"/>
<path fill-rule="evenodd" clip-rule="evenodd" d="M380.879 169.053H288.468C286.914 169.051 285.449 168.331 284.5 167.103C283.55 165.875 283.224 164.277 283.615 162.776V162.672C284.19 160.473 286.184 158.942 288.46 158.954H380.847C383.124 158.944 385.12 160.473 385.7 162.672V162.776C386.09 164.272 385.767 165.864 384.825 167.091C383.883 168.317 382.427 169.041 380.879 169.053Z" fill="#FF756B" stroke="#323A4A" stroke-width="0.6" stroke-linecap="round" stroke-linejoin="round"/>
<path fill-rule="evenodd" clip-rule="evenodd" d="M383.722 188.356C383.688 188.429 383.658 188.504 383.634 188.58C382.865 190.473 381.019 191.708 378.973 191.699H290.358C288.309 191.711 286.46 190.471 285.697 188.572C285.673 188.496 285.643 188.421 285.609 188.348C285.036 186.808 285.257 185.084 286.2 183.737C287.143 182.39 288.688 181.591 290.334 181.599H378.997C380.645 181.59 382.193 182.39 383.136 183.739C384.079 185.089 384.298 186.815 383.722 188.356Z" fill="#FF756B" stroke="#323A4A" stroke-width="0.6" stroke-linecap="round" stroke-linejoin="round"/>
<path fill-rule="evenodd" clip-rule="evenodd" d="M350.273 283.178H319.043C316.849 283.179 314.91 281.755 314.256 279.664C313.603 277.572 314.387 275.3 316.192 274.054L316.32 273.966C317.156 273.386 318.152 273.076 319.171 273.079H350.113C351.132 273.076 352.127 273.386 352.964 273.966L353.1 274.054C354.901 275.297 355.686 277.564 355.039 279.652C354.392 281.741 352.463 283.168 350.273 283.178Z" fill="#FF756B" stroke="#323A4A" stroke-width="0.6" stroke-linecap="round" stroke-linejoin="round"/>
<path fill-rule="evenodd" clip-rule="evenodd" d="M370.677 305.832H298.694C296.939 305.828 295.314 304.91 294.407 303.409C293.5 301.909 293.443 300.044 294.258 298.492L294.306 298.388C295.177 296.743 296.888 295.715 298.751 295.717H370.669C372.531 295.712 374.241 296.742 375.106 298.388L375.162 298.484C375.979 300.045 375.918 301.919 375 303.424C374.082 304.928 372.442 305.842 370.677 305.832Z" fill="#FF756B" stroke="#323A4A" stroke-width="0.6" stroke-linecap="round" stroke-linejoin="round"/>
<path fill-rule="evenodd" clip-rule="evenodd" d="M381.063 323.552V323.624C380.96 326.338 378.721 328.481 376.002 328.47H293.337C290.618 328.481 288.379 326.338 288.276 323.624V323.497C288.25 322.142 288.772 320.834 289.725 319.869C290.678 318.904 291.98 318.364 293.337 318.371H375.994C377.352 318.364 378.655 318.904 379.609 319.869C380.563 320.833 381.087 322.141 381.063 323.497V323.552Z" fill="#FF756B" stroke="#323A4A" stroke-width="0.6" stroke-linecap="round" stroke-linejoin="round"/>
<path fill-rule="evenodd" clip-rule="evenodd" d="M374.809 346.087L374.753 346.191C373.889 347.828 372.186 348.851 370.333 348.845H299.007C297.151 348.85 295.446 347.828 294.578 346.191L294.522 346.087C293.703 344.536 293.756 342.67 294.662 341.169C295.568 339.667 297.195 338.748 298.95 338.746H370.389C372.145 338.746 373.773 339.665 374.678 341.168C375.583 342.671 375.633 344.538 374.809 346.087Z" fill="#FF756B" stroke="#323A4A" stroke-width="0.6" stroke-linecap="round" stroke-linejoin="round"/>
<path fill-rule="evenodd" clip-rule="evenodd" d="M354.749 370.236L354.597 370.356C353.698 371.103 352.564 371.508 351.394 371.499H317.961C316.792 371.507 315.657 371.102 314.758 370.356L314.614 370.236C312.995 368.871 312.408 366.638 313.148 364.655C313.888 362.672 315.794 361.367 317.913 361.392H351.49C353.597 361.393 355.48 362.705 356.207 364.679C356.935 366.653 356.353 368.871 354.749 370.236Z" fill="#FF756B" stroke="#323A4A" stroke-width="0.6" stroke-linecap="round" stroke-linejoin="round"/>
<path fill-rule="evenodd" clip-rule="evenodd" d="M344.46 399.023C341.79 400.569 339.012 402.067 336.123 403.517L334.674 404.245C321.024 410.891 306.823 416.346 292.232 420.55C291.079 420.888 289.838 420.752 288.786 420.172C287.733 419.592 286.956 418.617 286.627 417.463C286.56 417.222 286.512 416.976 286.482 416.727C286.236 414.562 287.589 412.535 289.686 411.929C301.707 408.462 313.468 404.149 324.88 399.023L326.562 398.223C329.386 396.901 332.09 395.569 334.674 394.225C335.475 394.641 336.275 395.025 337.116 395.481C339.471 396.664 341.918 397.845 344.46 399.023Z" fill="white" stroke="#2C2D52" stroke-width="0.6" stroke-linecap="round" stroke-linejoin="round"/>
<path opacity="0.3" fill-rule="evenodd" clip-rule="evenodd" d="M334.674 243.188C335.61 243.548 336.571 243.892 337.532 244.236C338.669 244.635 339.775 245.035 340.888 245.499C358.377 238.086 373.015 227.563 383.538 214.825C394.524 201.503 400.354 186.693 400.354 171.996C400.354 146.559 382.857 125.528 352.307 114.285C347.059 112.361 342.043 110.356 337.26 108.272C333.224 106.523 329.359 104.724 325.665 102.874C297.365 88.7206 278.73 71.6002 270.114 51.769C266.45 43.5606 264.742 34.6154 265.125 25.6366C264.753 26.152 264.497 26.741 264.372 27.3638C263.187 33.5691 262.53 44.8521 268.568 58.2062C277.049 76.9978 295.387 93.2226 323.246 106.633C326.882 108.392 330.686 110.098 334.658 111.75C339.366 113.723 344.302 115.623 349.464 117.452C379.526 128.095 396.759 148.03 396.711 172.132C396.711 186.061 390.977 200.119 380.158 212.722C369.164 225.62 353.46 236.111 334.674 243.188Z" fill="#323A4A"/>
<path fill-rule="evenodd" clip-rule="evenodd" d="M382.697 417.415C382.364 418.567 381.586 419.539 380.535 420.118C379.483 420.697 378.245 420.835 377.091 420.502C362.499 416.302 348.298 410.847 334.65 404.197C331.26 402.518 327.995 400.777 324.856 398.975C314.744 393.33 305.347 386.492 296.868 378.608C279.555 362.231 270.066 343.096 269.409 323.249C268.392 292.262 289.429 262.955 322.63 247.89C326.458 249.633 330.421 251.233 334.521 252.688L334.65 252.736C300.007 264.971 277.409 293.19 278.386 322.977C278.859 337.442 286.066 368.765 334.65 394.209C337.73 395.809 340.989 397.408 344.427 399.007C355.838 404.137 367.596 408.458 379.614 411.937C381.97 412.612 383.344 415.054 382.697 417.415Z" fill="white" stroke="#2C2D52" stroke-width="0.6" stroke-linecap="round" stroke-linejoin="round"/>
<path opacity="0.3" fill-rule="evenodd" clip-rule="evenodd" d="M339.687 405.284C336.26 403.605 332.952 401.865 329.765 400.063C319.533 394.425 310.013 387.585 301.409 379.688C283.872 363.319 274.262 344.175 273.598 324.336C272.581 293.71 293.417 264.731 326.354 249.521C325.113 248.994 323.871 248.466 322.654 247.922C289.477 262.987 268.417 292.294 269.434 323.281C270.09 343.128 279.58 362.263 296.893 378.64C305.371 386.529 314.767 393.373 324.88 399.023C328.019 400.83 331.284 402.571 334.674 404.245C348.323 410.895 362.523 416.35 377.116 420.55C377.836 420.751 378.596 420.771 379.326 420.606C365.722 416.572 352.466 411.448 339.687 405.284Z" fill="#323A4A"/>
<path opacity="0.3" fill-rule="evenodd" clip-rule="evenodd" d="M284.552 426.115C284.562 426.147 284.585 426.174 284.616 426.187C284.56 426.211 284.544 426.211 284.552 426.115Z" fill="#323A4A"/>
<path opacity="0.3" fill-rule="evenodd" clip-rule="evenodd" d="M395.822 322.977C395.342 337.442 388.134 368.757 339.567 394.209L337.132 395.465C334.778 396.656 332.328 397.864 329.789 398.991L328.74 399.471L327.066 400.215C316.506 404.803 305.662 408.713 294.602 411.921C292.248 412.609 286.811 414.648 286.811 414.648C286.827 415.337 286.727 416.024 286.514 416.679C286.268 414.514 287.621 412.487 289.718 411.881C301.727 408.428 313.477 404.131 324.88 399.023L326.562 398.223C329.386 396.901 332.09 395.569 334.674 394.225C383.242 368.773 390.449 337.45 390.929 322.993C391.906 293.206 369.308 264.995 334.674 252.744L334.546 252.704C331.495 251.624 328.524 250.473 325.617 249.226L325.489 249.17C324.544 248.77 323.591 248.37 322.654 247.922C306.334 240.533 292.552 230.514 282.318 218.559C270.09 204.301 263.62 188.245 263.612 172.18C263.612 144.056 282.991 121.002 316.856 109.008C318.946 108.264 321.092 107.472 323.263 106.609L325.433 107.64L321.741 108.976C287.876 120.97 268.465 143.992 268.497 172.148C268.497 188.237 274.975 204.293 287.203 218.527C297.437 230.482 311.227 240.501 327.539 247.89C331.377 249.633 335.341 251.233 339.431 252.688L339.559 252.728C374.193 264.979 396.799 293.19 395.822 322.977Z" fill="#323A4A"/>
<path opacity="0.3" fill-rule="evenodd" clip-rule="evenodd" d="M401.043 29.0351C401.956 33.833 402.597 43.1648 397.472 54.5198C387.702 76.1502 363.166 91.5994 339.559 101.963L337.156 103.018L334.714 101.963C358.321 91.5674 382.849 76.1502 392.619 54.5198C397.744 43.1648 397.103 33.833 396.19 29.0351C395.953 27.7302 396.308 26.3875 397.158 25.3687C398.008 24.3499 399.267 23.7598 400.595 23.7574H400.987C401.097 23.7629 401.207 23.7762 401.315 23.7974L401.572 23.8454L401.852 23.9174L402.188 24.0373C402.484 24.1582 402.768 24.3054 403.037 24.4771C401.499 25.4438 400.708 27.2511 401.043 29.0351Z" fill="#323A4A"/>
<g opacity="0.2">
<path fill-rule="evenodd" clip-rule="evenodd" d="M368.771 143.137C368.414 142.266 367.813 141.517 367.042 140.977C366.979 140.941 366.919 140.898 366.866 140.85C366.019 140.256 365.009 139.941 363.975 139.946H305.365C304.335 139.938 303.33 140.254 302.49 140.85L302.306 140.977C301.532 141.518 300.931 142.27 300.576 143.145C299.72 141.041 300.439 138.626 302.306 137.331L302.49 137.195C303.332 136.606 304.337 136.293 305.365 136.3H363.975C365.009 136.294 366.019 136.61 366.866 137.203L367.042 137.331C368.9 138.629 369.617 141.035 368.771 143.137Z" fill="#323A4A"/>
<path fill-rule="evenodd" clip-rule="evenodd" d="M368.772 211.106C368.414 210.236 367.813 209.487 367.042 208.947L366.866 208.819C366.019 208.226 365.009 207.911 363.975 207.916H305.365C304.336 207.908 303.33 208.224 302.49 208.819C302.424 208.855 302.362 208.898 302.306 208.947C301.532 209.487 300.931 210.24 300.577 211.114C299.719 209.009 300.438 206.591 302.306 205.293L302.49 205.165C303.332 204.573 304.336 204.257 305.365 204.261H363.975C365.01 204.259 366.02 204.578 366.866 205.173L367.042 205.293C368.901 206.594 369.618 209.003 368.772 211.106Z" fill="#323A4A"/>
<path fill-rule="evenodd" clip-rule="evenodd" d="M385.54 165.83C384.794 163.894 382.926 162.62 380.848 162.632H288.493C286.414 162.618 284.544 163.892 283.8 165.83C283.424 164.853 283.36 163.783 283.616 162.768V162.664C284.19 160.465 286.185 158.934 288.461 158.946H380.848C383.126 158.933 385.123 160.463 385.7 162.664C385.704 162.698 385.704 162.733 385.7 162.768C385.974 163.78 385.917 164.852 385.54 165.83Z" fill="#323A4A"/>
<path fill-rule="evenodd" clip-rule="evenodd" d="M383.722 188.356C383.721 188.378 383.721 188.399 383.722 188.42C382.961 186.495 381.102 185.228 379.029 185.222H290.334C288.26 185.224 286.399 186.492 285.641 188.42C285.638 188.397 285.638 188.372 285.641 188.348C285.068 186.808 285.289 185.084 286.232 183.737C287.175 182.39 288.72 181.591 290.366 181.599H378.997C380.645 181.59 382.193 182.39 383.136 183.739C384.08 185.089 384.299 186.815 383.722 188.356Z" fill="#323A4A"/>
</g>
<g opacity="0.2">
<path fill-rule="evenodd" clip-rule="evenodd" d="M354.822 280.244C354.449 279.451 353.871 278.772 353.148 278.277L353.02 278.181C352.184 277.599 351.188 277.289 350.169 277.293H319.202C318.181 277.289 317.183 277.599 316.344 278.181L316.207 278.277C315.472 278.781 314.883 279.47 314.502 280.276C313.486 278.073 314.206 275.46 316.207 274.086L316.344 273.998C317.183 273.416 318.181 273.106 319.202 273.111H350.137C351.156 273.107 352.152 273.417 352.988 273.998L353.116 274.086C355.107 275.453 355.826 278.05 354.822 280.244Z" fill="#323A4A"/>
<path fill-rule="evenodd" clip-rule="evenodd" d="M375.226 302.906C375.226 302.826 375.154 302.754 375.122 302.674L375.066 302.578C374.199 300.933 372.49 299.904 370.629 299.907H298.694C296.831 299.903 295.119 300.932 294.25 302.578C294.237 302.611 294.221 302.643 294.202 302.674C294.202 302.754 294.122 302.826 294.098 302.906C293.436 301.5 293.474 299.865 294.202 298.492C294.221 298.459 294.237 298.424 294.25 298.388C295.119 296.742 296.831 295.713 298.694 295.717H370.613C372.474 295.714 374.183 296.743 375.05 298.388C375.05 298.388 375.09 298.452 375.106 298.492C375.838 299.862 375.883 301.497 375.226 302.906Z" fill="#323A4A"/>
<path fill-rule="evenodd" clip-rule="evenodd" d="M381.063 323.497V323.553C381.067 323.576 381.067 323.601 381.063 323.625C381.043 324.279 380.893 324.923 380.623 325.52C379.798 323.712 377.992 322.553 376.002 322.553H293.337C291.35 322.553 289.546 323.709 288.716 325.512C288.447 324.917 288.298 324.276 288.276 323.625V323.497C288.248 322.141 288.77 320.832 289.723 319.867C290.676 318.901 291.979 318.362 293.337 318.371H375.994C377.352 318.364 378.655 318.904 379.609 319.869C380.563 320.833 381.087 322.141 381.063 323.497Z" fill="#323A4A"/>
<path fill-rule="evenodd" clip-rule="evenodd" d="M374.93 345.839C374.126 344.057 372.346 342.916 370.389 342.928H298.951C296.994 342.917 295.216 344.062 294.418 345.847C293.695 344.3 293.814 342.493 294.732 341.054C295.651 339.615 297.242 338.744 298.951 338.746H370.389C372.096 338.747 373.684 339.616 374.603 341.052C375.522 342.487 375.645 344.292 374.93 345.839Z" fill="#323A4A"/>
<path fill-rule="evenodd" clip-rule="evenodd" d="M356.047 368.533C355.249 366.718 353.442 365.556 351.458 365.582H317.913C315.927 365.558 314.121 366.728 313.333 368.549C312.613 366.988 312.738 365.168 313.664 363.72C314.591 362.272 316.192 361.395 317.913 361.392H351.49C353.202 361.405 354.791 362.284 355.711 363.726C356.632 365.168 356.758 366.977 356.047 368.533Z" fill="#323A4A"/>
</g>
<path opacity="0.01" fill-rule="evenodd" clip-rule="evenodd" d="M295.651 36.6157C294.538 37.4154 293.465 37.7512 292.056 39.5184C293.649 37.2874 294.482 37.4554 295.651 36.6157Z" stroke="#2C2D52" stroke-width="0.6" stroke-linecap="round" stroke-linejoin="round"/>
<path fill-rule="evenodd" clip-rule="evenodd" d="M295.651 36.6157C294.538 37.4154 293.465 37.7512 292.056 39.5184C293.649 37.2874 294.482 37.4554 295.651 36.6157Z" stroke="#2C2D52" stroke-width="0.6" stroke-linecap="round" stroke-linejoin="round"/>
<path fill-rule="evenodd" clip-rule="evenodd" d="M318.178 99.3719C316.878 99.8275 315.45 99.7459 314.211 99.1453C312.972 98.5447 312.024 97.4748 311.579 96.1733L300.664 65.283L294.843 48.8183L291.719 39.9822C291.84 39.8143 291.944 39.6784 292.056 39.5424C293.465 37.7752 294.538 37.4713 295.643 36.6477C295.723 36.5837 295.811 36.5278 295.892 36.4558C301.113 32.2257 295.892 32.4576 290.286 34.9845L289.982 35.1284L289.701 34.3287L280.18 7.27674C279.724 5.98626 279.8 4.56771 280.392 3.3334C280.984 2.09909 282.043 1.15021 283.335 0.695657C283.896 0.498806 284.486 0.398753 285.081 0.399788C287.266 0.405933 289.211 1.7821 289.942 3.83826L299.447 30.7703L310.378 61.7406L321.325 92.7588C321.789 94.0524 321.718 95.4772 321.127 96.7183C320.536 97.9593 319.475 98.9143 318.178 99.3719Z" fill="#FF756B" stroke="#323A4A" stroke-width="0.6" stroke-linecap="round" stroke-linejoin="round"/>
<path opacity="0.1" fill-rule="evenodd" clip-rule="evenodd" d="M315.062 95.2938L304.148 64.3635L283.664 6.39718C282.901 4.22633 283.669 1.81382 285.545 0.479802C285.385 0.479802 285.225 0.439819 285.065 0.439819C284.476 0.440592 283.891 0.540619 283.335 0.735688C282.043 1.19024 280.984 2.13912 280.392 3.37343C279.8 4.60774 279.724 6.02629 280.18 7.31677L300.664 65.323L311.579 96.2533C312.024 97.5548 312.972 98.6247 314.211 99.2253C315.45 99.8259 316.878 99.9075 318.178 99.4519C318.624 99.29 319.047 99.0695 319.435 98.7962C317.415 98.5867 315.705 97.2169 315.062 95.2938Z" fill="#323A4A"/>
<path fill-rule="evenodd" clip-rule="evenodd" d="M302.698 38.6229C298.59 40.71 296.58 37.9512 299.911 36.224C300.844 35.6597 301.887 35.3024 302.97 35.1764C304.724 35.1045 304.66 37.6313 302.698 38.6229Z" fill="white" stroke="#2C2D52" stroke-width="0.6" stroke-linecap="round" stroke-linejoin="round"/>
<path fill-rule="evenodd" clip-rule="evenodd" d="M303.739 41.0458C299.736 43.1089 297.613 41.1898 300.849 39.4465C301.775 38.8978 302.788 38.5085 303.844 38.295C305.573 38.0951 305.629 40.0623 303.739 41.0458Z" fill="white" stroke="#2C2D52" stroke-width="0.6" stroke-linecap="round" stroke-linejoin="round"/>
<path fill-rule="evenodd" clip-rule="evenodd" d="M304.492 43.7006C300.488 45.7717 298.366 43.8446 301.601 42.1013C302.527 41.5522 303.54 41.1654 304.596 40.9578C306.326 40.7819 306.39 42.7251 304.492 43.7006Z" fill="white" stroke="#2C2D52" stroke-width="0.6" stroke-linecap="round" stroke-linejoin="round"/>
<path fill-rule="evenodd" clip-rule="evenodd" d="M305.181 46.2835C301.177 48.3546 299.055 46.4355 302.29 44.6842C303.214 44.1291 304.227 43.7394 305.285 43.5327C307.007 43.3408 307.071 45.308 305.181 46.2835Z" fill="white" stroke="#2C2D52" stroke-width="0.6" stroke-linecap="round" stroke-linejoin="round"/>
<path fill-rule="evenodd" clip-rule="evenodd" d="M171.145 109.184C171.145 109.184 170.208 121.858 175.389 128.207C180.57 134.556 182.484 146.167 181.795 151.653C181.107 157.138 171.697 154.348 169.087 140.57C166.476 126.792 169.431 113.174 171.145 109.184Z" fill="#323A4A"/>
<path fill-rule="evenodd" clip-rule="evenodd" d="M295.891 36.4318C295.815 36.4981 295.735 36.5595 295.651 36.6157C294.482 37.4553 293.649 37.2874 292.056 39.5184L291.719 39.9582L294.85 48.8183C294.634 50.3536 293.753 51.849 291.647 53.1204C290.797 53.6306 289.993 54.2139 289.245 54.8636C283.952 58.494 280.316 65.4269 277.137 74.1831C277.001 74.5269 276.873 74.8867 276.752 75.2306C274.006 82.9872 255.86 132.597 219.008 157.426C217.94 158.156 216.851 158.86 215.74 159.537C209.407 163.488 202.56 166.552 195.392 168.645C192.97 169.046 190.52 169.252 188.065 169.261L176.526 146.071L174.452 143.592C175.724 143.967 177.015 144.274 178.319 144.512C182.211 144.936 192.469 145.312 204.826 139.834C205.893 139.354 206.998 138.821 208.141 138.235C215.812 134.284 224.157 127.999 232.116 118.116C258.046 86.0578 270.17 44.4203 290.03 35.1204L290.342 34.9764C295.859 32.4736 301.096 32.2017 295.891 36.4318Z" fill="white" stroke="#323A4A" stroke-width="0.6" stroke-linecap="round" stroke-linejoin="round"/>
<path fill-rule="evenodd" clip-rule="evenodd" d="M218.415 157.866C217.566 158.442 216.685 158.993 215.805 159.545C209.45 163.496 202.582 166.556 195.392 168.637C193.011 169.042 190.601 169.25 188.185 169.261H188.041L176.502 146.071L174.428 143.584C175.7 143.959 176.991 144.266 178.296 144.504C182.147 144.92 192.261 145.304 204.481 139.962C209.502 141.337 216.749 145.487 218.415 157.866Z" fill="white" stroke="#323A4A" stroke-width="0.6" stroke-linecap="round" stroke-linejoin="round"/>
<path opacity="0.3" fill-rule="evenodd" clip-rule="evenodd" d="M212.753 144.832C197.194 151.533 184.325 151.061 179.409 150.525C179.161 150.499 178.915 150.459 178.672 150.405L176.502 146.055L174.428 143.568C175.7 143.943 176.991 144.25 178.296 144.488C182.147 144.904 192.261 145.288 204.481 139.946C207.629 140.8 210.488 142.488 212.753 144.832Z" fill="#323A4A"/>
<path fill-rule="evenodd" clip-rule="evenodd" d="M171.953 277.669C171.953 277.669 169.175 288.064 165.763 300.059C165.723 300.211 165.675 300.363 165.635 300.515C163.457 308.215 161.023 316.508 158.917 323.113C153.479 340.129 141.7 357.122 132.971 364.374C124.242 371.627 84.259 402.885 75.4743 415.792C66.6896 428.698 55.9431 422.573 59.7788 414.192C63.6146 405.812 71.7907 382.694 90.7373 364.398C109.684 346.102 114.561 332.413 104.303 312.597C96.535 297.588 94.8534 279.588 95.1177 272.663C95.1737 270.944 95.2698 269.952 95.2698 269.952L111.71 271.608L112.247 271.656L171.953 277.669Z" fill="white" stroke="#323A4A" stroke-width="0.6" stroke-linecap="round" stroke-linejoin="round"/>
<g opacity="0.3">
<path fill-rule="evenodd" clip-rule="evenodd" d="M171.953 277.669C171.953 277.669 169.175 288.064 165.763 300.059C165.723 300.211 165.675 300.363 165.635 300.515C95.8223 320.114 95.0375 274.926 95.1176 272.663C95.604 272.606 96.0933 272.577 96.583 272.575L112.246 271.656L171.953 277.669Z" fill="#323A4A"/>
</g>
<path fill-rule="evenodd" clip-rule="evenodd" d="M157.371 90.3599C157.371 90.3599 158.612 95.3097 162.712 97.2608C165.037 98.3289 167.195 99.7267 169.119 101.411C169.119 101.411 168.854 89.0165 157.371 90.3599Z" fill="#323A4A"/>
<path fill-rule="evenodd" clip-rule="evenodd" d="M169.175 118.579C169.319 117.404 169.527 116.18 169.783 114.917L165.051 116.852L151.253 122.514L150.732 122.73L150.78 122.825C151.655 124.686 152.352 126.624 152.863 128.615C154.024 133.005 154.712 139.178 151.974 144.608C151.974 144.608 154.136 151.005 163.913 152.188C173.691 153.372 182.58 149.686 182.58 149.686C182.58 149.686 173.395 145.248 170.031 133.253C168.755 128.47 168.464 123.478 169.175 118.579Z" fill="white"/>
<path d="M169.175 118.579C169.319 117.404 169.527 116.18 169.783 114.917L165.051 116.852L151.253 122.514L150.732 122.73L150.78 122.825C151.655 124.686 152.352 126.624 152.863 128.615C154.024 133.005 154.712 139.178 151.974 144.608C151.974 144.608 154.136 151.005 163.913 152.188C173.691 153.372 182.58 149.686 182.58 149.686C182.58 149.686 173.395 145.248 170.031 133.253C168.755 128.47 168.464 123.478 169.175 118.579" stroke="#323A4A" stroke-width="0.6" stroke-linecap="round" stroke-linejoin="round"/>
<path opacity="0.3" fill-rule="evenodd" clip-rule="evenodd" d="M170.48 132.805C164.338 133.309 157.363 128.655 152.703 126.176C152.419 124.686 151.757 123.293 150.781 122.13L151.269 121.81L165.387 116.021C166.612 116.492 168.078 117.084 169.607 117.788C168.881 122.801 169.177 127.909 170.48 132.805Z" fill="#323A4A"/>
<path opacity="0.01" fill-rule="evenodd" clip-rule="evenodd" d="M157.107 93.5585C163.709 93.5552 169.662 97.5238 172.19 103.613C174.719 109.703 173.325 116.713 168.658 121.376C163.991 126.038 156.971 127.434 150.871 124.912C144.772 122.39 140.795 116.447 140.795 109.855C140.795 100.858 148.097 93.5629 157.107 93.5585Z" fill="white" stroke="#2C2D52" stroke-width="0.6" stroke-linecap="round" stroke-linejoin="round"/>
<path fill-rule="evenodd" clip-rule="evenodd" d="M157.107 93.5585C163.709 93.5552 169.662 97.5238 172.19 103.613C174.719 109.703 173.325 116.713 168.658 121.376C163.991 126.038 156.971 127.434 150.871 124.912C144.772 122.39 140.795 116.447 140.795 109.855C140.795 100.858 148.097 93.5629 157.107 93.5585Z" fill="white" stroke="#323A4A" stroke-width="0.6" stroke-linecap="round" stroke-linejoin="round"/>
<path fill-rule="evenodd" clip-rule="evenodd" d="M150.068 141.465C150.068 141.465 156.434 157.778 182.099 148.934C182.099 148.934 196.642 156.794 197.579 166.062C198.516 175.33 185.239 195.337 181.371 205.173C177.503 215.009 173.835 229.074 182.172 241.157C190.508 253.24 96.4871 268.729 107.906 245.579C119.326 222.429 114.008 207.476 113.912 199.512C113.816 191.547 123.225 144.208 150.012 141.457" fill="#FF756B"/>
<path d="M150.068 141.465C150.068 141.465 156.434 157.778 182.099 148.934C182.099 148.934 196.642 156.794 197.579 166.062C198.516 175.33 185.239 195.337 181.371 205.173C177.503 215.009 173.835 229.074 182.172 241.157C190.508 253.24 96.4871 268.729 107.906 245.579C119.326 222.429 114.008 207.476 113.912 199.512C113.816 191.547 123.225 144.208 150.012 141.457" stroke="#323A4A" stroke-width="0.6" stroke-linecap="round" stroke-linejoin="round"/>
<path d="M185.647 151.133C158.092 162.808 147.393 147.015 145.015 142.585C144.654 141.905 144.486 141.489 144.486 141.489" stroke="#323A4A" stroke-width="0.6" stroke-linecap="round" stroke-linejoin="round"/>
<path opacity="0.3" fill-rule="evenodd" clip-rule="evenodd" d="M152.326 172.795C147.521 173.739 121.752 220.23 152.326 237.511C178.752 252.464 111.253 218.079 111.253 218.079L139.337 170.324L152.326 172.795Z" fill="#323A4A"/>
<path fill-rule="evenodd" clip-rule="evenodd" d="M184.43 344.135C182.68 344.791 180.804 345.04 178.944 344.863C177.735 344.747 176.568 344.356 175.533 343.72C174.672 343.181 173.924 342.48 173.331 341.656C172.634 340.703 172.093 339.645 171.729 338.522C171.729 338.522 195.312 293.646 196.081 277.261C196.265 273.263 195.104 270.968 191.909 271.432C189.218 271.819 186.571 272.467 184.005 273.367C163.273 280.564 148.074 301.722 124.026 299.195C86.9817 295.309 89.4802 256.294 110.245 240.821C110.245 240.821 113.039 244.971 120.863 246.659C120.943 246.659 121.015 246.699 121.095 246.707C122.761 247.047 124.45 247.256 126.148 247.33C129.854 247.462 133.563 247.161 137.199 246.435C141.411 245.612 145.549 244.449 149.571 242.956C180.001 231.913 211.512 211.21 233.894 226.412C256.276 241.613 219.472 310.398 184.43 344.135Z" fill="white" stroke="#323A4A" stroke-width="0.6" stroke-linecap="round" stroke-linejoin="round"/>
<path opacity="0.3" fill-rule="evenodd" clip-rule="evenodd" d="M130.104 253.216L121.111 246.731L118.565 244.891L137.215 246.491L173.427 249.489L205.282 271.775C202.366 273.837 199.296 275.671 196.097 277.261C196.282 273.263 195.12 270.968 191.925 271.432C189.234 271.819 186.587 272.467 184.021 273.367" fill="#323A4A"/>
<path opacity="0.1" fill-rule="evenodd" clip-rule="evenodd" d="M178.072 344.719C177.172 344.542 176.312 344.203 175.533 343.72C174.676 343.177 173.928 342.477 173.331 341.657C172.639 340.703 172.099 339.648 171.729 338.53C171.729 338.53 195.305 293.638 196.081 277.269C196.266 273.271 195.104 270.976 191.917 271.432C189.223 271.817 186.573 272.465 184.005 273.367C163.273 280.564 148.066 301.714 124.018 299.195C90.4493 295.677 89.3602 263.299 104.92 245.763C102.637 258.853 101.052 281.875 116.235 288.56C137.856 298.068 188.434 250.369 200.318 266.538C210.159 279.82 186.752 327.951 178.072 344.719Z" fill="#323A4A"/>
<path fill-rule="evenodd" clip-rule="evenodd" d="M158.468 109.176C159.282 109.176 159.942 108.517 159.942 107.704C159.942 106.892 159.282 106.233 158.468 106.233C157.654 106.233 156.995 106.892 156.995 107.704C156.995 108.517 157.654 109.176 158.468 109.176Z" fill="#323A4A"/>
<path fill-rule="evenodd" clip-rule="evenodd" d="M167.029 104.426C167.842 104.426 168.502 103.767 168.502 102.954C168.502 102.142 167.842 101.483 167.029 101.483C166.215 101.483 165.555 102.142 165.555 102.954C165.555 103.767 166.215 104.426 167.029 104.426Z" fill="#323A4A"/>
<path d="M158.596 100.443L168.582 110.623L166.588 113.158" stroke="#323A4A" stroke-width="0.6" stroke-linecap="round" stroke-linejoin="round"/>
<path fill-rule="evenodd" clip-rule="evenodd" d="M154.913 117.196C156.66 117.196 158.076 115.782 158.076 114.037C158.076 112.293 156.66 110.879 154.913 110.879C153.166 110.879 151.75 112.293 151.75 114.037C151.75 115.782 153.166 117.196 154.913 117.196Z" fill="#FF756B"/>
<path d="M155.185 116.748C155.185 116.748 157.78 121.266 162.04 119.603" stroke="#323A4A" stroke-width="0.6" stroke-linecap="round" stroke-linejoin="round"/>
<path fill-rule="evenodd" clip-rule="evenodd" d="M60.2752 413.097C60.2752 413.097 48.2634 424.292 52.2673 431.777C56.2713 439.261 64.6395 443.659 72.0708 447.578C86.437 455.174 98.4088 448.297 91.8263 440.221C87.7743 435.239 78.9016 437.822 74.8336 428.594C72.6874 423.716 73.8646 417.727 75.4902 415.8C76.9156 414.096 68.2431 425.411 60.2752 413.097Z" fill="#FF756B" stroke="#323A4A" stroke-width="0.6" stroke-linecap="round" stroke-linejoin="round"/>
<path fill-rule="evenodd" clip-rule="evenodd" d="M93.6923 444.539C93.8685 450.368 83.7705 453.751 72.071 447.577C64.6477 443.659 56.2554 439.261 52.2675 431.776C51.0583 429.497 51.3306 426.867 52.2675 424.316C52.4917 425.211 53.8691 429.641 59.8029 434.119C63.5106 436.918 74.3452 443.459 80.1429 445.219C85.0438 446.706 91.37 446.618 93.6923 444.539Z" fill="#323A4A"/>
<path fill-rule="evenodd" clip-rule="evenodd" d="M172.074 337.602C172.074 337.602 160.686 348.318 164.674 355.802C168.662 363.287 177.054 367.677 184.47 371.603C198.836 379.192 210.808 372.315 204.225 364.238C200.173 359.257 191.3 361.84 187.232 352.612C185.086 347.734 185.631 343.24 187.289 341.321C188.73 339.609 180.041 349.917 172.074 337.602Z" fill="#FF756B" stroke="#323A4A" stroke-width="0.6" stroke-linecap="round" stroke-linejoin="round"/>
<path fill-rule="evenodd" clip-rule="evenodd" d="M206.075 368.684C206.075 374.426 196.073 377.728 184.454 371.595C177.03 367.677 168.638 363.279 164.658 355.802C163.401 353.403 163.665 350.748 164.658 348.174C164.714 348.429 165.771 353.259 172.346 358.153C176.102 360.944 187.08 367.485 192.966 369.244C197.947 370.748 203.841 370.772 206.075 368.684Z" fill="#323A4A"/>
<path fill-rule="evenodd" clip-rule="evenodd" d="M201.639 299.635C198.684 299.451 200.333 295.637 200.333 295.637C195.528 298.739 196.594 293.238 196.594 293.238C192.59 295.509 192.341 291.007 192.341 291.007C190.948 291.463 189.499 290.463 189.459 288.288C189.418 286.113 196.81 280.995 195.496 275.798L195.328 275.174C195.216 274.774 195.096 274.374 194.968 273.982C191.388 263.339 181.779 259.765 169.991 258.078H169.847C161.447 256.902 151.942 256.67 142.708 255.559C135.237 254.655 127.966 253.112 121.536 250.129C79.0457 230.45 124.995 132.997 150.604 156.571C163.249 168.213 139.697 188.876 139.697 188.876C139.321 189.3 138.897 189.748 138.544 190.212C137.335 191.637 136.215 193.135 135.189 194.698C130.48 201.894 127.069 211.986 133.483 223.237C141.635 237.527 171.529 240.885 173.387 241.077H173.475C173.475 241.077 202.479 244.939 209.334 264.099C218.023 288.424 204.593 299.867 201.639 299.635Z" fill="white" stroke="#323A4A" stroke-width="0.6" stroke-linecap="round" stroke-linejoin="round"/>
<path fill-rule="evenodd" clip-rule="evenodd" d="M124.387 246.333C124.806 245.663 123.529 244.11 121.534 242.865C119.539 241.619 117.582 241.153 117.162 241.823C116.742 242.494 118.019 244.047 120.015 245.292C122.01 246.537 123.967 247.004 124.387 246.333Z" fill="white" stroke="#FF4F4B" stroke-width="0.6" stroke-linecap="round" stroke-linejoin="round"/>
<path fill-rule="evenodd" clip-rule="evenodd" d="M133.355 117.9C138.4 134.316 99.3618 133.893 103.27 164.967C103.27 164.967 104.118 176.442 116.363 176.05C128.607 175.658 128.503 156.651 144.598 150.765C160.694 144.88 156.77 125.816 149.595 119.139C141.884 111.942 154.048 102.77 157.956 99.324C164.442 93.6225 157.467 87.857 149.82 88.4968C140.418 89.2724 127.237 97.9646 133.355 117.9Z" fill="#323A4A"/>
<path d="M158.468 89.4883C158.468 89.4883 135.413 102.61 143.341 128.079C151.269 153.548 110.509 143.8 99.1377 176.058" stroke="white" stroke-width="0.6" stroke-linecap="round" stroke-linejoin="round"/>
<path d="M90.561 173.971C91.9165 165.695 96.7513 158.394 103.846 153.908C109.235 150.541 116.402 145.911 125.027 139.81C145.495 125.416 129.696 114.037 139.249 98.8682C142.151 94.3259 146.085 90.5314 150.732 87.7931" stroke="white" stroke-width="0.6" stroke-linecap="round" stroke-linejoin="round"/>
<path d="M154.248 96.7571C154.248 96.7571 159.421 90.5278 167.557 90.4958" stroke="#323A4A" stroke-width="0.6" stroke-linecap="round" stroke-linejoin="round"/>
<path d="M151.757 89.7442C151.757 89.7442 153.447 87.6252 158.612 87.2253" stroke="#323A4A" stroke-width="0.6" stroke-linecap="round" stroke-linejoin="round"/>
<path fill-rule="evenodd" clip-rule="evenodd" d="M139.698 188.884C139.321 189.308 138.937 189.756 138.544 190.22C137.333 191.641 136.215 193.14 135.197 194.706L135.109 194.834C126.02 185.766 116.018 187.117 109.628 189.516C118.701 164.495 137.375 144.352 150.604 156.555C163.241 168.221 139.698 188.884 139.698 188.884Z" fill="white" stroke="#323A4A" stroke-width="0.6" stroke-linecap="round" stroke-linejoin="round"/>
<path fill-rule="evenodd" clip-rule="evenodd" d="M134.829 194.554L135.181 194.722C135.16 194.761 135.136 194.798 135.109 194.834C135.013 194.73 134.925 194.642 134.829 194.554Z" fill="white" stroke="#323A4A" stroke-width="0.6" stroke-linecap="round" stroke-linejoin="round"/>
<path opacity="0.3" fill-rule="evenodd" clip-rule="evenodd" d="M152.078 158.17C140.755 154.5 127.253 168.845 118.805 187.757C115.665 187.793 112.558 188.389 109.628 189.516C118.701 164.495 137.375 144.352 150.604 156.555C151.14 157.05 151.633 157.591 152.078 158.17Z" fill="#323A4A"/>
</svg>
