<svg fill="none" height="90" viewBox="0 0 90 90" width="90" xmlns="http://www.w3.org/2000/svg" xmlns:xlink="http://www.w3.org/1999/xlink"><mask id="a" height="90" maskUnits="userSpaceOnUse" width="90" x="0" y="0"><path clip-rule="evenodd" d="m45 90c24.8528 0 45-20.1472 45-45s-20.1472-45-45-45-45 20.1472-45 45 20.1472 45 45 45z" fill="#fff" fill-rule="evenodd"/></mask><g clip-rule="evenodd" fill-rule="evenodd"><path d="m45 90c24.8528 0 45-20.1472 45-45s-20.1472-45-45-45-45 20.1472-45 45 20.1472 45 45 45z" fill="#eff0f6"/><g mask="url(#a)" stroke="#323a4a" stroke-linecap="round" stroke-linejoin="round" stroke-width=".5"><path d="m61.4857 66.2993c-.5029.3747-1.0001.7272-1.4919 1.0575-.1875.129-.3792.2539-.5667.3747-1.1027.7196-2.2464 1.3743-3.4254 1.9609-.2876.1457-.5751.279-.8585.4164l-.1792.0791c-.2875.129-.5709.2539-.8542.3663-.5668.229-1.121.4164-1.6669.6162-.1458.05-.2917.0999-.4375.1416l-.4168.1207-.3875.1124c-.8464.2297-1.7048.4132-2.5712.5496-.1541.025-.3042.0458-.4584.0624l-.4542.0583-.45.0416-.746.05h-.4167-.4167c-8.4094.0583-13.66-5.25-14.5393-6.2034 4.1672-2.0817 4.6048-8.5973 5.0298-11.4825-.8975-.6812-1.7341-1.439-2.5003-2.2649.6375.6198 1.3246 1.1865 2.0544 1.6945 6.0469 4.2506 14.1625 4.0597 20.0025-.4705.083 1.8273.3937 3.637.9251 5.3874.8251 2.9477 2.3169 6.1826 4.8256 7.3317z" fill="#fff"/><path d="m80.3798 153.988c-5.9947 1.354-12.0624 2.363-18.173 3.022-13.0873 1.413-26.2978 1.236-39.3424-.528-5.2256-.691-10.4471-1.627-15.66439-2.806.02917-3.369.12918-7.811.38755-12.928.17085-3.476.41672-7.256.75843-11.22.11668-1.361.25003-2.744.39171-4.138 1.4168-13.923 4.1088-29.4686 9.1678-41.5798 2.0836-4.9335 4.5297-9.2967 7.4592-12.7523l.1251-.1416c.1416-.1665.2875-.3289.4167-.4912.0147-.0235.033-.0446.0542-.0625.0594-.0734.1234-.1429.1916-.2082.1667-.1873.3376-.3705.5168-.5495s.45-.4663.6834-.6828.4167-.4164.6501-.612l.1166-.1083.5376-.4621c.5126-.4163 1.0418-.8327 1.5794-1.224h.0208l.0417-.025c.2208-.1582.4459-.3123.6751-.458l.125.1457c.5208.5576 1.0777 1.0805 1.6669 1.5655 1.4516 1.1755 3.0516 2.1553 4.7589 2.9143 2.5459 1.1448 5.3091 1.7271 8.101 1.707h.4167.4167l.7459-.0541.4501-.0417c.15 0 .3-.0333.45-.0583.1501-.0249.3084-.0374.4626-.0624.8668-.1344 1.7252-.3179 2.5711-.5496l.3876-.1124c.1333-.0375.2625-.0749.3959-.1207.1121-.0285.2221-.0647.3292-.1083l.1125-.0333c.5417-.179 1.096-.3872 1.6669-.612.2833-.1166.5667-.2415.8542-.3705l.1751-.0791c.2875-.1333.575-.2665.8626-.4164.7667-.3747 1.5474-.8021 2.3419-1.2823.3584-.2165.7168-.4413 1.0835-.6786.1875-.1207.3792-.2457.5667-.3747.4918-.3303.989-.6828 1.4919-1.0575.0792-.05.15-.1083.2292-.1665l.275.3622c.2125.2914.5584.7577 1.0001 1.3989.1292.1915.2709.3913.4167.612.1459.2206.2417.3497.3668.5454.125.1956.2291.3455.35.537l.375.5788.1417.2206.4584.7328c.0667.1124.1375.2206.2042.3372l.4167.7036c2.2592 3.7865 4.2504 7.7264 5.9591 11.7906 3.6252 8.505 5.8595 17.5361 6.6175 26.7491.4167 5.454.7501 10.775 1.0251 15.763.2375 4.38.4167 8.514.5751 12.278.3417 6.257.4834 11.528.5625 15.192z" fill="#ff756b"/><path d="m62.2406 40.2657c0 .3331 0 .6578-.0292.9784.0021.036.0021.0722 0 .1082-.0404.6353-.1169 1.2678-.2292 1.8944-.0292.1873-.0708.383-.1167.5745-.3868 1.8045-1.0713 3.5323-2.0252 5.1126-.0792.1374-.1667.2748-.25.4163-.9087 1.4052-2.021 2.6679-3.3005 3.7471-.1875.1665-.3792.3205-.575.4663-4.2917 3.3183-9.9193 4.3712-15.122 2.8291-5.2027-1.542-9.3452-5.4907-11.1312-10.6105 0-.0458-.0334-.0832-.0459-.1249-.5892-1.7436-.8877-3.572-.8834-5.4123 0-.5787.0291-1.1533.0833-1.7195.8882-8.5913 8.1321-15.1221 16.7771-15.1255 1.0315-.0022 2.0611.0911 3.0754.279 1.5146.2782 2.983.7659 4.363 1.4488l.0833.0417c5.7212 2.8595 9.3324 8.705 9.3262 15.0963z" fill="#fff"/></g></g></svg>