<svg width="22" height="22" viewBox="0 0 22 22" fill="none" xmlns="http://www.w3.org/2000/svg">
<path fill-rule="evenodd" clip-rule="evenodd" d="M11 5C12.1046 5 13 4.10457 13 3C13 1.89543 12.1046 1 11 1C9.89543 1 9 1.89543 9 3C9 4.10457 9.89543 5 11 5Z" fill="#9FA4B4"/>
<path fill-rule="evenodd" clip-rule="evenodd" d="M11 13C12.1046 13 13 12.1046 13 11C13 9.89543 12.1046 9 11 9C9.89543 9 9 9.89543 9 11C9 12.1046 9.89543 13 11 13Z" fill="#9FA4B4"/>
<path fill-rule="evenodd" clip-rule="evenodd" d="M11 21C12.1046 21 13 20.1046 13 19C13 17.8954 12.1046 17 11 17C9.89543 17 9 17.8954 9 19C9 20.1046 9.89543 21 11 21Z" fill="#9FA4B4"/>
</svg>
