<svg width="153" height="30" viewBox="0 0 153 30" fill="none" xmlns="http://www.w3.org/2000/svg">
<path opacity="0.4" fill-rule="evenodd" clip-rule="evenodd" d="M22.9926 23.0021C22.7868 23.4543 22.5515 23.8916 22.2906 24.3126C21.7939 25.1125 21.2039 25.8492 20.5356 26.5086C19.867 27.168 19.1202 27.75 18.3097 28.2398C16.4805 29.3472 14.3292 29.9835 12.0291 29.9835H0V6.24849H6.01565V24.0508H18.0444C19.8077 24.0508 21.484 23.6763 22.9926 23.0021Z" fill="white"/>
<path opacity="0.21" fill-rule="evenodd" clip-rule="evenodd" d="M24.0578 18.116C24.0578 19.8579 23.6778 21.5116 22.9925 23.0022C21.484 23.6761 19.8077 24.0509 18.0444 24.0509H6.01562V6.2486H12.029C14.3288 6.2486 16.4804 6.88523 18.3097 7.99207C19.1202 8.48218 19.8669 9.06418 20.5356 9.72354C21.2039 10.3832 21.7938 11.12 22.2906 11.9195C23.4128 13.7243 24.0578 15.8467 24.0578 18.116Z" fill="white"/>
<path fill-rule="evenodd" clip-rule="evenodd" d="M30.0734 12.1835C30.0734 14.4528 29.4281 16.5752 28.3059 18.3799C27.8095 19.1795 27.2196 19.9162 26.5509 20.5759C25.8826 21.2353 25.1358 21.8173 24.3254 22.3074C23.8987 22.5645 23.4531 22.7991 22.9925 23.0021C23.6782 21.5116 24.0578 19.8578 24.0578 18.1159C24.0578 15.847 23.4128 13.7242 22.2906 11.9195C21.7938 11.1199 21.2039 10.3832 20.5356 9.72351C19.8669 9.06414 19.1202 8.48214 18.3097 7.99235C16.4804 6.88519 14.3292 6.24856 12.029 6.24856H6.01562V0.315826H18.0444C20.3445 0.315826 22.4961 0.952458 24.3254 2.05962C25.1358 2.54941 25.8826 3.13141 26.5509 3.79077C27.2196 4.45046 27.8095 5.18719 28.3059 5.98677C29.4281 7.79151 30.0734 9.91393 30.0734 12.1835Z" fill="white"/>
<path fill-rule="evenodd" clip-rule="evenodd" d="M43.1137 22.1818H45.5345C47.6029 22.1818 49.1892 21.6718 50.2941 20.6511C51.3984 19.6308 51.9509 18.1318 51.9509 16.1527C51.9509 14.2747 51.3927 12.8391 50.2762 11.846C49.1601 10.8528 47.4579 10.3558 45.1705 10.3558H43.1137V22.1818ZM40.1289 24.709V7.82849H44.9001C48.3234 7.82849 50.8818 8.54533 52.5738 9.97933C54.2657 11.4127 55.1117 13.4748 55.1117 16.1644C55.1117 18.9547 54.2833 21.0762 52.6266 22.5298C50.9695 23.9824 48.5545 24.709 45.3818 24.709H40.1289Z" fill="white"/>
<path fill-rule="evenodd" clip-rule="evenodd" d="M59.7782 17.3354H65.7714C65.6306 16.4932 65.313 15.8474 64.8198 15.3993C64.3259 14.9509 63.7225 14.7267 63.01 14.7267C62.1714 14.7267 61.4704 14.9588 60.9065 15.4224C60.3425 15.8859 59.9664 16.5238 59.7782 17.3354ZM63.2216 24.9756C61.1923 24.9756 59.5922 24.4037 58.421 23.2596C57.2498 22.1162 56.6641 20.6203 56.6641 18.7729C56.6641 17.9383 56.8052 17.1463 57.0872 16.3959C57.3692 15.6466 57.7668 14.9818 58.2798 14.402C58.7929 13.8226 59.4433 13.3628 60.2308 13.0227C61.0182 12.6826 61.8894 12.5127 62.8455 12.5127C63.801 12.5127 64.6354 12.6747 65.3486 12.9993C66.0614 13.3239 66.6254 13.778 67.0405 14.3613C67.4557 14.9455 67.7633 15.6005 67.963 16.3268C68.1627 17.0531 68.2629 17.8571 68.2629 18.7382C68.2629 18.9624 68.2431 19.1323 68.204 19.2482H59.7433C59.79 20.4077 60.1485 21.2657 60.8181 21.8222C61.4884 22.3786 62.3792 22.6571 63.4918 22.6571C64.7923 22.6571 66.0614 22.232 67.2992 21.3816L68.0866 23.4684C67.3264 23.9866 66.5604 24.3671 65.789 24.6106C65.0173 24.8544 64.1614 24.9756 63.2216 24.9756Z" fill="white"/>
<path fill-rule="evenodd" clip-rule="evenodd" d="M76.172 24.9758C75.1922 24.9758 74.2976 24.8055 73.4865 24.4654C72.6757 24.1257 72.0118 23.6655 71.4949 23.0861C70.9777 22.506 70.5782 21.8434 70.2965 21.0975C70.0142 20.352 69.873 19.5691 69.873 18.7497C69.873 17.5752 70.1179 16.5183 70.6076 15.5788C71.0974 14.64 71.8217 13.8938 72.7816 13.3414C73.7413 12.7885 74.8596 12.5125 76.1368 12.5125C78.0323 12.5125 79.4896 13.0459 80.5081 14.1126L79.4624 15.9672C78.5924 15.2097 77.5858 14.8313 76.4424 14.8313C75.2985 14.8313 74.4208 15.1866 73.8098 15.8978C73.199 16.6089 72.8934 17.5632 72.8934 18.7613C72.8934 19.9285 73.2182 20.8699 73.8687 21.5845C74.5187 22.2994 75.4079 22.6569 76.5362 22.6569C76.6927 22.6569 76.8496 22.6493 77.0061 22.6339C77.163 22.6184 77.3038 22.5991 77.4296 22.5758C77.5544 22.5527 77.6856 22.5199 77.823 22.4775C77.96 22.4349 78.0755 22.3964 78.1696 22.3613C78.2637 22.3263 78.3693 22.2783 78.4868 22.2164C78.6046 22.1545 78.6965 22.1059 78.7631 22.0718C78.8296 22.0364 78.9138 21.9843 79.0159 21.9151C79.1174 21.8453 79.1862 21.7989 79.2214 21.7759C79.2569 21.7528 79.3194 21.7083 79.4096 21.6426C79.4996 21.5766 79.5485 21.54 79.5562 21.5324L80.4377 23.6422C79.764 24.1064 79.0902 24.444 78.4164 24.6568C77.7426 24.8697 76.9943 24.9758 76.172 24.9758Z" fill="white"/>
<path fill-rule="evenodd" clip-rule="evenodd" d="M81.9083 24.709H84.7164V12.8136H81.9083V24.709ZM81.8965 10.3558H84.7167V7.82852H81.8965V10.3558Z" fill="white"/>
<path fill-rule="evenodd" clip-rule="evenodd" d="M92.7906 22.657C93.3232 22.657 93.7896 22.5509 94.189 22.338C94.5885 22.1255 94.9041 21.8321 95.1349 21.457C95.366 21.0821 95.5385 20.6707 95.6518 20.2222C95.7655 19.7741 95.8228 19.291 95.8228 18.7728C95.8228 17.6138 95.5676 16.6687 95.0587 15.9382C94.5495 15.2081 93.7854 14.8424 92.7672 14.8424C92.0858 14.8424 91.5115 15.0243 91.0458 15.3875C90.5795 15.751 90.2466 16.2149 90.0465 16.7789C89.8471 17.3432 89.7469 17.9924 89.7469 18.7267C89.7469 19.26 89.8036 19.7549 89.9172 20.2106C90.0308 20.6666 90.2034 21.0821 90.4348 21.457C90.6656 21.8321 90.9828 22.1255 91.3861 22.338C91.7897 22.5509 92.2577 22.657 92.7906 22.657ZM92.1914 24.9758C90.6323 24.9758 89.326 24.4115 88.2723 23.2826C87.2183 22.1546 86.6914 20.6666 86.6914 18.8198C86.6914 17.977 86.8127 17.1806 87.056 16.4312C87.2986 15.6815 87.6494 15.013 88.1078 14.4253C88.5661 13.8379 89.1673 13.3724 89.9114 13.0282C90.6556 12.6843 91.4904 12.5126 92.4145 12.5126C93.2448 12.5126 93.948 12.6802 94.5242 13.0169C95.0997 13.3529 95.5011 13.7031 95.7286 14.0662V7.81708H98.6193V21.5321C98.6193 21.5786 98.6545 22.6374 98.725 24.709H95.7405L95.7168 23.19C95.6464 23.3681 95.5286 23.5494 95.3641 23.7348C95.1996 23.9208 94.9803 24.1115 94.706 24.3089C94.4317 24.5062 94.0754 24.6667 93.6369 24.7901C93.1977 24.9136 92.716 24.9758 92.1914 24.9758Z" fill="white"/>
<path fill-rule="evenodd" clip-rule="evenodd" d="M103.733 17.3354H109.726C109.585 16.4932 109.268 15.8474 108.775 15.3993C108.281 14.9509 107.678 14.7267 106.965 14.7267C106.127 14.7267 105.425 14.9588 104.861 15.4224C104.297 15.8859 103.921 16.5238 103.733 17.3354ZM107.176 24.9756C105.147 24.9756 103.547 24.4037 102.376 23.2596C101.205 22.1162 100.619 20.6203 100.619 18.7729C100.619 17.9383 100.76 17.1463 101.042 16.3959C101.324 15.6466 101.722 14.9818 102.235 14.402C102.748 13.8226 103.398 13.3628 104.186 13.0227C104.973 12.6826 105.845 12.5127 106.8 12.5127C107.756 12.5127 108.59 12.6747 109.303 12.9993C110.016 13.3239 110.58 13.778 110.996 14.3613C111.41 14.9455 111.718 15.6005 111.918 16.3268C112.118 17.0531 112.218 17.8571 112.218 18.7382C112.218 18.9624 112.198 19.1323 112.159 19.2482H103.698C103.745 20.4077 104.103 21.2657 104.773 21.8222C105.443 22.3786 106.334 22.6571 107.447 22.6571C108.747 22.6571 110.016 22.232 111.254 21.3816L112.041 23.4684C111.281 23.9866 110.515 24.3671 109.744 24.6106C108.972 24.8544 108.116 24.9756 107.176 24.9756Z" fill="white"/>
<path fill-rule="evenodd" clip-rule="evenodd" d="M114.252 24.709V7.81708H117.166V14.3561C117.456 13.8073 117.966 13.3627 118.694 13.0226C119.423 12.6824 120.116 12.5126 120.774 12.5126C121.33 12.5126 121.837 12.5782 122.296 12.7093C122.754 12.841 123.14 13.015 123.453 13.2313C123.767 13.4476 124.041 13.7126 124.276 14.0255C124.511 14.3381 124.695 14.6552 124.828 14.976C124.961 15.2969 125.069 15.6506 125.151 16.0371C125.234 16.4236 125.288 16.7754 125.316 17.0918C125.343 17.4089 125.357 17.7414 125.357 18.0891V24.709H122.443V17.9959C122.443 16.8755 122.267 16.0699 121.914 15.5789C121.561 15.0881 121.033 14.8424 120.327 14.8424C119.528 14.8424 118.802 15.115 118.147 15.6603C117.493 16.2048 117.166 16.8329 117.166 17.544V24.709H114.252Z" fill="white"/>
<path fill-rule="evenodd" clip-rule="evenodd" d="M132.079 24.9758C130.622 24.9758 129.486 24.564 128.672 23.741C127.857 22.9178 127.449 21.7872 127.449 20.3498V12.8134H130.34V20.3033C130.34 21.0916 130.548 21.6811 130.963 22.0718C131.378 22.4621 131.95 22.6569 132.679 22.6569C133.548 22.6569 134.193 22.4428 134.612 22.0133C135.031 21.5845 135.24 20.8948 135.24 19.9437V12.8134H138.154V21.509L138.296 24.7089H135.287L135.24 22.9468C135.201 23.1167 135.113 23.3046 134.976 23.5089C134.839 23.7142 134.651 23.9321 134.412 24.1642C134.173 24.396 133.848 24.5892 133.436 24.744C133.025 24.8981 132.573 24.9758 132.079 24.9758Z" fill="white"/>
<path fill-rule="evenodd" clip-rule="evenodd" d="M146.628 22.657C147.168 22.657 147.645 22.5509 148.055 22.338C148.467 22.1255 148.792 21.834 149.031 21.463C149.27 21.0916 149.45 20.682 149.571 20.2339C149.693 19.7855 149.754 19.3027 149.754 18.7844C149.754 17.641 149.495 16.6977 148.978 15.9556C148.461 15.2141 147.709 14.8424 146.722 14.8424C145.696 14.8424 144.881 15.216 144.278 15.9619C143.674 16.7078 143.373 17.6328 143.373 18.7383C143.373 19.4416 143.488 20.0814 143.719 20.6571C143.95 21.2331 144.317 21.7102 144.818 22.0889C145.319 22.4672 145.923 22.657 146.628 22.657ZM147.168 24.9758C146.361 24.9758 145.627 24.8037 144.965 24.4595C144.303 24.1159 143.827 23.7082 143.537 23.2364V24.709H140.553C140.568 24.1835 140.583 23.7161 140.599 23.3066C140.615 22.8967 140.627 22.6049 140.634 22.4306C140.642 22.2569 140.648 22.1059 140.652 21.9787C140.656 21.8511 140.658 21.7642 140.658 21.7178V21.5555V7.81708H143.549V14.4834C143.588 14.3441 143.686 14.1742 143.843 13.9731C143.999 13.7722 144.221 13.5578 144.507 13.3298C144.793 13.1021 145.184 12.9086 145.682 12.75C146.179 12.5918 146.726 12.5126 147.321 12.5126C149.013 12.5126 150.349 13.0882 151.328 14.2399C152.307 15.3916 152.797 16.8796 152.797 18.7033C152.797 19.6153 152.646 20.466 152.345 21.2539C152.043 22.0428 151.638 22.7072 151.129 23.2484C150.619 23.7894 150.022 24.2126 149.337 24.5179C148.651 24.8227 147.928 24.9758 147.168 24.9758Z" fill="white"/>
</svg>
