<svg width="298" height="387" viewBox="0 0 298 387" fill="none" xmlns="http://www.w3.org/2000/svg">
<path fill-rule="evenodd" clip-rule="evenodd" d="M152.132 291.026C232.688 291.026 297.992 225.878 297.992 145.513C297.992 65.1485 232.688 0 152.132 0C71.5761 0 6.27242 65.1485 6.27242 145.513C6.27242 225.878 71.5761 291.026 152.132 291.026Z" fill="#FFE2CD"/>
<path fill-rule="evenodd" clip-rule="evenodd" d="M145.796 367.763C145.355 369.598 144.561 371.33 143.457 372.862C135.646 384.458 113.016 372.694 109.467 367.227C108.649 365.94 108.089 364.507 107.817 363.008C112.405 367.92 118.32 371.403 124.848 373.037C136.183 376.018 144.61 370.017 145.796 367.763Z" fill="#FF756B" stroke="#323A4A" stroke-width="0.8" stroke-linecap="round" stroke-linejoin="round"/>
<path fill-rule="evenodd" clip-rule="evenodd" d="M145.796 367.747C144.602 370.033 136.183 376.002 124.848 373.021C118.32 371.387 112.405 367.904 107.817 362.992C107.82 362.955 107.82 362.917 107.817 362.88C107.016 358.493 108.554 354.089 109.691 352.754C114.48 355.756 120.539 355.873 125.44 353.058C127.451 356.143 129.886 359.699 134.861 360.363C136.327 360.546 141.013 360.578 142.359 361.226C144.306 362.169 146.541 364.047 145.796 367.747Z" fill="white" stroke="#323A4A" stroke-width="0.8" stroke-linecap="round" stroke-linejoin="round"/>
<path fill-rule="evenodd" clip-rule="evenodd" d="M139.147 298.347C131.633 328.58 125.432 353.074 125.432 353.074C125.432 353.074 118.303 359.052 109.675 353.138C109.675 353.138 117.117 294.103 107.624 277.472C102.313 268.194 91.7872 259.795 84.1369 252.378L83.3359 251.635C81.7356 250.076 80.2194 248.432 78.7938 246.712C78.5134 246.369 81.7818 243.636 81.5254 243.308C79.0101 240.111 77.1836 237.562 76.5748 235.868C74.7483 230.713 72.0968 210.382 86.3639 202.99C89.7525 201.223 94.0943 200.185 99.6377 200.256L100.615 201.663C101.721 203.261 103.691 206.138 106.126 209.655L127.98 241.35C135.678 252.578 146.661 268.13 139.147 298.347Z" fill="white" stroke="#323A4A" stroke-width="0.8" stroke-linecap="round" stroke-linejoin="round"/>
<path opacity="0.3" fill-rule="evenodd" clip-rule="evenodd" d="M84.1129 252.378L83.7044 252.898C83.5459 252.489 83.4279 252.067 83.3519 251.635C82.7751 249.078 81.7497 243.564 81.5415 243.308C86.8766 229.067 90.0969 215.72 89.4961 205.044C88.5 204.27 87.4447 203.575 86.3399 202.966C89.7284 201.2 94.0703 200.161 99.6137 200.233L100.591 201.639C101.697 203.237 103.667 206.114 106.102 209.631C106.471 217.375 99.9341 232.223 84.1129 252.378Z" fill="#323A4A"/>
<path fill-rule="evenodd" clip-rule="evenodd" d="M27.3807 375.499C14.7478 381.549 0.6729 360.283 0.408545 353.785C0.349073 351.707 0.82631 349.649 1.79441 347.808C1.72231 348.415 0.280374 361.266 16.2138 370.009C19.2921 371.646 22.7391 372.472 26.2272 372.406C30.3447 372.254 32.7399 370.105 33.2286 368.882C33.3167 370.936 32.043 373.261 27.3807 375.499Z" fill="#FF756B" stroke="#323A4A" stroke-width="0.8" stroke-linecap="round" stroke-linejoin="round"/>
<path fill-rule="evenodd" clip-rule="evenodd" d="M33.2206 368.89C32.7319 370.112 30.3367 372.262 26.2192 372.414C22.7311 372.48 19.2841 371.654 16.2058 370.017C0.280381 361.274 1.72232 348.439 1.7864 347.816C3.52474 344.379 6.44866 341.958 7.91463 341.422C12.0882 348.854 18.9534 349.054 21.7812 349.198C21.9655 352.874 21.7812 357.621 25.7866 360.706C26.9482 361.609 30.9696 364.007 31.8107 365.238C32.61 366.301 33.0981 367.566 33.2206 368.89Z" fill="white" stroke="#323A4A" stroke-width="0.8" stroke-linecap="round" stroke-linejoin="round"/>
<path fill-rule="evenodd" clip-rule="evenodd" d="M85.6269 248.287C66.9859 295.398 21.8453 349.238 21.8453 349.238C7.58618 352.595 7.50607 341.822 7.50607 341.822C16.3259 334.853 37.8989 292.497 37.6505 250.572C37.4022 208.648 53.2795 198.57 53.2795 198.57C53.2795 198.57 69.6935 199.497 78.5054 200.592C80.2121 200.744 81.8997 201.063 83.5441 201.543C87.1169 203.054 97.0182 204.252 97.0182 204.252C97.7312 215.92 91.8353 232.615 85.6269 248.287Z" fill="white" stroke="#323A4A" stroke-width="0.8" stroke-linecap="round" stroke-linejoin="round"/>
<g opacity="0.1">
<path fill-rule="evenodd" clip-rule="evenodd" d="M97.0423 204.38C97.0462 204.348 97.0462 204.316 97.0423 204.284L96.2973 204.188L97.0423 204.38Z" fill="#323A4A"/>
<path fill-rule="evenodd" clip-rule="evenodd" d="M10.5181 347.959C20.2271 338.657 42.0324 296.013 43.4904 252.914C44.7561 215.281 56.5719 202.19 60.2409 198.994C56.1874 198.722 53.2555 198.554 53.2555 198.554C53.2555 198.554 37.3381 208.672 37.6505 250.572C37.963 292.473 16.3259 334.853 7.50607 341.798C7.61438 344.178 8.7045 346.408 10.5181 347.959Z" fill="#323A4A"/>
</g>
<path fill-rule="evenodd" clip-rule="evenodd" d="M87.0288 103.421C87.0288 103.421 92.4361 95.8127 95.8406 90.4982C99.2452 85.1837 129.165 40.4621 139.571 35.6191L143.497 51.7544C143.497 51.7544 104.244 112.308 100.855 124.231C97.4668 136.155 87.0288 103.421 87.0288 103.421Z" fill="white" stroke="#323A4A" stroke-width="0.8" stroke-linecap="round" stroke-linejoin="round"/>
<path fill-rule="evenodd" clip-rule="evenodd" d="M95.8166 90.4423C95.8166 90.4423 97.2025 102.326 111.422 103.605C111.422 103.605 103.243 116.503 103.034 120.387C102.826 124.271 87.1009 103.445 87.1009 103.445C87.1009 103.445 94.607 92.3922 95.8166 90.4423Z" fill="#FF756B" stroke="#323A4A" stroke-width="0.8" stroke-linecap="round" stroke-linejoin="round"/>
<g opacity="0.3">
<path fill-rule="evenodd" clip-rule="evenodd" d="M98.0196 96.1324C96.9054 94.4047 96.1558 92.4686 95.8166 90.4423C94.607 92.3922 87.1009 103.437 87.1009 103.437C87.1009 103.437 88.4307 105.187 90.3052 107.584C90.8019 106.865 95.7525 99.5688 98.0196 96.1324Z" fill="#323A4A"/>
</g>
<path fill-rule="evenodd" clip-rule="evenodd" d="M129.502 22.201L278.454 122.329L252.251 161.752L102.425 60.6092L129.502 22.201Z" fill="white" stroke="#323A4A" stroke-width="0.8" stroke-linecap="round" stroke-linejoin="round"/>
<path fill-rule="evenodd" clip-rule="evenodd" d="M88.9594 103.597C81.1569 114.657 67.9873 108.224 67.9873 108.224C72.1448 104.228 71.0874 97.3231 70.3905 94.502C70.2142 93.7029 70.054 93.2394 70.054 93.2394C82.7671 95.6369 85.3866 89.1556 85.691 88.2445C85.6889 88.2179 85.6889 88.1912 85.691 88.1646C85.6947 88.1965 85.6947 88.2286 85.691 88.2605C85.2858 91.7231 85.6245 95.232 86.6844 98.5538C87.2295 100.323 87.9937 102.017 88.9594 103.597Z" fill="white" stroke="#323A4A" stroke-width="0.8" stroke-linecap="round" stroke-linejoin="round"/>
<path opacity="0.3" fill-rule="evenodd" clip-rule="evenodd" d="M86.7324 98.5539C79.7551 100 73.5307 96.6439 70.4225 94.5021C70.2463 93.7029 70.0861 93.2394 70.0861 93.2394C82.7991 95.6369 85.4187 89.1556 85.7231 88.2446C85.3207 91.7135 85.6648 95.2282 86.7324 98.5539Z" fill="#323A4A"/>
<path fill-rule="evenodd" clip-rule="evenodd" d="M45.2047 134.948C45.495 131.15 46.4635 127.434 48.0645 123.976C49.0338 122.066 52.5425 118.589 54.8256 117.35C63.1568 112.819 67.074 109.359 67.9712 108.224C67.9712 108.224 73.9152 110.853 79.8111 109.407C83.4286 108.479 86.6505 106.414 88.9995 103.517C88.9995 103.517 108.225 112.491 108.786 144.394C108.826 146.944 108.786 149.637 108.538 152.49C108.105 158.116 107.659 163.199 107.2 167.738C104.508 194.375 101.504 203.421 101.504 203.421C101.504 203.421 68.8524 211.133 53.1674 198.626C53.1674 198.626 42.481 159.347 45.1566 134.924" fill="#404A59"/>
<path d="M45.2047 134.948C45.495 131.15 46.4635 127.434 48.0645 123.976C49.0338 122.066 52.5425 118.589 54.8256 117.35C63.1568 112.819 67.074 109.359 67.9712 108.224C67.9712 108.224 73.9152 110.853 79.8111 109.407C83.4286 108.479 86.6505 106.414 88.9995 103.517C88.9995 103.517 108.225 112.491 108.786 144.394C108.826 146.944 108.786 149.637 108.538 152.49C108.105 158.116 107.659 163.199 107.2 167.738C104.508 194.375 101.504 203.421 101.504 203.421C101.504 203.421 68.8524 211.133 53.1674 198.626C53.1674 198.626 42.481 159.347 45.1566 134.924" stroke="#323A4A" stroke-width="0.8"/>
<path opacity="0.3" fill-rule="evenodd" clip-rule="evenodd" d="M108.554 152.49C108.121 158.116 107.675 163.199 107.216 167.738C78.2891 176.817 50.5078 160.162 47.4397 142.388C47.0389 140.125 47.0715 137.807 47.5358 135.556C47.7191 134.604 47.9872 133.67 48.3369 132.766C56.1634 112.364 77.5921 136.762 77.8084 138.361C78.5054 138.856 92.6043 148.75 108.786 144.386C108.842 146.944 108.762 149.637 108.554 152.49Z" fill="#323A4A"/>
<path fill-rule="evenodd" clip-rule="evenodd" d="M72.5374 130.265L76.1021 132.423C76.1021 132.423 102.281 151.555 124.687 127.292C144.37 105.97 138.129 83.1618 140.949 75.6656C141.164 75.1733 141.664 74.8673 142.201 74.8995C142.738 74.9316 143.198 75.2951 143.352 75.8095C144.153 78.7584 145.323 83.9051 145.379 87.7011C145.379 87.7011 144.81 83.1618 147.133 82.6184C149.457 82.075 149.433 85.5194 149.449 87.1497C149.449 87.1497 149.176 83.0739 151.676 82.7143C154.175 82.3547 153.718 87.2935 153.646 87.6612C153.646 87.6612 153.911 82.8661 156.386 82.7383C158.861 82.6104 160.391 89.6511 158.789 99.5209C152.268 138.92 101.672 185.144 58.8951 153.865L60.8657 143.867L72.5374 130.265Z" fill="white" stroke="#323A4A" stroke-width="0.8" stroke-linecap="round" stroke-linejoin="round"/>
<path fill-rule="evenodd" clip-rule="evenodd" d="M144.802 31.6072C142.399 35.9867 138.89 34.732 140.797 31.1118C141.295 30.0378 142.016 29.0817 142.912 28.3067C144.466 27.2278 145.956 29.5694 144.802 31.6072Z" fill="white" stroke="#323A4A" stroke-width="0.8" stroke-linecap="round" stroke-linejoin="round"/>
<path fill-rule="evenodd" clip-rule="evenodd" d="M147.206 33.1736C144.874 37.4572 141.774 37.0336 143.625 33.5013C144.126 32.4418 144.803 31.4745 145.627 30.6402C147.053 29.4015 148.311 31.1677 147.206 33.1736Z" fill="white" stroke="#323A4A" stroke-width="0.8" stroke-linecap="round" stroke-linejoin="round"/>
<path fill-rule="evenodd" clip-rule="evenodd" d="M149.513 35.0996C147.182 39.3912 144.081 38.9676 145.932 35.4353C146.43 34.3742 147.108 33.4064 147.935 32.5742C149.352 31.3355 150.602 33.0697 149.513 35.0996Z" fill="white" stroke="#323A4A" stroke-width="0.8" stroke-linecap="round" stroke-linejoin="round"/>
<path fill-rule="evenodd" clip-rule="evenodd" d="M151.716 37.0096C149.385 41.3012 146.276 40.8776 148.135 37.3453C148.632 36.2857 149.307 35.3182 150.13 34.4843C151.555 33.2455 152.813 34.9798 151.716 37.0096Z" fill="white" stroke="#323A4A" stroke-width="0.8" stroke-linecap="round" stroke-linejoin="round"/>
<path fill-rule="evenodd" clip-rule="evenodd" d="M76.0461 67.7059C81.6191 67.7515 86.615 71.1438 88.7018 76.2992C90.7886 81.4547 89.5548 87.3567 85.5762 91.2501C81.5977 95.1436 75.6591 96.2609 70.5324 94.0803C65.4057 91.8997 62.102 86.8514 62.1634 81.2918C62.2515 73.722 68.458 67.6481 76.0461 67.7059Z" fill="white" stroke="#323A4A" stroke-width="0.8" stroke-linecap="round" stroke-linejoin="round"/>
<path fill-rule="evenodd" clip-rule="evenodd" d="M59.0633 154.024C59.0633 154.024 39.8936 143.979 46.6626 126.853C54.7855 106.29 76.4226 131.448 76.1422 132.495C76.1422 132.495 74.0434 147.575 59.0633 154.024Z" fill="#FF756B" stroke="#323A4A" stroke-width="0.8" stroke-linecap="round" stroke-linejoin="round"/>
<path fill-rule="evenodd" clip-rule="evenodd" d="M110.072 156.284C111.885 155.881 113.245 155.058 113.108 154.446C112.972 153.834 111.391 153.665 109.577 154.068C107.763 154.472 106.404 155.294 106.54 155.906C106.677 156.518 108.258 156.687 110.072 156.284Z" fill="white" stroke="#323A4A" stroke-width="0.8" stroke-linecap="round" stroke-linejoin="round"/>
<path fill-rule="evenodd" clip-rule="evenodd" d="M73.3144 81.995C73.9603 81.995 74.484 81.4726 74.484 80.8282C74.484 80.1838 73.9603 79.6614 73.3144 79.6614C72.6685 79.6614 72.1448 80.1838 72.1448 80.8282C72.1448 81.4726 72.6685 81.995 73.3144 81.995Z" fill="#323A4A"/>
<path fill-rule="evenodd" clip-rule="evenodd" d="M76.014 91.3853C76.66 91.3853 77.1836 90.8629 77.1836 90.2185C77.1836 89.5741 76.66 89.0517 76.014 89.0517C75.3681 89.0517 74.8445 89.5741 74.8445 90.2185C74.8445 90.8629 75.3681 91.3853 76.014 91.3853Z" fill="#323A4A"/>
<path fill-rule="evenodd" clip-rule="evenodd" d="M80.8766 80.3567C81.5225 80.3567 82.0461 79.8343 82.0461 79.1899C82.0461 78.5455 81.5225 78.0231 80.8766 78.0231C80.2306 78.0231 79.707 78.5455 79.707 79.1899C79.707 79.8343 80.2306 80.3567 80.8766 80.3567Z" fill="#323A4A"/>
<path d="M75.0768 75.3699L80.2838 85.3435L78.193 86.798" stroke="#323A4A" stroke-width="0.8" stroke-linecap="round" stroke-linejoin="round"/>
<path fill-rule="evenodd" clip-rule="evenodd" d="M69.1648 87.2935C70.5452 87.2935 71.6642 86.1772 71.6642 84.8001C71.6642 83.423 70.5452 82.3067 69.1648 82.3067C67.7845 82.3067 66.6655 83.423 66.6655 84.8001C66.6655 86.1772 67.7845 87.2935 69.1648 87.2935Z" fill="#FF756B"/>
<path opacity="0.3" fill-rule="evenodd" clip-rule="evenodd" d="M53.624 124.495C54.3824 122.374 55.5994 120.445 57.1888 118.845C53.0793 118.453 49.178 120.443 46.6626 126.837C39.8936 143.963 59.0633 154.008 59.0633 154.008C61.0476 153.158 62.9287 152.085 64.6708 150.812C60.377 148.15 47.9764 138.792 53.624 124.495Z" fill="#323A4A"/>
<path fill-rule="evenodd" clip-rule="evenodd" d="M61.4665 79.8213C61.4665 79.8213 60.7135 69.6718 72.0968 65.5321C72.0968 65.5321 72.0006 65.612 73.3304 67.3143C74.6602 69.0165 69.1168 79.9172 61.4665 79.8213Z" fill="#323A4A"/>
<path fill-rule="evenodd" clip-rule="evenodd" d="M71.8725 64.621C71.8725 64.621 70.6388 73.1642 79.8832 72.2052C89.1276 71.2462 93.9741 65.5321 92.2438 60.9129C92.2438 60.9129 91.5869 59.4344 89.9608 61.6242C89.2819 62.6282 88.4739 63.539 87.5575 64.3333C87.5575 64.3333 90.5455 61.816 89.416 60.2496C88.7111 59.2666 86.6123 61.9918 86.2117 62.4873C86.851 61.8297 87.3186 61.0257 87.5735 60.1457C87.6857 59.3465 86.9808 58.5473 85.5789 58.9549C82.8873 59.7541 81.926 62.1516 78.1529 64.1575C74.3798 66.1634 71.8725 64.621 71.8725 64.621Z" fill="#323A4A"/>
<path d="M74.6442 67.0665C74.6442 67.0665 81.1009 66.2673 85.3065 61.2245" stroke="white" stroke-width="0.8" stroke-linecap="round" stroke-linejoin="round"/>
<path d="M90.882 63.5501C88.6013 67.6417 84.3552 70.2589 79.6669 70.463" stroke="white" stroke-width="0.8" stroke-linecap="round" stroke-linejoin="round"/>
<path d="M64.6067 76.3689C64.6067 76.3689 65.5039 70.6468 70.062 68.6249" stroke="white" stroke-width="0.8" stroke-linecap="round" stroke-linejoin="round"/>
<path d="M87.3172 62.5272C87.3172 62.5272 87.141 63.4942 84.6096 65.2684" stroke="white" stroke-width="0.8" stroke-linecap="round" stroke-linejoin="round"/>
<path fill-rule="evenodd" clip-rule="evenodd" d="M71.8244 65.62C71.2896 64.662 70.2719 64.0731 69.1729 64.0856L71.8244 65.62Z" fill="white"/>
<path d="M71.8244 65.62C71.2896 64.662 70.2719 64.0731 69.1729 64.0856" stroke="#323A4A" stroke-width="0.8" stroke-linecap="round" stroke-linejoin="round"/>
<path fill-rule="evenodd" clip-rule="evenodd" d="M71.5761 60.2256C71.0042 61.2187 71.0195 62.4437 71.6161 63.4223L71.5761 60.2256Z" fill="white"/>
<path d="M71.5761 60.2256C71.0042 61.2187 71.0195 62.4437 71.6161 63.4223" stroke="#323A4A" stroke-width="0.8" stroke-linecap="round" stroke-linejoin="round"/>
<path fill-rule="evenodd" clip-rule="evenodd" d="M91.8593 105.299C82.2464 119.388 65.8003 110.278 65.8003 110.278C66.5886 109.662 67.3205 108.977 67.9873 108.232C67.9873 108.232 73.9232 110.853 79.8272 109.415C83.4431 108.483 86.6638 106.419 89.0155 103.525C90.0153 104.029 90.9671 104.623 91.8593 105.299Z" fill="#FF756B" stroke="#323A4A" stroke-width="0.8" stroke-linecap="round" stroke-linejoin="round"/>
<path fill-rule="evenodd" clip-rule="evenodd" d="M270.491 377.609C270.243 378.951 269.338 380.757 264.507 381.549C251.746 383.634 242.229 369.505 240.066 365.973C240.819 362.552 243.479 363.032 243.455 359.723C243.455 356.167 252.098 359.284 252.098 359.284C252.098 359.284 258.05 369.745 267.127 374.284C268.642 374.908 269.851 376.103 270.491 377.609Z" fill="#404A59" stroke="#323A4A" stroke-width="0.8"/>
<path fill-rule="evenodd" clip-rule="evenodd" d="M256.905 385.121C247.468 381.309 239.281 372.654 239.93 366.804C239.953 366.534 239.999 366.267 240.066 366.005C242.229 369.537 251.746 383.666 264.507 381.581C269.313 380.781 270.243 378.983 270.491 377.641C272.189 382.38 264.411 388.166 256.905 385.121Z" fill="white" stroke="#323A4A" stroke-width="0.8" stroke-linecap="round" stroke-linejoin="round"/>
<path fill-rule="evenodd" clip-rule="evenodd" d="M188.541 375.003C187.468 379.103 185.233 381.277 179.257 381.165C173.449 381.045 167.465 377.713 167.377 372.31C168.33 373.749 171.686 377.521 178.423 377.521C184.367 377.521 187.636 375.611 188.541 375.003Z" fill="white" stroke="#323A4A" stroke-width="0.8" stroke-linecap="round" stroke-linejoin="round"/>
<path fill-rule="evenodd" clip-rule="evenodd" d="M188.669 374.484C188.669 374.66 188.589 374.836 188.541 375.003C187.636 375.619 184.367 377.521 178.423 377.521C171.686 377.521 168.33 373.749 167.377 372.31C167.371 371.912 167.392 371.514 167.441 371.119C168.242 365.022 169.668 354.72 168.987 352.131C168.306 349.542 176.493 350.477 176.493 350.477L178.896 351.444C178.896 351.444 179.801 357.717 182.205 361.218C184.608 364.718 189.703 370.017 188.669 374.484Z" fill="#404A59" stroke="#323A4A" stroke-width="0.8"/>
<path fill-rule="evenodd" clip-rule="evenodd" d="M253.308 360.426C251.921 361.423 250.346 362.127 248.678 362.496L248.125 362.592L247.773 362.64H247.308C245.361 362.772 243.437 362.148 241.941 360.898C241.941 360.898 210.603 250.141 207.903 229.81C206.701 220.763 205.139 217.279 203.713 217.255C201.927 217.255 200.317 222.545 199.772 229.147C198.779 241.062 181.387 355.064 181.387 355.064C181.387 355.064 172.688 359.667 168.13 353.578C168.13 353.578 162.867 249.086 166.648 223.816C170.429 198.546 172.504 194.886 172.504 194.886C172.504 194.886 195.342 212.468 236.806 194.343C236.806 194.343 244.688 230.793 247.068 245.114C249.447 259.435 254.245 337.786 253.308 360.426Z" fill="#404A59" stroke="#323A4A" stroke-width="0.8"/>
<path opacity="0.1" fill-rule="evenodd" clip-rule="evenodd" d="M248.678 362.496L248.125 362.592L247.773 362.64H247.308C245.361 362.772 243.437 362.148 241.941 360.898C241.941 360.898 210.603 250.141 207.903 229.81C206.701 220.763 205.139 217.279 203.713 217.255C206.717 214.674 212.061 218.166 213.727 230.737C216.427 251.06 247.773 361.857 247.773 361.857C248.059 362.09 248.362 362.304 248.678 362.496Z" fill="#323A4A"/>
<g opacity="0.1">
<path fill-rule="evenodd" clip-rule="evenodd" d="M173.961 354.505C173.961 354.505 168.69 250.013 172.48 224.743C174.987 208.048 176.733 200.768 177.63 197.779C175.827 196.989 174.109 196.017 172.504 194.878C172.504 194.878 170.445 198.546 166.656 223.816C162.867 249.086 168.13 353.578 168.13 353.578C170.373 356.574 173.617 356.982 176.333 356.622C175.403 356.089 174.596 355.367 173.961 354.505Z" fill="#323A4A"/>
</g>
<path fill-rule="evenodd" clip-rule="evenodd" d="M217.388 100.856C209.065 106.809 194.429 102.829 194.429 102.829C196.72 100.776 196.696 95.7728 196.4 92.5201C196.231 90.762 195.991 89.5153 195.991 89.5153C201.521 92.411 208.202 92.0236 213.358 88.5083C213.396 90.0213 213.556 91.5287 213.839 93.0156C214.912 98.5619 217.388 100.856 217.388 100.856Z" fill="white" stroke="#323A4A" stroke-width="0.8" stroke-linecap="round" stroke-linejoin="round"/>
<path opacity="0.3" fill-rule="evenodd" clip-rule="evenodd" d="M213.839 93.0156C208.457 96.3733 201.581 96.1779 196.4 92.5201C196.231 90.762 195.991 89.5153 195.991 89.5153C201.521 92.411 208.202 92.0236 213.358 88.5083C213.396 90.0213 213.556 91.5287 213.839 93.0156Z" fill="#323A4A"/>
<path fill-rule="evenodd" clip-rule="evenodd" d="M215.489 64.4532C215.489 64.4532 224.181 67.1864 219.871 76.9203C219.847 76.9203 219.326 69.2482 215.489 64.4532Z" fill="#323A4A"/>
<path fill-rule="evenodd" clip-rule="evenodd" d="M256.817 133.646C253.132 140.359 238.392 136.89 238.392 136.89C238.395 136.903 238.395 136.917 238.392 136.93C239.329 141.342 242.261 159.091 229.484 163.135C221.842 165.532 210.45 161.185 195.038 148.998C195.038 148.998 188.91 142.532 186.09 142.756C183.478 142.98 184.744 145.273 185.529 146.105C184.984 145.601 183.238 144.139 182.325 144.962C181.412 145.785 182.06 147.431 182.733 148.318C182.06 147.591 180.37 146.089 179.128 147.599C178.215 148.71 178.888 149.997 179.609 150.796C178.415 149.781 176.509 148.558 175.371 149.829C173.281 152.154 175.195 154.496 175.836 155.647C176.477 156.798 185.617 174.827 218.413 179.974C227.225 181.348 234.803 180.725 240.923 178.295C240.819 185.184 240.443 191.13 239.762 194.526C237.591 205.251 214.127 204.42 207.991 204.796C201.855 205.171 184.255 206.282 172.143 196.708C160.175 187.23 170.933 146.456 171.19 145.561L162.378 153.097C162.378 153.097 153.51 147.775 155.825 136.147C158.14 124.519 168.594 113.347 176.565 109.143C183.719 105.379 195.791 100.871 195.791 100.871C206.133 106.026 216.443 99.6727 216.443 99.6727C235.244 101.854 246.21 114.178 251.874 123.36C253.909 126.597 255.59 130.043 256.889 133.638L256.817 133.646Z" fill="white" stroke="#323A4A" stroke-width="0.8" stroke-linecap="round" stroke-linejoin="round"/>
<path fill-rule="evenodd" clip-rule="evenodd" d="M221.858 105.842L259.148 281.125L212.838 291.298L175.628 114.673L221.858 105.842Z" fill="#FF756B" stroke="#323A4A" stroke-width="0.8" stroke-linecap="round" stroke-linejoin="round"/>
<path opacity="0.3" fill-rule="evenodd" clip-rule="evenodd" d="M225.014 180.509C225.014 180.509 187.652 205.283 166.744 179.23C166.52 170.871 167.945 161.417 169.283 154.584C170.618 154.335 171.919 153.933 173.16 153.385C173.16 153.385 175.924 179.494 225.014 180.509Z" fill="#323A4A"/>
<path opacity="0.1" fill-rule="evenodd" clip-rule="evenodd" d="M155.777 140.95C158.076 129.314 168.546 118.15 176.517 113.946C183.671 110.174 195.55 104.54 195.55 104.54C206.237 105.643 216.002 102.142 215.874 103.645C234.675 105.826 246.13 118.981 251.794 128.163C253.199 130.437 254.449 132.802 255.535 135.244C256.047 134.785 256.48 134.245 256.817 133.646C255.518 130.051 253.837 126.605 251.802 123.368C246.138 114.186 235.172 101.862 216.37 99.6807C216.37 99.6807 206.061 106.074 195.719 100.879C195.719 100.879 183.703 105.387 176.493 109.151C168.522 113.355 158.068 124.519 155.753 136.155C155.333 138.174 155.259 140.249 155.537 142.293C155.617 141.837 155.681 141.397 155.777 140.95Z" fill="#323A4A"/>
<path fill-rule="evenodd" clip-rule="evenodd" d="M240.891 178.319C234.771 180.717 227.185 181.372 218.381 179.997C185.585 174.867 176.437 156.822 175.804 155.671C175.171 154.52 173.249 152.178 175.339 149.853C176.477 148.582 178.383 149.805 179.577 150.82C178.856 149.973 178.183 148.71 179.096 147.623C180.338 146.113 182.028 147.623 182.701 148.342C182.028 147.455 181.315 145.857 182.293 144.986C183.27 144.115 184.984 145.625 185.497 146.129C184.696 145.329 183.446 143.004 186.058 142.78C188.878 142.556 195.006 149.022 195.006 149.022C210.458 161.209 221.85 165.572 229.452 163.159C242.269 159.115 239.297 141.366 238.36 136.954C240.13 144.051 241.124 163.383 240.891 178.319Z" fill="#FF756B" stroke="#323A4A" stroke-width="0.8" stroke-linecap="round" stroke-linejoin="round"/>
<path fill-rule="evenodd" clip-rule="evenodd" d="M155.409 140.167C155.409 140.167 163.596 146.097 172.512 143.939C172.512 143.939 170.525 170.112 218.645 179.902C218.645 179.902 156.578 206.482 155.409 140.167Z" fill="white" stroke="#323A4A" stroke-width="0.8" stroke-linecap="round" stroke-linejoin="round"/>
<path fill-rule="evenodd" clip-rule="evenodd" d="M258.155 142.117C252.651 147.048 243.431 145.449 239.361 144.418C239.263 141.901 238.952 139.396 238.432 136.93C238.435 136.917 238.435 136.903 238.432 136.89C238.432 136.89 253.14 140.359 256.857 133.646C257.454 136.442 257.888 139.27 258.155 142.117Z" fill="#FF756B" stroke="#323A4A" stroke-width="0.8" stroke-linecap="round" stroke-linejoin="round"/>
<path fill-rule="evenodd" clip-rule="evenodd" d="M240.891 178.319C234.771 180.717 227.185 181.372 218.381 179.997C185.585 174.867 176.437 156.821 175.804 155.671C175.171 154.52 173.249 152.178 175.339 149.853C176.477 148.582 178.383 149.805 179.577 150.82C178.856 149.973 178.183 148.71 179.096 147.623C180.338 146.113 182.028 147.623 182.701 148.342C182.028 147.455 181.315 145.857 182.293 144.986C183.27 144.115 184.984 145.625 185.497 146.129C184.696 145.329 183.446 143.004 186.058 142.78C188.878 142.556 195.006 149.022 195.006 149.022C210.458 161.209 221.85 165.572 229.452 163.159C238.12 160.418 239.562 151.363 239.289 144.442C243.359 145.473 252.579 147.072 258.082 142.141C260.005 160.634 253.564 173.3 240.891 178.319Z" fill="white" stroke="#323A4A" stroke-width="0.8" stroke-linecap="round" stroke-linejoin="round"/>
<path fill-rule="evenodd" clip-rule="evenodd" d="M214.32 161.153C218.127 158.77 221.793 156.171 225.302 153.369C225.302 153.369 231.439 146.904 234.25 147.136C237.062 147.367 235.372 150.029 234.635 150.644C234.635 150.644 236.918 148.358 238.048 149.341C239.177 150.324 238.048 152.314 237.343 153.041C237.77 152.511 238.284 152.057 238.865 151.699C237.887 156.646 235.324 161.289 229.516 163.135C225.503 164.406 220.448 163.83 214.32 161.153Z" fill="white" stroke="#323A4A" stroke-width="0.8" stroke-linecap="round" stroke-linejoin="round"/>
<path opacity="0.01" fill-rule="evenodd" clip-rule="evenodd" d="M204.17 92.9117C212.872 92.9117 219.927 85.8738 219.927 77.192C219.927 68.5102 212.872 61.4723 204.17 61.4723C195.468 61.4723 188.413 68.5102 188.413 77.192C188.413 85.8738 195.468 92.9117 204.17 92.9117Z" fill="white" stroke="#323A4A" stroke-width="0.8" stroke-linecap="round" stroke-linejoin="round"/>
<path fill-rule="evenodd" clip-rule="evenodd" d="M204.17 92.9117C212.872 92.9117 219.927 85.8738 219.927 77.192C219.927 68.5102 212.872 61.4723 204.17 61.4723C195.468 61.4723 188.413 68.5102 188.413 77.192C188.413 85.8738 195.468 92.9117 204.17 92.9117Z" fill="white" stroke="#323A4A" stroke-width="0.8" stroke-linecap="round" stroke-linejoin="round"/>
<path fill-rule="evenodd" clip-rule="evenodd" d="M191.537 61.4083C191.537 61.4083 194.437 59.6342 196.344 61.2485C198.25 62.8628 193.46 66.6589 191.433 72.4929C189.406 78.3268 189.158 81.084 189.422 82.4186C189.39 82.4186 177.038 69.4081 191.537 61.4083Z" fill="#323A4A"/>
<path fill-rule="evenodd" clip-rule="evenodd" d="M200.269 66.9067C200.269 66.9067 190.792 62.9827 192.258 54.9191C192.867 51.5945 201.214 45.2331 205.876 45.1612C209.665 45.1052 208.151 54.951 211.252 58.4274C213.366 60.825 217.196 64.1815 217.828 68.6888C217.828 68.6888 210.859 70.9025 208.512 64.6929C208.512 64.6929 210.611 68.7927 208.183 68.9046C205.756 69.0165 202.696 65.5081 203.633 63.5102C203.633 63.5102 202.688 66.8427 200.221 66.8987" fill="#323A4A"/>
<path fill-rule="evenodd" clip-rule="evenodd" d="M220.648 100.36C219.743 101.902 216.09 106.705 205.524 106.705C196.616 106.705 192.707 104.308 191.105 102.973C193.828 101.743 195.695 100.855 195.695 100.855C206.037 106.01 216.346 99.6567 216.346 99.6567C217.836 99.8326 219.27 100.064 220.648 100.36Z" fill="#FF756B" stroke="#323A4A" stroke-width="0.8" stroke-linecap="round" stroke-linejoin="round"/>
<path fill-rule="evenodd" clip-rule="evenodd" d="M199.86 75.29C200.431 75.29 200.894 74.8284 200.894 74.2591C200.894 73.6897 200.431 73.2281 199.86 73.2281C199.29 73.2281 198.827 73.6897 198.827 74.2591C198.827 74.8284 199.29 75.29 199.86 75.29Z" fill="#323A4A"/>
<path fill-rule="evenodd" clip-rule="evenodd" d="M209.193 75.5377C209.764 75.5377 210.226 75.0761 210.226 74.5068C210.226 73.9374 209.764 73.4758 209.193 73.4758C208.622 73.4758 208.159 73.9374 208.159 74.5068C208.159 75.0761 208.622 75.5377 209.193 75.5377Z" fill="#323A4A"/>
<path fill-rule="evenodd" clip-rule="evenodd" d="M204.17 86.4464C204.741 86.4464 205.203 85.9848 205.203 85.4155C205.203 84.8461 204.741 84.3845 204.17 84.3845C203.599 84.3845 203.137 84.8461 203.137 85.4155C203.137 85.9848 203.599 86.4464 204.17 86.4464Z" fill="#323A4A"/>
<path d="M203.385 70.5669L203.249 80.5406L205.492 80.8682" stroke="#323A4A" stroke-width="0.8" stroke-linecap="round" stroke-linejoin="round"/>
<path fill-rule="evenodd" clip-rule="evenodd" d="M197.769 81.0121C198.995 81.0121 199.988 80.021 199.988 78.7984C199.988 77.5758 198.995 76.5847 197.769 76.5847C196.544 76.5847 195.55 77.5758 195.55 78.7984C195.55 80.021 196.544 81.0121 197.769 81.0121Z" fill="#FF756B"/>
<path fill-rule="evenodd" clip-rule="evenodd" d="M210.114 81.8992C211.34 81.8992 212.333 80.908 212.333 79.6854C212.333 78.4629 211.34 77.4717 210.114 77.4717C208.889 77.4717 207.895 78.4629 207.895 79.6854C207.895 80.908 208.889 81.8992 210.114 81.8992Z" fill="#FF756B"/>
<path d="M177.438 129.21C173.91 133.278 172.139 138.573 172.512 143.939" stroke="#323A4A" stroke-width="0.8" stroke-linecap="round" stroke-linejoin="round"/>
<path d="M232.744 127.276C232.744 127.276 237.551 131.767 238.432 136.93" stroke="#323A4A" stroke-width="0.8" stroke-linecap="round" stroke-linejoin="round"/>
<path fill-rule="evenodd" clip-rule="evenodd" d="M172.512 143.939C163.596 146.097 155.409 140.167 155.409 140.167V141.118C155.302 139.448 155.417 137.771 155.753 136.131C155.998 134.904 156.325 133.694 156.73 132.511C159.262 134.628 165.198 138.664 172.944 138.009C172.494 139.951 172.348 141.952 172.512 143.939Z" fill="#FF756B" stroke="#323A4A" stroke-width="0.8" stroke-linecap="round" stroke-linejoin="round"/>
<path opacity="0.3" fill-rule="evenodd" clip-rule="evenodd" d="M240.891 178.319C240.891 179.918 240.835 181.444 240.779 182.914C239.782 183.336 238.76 183.696 237.719 183.993C231.391 185.815 223.78 185.712 215.145 183.49C183.006 175.218 175.644 156.39 175.091 155.175C174.538 153.96 172.888 151.451 175.203 149.333C176.333 148.302 177.887 149.333 178.984 150.372C177.807 149.501 176.277 148.774 175.307 149.853C173.217 152.178 175.131 154.52 175.772 155.671C176.413 156.821 185.553 174.851 218.349 179.997C227.185 181.412 234.771 180.749 240.891 178.319Z" fill="#323A4A"/>
<path opacity="0.1" fill-rule="evenodd" clip-rule="evenodd" d="M258.155 142.117C256.696 143.4 254.957 144.325 253.076 144.818L252.563 144.954L251.121 137.33L251.482 137.242C253.765 136.666 255.751 135.58 256.817 133.646C257.428 136.441 257.874 139.269 258.155 142.117Z" fill="#323A4A"/>
<path d="M199.34 49.7005C199.34 49.7005 193.283 54.4955 199.644 62.9348" stroke="white" stroke-width="0.8" stroke-linecap="round" stroke-linejoin="round"/>
<path d="M213.671 65.7878C212.881 63.2549 211.045 61.1789 208.624 60.0817" stroke="white" stroke-width="0.8" stroke-linecap="round" stroke-linejoin="round"/>
<path d="M191.513 60.2496C191.513 60.2496 187.339 58.3715 185.313 59.3065" stroke="#323A4A" stroke-width="0.8" stroke-linecap="round" stroke-linejoin="round"/>
<path d="M190.199 57.2127C190.199 57.2127 188.253 57.0449 188.253 54.2878" stroke="#323A4A" stroke-width="0.8" stroke-linecap="round" stroke-linejoin="round"/>
<path d="M203.473 55.7502C203.473 55.7502 202.776 62.3514 207.15 65.2924" stroke="white" stroke-width="0.8" stroke-linecap="round" stroke-linejoin="round"/>
<path opacity="0.3" fill-rule="evenodd" clip-rule="evenodd" d="M203.713 146.816C211.858 146.816 218.461 140.229 218.461 132.103C218.461 123.978 211.858 117.39 203.713 117.39C195.568 117.39 188.966 123.978 188.966 132.103C188.966 140.229 195.568 146.816 203.713 146.816Z" fill="#323A4A"/>
<path opacity="0.3" fill-rule="evenodd" clip-rule="evenodd" d="M135.181 69.5439C143.326 69.5439 149.929 62.9568 149.929 54.8312C149.929 46.7056 143.326 40.1184 135.181 40.1184C127.036 40.1184 120.434 46.7056 120.434 54.8312C120.434 62.9568 127.036 69.5439 135.181 69.5439Z" fill="#323A4A"/>
</svg>
