<svg width="120" height="120" viewBox="0 0 120 120" fill="none" xmlns="http://www.w3.org/2000/svg">
<path fill-rule="evenodd" clip-rule="evenodd" d="M60 120C93.1371 120 120 93.1371 120 60C120 26.8629 93.1371 0 60 0C26.8629 0 0 26.8629 0 60C0 93.1371 26.8629 120 60 120Z" fill="#13AC8B"/>
<path opacity="0.14" fill-rule="evenodd" clip-rule="evenodd" d="M51 119.329C53.9357 119.771 56.9411 120 60 120C93.1371 120 120 93.1371 120 60C120 26.8629 93.1371 0 60 0C56.9411 0 53.9357 0.228899 51 0.670502C79.8676 5.01285 102 29.9218 102 60C102 90.0782 79.8676 114.987 51 119.329Z" fill="#323A4A"/>
<path fill-rule="evenodd" clip-rule="evenodd" d="M57.4586 84L30 59.7701L39.4556 51.4269L57.4586 67.3131L89.5451 39L99 47.3432L57.4586 84Z" fill="white" stroke="#323A4A" stroke-width="0.6" stroke-linecap="round" stroke-linejoin="round"/>
</svg>
