<svg width="120" height="120" viewBox="0 0 120 120" fill="none" xmlns="http://www.w3.org/2000/svg">
<path fill-rule="evenodd" clip-rule="evenodd" d="M60 120C93.1371 120 120 93.1371 120 60C120 26.8629 93.1371 0 60 0C26.8629 0 0 26.8629 0 60C0 93.1371 26.8629 120 60 120Z" fill="url(#paint0_linear)"/>
<path fill-rule="evenodd" clip-rule="evenodd" d="M67.7261 81.7733L18.7606 108.531C15.989 109.873 12.6716 109.314 10.4942 107.136C8.31683 104.959 7.75683 101.641 9.09915 98.8696L35.8568 49.9041L67.7261 81.7733Z" fill="#FD919E"/>
<path fill-rule="evenodd" clip-rule="evenodd" d="M61.5649 75.6122L12.626 102.355C11.2964 102.999 9.84225 103.201 8.44775 103.001C8.65703 104.531 9.34978 105.991 10.4944 107.136C12.6718 109.313 15.9895 109.873 18.7608 108.531L67.7263 81.7733L61.5649 75.6122Z" fill="#F05E57"/>
<path fill-rule="evenodd" clip-rule="evenodd" d="M43.3444 95.0968L52.2293 90.2417L32.1693 56.6519L26.5386 66.9559L43.3444 95.0968Z" fill="white"/>
<path fill-rule="evenodd" clip-rule="evenodd" d="M23.8471 105.751L32.732 100.896L19.8129 79.2638L14.1821 89.5679L23.8471 105.751Z" fill="white"/>
<path fill-rule="evenodd" clip-rule="evenodd" d="M19.5571 98.5678L28.4418 93.7128L32.7319 100.896L23.847 105.751L19.5571 98.5678Z" fill="#F7FAFD"/>
<path fill-rule="evenodd" clip-rule="evenodd" d="M39.0544 87.9133L47.9391 83.058L52.2292 90.2418L43.3443 95.0968L39.0544 87.9133Z" fill="#F7FAFD"/>
<path fill-rule="evenodd" clip-rule="evenodd" d="M79.835 20.3154L83.8556 28.462L92.846 29.7684L86.3405 36.1099L87.8761 45.0638L79.835 40.8362L71.7935 45.0638L73.3295 36.1099L66.824 29.7684L75.8141 28.462L79.835 20.3154Z" fill="url(#paint1_linear)"/>
<path fill-rule="evenodd" clip-rule="evenodd" d="M109.474 77.16L104.149 73.5658C105.596 71.4223 105.552 68.5721 104.041 66.4736C101.172 62.4887 100.881 57.1521 103.299 52.8782L108.891 56.042C107.703 58.1414 107.846 60.7626 109.255 62.7197C112.331 66.9927 112.419 72.7959 109.474 77.16Z" fill="url(#paint2_linear)"/>
<path fill-rule="evenodd" clip-rule="evenodd" d="M85.5608 89.3008L80.2356 85.7066C81.6822 83.5632 81.639 80.713 80.128 78.6145C77.259 74.6295 76.9677 69.293 79.386 65.0191L84.9776 68.1829C83.7898 70.282 83.9329 72.9035 85.3419 74.8606C88.4185 79.1336 88.5063 84.9365 85.5608 89.3008Z" fill="url(#paint3_linear)"/>
<path fill-rule="evenodd" clip-rule="evenodd" d="M64.3701 38.0023L60.7759 43.3273C58.6324 41.8806 55.7823 41.9238 53.6837 43.4348C49.6988 46.3038 44.3623 46.5951 40.0884 44.1768L43.2521 38.5852C45.3513 39.7731 47.9727 39.6299 49.9298 38.2209C54.2029 35.145 60.0061 35.0568 64.3701 38.0023Z" fill="url(#paint4_linear)"/>
<path fill-rule="evenodd" clip-rule="evenodd" d="M45.5359 29.3383L41.9417 24.0133C39.7982 25.46 36.9481 25.4168 34.8495 23.9058C30.8646 21.0368 25.5281 20.7455 21.2542 23.1638L24.4179 28.7554C26.517 27.5675 29.1385 27.7107 31.0956 29.1197C35.3686 32.1959 41.1718 32.2838 45.5359 29.3383Z" fill="url(#paint5_linear)"/>
<path fill-rule="evenodd" clip-rule="evenodd" d="M58.9249 26.6961C61.5175 26.6961 63.6191 24.5944 63.6191 22.0019C63.6191 19.4093 61.5175 17.3077 58.9249 17.3077C56.3324 17.3077 54.2307 19.4093 54.2307 22.0019C54.2307 24.5944 56.3324 26.6961 58.9249 26.6961Z" fill="url(#paint6_linear)"/>
<path fill-rule="evenodd" clip-rule="evenodd" d="M92.3866 60.1576C94.9791 60.1576 97.0808 58.056 97.0808 55.4634C97.0808 52.8709 94.9791 50.7692 92.3866 50.7692C89.794 50.7692 87.6924 52.8709 87.6924 55.4634C87.6924 58.056 89.794 60.1576 92.3866 60.1576Z" fill="url(#paint7_linear)"/>
<path fill-rule="evenodd" clip-rule="evenodd" d="M70.4635 62.4653C73.056 62.4653 75.1577 60.3636 75.1577 57.7711C75.1577 55.1786 73.056 53.0769 70.4635 53.0769C67.871 53.0769 65.7693 55.1786 65.7693 57.7711C65.7693 60.3636 67.871 62.4653 70.4635 62.4653Z" fill="url(#paint8_linear)"/>
<path fill-rule="evenodd" clip-rule="evenodd" d="M41.8513 95.9884C42.176 96.5322 42.7525 96.8362 43.3458 96.8362C43.6281 96.8362 43.9139 96.7675 44.178 96.6232L53.0629 91.7681C53.478 91.5411 53.7826 91.1553 53.907 90.6991C54.0313 90.2432 53.9647 89.7559 53.7223 89.3501L33.6623 55.7603C33.3423 55.2243 32.7676 54.9026 32.136 54.913C31.5122 54.9252 30.9423 55.2704 30.6432 55.818L25.0125 66.122C24.7171 66.6623 24.7299 67.3188 25.0455 67.8475L41.8513 95.9884ZM43.9794 92.7681L28.5415 66.9177L32.2363 60.1559L49.8099 89.5823L43.9794 92.7681Z" fill="url(#paint9_linear)"/>
<path fill-rule="evenodd" clip-rule="evenodd" d="M22.354 106.643C22.6787 107.187 23.2552 107.491 23.8485 107.491C24.1308 107.491 24.4169 107.422 24.6807 107.278L33.5653 102.423C33.9804 102.196 34.285 101.81 34.4094 101.354C34.5337 100.898 34.4671 100.41 34.2247 100.005L21.3059 78.3722C20.9859 77.8362 20.4091 77.5055 19.7795 77.5249C19.1558 77.5368 18.5859 77.882 18.2868 78.4298L12.656 88.7339C12.3607 89.2742 12.3734 89.9307 12.6891 90.4594L22.354 106.643ZM24.4821 103.423L16.185 89.5296L19.8798 82.7678L30.3123 100.237L24.4821 103.423Z" fill="url(#paint10_linear)"/>
<path fill-rule="evenodd" clip-rule="evenodd" d="M9.26433 108.366C10.9591 110.06 13.2127 110.994 15.6101 110.994C16.9551 110.994 18.3067 110.683 19.5185 110.097C19.5443 110.084 19.5696 110.071 19.5945 110.057L68.56 83.2997C69.0409 83.0368 69.3695 82.5629 69.4475 82.0206C69.5255 81.4785 69.3432 80.931 68.9559 80.5438L37.0867 48.6742C36.6991 48.2869 36.1522 48.1043 35.6096 48.1826C35.0675 48.2606 34.5933 48.5896 34.3307 49.0701L7.57303 98.0356C7.55941 98.0606 7.54607 98.0858 7.5339 98.1116C5.87013 101.546 6.56578 105.667 9.26433 108.366ZM11.724 105.906C10.0811 104.263 9.65071 101.759 10.6472 99.6635L36.2693 52.7762L64.8542 81.3611L17.9667 106.983C17.224 107.336 16.4313 107.515 15.6101 107.515C14.1417 107.515 12.7614 106.944 11.724 105.906Z" fill="url(#paint11_linear)"/>
<defs>
<linearGradient id="paint0_linear" x1="60" y1="180" x2="180" y2="60" gradientUnits="userSpaceOnUse">
<stop stop-color="#FFDDC3"/>
<stop offset="1" stop-color="#FFE5D3"/>
</linearGradient>
<linearGradient id="paint1_linear" x1="64.3727" y1="27.6681" x2="78.7159" y2="53.049" gradientUnits="userSpaceOnUse">
<stop stop-color="#FF7E72"/>
<stop offset="1" stop-color="#FF5E5E"/>
</linearGradient>
<linearGradient id="paint2_linear" x1="100.731" y1="60.0924" x2="116.089" y2="70.6893" gradientUnits="userSpaceOnUse">
<stop stop-color="#FF7E72"/>
<stop offset="1" stop-color="#FF5E5E"/>
</linearGradient>
<linearGradient id="paint3_linear" x1="76.8175" y1="72.2332" x2="92.1757" y2="82.8306" gradientUnits="userSpaceOnUse">
<stop stop-color="#FF7E72"/>
<stop offset="1" stop-color="#FF5E5E"/>
</linearGradient>
<linearGradient id="paint4_linear" x1="37.801" y1="38.8099" x2="40.8988" y2="51.5255" gradientUnits="userSpaceOnUse">
<stop stop-color="#FF7E72"/>
<stop offset="1" stop-color="#FF5E5E"/>
</linearGradient>
<linearGradient id="paint5_linear" x1="18.9668" y1="24.4909" x2="22.0646" y2="37.2067" gradientUnits="userSpaceOnUse">
<stop stop-color="#FF7E72"/>
<stop offset="1" stop-color="#FF5E5E"/>
</linearGradient>
<linearGradient id="paint6_linear" x1="58.9249" y1="31.3903" x2="68.3133" y2="22.0019" gradientUnits="userSpaceOnUse">
<stop stop-color="#00C7B2"/>
<stop offset="1" stop-color="#00C9CF"/>
</linearGradient>
<linearGradient id="paint7_linear" x1="92.3866" y1="64.8518" x2="101.775" y2="55.4634" gradientUnits="userSpaceOnUse">
<stop stop-color="#00C7B2"/>
<stop offset="1" stop-color="#00C9CF"/>
</linearGradient>
<linearGradient id="paint8_linear" x1="70.4635" y1="67.1595" x2="79.8519" y2="57.7711" gradientUnits="userSpaceOnUse">
<stop stop-color="#00C7B2"/>
<stop offset="1" stop-color="#00C9CF"/>
</linearGradient>
<linearGradient id="paint9_linear" x1="10.2152" y1="75.8745" x2="49.5239" y2="103.224" gradientUnits="userSpaceOnUse">
<stop stop-color="#AAB1C5"/>
<stop offset="1" stop-color="#727993"/>
</linearGradient>
<linearGradient id="paint10_linear" x1="1.42936" y1="92.5074" x2="30.0305" y2="113.531" gradientUnits="userSpaceOnUse">
<stop stop-color="#AAB1C5"/>
<stop offset="1" stop-color="#727993"/>
</linearGradient>
<linearGradient id="paint11_linear" x1="-24.7761" y1="79.5792" x2="38.0527" y2="142.407" gradientUnits="userSpaceOnUse">
<stop stop-color="#AAB1C5"/>
<stop offset="1" stop-color="#727993"/>
</linearGradient>
</defs>
</svg>
