<svg width="170" height="170" viewBox="0 0 170 170" fill="none" xmlns="http://www.w3.org/2000/svg">
<path fill-rule="evenodd" clip-rule="evenodd" d="M78 170C121.078 170 156 135.078 156 92C156 48.9218 121.078 14 78 14C34.9218 14 0 48.9218 0 92C0 135.078 34.9218 170 78 170Z" fill="#F45E5D"/>
<path fill-rule="evenodd" clip-rule="evenodd" d="M109.908 140.802H44.9893C41.8958 140.802 39.3882 138.401 39.3882 135.438V48.9974C39.3882 46.0345 41.8961 43.6327 44.9893 43.6327H109.908C113.001 43.6327 115.509 46.0345 115.509 48.9974V135.438C115.509 138.401 113.001 140.802 109.908 140.802Z" fill="white" stroke="#323A4A" stroke-width="0.6" stroke-linecap="round" stroke-linejoin="round"/>
<path d="M55.4453 73.4584H88.7058" stroke="#404A59" stroke-width="0.6"/>
<path d="M55.4453 91.9931H96.4408" stroke="#404A59" stroke-width="0.6"/>
<path d="M55.4453 108.983H102.629" stroke="#404A59" stroke-width="0.6"/>
<path opacity="0.1" fill-rule="evenodd" clip-rule="evenodd" d="M109.934 43.6327H105.203V140.763H109.934C113.027 140.763 115.376 138.143 115.376 135.18V48.7395C115.376 45.7766 113.027 43.6327 109.934 43.6327Z" fill="#323A4A"/>
<path fill-rule="evenodd" clip-rule="evenodd" d="M143 53C157.359 53 169 41.3594 169 27C169 12.6406 157.359 1 143 1C128.641 1 117 12.6406 117 27C117 41.3594 128.641 53 143 53Z" fill="white" stroke="#323A4A" stroke-width="0.6" stroke-linecap="round" stroke-linejoin="round"/>
<path opacity="0.14" fill-rule="evenodd" clip-rule="evenodd" d="M139.1 52.7095C140.372 52.9008 141.674 53 143 53C157.359 53 169 41.3594 169 27C169 12.6406 157.359 1 143 1C141.674 1 140.372 1.09919 139.1 1.29055C151.609 3.17224 161.2 13.9661 161.2 27C161.2 40.0339 151.609 50.8278 139.1 52.7095Z" fill="#323A4A"/>
<path fill-rule="evenodd" clip-rule="evenodd" d="M141.899 37.4L130 26.9004L134.097 23.285L141.899 30.169L155.803 17.9L159.9 21.5154L141.899 37.4Z" fill="white" stroke="#323A4A" stroke-width="0.6" stroke-linecap="round" stroke-linejoin="round"/>
</svg>
