<svg width="433" height="347" viewBox="0 0 433 347" fill="none" xmlns="http://www.w3.org/2000/svg">
<path fill-rule="evenodd" clip-rule="evenodd" d="M144.55 166.908C145.559 167.283 146.53 167.754 147.45 168.314C153.57 172.143 159.16 195.116 142.51 203.482C138.508 205.49 135.982 209.574 135.98 214.041V262.741C135.98 262.741 136.22 289.952 105.55 289.952C84.4599 289.952 86.9898 264.745 86.9898 264.745L88.0798 217.88C88.207 214.559 86.8032 211.363 84.2693 209.203C81.7355 207.044 78.3501 206.16 75.0798 206.802C54.2999 210.781 15.5798 214.63 2.96985 191.756C-14.5702 159.918 90.6498 69.9778 90.6498 69.9778C110.65 51.7904 125.73 57.8828 132.44 68.5619C136.46 74.9734 135.95 86.0813 135.95 86.0813V154.264C135.902 159.851 139.326 164.885 144.55 166.908ZM58.3798 167.895C62.3098 172.531 75.4498 171.026 84.4498 169.311L84.4099 169.281C89.5898 168.294 93.3298 163.288 93.2699 157.505L92.7898 130.254C92.6798 125.019 86.8998 122.536 83.6798 126.345C72.1798 139.916 54.0898 162.829 58.3798 167.895Z" fill="#FFE2CD"/>
<path fill-rule="evenodd" clip-rule="evenodd" d="M423.74 171.794C424.757 172.159 425.732 172.63 426.65 173.199C432.77 177.018 438.36 200.002 421.68 208.398C417.704 210.409 415.194 214.472 415.18 218.917V267.617C415.18 267.617 415.42 294.828 384.75 294.828C363.66 294.828 366.19 269.621 366.19 269.621L367.28 222.756C367.408 219.436 366.004 216.239 363.469 214.082C360.935 211.924 357.549 211.042 354.28 211.688C333.5 215.667 294.78 219.565 282.17 196.632C264.63 164.794 369.85 74.8537 369.85 74.8537C389.85 56.6762 404.93 62.7586 411.64 73.4477C415.66 79.8592 415.15 90.9571 415.15 90.9571V159.14C415.1 164.728 418.519 169.764 423.74 171.794ZM337.58 172.781C341.51 177.417 354.65 175.912 363.65 174.197L363.61 174.157C368.78 173.18 372.53 168.164 372.46 162.391L371.99 135.139C371.87 129.915 366.1 127.432 362.87 131.241C351.38 144.811 333.29 167.725 337.58 172.781Z" fill="#FFE2CD"/>
<path fill-rule="evenodd" clip-rule="evenodd" d="M258.55 10.7091C272.41 21.2785 284.81 40.9317 287.81 76.9975C295.43 168.124 255.95 187.957 249.33 190.41C249.185 190.463 249.034 190.52 248.877 190.578C241.85 193.193 222.515 200.39 191.48 190.529C159.75 180.449 148.52 128.03 156.31 73.0888C160.9 40.7223 179.69 20.9395 194.36 10.2105C213 -3.45996 239.91 -3.50981 258.55 10.7091ZM228.785 131.852L228.81 131.839L228.78 131.799C230.67 130.832 242 123.154 240.62 89.4814C240.07 76.12 236.74 68.9508 232.92 65.1517C227.83 60.0365 220.19 60.2858 214.83 65.5007C210.58 69.6188 205.14 77.0972 203.58 89.1324C200.92 109.563 203.64 128.907 212.5 132.367C221.32 135.812 226.88 132.863 228.785 131.852Z" fill="#FFE2CD"/>
<path fill-rule="evenodd" clip-rule="evenodd" d="M201 44.0925C201 44.0925 181.27 49.5268 182 89.4813C182.48 116.862 204 132.497 204 132.497C216.06 105.026 213.66 75.3522 201 44.0925Z" fill="#323A4A"/>
<path fill-rule="evenodd" clip-rule="evenodd" d="M254.3 127.312C254.3 127.312 243.65 139.048 223.54 139.048C199.1 139.048 191.54 128.628 191.54 128.628C200.08 123.643 202.76 115.736 203.38 109.374C203.518 107.976 203.564 106.57 203.52 105.166C203.487 103.191 203.263 101.225 202.85 99.293C202.85 99.293 242.85 76.3593 241.4 93.5197C240.67 102.494 244.19 111.248 247.74 117.62C248.61 119.196 249.49 120.611 250.31 121.868C251.534 123.757 252.867 125.575 254.3 127.312Z" fill="white" stroke="#323A4A" stroke-width="0.6" stroke-linecap="round" stroke-linejoin="round"/>
<path opacity="0.3" fill-rule="evenodd" clip-rule="evenodd" d="M247.72 117.66C224.72 121.25 211.02 112.964 203.5 105.206C203.467 103.231 203.243 101.265 202.83 99.333C202.83 99.333 242.83 76.3992 241.38 93.5597C240.65 102.474 244.17 111.249 247.72 117.66Z" fill="#323A4A"/>
<path opacity="0.01" fill-rule="evenodd" clip-rule="evenodd" d="M220.08 44.8005C237.429 44.8171 251.481 58.851 251.47 76.1499C251.459 93.4488 237.389 107.465 220.04 107.459C202.691 107.454 188.63 93.4289 188.63 76.13C188.646 58.8224 202.722 44.8005 220.08 44.8005Z" fill="white" stroke="#323A4A" stroke-width="0.6" stroke-linecap="round" stroke-linejoin="round"/>
<path fill-rule="evenodd" clip-rule="evenodd" d="M220.08 44.8005C237.429 44.8171 251.481 58.851 251.47 76.1499C251.459 93.4488 237.389 107.465 220.04 107.459C202.691 107.454 188.63 93.4289 188.63 76.13C188.646 58.8224 202.722 44.8005 220.08 44.8005Z" fill="white" stroke="#323A4A" stroke-width="0.6" stroke-linecap="round" stroke-linejoin="round"/>
<path fill-rule="evenodd" clip-rule="evenodd" d="M202.28 103.301C213.486 103.301 222.57 94.2435 222.57 83.0699C222.57 71.8963 213.486 62.8384 202.28 62.8384C191.074 62.8384 181.99 71.8963 181.99 83.0699C181.99 94.2435 191.074 103.301 202.28 103.301Z" fill="white" stroke="#323A4A" stroke-width="0.6" stroke-linecap="round" stroke-linejoin="round"/>
<path fill-rule="evenodd" clip-rule="evenodd" d="M231.6 75.2425C233.113 75.2425 234.34 74.0193 234.34 72.5104C234.34 71.0015 233.113 69.7783 231.6 69.7783C230.087 69.7783 228.86 71.0015 228.86 72.5104C228.86 74.0193 230.087 75.2425 231.6 75.2425Z" fill="#323A4A"/>
<path fill-rule="evenodd" clip-rule="evenodd" d="M206.96 76.1897C208.992 76.1897 210.64 74.5469 210.64 72.5203C210.64 70.4938 208.992 68.851 206.96 68.851C204.927 68.851 203.28 70.4938 203.28 72.5203C203.28 74.5469 204.927 76.1897 206.96 76.1897Z" fill="#323A4A"/>
<path d="M222.34 62.6987L222.57 89.0725L216.64 89.9001" stroke="#323A4A" stroke-width="0.6" stroke-linecap="round" stroke-linejoin="round"/>
<path fill-rule="evenodd" clip-rule="evenodd" d="M237.09 90.3688C240.326 90.3688 242.95 87.7528 242.95 84.5257C242.95 81.2987 240.326 78.6826 237.09 78.6826C233.854 78.6826 231.23 81.2987 231.23 84.5257C231.23 87.7528 233.854 90.3688 237.09 90.3688Z" fill="#FF756B"/>
<path fill-rule="evenodd" clip-rule="evenodd" d="M203.59 98.7845C207.942 98.7845 211.47 95.2667 211.47 90.9272C211.47 86.5878 207.942 83.0699 203.59 83.0699C199.238 83.0699 195.71 86.5878 195.71 90.9272C195.71 95.2667 199.238 98.7845 203.59 98.7845Z" fill="#FF756B"/>
<path d="M237.32 85.9316C237.32 85.9316 236.92 95.5538 228.48 96.4612" stroke="#323A4A" stroke-width="0.6" stroke-linecap="round" stroke-linejoin="round"/>
<path fill-rule="evenodd" clip-rule="evenodd" d="M327.66 187.359C327.66 187.359 359.78 292.943 291.36 294.359C291.36 294.359 295.78 233.994 287.58 205.287C287.58 205.287 321.65 180.817 327.66 187.359Z" fill="white" stroke="#323A4A" stroke-width="0.6" stroke-linecap="round" stroke-linejoin="round"/>
<path fill-rule="evenodd" clip-rule="evenodd" d="M290.14 206.204C291.38 223.155 301.19 233.236 295.04 286.971C288.63 342.869 264.04 345.492 215.92 345.492C168.77 345.492 152.01 330.914 153.06 289.154C153.06 288.297 153.06 287.429 153.14 286.542C154.01 265.373 166.46 231.621 172.97 215.278C175.31 209.415 176.88 205.785 176.88 205.785C160.373 208.196 143.618 203.481 130.81 192.823C139.07 154.853 181.31 135.319 181.31 135.319L194.9 126.973C194.9 126.973 198.18 134.432 210.69 137.164C215.184 138.084 219.785 138.376 224.36 138.031C225.76 137.951 227.09 137.842 228.36 137.722C255.12 135.219 253.1 125.757 253.1 125.757C320.1 135.219 327.7 187.349 327.7 187.349C318.205 198.379 304.682 205.168 290.14 206.204Z" fill="#FF756B" stroke="#323A4A" stroke-width="0.6" stroke-linecap="round" stroke-linejoin="round"/>
<g opacity="0.1">
<path fill-rule="evenodd" clip-rule="evenodd" d="M296.51 257.665C289.96 313.574 264.82 316.186 215.62 316.186C177.86 316.186 159.17 307.212 153.36 283.281C153.26 284.378 153.18 285.455 153.14 286.492C153.1 287.529 153.07 288.247 153.06 289.104C152.01 330.864 168.77 345.442 215.92 345.442C264.04 345.442 288.63 342.819 295.04 286.921C296.43 275.654 297.098 264.31 297.04 252.959C296.87 254.504 296.7 256.07 296.51 257.665Z" fill="#323A4A"/>
</g>
<path opacity="0.3" fill-rule="evenodd" clip-rule="evenodd" d="M234.59 155.391C224.87 157.704 221.31 172.85 223.16 189.293C225.01 205.735 230.54 293.861 172.73 293.861C164.82 293.861 158.34 292.136 153.06 289.154C153.06 288.297 153.06 287.429 153.14 286.542C154.01 265.373 166.46 231.621 172.97 215.278C175.213 215.284 177.452 215.091 179.66 214.699C179.66 174.197 201.55 146.048 201.55 146.048C204.21 142.727 207.281 139.755 210.69 137.203C215.98 133.365 222.69 130.732 228.31 135.598C229.07 136.256 228.94 137.014 228.36 137.762C227.36 139.098 224.93 140.404 223.55 141.072C225.39 140.285 229.33 138.919 230.55 140.963C231.68 142.777 228.36 145.4 226.09 146.945C227.77 146.098 230.16 145.37 231.59 147.075C233.59 149.388 230.27 152.17 229.01 153.058C234.47 149.388 238.38 154.484 234.59 155.391Z" fill="#323A4A"/>
<path opacity="0.3" fill-rule="evenodd" clip-rule="evenodd" d="M178.79 158.931L192.79 151.043C192.79 151.043 194.39 144.482 219.06 143.067C250.93 141.282 251.54 148.052 251.54 148.052C294.54 153.626 314.95 176.55 323.34 191.746C324.883 190.33 326.342 188.825 327.71 187.239C327.71 187.239 320.16 135.11 253.11 125.647C253.11 125.647 255.32 136.087 224.37 137.971C200.37 139.437 194.9 126.903 194.9 126.903L181.32 135.259C181.32 135.259 139.08 154.793 130.82 192.763C131.941 193.752 133.12 194.674 134.35 195.525C149.55 171.345 178.79 158.931 178.79 158.931Z" fill="#323A4A"/>
<path opacity="0.3" fill-rule="evenodd" clip-rule="evenodd" d="M181.31 135.329C181.31 135.329 190.5 132.866 196.26 128.698C196.26 128.698 204.58 137.981 224.65 141.202L214.81 164.136C201.3 158.911 189.34 147.922 181.31 135.329Z" fill="#323A4A"/>
<path opacity="0.3" fill-rule="evenodd" clip-rule="evenodd" d="M270.08 131.779C270.08 131.779 258.99 132.517 252.7 129.336C252.7 129.336 250.47 138.859 223.39 141.591L233.81 164.185C247.31 158.911 262.05 144.373 270.08 131.779Z" fill="#323A4A"/>
<path d="M185 204.17C185 204.17 196.86 230.663 227.54 220.124" stroke="#323A4A" stroke-width="0.6" stroke-linecap="round" stroke-linejoin="round"/>
<path d="M280.41 204.17C280.41 204.17 268.56 230.663 237.87 220.124" stroke="#323A4A" stroke-width="0.6" stroke-linecap="round" stroke-linejoin="round"/>
<path fill-rule="evenodd" clip-rule="evenodd" d="M221.79 31.9975C268.23 30.9206 267.64 71.6927 267.64 95.813C267.64 124.141 300.99 119.744 316.12 138.689C329.88 155.859 318.79 164.943 318.79 164.943C302.63 138.111 274 133.614 256.55 127.432C239.1 121.25 239.55 100.769 239.55 100.769C258.96 86.0612 246.29 59.1191 246.29 59.1191C246.29 59.1191 250.19 66.4379 242.94 66.4379C233.7 66.4379 230.04 56.716 230.04 56.716C242.99 80.8064 199.87 56.716 202.31 50.6137L198.25 50.4242C198.25 50.4242 201 32.9846 221.79 31.9975Z" fill="#323A4A"/>
<path fill-rule="evenodd" clip-rule="evenodd" d="M181.31 135.329C181.31 135.329 190.5 129.217 196.26 125.049C196.26 125.049 204.58 134.322 224.65 137.542L214.81 160.536C201.3 155.261 189.34 147.922 181.31 135.329Z" fill="white" stroke="#323A4A" stroke-width="0.6" stroke-linecap="round" stroke-linejoin="round"/>
<path fill-rule="evenodd" clip-rule="evenodd" d="M270.08 131.779C270.08 131.779 259 128.858 252.7 125.637C252.7 125.637 250.47 135.159 223.39 137.891L233.81 160.536C247.31 155.261 262.05 144.373 270.08 131.779Z" fill="white" stroke="#323A4A" stroke-width="0.6" stroke-linecap="round" stroke-linejoin="round"/>
<path fill-rule="evenodd" clip-rule="evenodd" d="M240.69 191.387C237.14 192.853 235.15 190.629 234.12 188.565C234.12 188.565 236.38 183.938 243.01 185.324C243.61 188.076 243.11 190.45 240.69 191.387Z" stroke="#323A4A" stroke-width="0.6" stroke-linecap="round" stroke-linejoin="round"/>
<path fill-rule="evenodd" clip-rule="evenodd" d="M243 185.324C236.37 183.938 234.11 188.565 234.11 188.565C233.662 187.683 233.326 186.748 233.11 185.783L206.62 105.555L212.78 102.564C212.78 102.564 240.83 179.212 242.27 182.941C242.581 183.714 242.825 184.511 243 185.324Z" fill="white" stroke="#323A4A" stroke-width="0.6" stroke-linecap="round" stroke-linejoin="round"/>
<path fill-rule="evenodd" clip-rule="evenodd" d="M198.79 137.084C198.79 137.084 176.9 165.232 176.9 205.735C176.9 205.735 154.59 210.472 130.81 192.833C130.81 192.833 112.16 284.897 169.97 284.897C227.78 284.897 222.24 196.741 220.4 180.329C218.56 163.916 222.11 148.76 231.83 146.427C235.73 145.499 231.48 140.135 225.83 144.433C225.83 144.433 231.26 140.913 228.83 138.071C226.4 135.229 221.4 139.148 221.4 139.148C221.4 139.148 229.46 134.691 227.79 131.998C226.12 129.306 219.79 132.567 219.79 132.567C219.79 132.567 228.21 128.967 225.52 126.584C214.33 116.922 198.79 137.084 198.79 137.084Z" fill="white" stroke="#323A4A" stroke-width="0.6" stroke-linecap="round" stroke-linejoin="round"/>
<path d="M162.75 242.3C162.75 242.3 178.8 240.983 176.9 205.735" stroke="#323A4A" stroke-width="0.6" stroke-linecap="round" stroke-linejoin="round"/>
<g opacity="0.01">
<path fill-rule="evenodd" clip-rule="evenodd" d="M204.23 59.9966C191.031 59.2262 179.705 69.2704 178.932 82.4312C178.159 95.592 188.232 106.886 201.431 107.657C214.629 108.428 225.956 98.3844 226.73 85.2237C227.101 78.9032 224.94 72.6945 220.72 67.9634C216.5 63.2323 210.569 60.3666 204.23 59.9966ZM201.7 103.152C193.858 102.695 187.065 97.5725 184.488 90.1736C181.911 82.7748 184.058 74.5566 189.927 69.3515C195.797 64.1464 204.233 62.9794 211.302 66.3949C218.37 69.8104 222.68 77.1355 222.22 84.9545C221.592 95.6292 212.406 103.776 201.7 103.152Z" fill="white"/>
<path d="M226.73 85.2237L226.43 85.2061L226.73 85.2237ZM222.22 84.9545L221.92 84.9368L222.22 84.9545ZM204.247 59.6971C190.884 58.9171 179.415 69.0867 178.632 82.4136L179.231 82.4488C179.995 69.4542 191.178 59.5353 204.212 60.2961L204.247 59.6971ZM178.632 82.4136C177.85 95.7407 188.05 107.176 201.413 107.956L201.448 107.357C188.414 106.596 178.468 95.4434 179.231 82.4488L178.632 82.4136ZM201.413 107.956C214.776 108.737 226.246 98.5682 227.029 85.2413L226.43 85.2061C225.666 98.2007 214.482 108.119 201.448 107.357L201.413 107.956ZM227.029 85.2413C227.406 78.8411 225.216 72.5542 220.944 67.7637L220.496 68.1631C224.663 72.8347 226.797 78.9653 226.43 85.2061L227.029 85.2413ZM220.944 67.7637C216.671 62.9733 210.665 60.0717 204.247 59.6971L204.212 60.2961C210.472 60.6614 216.329 63.4914 220.496 68.1631L220.944 67.7637ZM201.717 102.852C193.996 102.402 187.308 97.3589 184.771 90.075L184.205 90.2723C186.822 97.7861 193.72 102.987 201.682 103.451L201.717 102.852ZM184.771 90.075C182.234 82.7911 184.348 74.7005 190.126 69.5759L189.728 69.127C183.768 74.4127 181.588 82.7584 184.205 90.2723L184.771 90.075ZM190.126 69.5759C195.905 64.4512 204.211 63.3022 211.171 66.665L211.432 66.1248C204.254 62.6567 195.688 63.8415 189.728 69.127L190.126 69.5759ZM211.171 66.665C218.131 70.0278 222.373 77.2396 221.92 84.9368L222.519 84.9721C222.986 77.0315 218.61 69.5929 211.432 66.1248L211.171 66.665ZM221.92 84.9368C221.302 95.4454 212.258 103.467 201.717 102.852L201.682 103.451C212.553 104.085 221.882 95.8129 222.519 84.9721L221.92 84.9368Z" fill="#323A4A"/>
</g>
<path fill-rule="evenodd" clip-rule="evenodd" d="M178.932 82.4312C179.705 69.2704 191.031 59.2262 204.23 59.9966C210.569 60.3666 216.5 63.2323 220.72 67.9634C224.94 72.6945 227.101 78.9032 226.73 85.2237C225.956 98.3844 214.629 108.428 201.431 107.657C188.232 106.886 178.159 95.592 178.932 82.4312ZM184.488 90.1736C187.065 97.5725 193.858 102.695 201.7 103.152C212.406 103.776 221.592 95.6292 222.22 84.9545C222.68 77.1355 218.37 69.8104 211.302 66.3949C204.233 62.9794 195.797 64.1464 189.927 69.3515C184.058 74.5566 181.911 82.7748 184.488 90.1736Z" fill="white"/>
<path d="M204.23 59.9966L204.212 60.2961L204.23 59.9966ZM178.932 82.4312L178.632 82.4136L178.932 82.4312ZM220.72 67.9634L220.496 68.1631L220.72 67.9634ZM226.73 85.2237L227.029 85.2413V85.2413L226.73 85.2237ZM201.431 107.657L201.413 107.956L201.431 107.657ZM201.7 103.152L201.717 102.852H201.717L201.7 103.152ZM184.488 90.1736L184.205 90.2723L184.488 90.1736ZM222.22 84.9545L221.92 84.9368L222.22 84.9545ZM211.302 66.3949L211.432 66.1248L211.302 66.3949ZM189.927 69.3515L189.728 69.127L189.927 69.3515ZM204.247 59.6971C190.884 58.9171 179.415 69.0867 178.632 82.4136L179.231 82.4488C179.995 69.4542 191.178 59.5353 204.212 60.2961L204.247 59.6971ZM220.944 67.7637C216.671 62.9733 210.665 60.0717 204.247 59.6971L204.212 60.2961C210.472 60.6614 216.329 63.4914 220.496 68.1631L220.944 67.7637ZM227.029 85.2413C227.406 78.8411 225.216 72.5542 220.944 67.7637L220.496 68.1631C224.663 72.8347 226.797 78.9653 226.43 85.2061L227.029 85.2413ZM201.413 107.956C214.776 108.737 226.246 98.5682 227.029 85.2413L226.43 85.2061C225.666 98.2007 214.482 108.119 201.448 107.357L201.413 107.956ZM178.632 82.4136C177.85 95.7407 188.05 107.176 201.413 107.956L201.448 107.357C188.414 106.596 178.468 95.4434 179.231 82.4488L178.632 82.4136ZM201.717 102.852C193.996 102.402 187.308 97.3589 184.771 90.075L184.205 90.2723C186.822 97.7861 193.72 102.987 201.682 103.451L201.717 102.852ZM221.92 84.9368C221.302 95.4454 212.258 103.467 201.717 102.852L201.682 103.451C212.553 104.085 221.882 95.8129 222.519 84.9721L221.92 84.9368ZM211.171 66.665C218.131 70.0278 222.373 77.2396 221.92 84.9368L222.519 84.9721C222.986 77.0315 218.61 69.5929 211.432 66.1248L211.171 66.665ZM190.126 69.5759C195.905 64.4512 204.211 63.3022 211.171 66.665L211.432 66.1248C204.254 62.6567 195.688 63.8415 189.728 69.127L190.126 69.5759ZM184.771 90.075C182.234 82.7911 184.348 74.7005 190.126 69.5759L189.728 69.127C183.768 74.4127 181.588 82.7584 184.205 90.2723L184.771 90.075Z" fill="#323A4A"/>
<path d="M192.36 41.0713C192.36 41.0713 198.21 38.389 199.36 43.6737" stroke="#323A4A" stroke-width="0.6" stroke-linecap="round" stroke-linejoin="round"/>
<path d="M202.83 34.2211C200.743 36.141 199.849 39.0305 200.49 41.7892" stroke="#323A4A" stroke-width="0.6" stroke-linecap="round" stroke-linejoin="round"/>
<path d="M211.89 39.6753C211.89 39.6753 247.65 29.8039 259.71 61.0635C270.48 88.9828 255.54 113.831 273.08 121.987C290.62 130.144 310.52 140.344 316.27 150.246" stroke="white" stroke-width="0.6" stroke-linecap="round" stroke-linejoin="round"/>
<path d="M208 49.0383C208 49.0383 215.54 60.0066 226.8 62.6988" stroke="white" stroke-width="0.6" stroke-linecap="round" stroke-linejoin="round"/>
<path d="M231.6 52.2689C231.6 52.2689 232.75 63.2372 244.36 64.4537" stroke="white" stroke-width="0.6" stroke-linecap="round" stroke-linejoin="round"/>
<path d="M229.26 43.6738C229.26 43.6738 253.57 48.2406 256.86 73.5874" stroke="white" stroke-width="0.6" stroke-linecap="round" stroke-linejoin="round"/>
<path d="M290.14 206.204C290.14 206.204 285.76 189.153 281.32 184.128" stroke="#323A4A" stroke-width="0.6" stroke-linecap="round" stroke-linejoin="round"/>
<path fill-rule="evenodd" clip-rule="evenodd" d="M327.7 187.309C318.22 198.373 304.695 205.195 290.14 206.254C290.14 206.254 288.96 201.627 287.19 196.482C296.73 194.488 315.48 189.303 324.95 177.607C326.177 180.745 327.098 183.994 327.7 187.309Z" fill="#404A59" stroke="#323A4A" stroke-width="0.6"/>
<path fill-rule="evenodd" clip-rule="evenodd" d="M325 177.557C323.005 179.974 320.706 182.126 318.16 183.958C319.325 187.217 320.277 190.548 321.01 193.93C323.44 191.93 325.694 189.729 327.75 187.349C327.154 184.004 326.233 180.724 325 177.557Z" fill="#323A4A"/>
<path fill-rule="evenodd" clip-rule="evenodd" d="M177.26 196.632C177.03 199.623 176.89 202.614 176.89 205.735L176.52 205.805H176.27C175.05 205.975 173.86 206.094 172.68 206.184C165.1 206.643 148.4 205.795 130.9 192.823C130.9 192.823 130.9 192.823 130.85 192.823C131.539 189.686 132.465 186.606 133.62 183.609C140.77 188.206 160.65 199.543 177.26 196.632Z" fill="#404A59" stroke="#323A4A" stroke-width="0.6"/>
<path d="M248 98.4655C248 98.4655 245 117.411 264 124.949" stroke="white" stroke-width="0.6" stroke-linecap="round" stroke-linejoin="round"/>
<path d="M256.86 77.1072C257.008 79.2285 257.008 81.3575 256.86 83.4788" stroke="white" stroke-width="0.6" stroke-linecap="round" stroke-linejoin="round"/>
<path d="M271.51 81.285C271.51 81.285 269.7 116.663 292.18 117.969" stroke="#323A4A" stroke-width="0.6" stroke-linecap="round" stroke-linejoin="round"/>
<path fill-rule="evenodd" clip-rule="evenodd" d="M140.21 187.518C137.48 186.032 135.21 184.656 133.58 183.619C132.425 186.616 131.499 189.696 130.81 192.833C130.81 192.833 130.81 192.833 130.86 192.833C133.018 194.44 135.265 195.925 137.59 197.28C138.286 193.981 139.16 190.722 140.21 187.518Z" fill="#323A4A"/>
<path fill-rule="evenodd" clip-rule="evenodd" d="M172.4 280.11C174.968 280.11 177.05 279.289 177.05 278.276C177.05 277.262 174.968 276.441 172.4 276.441C169.832 276.441 167.75 277.262 167.75 278.276C167.75 279.289 169.832 280.11 172.4 280.11Z" fill="white" stroke="#323A4A" stroke-width="0.6" stroke-linecap="round" stroke-linejoin="round"/>
<path fill-rule="evenodd" clip-rule="evenodd" d="M317.569 277.737C319.385 275.926 320.275 273.878 319.556 273.161C318.838 272.445 316.783 273.332 314.967 275.142C313.151 276.953 312.261 279.002 312.98 279.718C313.699 280.435 315.753 279.548 317.569 277.737Z" fill="white" stroke="#323A4A" stroke-width="0.6" stroke-linecap="round" stroke-linejoin="round"/>
</svg>
